# 3ds Max Wavefront OBJ Exporter v0.97b - (c)2007 guruware
# File Created: 30.01.2015 10:54:59

mtllib l_hand.mtl

#
# object l_hand
#

v  -0.0095 0.1130 0.0288
v  0.0093 0.1130 0.0288
v  0.0245 0.1130 0.0177
v  0.0245 0.1130 -0.0180
v  -0.0306 0.1130 -0.0002
v  -0.0248 0.1130 0.0177
v  -0.0095 0.1130 -0.0291
v  -0.0248 0.1130 -0.0180
v  0.0093 0.1130 -0.0291
v  0.0303 0.1130 -0.0002
v  0.0303 0.0926 -0.0002
v  0.0245 0.0926 0.0177
v  0.0093 0.0926 0.0288
v  -0.0095 0.0926 0.0288
v  -0.0248 0.0926 0.0177
v  -0.0306 0.0926 -0.0002
v  -0.0248 0.0926 -0.0180
v  -0.0095 0.0926 -0.0291
v  0.0093 0.0926 -0.0291
v  0.0245 0.0926 -0.0180
v  0.0384 0.0926 -0.0002
v  0.0311 0.0926 0.0225
v  0.0118 0.0926 0.0365
v  -0.0121 0.0926 0.0365
v  -0.0314 0.0926 0.0225
v  -0.0387 0.0926 -0.0002
v  -0.0314 0.0926 -0.0228
v  -0.0121 0.0926 -0.0368
v  0.0118 0.0926 -0.0368
v  0.0311 0.0926 -0.0228
v  0.0405 0.0816 0.0167
v  0.0405 0.0924 0.0167
v  0.0387 0.0924 0.0219
v  0.0387 0.0816 0.0219
v  0.0311 0.0815 0.0225
v  0.0118 0.0815 0.0365
v  -0.0121 0.0815 0.0365
v  -0.0314 0.0815 0.0225
v  -0.0393 0.0816 0.0219
v  -0.0393 0.0924 0.0219
v  -0.0407 0.0924 0.0173
v  -0.0407 0.0816 0.0173
v  -0.0440 0.0816 -0.0085
v  -0.0440 0.0924 -0.0085
v  -0.0420 0.0924 -0.0134
v  -0.0420 0.0816 -0.0134
v  -0.0314 0.0815 -0.0228
v  -0.0121 0.0815 -0.0368
v  0.0118 0.0815 -0.0368
v  0.0311 0.0815 -0.0228
v  0.0388 0.0816 -0.0221
v  0.0388 0.0924 -0.0221
v  0.0406 0.0924 -0.0179
v  0.0406 0.0816 -0.0179
v  0.0509 0.0815 -0.0002
v  0.0384 0.0815 -0.0002
v  0.0412 0.0815 0.0299
v  0.0156 0.0815 0.0484
v  -0.0159 0.0815 0.0484
v  -0.0414 0.0815 0.0299
v  -0.0387 0.0815 -0.0002
v  -0.0512 0.0815 -0.0002
v  -0.0414 0.0815 -0.0302
v  -0.0159 0.0815 -0.0487
v  0.0156 0.0815 -0.0487
v  0.0412 0.0815 -0.0302
v  0.0509 0.0673 -0.0002
v  0.0412 0.0673 0.0299
v  0.0156 0.0673 0.0484
v  -0.0159 0.0673 0.0484
v  -0.0414 0.0673 0.0299
v  -0.0512 0.0673 -0.0002
v  -0.0414 0.0673 -0.0302
v  -0.0159 0.0673 -0.0487
v  0.0156 0.0673 -0.0487
v  0.0412 0.0673 -0.0302
v  0.0403 0.0499 -0.0002
v  0.0326 0.0499 0.0236
v  0.0124 0.0499 0.0383
v  -0.0127 0.0499 0.0383
v  -0.0329 0.0499 0.0236
v  -0.0406 0.0499 -0.0002
v  -0.0329 0.0499 -0.0239
v  -0.0127 0.0499 -0.0386
v  0.0124 0.0499 -0.0386
v  0.0326 0.0499 -0.0239
v  0.0403 0.0374 -0.0002
v  0.0326 0.0324 0.0236
v  0.0124 0.0407 0.0383
v  -0.0127 0.0407 0.0383
v  -0.0329 0.0324 0.0236
v  -0.0406 0.0374 -0.0002
v  -0.0329 0.0324 -0.0239
v  -0.0127 0.0396 -0.0386
v  0.0124 0.0396 -0.0386
v  0.0326 0.0324 -0.0239
v  -0.0144 0.0369 -0.0002
v  -0.0145 0.0294 0.0283
v  -0.0147 0.0287 -0.0285
v  0.0139 0.0294 0.0283
v  0.0147 0.0369 -0.0002
v  0.0143 0.0287 -0.0285
v  -0.0147 0.0103 -0.0382
v  -0.0147 -0.0145 -0.0382
v  -0.0147 -0.0345 -0.0237
v  -0.0147 0.0103 0.0379
v  -0.0147 -0.0345 0.0234
v  -0.0147 -0.0145 0.0379
v  -0.0147 -0.0421 -0.0002
v  0.0143 -0.0421 -0.0002
v  0.0143 -0.0345 0.0234
v  0.0143 -0.0145 0.0379
v  0.0143 0.0103 0.0379
v  0.0143 0.0103 -0.0382
v  0.0143 -0.0145 -0.0382
v  0.0143 -0.0345 -0.0237
v  0.0352 0.0924 0.0099
v  0.0313 0.0924 0.0219
v  0.0352 0.0816 0.0099
v  0.0313 0.0816 0.0219
v  0.0311 0.0924 -0.0227
v  0.0351 0.0924 -0.0106
v  0.0311 0.0816 -0.0227
v  0.0351 0.0816 -0.0106
v  -0.0315 0.0924 0.0222
v  -0.0353 0.0924 0.0104
v  -0.0315 0.0816 0.0222
v  -0.0353 0.0816 0.0104
v  -0.0378 0.0924 -0.0032
v  -0.0344 0.0924 -0.0136
v  -0.0378 0.0816 -0.0032
v  -0.0344 0.0816 -0.0136
v  -0.0348 0.0924 0.0232
v  -0.0378 0.0924 0.0129
v  -0.0348 0.0816 0.0232
v  -0.0378 0.0816 0.0129
v  -0.0409 0.0924 -0.0042
v  -0.0375 0.0924 -0.0146
v  -0.0409 0.0816 -0.0042
v  -0.0375 0.0816 -0.0146
v  0.0376 0.0924 0.0125
v  0.0343 0.0924 0.0230
v  0.0376 0.0816 0.0125
v  0.0343 0.0816 0.0230
v  0.0347 0.0924 -0.0236
v  0.0387 0.0924 -0.0140
v  0.0347 0.0816 -0.0236
v  0.0387 0.0816 -0.0140
# 148 vertices

vn 0.0000 1.0000 0.0000
vn 0.8090 0.0000 0.5878
vn 1.0000 0.0000 0.0000
vn 0.3090 0.0000 0.9511
vn -0.3090 0.0000 0.9511
vn -0.8090 0.0000 0.5878
vn -1.0000 0.0000 0.0000
vn -0.8090 0.0000 -0.5878
vn -0.3090 0.0000 -0.9511
vn 0.3090 0.0000 -0.9511
vn 0.8090 0.0000 -0.5878
vn 0.9453 0.0000 0.3262
vn 0.8092 0.0000 0.5875
vn -0.7996 -0.0137 0.6004
vn -0.7996 0.0137 0.6004
vn -0.9529 0.0000 0.3033
vn -0.9263 0.0000 -0.3769
vn 0.7550 -0.0900 -0.6495
vn 0.7549 0.0900 -0.6497
vn 0.9222 0.0000 -0.3868
vn 0.7816 -0.2579 0.5680
vn 0.9662 -0.2579 0.0000
vn 0.2986 -0.2579 0.9189
vn -0.2986 -0.2579 0.9189
vn -0.7816 -0.2578 0.5680
vn -0.9662 -0.2578 0.0000
vn -0.7816 -0.2578 -0.5679
vn -0.2986 -0.2579 -0.9189
vn 0.2986 -0.2579 -0.9189
vn 0.7816 -0.2579 -0.5680
vn 0.7753 -0.2853 0.5634
vn 0.9584 -0.2853 0.0000
vn 0.2963 -0.2854 0.9115
vn -0.2963 -0.2854 0.9115
vn -0.7753 -0.2853 0.5634
vn -0.9584 -0.2853 0.0000
vn -0.7754 -0.2853 -0.5634
vn -0.2963 -0.2854 -0.9115
vn 0.2963 -0.2854 -0.9115
vn 0.7753 -0.2853 -0.5634
vn 0.7550 -0.1282 0.6431
vn 0.2494 -0.3013 0.9203
vn -0.2490 -0.3005 0.9207
vn -0.7552 -0.1266 0.6431
vn -0.7565 -0.1267 -0.6416
vn -0.2498 -0.3120 -0.9167
vn 0.2500 -0.3120 -0.9166
vn 0.7565 -0.1267 -0.6416
vn -0.0216 -0.9998 0.0000
vn -0.0942 -0.9626 -0.2540
vn -0.0617 -0.9711 -0.2304
vn -0.0591 -0.9982 0.0042
vn -0.1238 -0.9533 0.2753
vn -0.0784 -0.9669 0.2427
vn -0.1577 -0.6424 0.7500
vn -0.1691 -0.6555 -0.7360
vn 0.1532 -0.6456 0.7482
vn 0.0933 -0.9634 -0.2513
vn 0.0221 -0.9998 0.0000
vn 0.0620 -0.9714 -0.2293
vn 0.0592 -0.9982 0.0038
vn 0.1239 -0.9542 0.2723
vn 0.0793 -0.9672 0.2414
vn 0.1670 -0.6576 -0.7346
vn -1.0000 0.0023 0.0011
vn -1.0000 0.0015 0.0004
vn -1.0000 -0.0008 0.0065
vn -0.9999 -0.0099 0.0137
vn -1.0000 0.0053 -0.0031
vn -1.0000 0.0031 -0.0023
vn 0.0000 -1.0000 0.0000
vn 0.0000 -0.8089 0.5880
vn 0.0000 -0.3090 0.9511
vn 0.0000 0.2304 0.9731
vn 0.0000 0.2311 0.9729
vn 0.0000 0.4501 0.8930
vn 0.0000 0.4660 -0.8848
vn 0.0000 0.2396 -0.9709
vn 0.0000 0.2403 -0.9707
vn 0.0000 -0.3090 -0.9511
vn 0.0000 -0.8089 -0.5880
vn 1.0000 0.0015 0.0023
vn 1.0000 -0.0031 0.0008
vn 0.9999 0.0046 0.0134
vn 0.9986 0.0374 0.0374
vn 0.9998 0.0084 -0.0172
vn 1.0000 -0.0023 -0.0057
vn 0.9511 -0.0031 0.3090
vn 1.0000 0.0008 0.0011
vn 0.9509 0.0160 0.3090
vn 1.0000 -0.0008 0.0011
vn 0.9506 -0.0313 0.3090
vn 0.9512 0.0015 0.3086
vn 0.9492 0.0717 -0.3063
vn 0.8569 0.1374 -0.4968
vn 0.8571 -0.1381 -0.4963
vn 0.9434 -0.1289 -0.3055
vn -0.9432 0.1289 0.3063
vn -1.0000 0.0015 0.0008
vn -0.9438 0.0534 0.3262
vn -0.9437 -0.0519 0.3266
vn -1.0000 -0.0015 0.0008
vn -0.9468 -0.0977 0.3067
vn -0.9501 -0.0404 -0.3094
vn -0.9506 0.0435 -0.3075
vn -0.9498 -0.0565 -0.3079
vn -0.9511 0.0008 -0.3090
vn 0.0107 0.0000 0.9999
vn 0.3021 0.0000 0.9533
vn -0.7746 0.0000 -0.6324
vn -0.7127 0.0000 -0.7015
vn -0.2817 0.0000 0.9595
vn -0.8298 0.0000 -0.5580
vn -0.5913 0.0000 0.8065
vn -0.3100 0.0000 0.9507
vn 0.0318 0.0000 -0.9995
vn 0.3101 0.0000 -0.9507
vn -0.8136 0.0000 0.5814
vn -0.2489 0.0000 -0.9685
vn 0.7733 0.0000 -0.6340
vn 0.7241 0.0000 -0.6897
vn -0.0599 0.0000 0.9982
vn -0.3575 0.0000 0.9339
vn 0.8182 0.0000 -0.5750
vn 0.2432 0.0000 0.9700
vn 0.0546 0.0000 -0.9985
vn -0.2396 0.0000 -0.9709
vn 0.8062 0.0000 0.5916
vn 0.6821 0.0000 0.7313
vn 0.3441 0.0000 -0.9389
vn 0.9021 0.0000 0.4314
# 131 vertex normals

vt 0.5245 0.2670 0.0000
vt 0.5294 0.2603 0.0000
vt 0.5294 0.2520 0.0000
vt 0.5166 0.2427 0.0000
vt 0.5087 0.2670 0.0000
vt 0.5166 0.2696 0.0000
vt 0.5038 0.2520 0.0000
vt 0.5038 0.2603 0.0000
vt 0.5087 0.2453 0.0000
vt 0.5245 0.2453 0.0000
vt 0.0149 0.2050 0.0000
vt 0.0022 0.2051 0.0000
vt 0.0023 0.2168 0.0000
vt 0.0150 0.2167 0.0000
vt 0.0024 0.2285 0.0000
vt 0.0151 0.2284 0.0000
vt 0.0025 0.2402 0.0000
vt 0.0152 0.2401 0.0000
vt 0.0026 0.2519 0.0000
vt 0.0153 0.2518 0.0000
vt 0.0027 0.2636 0.0000
vt 0.0154 0.2635 0.0000
vt 0.0028 0.2752 0.0000
vt 0.0155 0.2751 0.0000
vt 0.0029 0.2869 0.0000
vt 0.0156 0.2868 0.0000
vt 0.0146 0.1700 0.0000
vt 0.0019 0.1701 0.0000
vt 0.0020 0.1818 0.0000
vt 0.0147 0.1817 0.0000
vt 0.0021 0.1935 0.0000
vt 0.0148 0.1933 0.0000
vt 0.5280 0.2410 0.0000
vt 0.5255 0.2444 0.0000
vt 0.5312 0.2522 0.0000
vt 0.5352 0.2509 0.0000
vt 0.5312 0.2618 0.0000
vt 0.5352 0.2631 0.0000
vt 0.5255 0.2696 0.0000
vt 0.5280 0.2730 0.0000
vt 0.5164 0.2726 0.0000
vt 0.5164 0.2767 0.0000
vt 0.5072 0.2696 0.0000
vt 0.5048 0.2730 0.0000
vt 0.5016 0.2618 0.0000
vt 0.4976 0.2631 0.0000
vt 0.5016 0.2522 0.0000
vt 0.4976 0.2509 0.0000
vt 0.5072 0.2444 0.0000
vt 0.5048 0.2410 0.0000
vt 0.5164 0.2414 0.0000
vt 0.5164 0.2372 0.0000
vt 0.2889 0.1108 0.0000
vt 0.2956 0.1118 0.0000
vt 0.2961 0.1084 0.0000
vt 0.2895 0.1074 0.0000
vt 0.7133 0.4075 0.0000
vt 0.7202 0.4076 0.0000
vt 0.7203 0.3928 0.0000
vt 0.7134 0.3927 0.0000
vt 0.7204 0.3780 0.0000
vt 0.7135 0.3779 0.0000
vt 0.7206 0.3631 0.0000
vt 0.7137 0.3631 0.0000
vt 0.3113 0.1230 0.0000
vt 0.3119 0.1163 0.0000
vt 0.3088 0.1161 0.0000
vt 0.3083 0.1227 0.0000
vt 0.2895 0.1282 0.0000
vt 0.2962 0.1281 0.0000
vt 0.2962 0.1248 0.0000
vt 0.2895 0.1249 0.0000
vt 0.7139 0.3334 0.0000
vt 0.7208 0.3335 0.0000
vt 0.7209 0.3187 0.0000
vt 0.7140 0.3186 0.0000
vt 0.7210 0.3039 0.0000
vt 0.7141 0.3038 0.0000
vt 0.7130 0.4520 0.0000
vt 0.7199 0.4520 0.0000
vt 0.7200 0.4372 0.0000
vt 0.7131 0.4372 0.0000
vt 0.3429 0.1286 0.0000
vt 0.3444 0.1220 0.0000
vt 0.3416 0.1214 0.0000
vt 0.3401 0.1279 0.0000
vt 0.5332 0.2343 0.0000
vt 0.5292 0.2397 0.0000
vt 0.5367 0.2502 0.0000
vt 0.5431 0.2482 0.0000
vt 0.5366 0.2631 0.0000
vt 0.5430 0.2652 0.0000
vt 0.5289 0.2734 0.0000
vt 0.5328 0.2789 0.0000
vt 0.5167 0.2773 0.0000
vt 0.5166 0.2840 0.0000
vt 0.5045 0.2732 0.0000
vt 0.5005 0.2786 0.0000
vt 0.4970 0.2627 0.0000
vt 0.4906 0.2647 0.0000
vt 0.4971 0.2499 0.0000
vt 0.4908 0.2477 0.0000
vt 0.5048 0.2395 0.0000
vt 0.5009 0.2341 0.0000
vt 0.5170 0.2357 0.0000
vt 0.5171 0.2289 0.0000
vt 0.5722 0.0169 0.0000
vt 0.5725 0.0081 0.0000
vt 0.5522 0.0092 0.0000
vt 0.5535 0.0179 0.0000
vt 0.5324 0.0139 0.0000
vt 0.5352 0.0222 0.0000
vt 0.5123 0.0172 0.0000
vt 0.5173 0.0244 0.0000
vt 0.4928 0.0324 0.0000
vt 0.5008 0.0359 0.0000
vt 0.4872 0.0501 0.0000
vt 0.4960 0.0499 0.0000
vt 0.4876 0.0643 0.0000
vt 0.4962 0.0625 0.0000
vt 0.4925 0.0770 0.0000
vt 0.5006 0.0737 0.0000
vt 0.4991 0.0922 0.0000
vt 0.5071 0.0880 0.0000
vt 0.6009 0.0219 0.0000
vt 0.6024 0.0127 0.0000
vt 0.5926 0.0108 0.0000
vt 0.5908 0.0193 0.0000
vt 0.5717 0.0294 0.0000
vt 0.5553 0.0305 0.0000
vt 0.5393 0.0340 0.0000
vt 0.5246 0.0346 0.0000
vt 0.5124 0.0410 0.0000
vt 0.5085 0.0495 0.0000
vt 0.5086 0.0598 0.0000
vt 0.5121 0.0688 0.0000
vt 0.5170 0.0802 0.0000
vt 0.5980 0.0342 0.0000
vt 0.5879 0.0316 0.0000
vt 0.5714 0.0371 0.0000
vt 0.5568 0.0413 0.0000
vt 0.5411 0.0394 0.0000
vt 0.5326 0.0426 0.0000
vt 0.5225 0.0454 0.0000
vt 0.5207 0.0502 0.0000
vt 0.5193 0.0575 0.0000
vt 0.5181 0.0663 0.0000
vt 0.5226 0.0772 0.0000
vt 0.5969 0.0403 0.0000
vt 0.5856 0.0424 0.0000
vt 0.7377 0.2806 0.0000
vt 0.7227 0.2774 0.0000
vt 0.7244 0.2895 0.0000
vt 0.7375 0.2958 0.0000
vt 0.7508 0.2899 0.0000
vt 0.7528 0.2779 0.0000
vt 0.1956 0.2763 0.0000
vt 0.1854 0.2675 0.0000
vt 0.1858 0.2755 0.0000
vt 0.0636 0.2736 0.0000
vt 0.0584 0.2785 0.0000
vt 0.0635 0.2781 0.0000
vt 0.1851 0.2954 0.0000
vt 0.1955 0.2867 0.0000
vt 0.1857 0.2873 0.0000
vt 0.7774 0.2032 0.0000
vt 0.7926 0.2014 0.0000
vt 0.7847 0.1870 0.0000
vt 0.7720 0.1863 0.0000
vt 0.7883 0.2174 0.0000
vt 0.7763 0.2210 0.0000
vt 0.0634 0.2893 0.0000
vt 0.0634 0.2849 0.0000
vt 0.0583 0.2844 0.0000
vt 0.7586 0.2660 0.0000
vt 0.7588 0.2505 0.0000
vt 0.7510 0.2380 0.0000
vt 0.7177 0.2650 0.0000
vt 0.7257 0.2378 0.0000
vt 0.7179 0.2499 0.0000
vt 0.7384 0.2333 0.0000
vt 0.1239 0.2872 0.0000
vt 0.1399 0.2873 0.0000
vt 0.1400 0.2753 0.0000
vt 0.1240 0.2752 0.0000
vt 0.1559 0.2874 0.0000
vt 0.1560 0.2753 0.0000
vt 0.1718 0.2874 0.0000
vt 0.1720 0.2754 0.0000
vt 0.0759 0.2869 0.0000
vt 0.0761 0.2749 0.0000
vt 0.0919 0.2870 0.0000
vt 0.0921 0.2750 0.0000
vt 0.1079 0.2871 0.0000
vt 0.1080 0.2751 0.0000
vt 0.7587 0.1817 0.0000
vt 0.7431 0.1841 0.0000
vt 0.7320 0.1950 0.0000
vt 0.7653 0.2287 0.0000
vt 0.7364 0.2239 0.0000
vt 0.7501 0.2310 0.0000
vt 0.7295 0.2102 0.0000
vt 0.7200 0.4158 0.0000
vt 0.7201 0.4224 0.0000
vt 0.7201 0.4080 0.0000
vt 0.7133 0.4158 0.0000
vt 0.7132 0.4224 0.0000
vt 0.7134 0.4080 0.0000
vt 0.7199 0.4371 0.0000
vt 0.7199 0.4292 0.0000
vt 0.7132 0.4371 0.0000
vt 0.7133 0.4292 0.0000
vt 0.7205 0.3629 0.0000
vt 0.7207 0.3483 0.0000
vt 0.7205 0.3552 0.0000
vt 0.7138 0.3629 0.0000
vt 0.7138 0.3551 0.0000
vt 0.7138 0.3483 0.0000
vt 0.7206 0.3464 0.0000
vt 0.7206 0.3395 0.0000
vt 0.7139 0.3463 0.0000
vt 0.7139 0.3395 0.0000
vt 0.3093 0.1102 0.0000
vt 0.3075 0.1091 0.0000
vt 0.3034 0.1156 0.0000
vt 0.3056 0.1158 0.0000
vt 0.3142 0.1232 0.0000
vt 0.3163 0.1234 0.0000
vt 0.3169 0.1168 0.0000
vt 0.3148 0.1166 0.0000
vt 0.3050 0.1224 0.0000
vt 0.3028 0.1222 0.0000
vt 0.3057 0.1294 0.0000
vt 0.3077 0.1285 0.0000
vt 0.3105 0.1129 0.0000
vt 0.3088 0.1154 0.0000
vt 0.3082 0.1233 0.0000
vt 0.3093 0.1261 0.0000
vt 0.3030 0.1218 0.0000
vt 0.3030 0.1198 0.0000
vt 0.2962 0.1199 0.0000
vt 0.2962 0.1219 0.0000
vt 0.2896 0.1315 0.0000
vt 0.2896 0.1335 0.0000
vt 0.2963 0.1335 0.0000
vt 0.2963 0.1314 0.0000
vt 0.2895 0.1220 0.0000
vt 0.2895 0.1200 0.0000
vt 0.2827 0.1200 0.0000
vt 0.2827 0.1220 0.0000
vt 0.3011 0.1245 0.0000
vt 0.2978 0.1243 0.0000
vt 0.2879 0.1244 0.0000
vt 0.2847 0.1247 0.0000
vt 0.2950 0.1150 0.0000
vt 0.2947 0.1171 0.0000
vt 0.3021 0.1146 0.0000
vt 0.3015 0.1126 0.0000
vt 0.2884 0.1139 0.0000
vt 0.2881 0.1161 0.0000
vt 0.2831 0.1097 0.0000
vt 0.2819 0.1114 0.0000
vt 0.2965 0.1056 0.0000
vt 0.2969 0.1036 0.0000
vt 0.2903 0.1026 0.0000
vt 0.2899 0.1046 0.0000
vt 0.2960 0.1119 0.0000
vt 0.2993 0.1109 0.0000
vt 0.2857 0.1087 0.0000
vt 0.2885 0.1107 0.0000
vt 0.3470 0.1227 0.0000
vt 0.3492 0.1232 0.0000
vt 0.3505 0.1153 0.0000
vt 0.3475 0.1162 0.0000
vt 0.3455 0.1292 0.0000
vt 0.3477 0.1297 0.0000
vt 0.3431 0.1352 0.0000
vt 0.3454 0.1373 0.0000
vt 0.3390 0.1208 0.0000
vt 0.3360 0.1201 0.0000
vt 0.3344 0.1266 0.0000
vt 0.3375 0.1273 0.0000
vt 0.3452 0.1207 0.0000
vt 0.3454 0.1178 0.0000
vt 0.3419 0.1328 0.0000
vt 0.3430 0.1301 0.0000
# 286 texture coords

g l_hand
usemtl extremities_diffuse
s off
f 1/1/1 2/2/1 3/3/1 
f 3/3/1 4/4/1 1/1/1 
f 5/5/1 6/6/1 1/1/1 
f 1/1/1 4/4/1 5/5/1 
f 7/7/1 8/8/1 5/5/1 
f 5/5/1 4/4/1 7/7/1 
f 9/9/1 7/7/1 4/4/1 
f 3/3/1 10/10/1 4/4/1 
f 11/11/2 10/12/3 3/13/2 
f 3/13/2 12/14/3 11/11/2 
f 12/14/4 3/13/2 2/15/4 
f 2/15/4 13/16/2 12/14/4 
f 13/16/5 2/15/4 1/17/5 
f 1/17/5 14/18/4 13/16/5 
f 14/18/6 1/17/5 6/19/6 
f 6/19/6 15/20/5 14/18/6 
f 15/20/7 6/19/6 5/21/7 
f 5/21/7 16/22/6 15/20/7 
f 16/22/8 5/21/7 8/23/8 
f 8/23/8 17/24/7 16/22/8 
f 17/24/9 8/23/8 7/25/9 
f 7/25/9 18/26/8 17/24/9 
f 18/27/10 7/28/9 9/29/10 
f 9/29/10 19/30/9 18/27/10 
f 19/30/11 9/29/10 4/31/11 
f 4/31/11 20/32/10 19/30/11 
f 20/32/3 4/31/11 10/12/3 
f 10/12/3 11/11/11 20/32/3 
f 21/33/1 11/34/1 12/35/1 
f 12/35/1 22/36/1 21/33/1 
f 22/36/1 12/35/1 13/37/1 
f 13/37/1 23/38/1 22/36/1 
f 23/38/1 13/37/1 14/39/1 
f 14/39/1 24/40/1 23/38/1 
f 24/40/1 14/39/1 15/41/1 
f 15/41/1 25/42/1 24/40/1 
f 25/42/1 15/41/1 16/43/1 
f 16/43/1 26/44/1 25/42/1 
f 26/44/1 16/43/1 17/45/1 
f 17/45/1 27/46/1 26/44/1 
f 27/46/1 17/45/1 18/47/1 
f 18/47/1 28/48/1 27/46/1 
f 28/48/1 18/47/1 19/49/1 
f 19/49/1 29/50/1 28/48/1 
f 29/50/1 19/49/1 20/51/1 
f 20/51/1 30/52/1 29/50/1 
f 30/52/1 20/51/1 11/34/1 
f 11/34/1 21/33/1 30/52/1 
f 31/53/12 32/54/12 33/55/12 
f 33/55/12 34/56/12 31/53/12 
f 35/57/4 22/58/13 23/59/4 
f 23/59/4 36/60/13 35/57/4 
f 36/60/5 23/59/4 24/61/5 
f 24/61/5 37/62/4 36/60/5 
f 37/62/14 24/61/5 25/63/15 
f 25/63/15 38/64/5 37/62/14 
f 39/65/16 40/66/16 41/67/16 
f 41/67/16 42/68/16 39/65/16 
f 43/69/17 44/70/17 45/71/17 
f 45/71/17 46/72/17 43/69/17 
f 47/73/9 27/74/8 28/75/9 
f 28/75/9 48/76/8 47/73/9 
f 48/76/10 28/75/9 29/77/10 
f 29/77/10 49/78/9 48/76/10 
f 49/79/18 29/80/10 30/81/19 
f 30/81/19 50/82/10 49/79/18 
f 51/83/20 52/84/20 53/85/20 
f 53/85/20 54/86/20 51/83/20 
f 55/87/1 56/88/1 35/89/1 
f 35/89/1 57/90/1 55/87/1 
f 57/90/1 35/89/1 36/91/1 
f 36/91/1 58/92/1 57/90/1 
f 58/92/1 36/91/1 37/93/1 
f 37/93/1 59/94/1 58/92/1 
f 59/94/1 37/93/1 38/95/1 
f 38/95/1 60/96/1 59/94/1 
f 60/96/1 38/95/1 61/97/1 
f 61/97/1 62/98/1 60/96/1 
f 62/98/1 61/97/1 47/99/1 
f 47/99/1 63/100/1 62/98/1 
f 63/100/1 47/99/1 48/101/1 
f 48/101/1 64/102/1 63/100/1 
f 64/102/1 48/101/1 49/103/1 
f 49/103/1 65/104/1 64/102/1 
f 65/104/1 49/103/1 50/105/1 
f 50/105/1 66/106/1 65/104/1 
f 66/106/1 50/105/1 56/88/1 
f 56/88/1 55/87/1 66/106/1 
f 67/107/21 55/108/3 57/109/2 
f 57/109/2 68/110/22 67/107/21 
f 68/110/23 57/109/2 58/111/4 
f 58/111/4 69/112/21 68/110/23 
f 69/112/24 58/111/4 59/113/5 
f 59/113/5 70/114/23 69/112/24 
f 70/114/25 59/113/5 60/115/6 
f 60/115/6 71/116/24 70/114/25 
f 71/116/26 60/115/6 62/117/7 
f 62/117/7 72/118/25 71/116/26 
f 72/118/27 62/117/7 63/119/8 
f 63/119/8 73/120/26 72/118/27 
f 73/120/28 63/119/8 64/121/9 
f 64/121/9 74/122/27 73/120/28 
f 74/122/29 64/121/9 65/123/10 
f 65/123/10 75/124/28 74/122/29 
f 75/125/30 65/126/10 66/127/11 
f 66/127/11 76/128/29 75/125/30 
f 76/128/22 66/127/11 55/108/3 
f 55/108/3 67/107/30 76/128/22 
f 77/129/31 67/107/22 68/110/21 
f 68/110/21 78/130/32 77/129/31 
f 78/130/33 68/110/21 69/112/23 
f 69/112/23 79/131/31 78/130/33 
f 79/131/34 69/112/23 70/114/24 
f 70/114/24 80/132/33 79/131/34 
f 80/132/35 70/114/24 71/116/25 
f 71/116/25 81/133/34 80/132/35 
f 81/133/36 71/116/25 72/118/26 
f 72/118/26 82/134/35 81/133/36 
f 82/134/37 72/118/26 73/120/27 
f 73/120/27 83/135/36 82/134/37 
f 83/135/38 73/120/27 74/122/28 
f 74/122/28 84/136/37 83/135/38 
f 84/136/39 74/122/28 75/124/29 
f 75/124/29 85/137/38 84/136/39 
f 85/138/40 75/125/29 76/128/30 
f 76/128/30 86/139/39 85/138/40 
f 86/139/32 76/128/30 67/107/22 
f 67/107/22 77/129/40 86/139/32 
f 87/140/41 77/129/32 78/130/31 
f 78/130/31 88/141/3 87/140/41 
f 88/141/42 78/130/31 79/131/33 
f 79/131/33 89/142/41 88/141/42 
f 89/142/43 79/131/33 80/132/34 
f 80/132/34 90/143/42 89/142/43 
f 90/143/44 80/132/34 81/133/35 
f 81/133/35 91/144/43 90/143/44 
f 91/144/7 81/133/35 82/134/36 
f 82/134/36 92/145/44 91/144/7 
f 92/145/45 82/134/36 83/135/37 
f 83/135/37 93/146/7 92/145/45 
f 93/146/46 83/135/37 84/136/38 
f 84/136/38 94/147/45 93/146/46 
f 94/147/47 84/136/38 85/137/39 
f 85/137/39 95/148/46 94/147/47 
f 95/149/48 85/138/39 86/139/40 
f 86/139/40 96/150/47 95/149/48 
f 96/150/3 86/139/40 77/129/32 
f 77/129/32 87/140/48 96/150/3 
f 97/151/49 98/152/50 91/153/51 
f 91/153/51 92/154/52 97/151/49 
f 97/151/53 92/154/49 93/155/54 
f 93/155/54 99/156/52 97/151/53 
f 90/157/44 91/158/43 98/159/55 
f 93/160/46 94/161/45 99/162/56 
f 88/163/42 89/164/41 100/165/57 
f 101/166/58 87/167/59 88/168/60 
f 88/168/60 100/169/61 101/166/58 
f 96/170/62 87/167/59 101/166/61 
f 101/166/61 102/171/63 96/170/62 
f 96/172/64 102/173/48 95/174/47 
f 100/165/55 89/164/42 90/157/43 
f 90/157/43 98/159/57 100/165/55 
f 95/174/46 102/173/64 99/162/56 
f 99/162/56 94/161/47 95/174/46 
f 103/175/65 104/176/7 105/177/66 
f 105/177/66 97/151/67 103/175/65 
f 99/156/67 103/175/68 97/151/65 
f 106/178/66 98/152/69 97/151/65 
f 97/151/65 105/177/70 106/178/66 
f 107/179/66 108/180/7 106/178/70 
f 106/178/70 105/177/7 107/179/66 
f 105/177/7 109/181/66 107/179/7 
f 110/182/71 111/183/72 107/184/72 
f 107/184/72 109/185/71 110/182/71 
f 111/183/72 112/186/73 108/187/73 
f 108/187/73 107/184/72 111/183/72 
f 112/186/73 113/188/74 106/189/75 
f 106/189/75 108/187/73 112/186/73 
f 113/188/75 100/165/76 98/159/76 
f 98/159/76 106/189/74 113/188/75 
f 102/173/77 114/190/78 103/191/79 
f 103/191/79 99/162/77 102/173/77 
f 114/190/79 115/192/80 104/193/80 
f 104/193/80 103/191/78 114/190/79 
f 115/192/80 116/194/81 105/195/81 
f 105/195/81 104/193/80 115/192/80 
f 116/194/81 110/182/71 109/185/71 
f 109/185/71 105/195/81 116/194/81 
f 113/196/82 112/197/3 111/198/83 
f 111/198/83 101/166/84 113/196/82 
f 100/169/84 113/196/85 101/166/82 
f 114/199/83 102/171/86 101/166/82 
f 101/166/82 111/198/87 114/199/83 
f 116/200/83 115/201/3 114/199/87 
f 114/199/87 111/198/3 116/200/83 
f 111/198/3 110/202/83 116/200/3 
f 117/203/88 21/204/89 22/58/13 
f 22/58/13 118/205/90 117/203/88 
f 119/206/90 56/207/91 21/204/89 
f 21/204/89 117/203/92 119/206/90 
f 120/208/92 35/57/13 56/207/91 
f 56/207/91 119/206/93 120/208/92 
f 118/205/93 22/58/13 35/57/13 
f 35/57/13 120/208/88 118/205/93 
f 121/209/94 30/81/19 21/204/89 
f 21/204/89 122/210/95 121/209/94 
f 123/211/95 50/82/18 30/81/19 
f 30/81/19 121/209/96 123/211/95 
f 124/212/96 56/207/91 50/82/18 
f 50/82/18 123/211/97 124/212/96 
f 122/210/97 21/204/89 56/207/91 
f 56/207/91 124/212/94 122/210/97 
f 125/213/98 25/63/15 26/214/99 
f 26/214/99 126/215/100 125/213/98 
f 127/216/100 38/64/14 25/63/15 
f 25/63/15 125/213/101 127/216/100 
f 128/217/101 61/218/102 38/64/14 
f 38/64/14 127/216/103 128/217/101 
f 126/215/103 26/214/99 61/218/102 
f 61/218/102 128/217/98 126/215/103 
f 129/219/104 26/214/99 27/74/8 
f 27/74/8 130/220/105 129/219/104 
f 131/221/105 61/218/102 26/214/99 
f 26/214/99 129/219/106 131/221/105 
f 132/222/106 47/73/8 61/218/102 
f 61/218/102 131/221/107 132/222/106 
f 130/220/107 27/74/8 47/73/8 
f 47/73/8 132/222/104 130/220/107 
f 133/223/1 125/224/1 126/225/1 
f 126/225/1 134/226/1 133/223/1 
f 135/227/108 127/228/109 125/229/109 
f 125/229/109 133/230/108 135/227/108 
f 136/231/71 128/232/71 127/233/71 
f 127/233/71 135/234/71 136/231/71 
f 134/226/110 126/225/111 128/232/111 
f 128/232/111 136/231/110 134/226/110 
f 40/235/1 133/223/1 134/226/1 
f 134/226/1 41/236/1 40/235/1 
f 39/65/112 135/227/108 133/230/108 
f 133/230/108 40/66/112 39/65/112 
f 42/237/71 136/231/71 135/234/71 
f 135/234/71 39/238/71 42/237/71 
f 41/67/113 134/226/110 136/231/110 
f 136/231/110 42/68/113 41/67/113 
f 137/239/1 129/240/1 130/241/1 
f 130/241/1 138/242/1 137/239/1 
f 139/243/114 131/244/115 129/245/115 
f 129/245/115 137/246/114 139/243/114 
f 140/247/71 132/248/71 131/249/71 
f 131/249/71 139/250/71 140/247/71 
f 138/242/116 130/241/117 132/248/117 
f 132/248/117 140/247/116 138/242/116 
f 44/251/1 137/239/1 138/242/1 
f 138/242/1 45/252/1 44/251/1 
f 43/69/118 139/243/114 137/246/114 
f 137/246/114 44/70/118 43/69/118 
f 46/253/71 140/247/71 139/250/71 
f 139/250/71 43/254/71 46/253/71 
f 45/71/119 138/242/116 140/247/116 
f 140/247/116 46/72/119 45/71/119 
f 141/255/1 117/256/1 118/257/1 
f 118/257/1 142/258/1 141/255/1 
f 143/259/120 119/260/121 117/256/121 
f 117/256/121 141/255/120 143/259/120 
f 144/261/71 120/262/71 119/260/71 
f 119/260/71 143/259/71 144/261/71 
f 142/263/122 118/264/123 120/265/123 
f 120/265/123 144/266/122 142/263/122 
f 32/267/1 141/255/1 142/258/1 
f 142/258/1 33/268/1 32/267/1 
f 31/53/124 143/259/120 141/255/120 
f 141/255/120 32/54/124 31/53/124 
f 34/269/71 144/261/71 143/259/71 
f 143/259/71 31/270/71 34/269/71 
f 33/55/125 142/263/122 144/266/122 
f 144/266/122 34/56/125 33/55/125 
f 145/271/1 121/272/1 122/273/1 
f 122/273/1 146/274/1 145/271/1 
f 147/275/126 123/276/127 121/272/127 
f 121/272/127 145/271/126 147/275/126 
f 148/277/71 124/278/71 123/276/71 
f 123/276/71 147/275/71 148/277/71 
f 146/279/128 122/280/129 124/281/129 
f 124/281/129 148/282/128 146/279/128 
f 52/283/1 145/271/1 146/274/1 
f 146/274/1 53/284/1 52/283/1 
f 51/83/130 147/275/126 145/271/126 
f 145/271/126 52/84/130 51/83/130 
f 54/285/71 148/277/71 147/275/71 
f 147/275/71 51/286/71 54/285/71 
f 53/85/131 146/279/128 148/282/128 
f 148/282/128 54/86/131 53/85/131 
# 0 polygons - 292 triangles

