# 3ds Max Wavefront OBJ Exporter v0.97b - (c)2007 guruware
# File Created: 30.01.2015 11:02:00

mtllib r_farm.mtl

#
# object r_farm
#

v  0.0620 0.0286 -0.0184
v  0.0620 -0.0061 -0.0296
v  0.0620 0.0131 -0.0296
v  0.0620 -0.0275 -0.0002
v  0.0620 -0.0216 -0.0184
v  0.0620 -0.0061 0.0293
v  0.0620 -0.0216 0.0181
v  0.0620 0.0131 0.0293
v  0.0620 0.0286 0.0181
v  0.0620 0.0345 -0.0002
v  0.0622 0.0355 -0.0002
v  0.0582 0.0355 -0.0319
v  0.0526 0.0155 -0.0371
v  0.0526 -0.0085 -0.0371
v  0.0526 -0.0280 -0.0230
v  0.0526 -0.0354 -0.0002
v  0.0526 -0.0280 0.0227
v  0.0526 -0.0085 0.0368
v  0.0526 0.0155 0.0368
v  0.0582 0.0355 0.0307
v  0.0143 0.0355 -0.0320
v  0.0143 0.0155 -0.0371
v  0.0143 -0.0085 -0.0371
v  0.0143 -0.0280 -0.0230
v  0.0143 -0.0354 -0.0002
v  0.0143 -0.0280 0.0227
v  0.0143 -0.0085 0.0368
v  0.0143 0.0155 0.0368
v  0.0143 0.0355 0.0307
v  0.0143 0.0355 -0.0002
v  0.0162 0.1561 0.0496
v  0.0162 0.1229 0.0496
v  0.0423 0.1561 0.0306
v  0.0423 0.1229 0.0306
v  0.0523 0.1561 -0.0002
v  0.0523 0.1229 -0.0002
v  0.0423 0.1561 -0.0309
v  0.0423 0.1229 -0.0309
v  0.0162 0.1229 -0.0499
v  0.0162 0.1561 -0.0499
v  0.0162 0.0861 0.0399
v  0.0423 0.0861 0.0306
v  0.0523 0.0861 -0.0002
v  0.0423 0.0861 -0.0309
v  0.0162 0.0861 -0.0402
v  0.0184 0.0506 0.0399
v  0.0540 0.0506 0.0306
v  0.0595 0.0506 -0.0002
v  0.0540 0.0506 -0.0309
v  0.0184 0.0506 -0.0402
v  -0.0185 0.0506 -0.0402
v  -0.0145 0.0355 -0.0320
v  -0.0163 0.1561 0.0496
v  -0.0524 0.1561 -0.0002
v  -0.0424 0.1561 0.0306
v  -0.0163 0.1561 -0.0499
v  -0.0424 0.1561 -0.0309
v  -0.0163 0.0861 0.0399
v  -0.0185 0.0506 0.0399
v  -0.0145 0.0355 0.0307
v  -0.0144 0.0355 -0.0002
v  -0.0622 0.0286 -0.0184
v  -0.0622 0.0131 0.0293
v  -0.0622 0.0286 0.0181
v  -0.0622 -0.0061 0.0293
v  -0.0622 -0.0275 -0.0002
v  -0.0622 -0.0216 0.0181
v  -0.0622 -0.0061 -0.0296
v  -0.0622 -0.0216 -0.0184
v  -0.0622 0.0131 -0.0296
v  -0.0622 0.0345 -0.0002
v  -0.0624 0.0355 -0.0002
v  -0.0584 0.0355 -0.0319
v  -0.0527 0.0155 -0.0371
v  -0.0527 -0.0085 -0.0371
v  -0.0527 -0.0280 -0.0230
v  -0.0527 -0.0354 -0.0002
v  -0.0527 -0.0280 0.0227
v  -0.0527 -0.0085 0.0368
v  -0.0527 0.0155 0.0368
v  -0.0584 0.0355 0.0307
v  -0.0144 0.0155 -0.0371
v  -0.0144 -0.0085 -0.0371
v  -0.0144 -0.0280 -0.0230
v  -0.0144 -0.0354 -0.0002
v  -0.0144 -0.0280 0.0227
v  -0.0144 -0.0085 0.0368
v  -0.0144 0.0155 0.0368
v  -0.0163 0.1229 0.0496
v  -0.0424 0.1229 0.0306
v  -0.0524 0.1229 -0.0002
v  -0.0424 0.1229 -0.0309
v  -0.0163 0.1229 -0.0499
v  -0.0424 0.0861 0.0306
v  -0.0524 0.0861 -0.0002
v  -0.0424 0.0861 -0.0309
v  -0.0163 0.0861 -0.0402
v  -0.0542 0.0506 0.0306
v  -0.0596 0.0506 -0.0002
v  -0.0542 0.0506 -0.0309
# 100 vertices

vn 0.9881 0.1277 -0.0855
vn 0.8728 -0.1508 -0.4643
vn 0.9001 0.0245 -0.4350
vn 0.8727 -0.4882 0.0000
vn 0.8727 -0.3949 -0.2869
vn 0.8728 -0.1508 0.4643
vn 0.8727 -0.3949 0.2869
vn 0.8985 0.0313 0.4379
vn 0.9873 0.1314 0.0890
vn 0.9879 0.1552 0.0008
vn 0.9702 0.2424 0.0012
vn 0.6967 0.1348 -0.7046
vn 0.2984 0.0857 -0.9506
vn 0.3211 -0.2927 -0.9007
vn 0.3210 -0.7662 -0.5567
vn 0.3210 -0.9471 0.0000
vn 0.3210 -0.7662 0.5567
vn 0.3211 -0.2926 0.9007
vn 0.2987 0.1065 0.9484
vn 0.7060 0.1385 0.6946
vn 0.0341 -0.1718 -0.9845
vn 0.0002 0.1263 -0.9920
vn 0.0000 -0.3090 -0.9511
vn 0.0000 -0.8090 -0.5878
vn 0.0000 -1.0000 0.0000
vn 0.0000 -0.8090 0.5878
vn 0.0000 -0.3090 0.9511
vn 0.0000 0.1471 0.9891
vn 0.0340 -0.1922 0.9808
vn -1.0000 0.0008 0.0008
vn -1.0000 0.0012 -0.0005
vn -1.0000 0.0008 -0.0004
vn -1.0000 0.0007 -0.0000
vn -1.0000 0.0005 -0.0004
vn -1.0000 0.0009 0.0012
vn -1.0000 0.0010 0.0007
vn -0.9999 0.0000 0.0108
vn -0.0003 -1.0000 0.0005
vn -0.0003 -1.0000 -0.0005
vn -0.2437 -0.9699 -0.0000
vn 0.3090 0.0000 0.9511
vn 0.2725 -0.0963 0.9573
vn 0.8090 0.0000 0.5878
vn 0.7894 -0.0306 0.6131
vn 1.0000 0.0000 0.0000
vn 0.8090 0.0000 -0.5878
vn 0.7894 -0.0306 -0.6131
vn 0.2725 -0.0963 -0.9573
vn 0.3090 0.0000 -0.9511
vn 0.1968 -0.0816 0.9770
vn 0.7202 0.0510 0.6918
vn 0.9910 0.1339 0.0000
vn 0.7202 0.0510 -0.6919
vn 0.1968 -0.0816 -0.9770
vn 0.1102 -0.1802 0.9774
vn 0.7070 0.0603 0.7046
vn 0.9703 0.2420 0.0006
vn 0.7096 0.0833 -0.6996
vn 0.1103 -0.1552 -0.9817
vn -0.1103 -0.1552 -0.9817
vn -0.0341 -0.1718 -0.9845
vn 0.0000 1.0000 0.0000
vn -0.1968 -0.0816 0.9770
vn -0.1102 -0.1802 0.9774
vn -0.0340 -0.1922 0.9808
vn 0.0003 -1.0000 -0.0005
vn 0.2437 -0.9699 -0.0000
vn -0.9881 0.1277 -0.0854
vn -0.8985 0.0313 0.4379
vn -0.9873 0.1314 0.0890
vn -0.8728 -0.1508 0.4643
vn -0.8727 -0.4882 0.0000
vn -0.8727 -0.3949 0.2869
vn -0.8728 -0.1509 -0.4643
vn -0.8727 -0.3950 -0.2869
vn -0.9001 0.0245 -0.4350
vn -0.9879 0.1551 0.0008
vn -0.9702 0.2423 0.0012
vn -0.6967 0.1347 -0.7046
vn -0.2984 0.0857 -0.9506
vn -0.3210 -0.2927 -0.9007
vn -0.3210 -0.7662 -0.5567
vn -0.3210 -0.9471 0.0000
vn -0.3210 -0.7662 0.5567
vn -0.3211 -0.2926 0.9007
vn -0.2987 0.1065 0.9484
vn -0.7060 0.1385 0.6945
vn -0.0002 0.1263 -0.9920
vn -0.0000 0.1471 0.9891
vn 1.0000 0.0010 0.0003
vn 1.0000 0.0006 0.0000
vn 1.0000 0.0011 0.0015
vn 1.0000 0.0010 0.0013
vn 1.0000 0.0008 -0.0004
vn 1.0000 0.0005 -0.0004
vn 1.0000 0.0012 -0.0005
vn 0.0003 -1.0000 0.0005
vn -0.8090 0.0000 0.5878
vn -0.2725 -0.0963 0.9573
vn -0.3090 0.0000 0.9511
vn -0.7894 -0.0306 0.6131
vn -1.0000 0.0000 0.0000
vn -0.8090 0.0000 -0.5878
vn -0.7894 -0.0306 -0.6131
vn -0.2725 -0.0963 -0.9573
vn -0.3090 0.0000 -0.9511
vn -0.7202 0.0510 0.6918
vn -0.9910 0.1339 0.0000
vn -0.7202 0.0510 -0.6919
vn -0.1968 -0.0816 -0.9770
vn -0.7070 0.0603 0.7046
vn -0.9703 0.2420 0.0006
vn -0.7096 0.0833 -0.6996
# 113 vertex normals

vt 0.8699 0.8109 0.0000
vt 0.8533 0.8095 0.0000
vt 0.8617 0.8075 0.0000
vt 0.8465 0.8247 0.0000
vt 0.8476 0.8161 0.0000
vt 0.8586 0.8357 0.0000
vt 0.8508 0.8321 0.0000
vt 0.8671 0.8340 0.0000
vt 0.8732 0.8275 0.0000
vt 0.8743 0.8186 0.0000
vt 0.8747 0.8186 0.0000
vt 0.8717 0.8038 0.0000
vt 0.8616 0.8018 0.0000
vt 0.8503 0.8049 0.0000
vt 0.8425 0.8139 0.0000
vt 0.8410 0.8258 0.0000
vt 0.8470 0.8362 0.0000
vt 0.8578 0.8412 0.0000
vt 0.8693 0.8392 0.0000
vt 0.8776 0.8329 0.0000
vt 0.9435 0.8195 0.0000
vt 0.9612 0.8291 0.0000
vt 0.9435 0.8291 0.0000
vt 0.9638 0.8195 0.0000
vt 0.9435 0.8402 0.0000
vt 0.9612 0.8402 0.0000
vt 0.9435 0.8514 0.0000
vt 0.9613 0.8513 0.0000
vt 0.9435 0.8625 0.0000
vt 0.9613 0.8625 0.0000
vt 0.9435 0.8737 0.0000
vt 0.9613 0.8736 0.0000
vt 0.9435 0.8848 0.0000
vt 0.9613 0.8848 0.0000
vt 0.9435 0.8959 0.0000
vt 0.9613 0.8959 0.0000
vt 0.9436 0.9056 0.0000
vt 0.9639 0.9056 0.0000
vt 0.8792 0.8122 0.0000
vt 0.8889 0.8440 0.0000
vt 0.8796 0.8413 0.0000
vt 0.9000 0.8438 0.0000
vt 0.9122 0.8265 0.0000
vt 0.9089 0.8372 0.0000
vt 0.8995 0.8096 0.0000
vt 0.9086 0.8160 0.0000
vt 0.8884 0.8097 0.0000
vt 0.8226 0.8741 0.0000
vt 0.8214 0.9031 0.0000
vt 0.8220 0.8888 0.0000
vt 0.8950 0.9626 0.0000
vt 0.8952 0.9474 0.0000
vt 0.9095 0.9625 0.0000
vt 0.9098 0.9470 0.0000
vt 0.9237 0.9631 0.0000
vt 0.9247 0.9477 0.0000
vt 0.9380 0.9646 0.0000
vt 0.9396 0.9493 0.0000
vt 0.9543 0.9514 0.0000
vt 0.9526 0.9665 0.0000
vt 0.8961 0.9301 0.0000
vt 0.9099 0.9297 0.0000
vt 0.9259 0.9305 0.0000
vt 0.9416 0.9322 0.0000
vt 0.9544 0.9347 0.0000
vt 0.8966 0.9138 0.0000
vt 0.9133 0.9125 0.0000
vt 0.9274 0.9138 0.0000
vt 0.9417 0.9147 0.0000
vt 0.9580 0.9194 0.0000
vt 0.8948 0.9058 0.0000
vt 0.9144 0.9055 0.0000
vt 0.9280 0.9067 0.0000
vt 0.9422 0.9076 0.0000
vt 0.9615 0.9124 0.0000
vt 0.8185 0.9167 0.0000
vt 0.8017 0.9192 0.0000
vt 0.8023 0.9111 0.0000
vt 0.8154 0.9093 0.0000
vt 0.9081 0.8565 0.0000
vt 0.8912 0.8795 0.0000
vt 0.8959 0.8653 0.0000
vt 0.9230 0.9027 0.0000
vt 0.9079 0.9026 0.0000
vt 0.8958 0.8938 0.0000
vt 0.9398 0.8797 0.0000
vt 0.9351 0.8939 0.0000
vt 0.9231 0.8566 0.0000
vt 0.9352 0.8654 0.0000
vt 0.8800 0.9299 0.0000
vt 0.8799 0.9136 0.0000
vt 0.8819 0.9057 0.0000
vt 0.8081 0.9026 0.0000
vt 0.8087 0.8883 0.0000
vt 0.8643 0.8794 0.0000
vt 0.8720 0.9014 0.0000
vt 0.8647 0.8963 0.0000
vt 0.8809 0.9011 0.0000
vt 0.8905 0.8872 0.0000
vt 0.8879 0.8957 0.0000
vt 0.8802 0.8738 0.0000
vt 0.8875 0.8788 0.0000
vt 0.8713 0.8740 0.0000
vt 0.8617 0.8879 0.0000
vt 0.8613 0.8879 0.0000
vt 0.8607 0.8731 0.0000
vt 0.9667 0.8203 0.0000
vt 0.9710 0.8291 0.0000
vt 0.9656 0.8311 0.0000
vt 0.9673 0.8405 0.0000
vt 0.9728 0.8397 0.0000
vt 0.9681 0.8504 0.0000
vt 0.9738 0.8501 0.0000
vt 0.9684 0.8605 0.0000
vt 0.9741 0.8605 0.0000
vt 0.9681 0.8705 0.0000
vt 0.9737 0.8709 0.0000
vt 0.9672 0.8804 0.0000
vt 0.9727 0.8813 0.0000
vt 0.9710 0.8918 0.0000
vt 0.9656 0.8899 0.0000
vt 0.8614 0.9024 0.0000
vt 0.9869 0.8168 0.0000
vt 0.9886 0.8263 0.0000
vt 0.9903 0.8375 0.0000
vt 0.9915 0.8490 0.0000
vt 0.9918 0.8605 0.0000
vt 0.9914 0.8720 0.0000
vt 0.9903 0.8834 0.0000
vt 0.9885 0.8947 0.0000
vt 0.9867 0.9042 0.0000
vt 0.9666 0.9007 0.0000
vt 0.8554 0.8688 0.0000
vt 0.8240 0.8864 0.0000
vt 0.8460 0.8672 0.0000
vt 0.8349 0.8682 0.0000
vt 0.8265 0.8755 0.0000
vt 0.8379 0.9023 0.0000
vt 0.8283 0.8966 0.0000
vt 0.8490 0.9014 0.0000
vt 0.8580 0.8977 0.0000
vt 0.8567 0.8835 0.0000
vt 0.8658 0.9619 0.0000
vt 0.8805 0.9472 0.0000
vt 0.8802 0.9624 0.0000
vt 0.8658 0.9464 0.0000
vt 0.8517 0.9621 0.0000
vt 0.8509 0.9467 0.0000
vt 0.8376 0.9634 0.0000
vt 0.8360 0.9480 0.0000
vt 0.8215 0.9504 0.0000
vt 0.8231 0.9655 0.0000
vt 0.8067 0.9519 0.0000
vt 0.8082 0.9672 0.0000
vt 0.8661 0.9292 0.0000
vt 0.8500 0.9296 0.0000
vt 0.8340 0.9308 0.0000
vt 0.8206 0.9330 0.0000
vt 0.8053 0.9348 0.0000
vt 0.8633 0.9119 0.0000
vt 0.8491 0.9129 0.0000
vt 0.8349 0.9133 0.0000
vt 0.8623 0.9049 0.0000
vt 0.8488 0.9058 0.0000
vt 0.8348 0.9061 0.0000
vt 0.8092 0.8736 0.0000
# 166 texture coords

g r_farm
usemtl extremities_diffuse
s off
f 1/1/1 2/2/2 3/3/3 
f 2/2/2 1/1/1 4/4/4 
f 4/4/4 5/5/5 2/2/2 
f 4/4/4 6/6/6 7/7/7 
f 6/6/6 4/4/4 1/1/1 
f 6/6/6 1/1/1 8/8/8 
f 1/1/1 9/9/9 8/8/8 
f 9/9/9 1/1/1 10/10/10 
f 11/11/11 1/1/1 12/12/12 
f 1/1/1 11/11/11 10/10/10 
f 13/13/13 12/12/12 3/3/3 
f 2/2/2 13/13/13 3/3/3 
f 13/13/13 2/2/2 14/14/14 
f 5/5/5 14/14/14 2/2/2 
f 14/14/14 5/5/5 15/15/15 
f 16/16/16 5/5/5 4/4/4 
f 16/16/16 15/15/15 5/5/5 
f 7/7/7 16/16/16 4/4/4 
f 16/16/16 7/7/7 17/17/17 
f 18/18/18 7/7/7 6/6/6 
f 18/18/18 17/17/17 7/7/7 
f 19/19/19 6/6/6 8/8/8 
f 6/6/6 19/19/19 18/18/18 
f 20/20/20 8/8/8 9/9/9 
f 11/11/11 20/20/20 9/9/9 
f 9/9/9 10/10/10 11/11/11 
f 21/21/21 13/22/13 22/23/22 
f 13/22/13 21/21/21 12/24/12 
f 23/25/23 13/22/13 14/26/14 
f 13/22/13 23/25/23 22/23/22 
f 24/27/24 14/26/14 15/28/15 
f 14/26/14 24/27/24 23/25/23 
f 25/29/25 15/28/15 16/30/16 
f 15/28/15 25/29/25 24/27/24 
f 26/31/26 16/30/16 17/32/17 
f 16/30/16 26/31/26 25/29/25 
f 27/33/27 17/32/17 18/34/18 
f 17/32/17 27/33/27 26/31/26 
f 28/35/28 18/34/18 19/36/19 
f 18/34/18 28/35/28 27/33/27 
f 29/37/29 19/36/19 20/38/20 
f 19/36/19 29/37/29 28/35/28 
f 21/39/30 28/40/31 29/41/31 
f 21/39/30 27/42/32 28/40/31 
f 27/42/32 25/43/33 26/44/34 
f 25/43/33 27/42/32 21/39/30 
f 25/43/33 23/45/35 24/46/36 
f 23/45/35 25/43/33 21/39/30 
f 21/39/30 22/47/37 23/45/35 
f 21/48/38 29/49/39 30/50/40 
f 31/51/41 32/52/42 33/53/43 
f 33/53/43 32/52/42 34/54/44 
f 34/54/44 35/55/45 33/53/43 
f 35/55/45 34/54/44 36/56/45 
f 36/56/45 37/57/46 35/55/45 
f 37/57/46 36/56/45 38/58/47 
f 38/58/47 39/59/48 40/60/49 
f 38/58/47 40/60/49 37/57/46 
f 32/52/42 41/61/50 34/54/44 
f 34/54/44 41/61/50 42/62/51 
f 42/62/51 36/56/45 34/54/44 
f 36/56/45 42/62/51 43/63/52 
f 43/63/52 38/58/47 36/56/45 
f 38/58/47 43/63/52 44/64/53 
f 44/64/53 45/65/54 39/59/48 
f 44/64/53 39/59/48 38/58/47 
f 41/61/50 46/66/55 42/62/51 
f 42/62/51 46/66/55 47/67/56 
f 47/67/56 43/63/52 42/62/51 
f 43/63/52 47/67/56 48/68/57 
f 48/68/57 44/64/53 43/63/52 
f 44/64/53 48/68/57 49/69/58 
f 50/70/59 44/64/53 49/69/58 
f 44/64/53 50/70/59 45/65/54 
f 47/67/56 46/66/55 29/71/29 
f 47/67/56 29/71/29 20/72/20 
f 47/67/56 11/73/11 48/68/57 
f 11/73/11 47/67/56 20/72/20 
f 11/73/11 49/69/58 48/68/57 
f 49/69/58 11/73/11 12/74/12 
f 21/75/21 49/69/58 12/74/12 
f 49/69/58 21/75/21 50/70/59 
f 51/76/60 50/77/59 21/78/21 
f 51/76/60 21/78/21 52/79/61 
f 40/80/62 35/81/62 37/82/62 
f 35/81/62 40/80/62 53/83/62 
f 35/81/62 31/84/62 33/85/62 
f 31/84/62 35/81/62 53/83/62 
f 53/83/62 54/86/62 55/87/62 
f 54/86/62 53/83/62 56/88/62 
f 56/88/62 57/89/62 54/86/62 
f 56/88/62 53/83/62 40/80/62 
f 58/90/63 46/66/55 41/61/50 
f 46/66/55 58/90/63 59/91/64 
f 46/66/55 59/91/64 60/92/65 
f 46/66/55 60/92/65 29/71/29 
f 60/93/66 61/94/67 29/49/39 
f 29/49/39 61/94/67 30/50/40 
f 20/20/20 19/19/19 8/8/8 
f 12/12/12 1/1/1 3/3/3 
f 62/95/68 63/96/69 64/97/70 
f 62/95/68 65/98/71 63/96/69 
f 65/98/71 66/99/72 67/100/73 
f 66/99/72 65/98/71 62/95/68 
f 66/99/72 68/101/74 69/102/75 
f 68/101/74 66/99/72 62/95/68 
f 62/95/68 70/103/76 68/101/74 
f 62/95/68 64/97/70 71/104/77 
f 62/95/68 72/105/78 73/106/79 
f 72/105/78 62/95/68 71/104/77 
f 73/107/79 74/108/80 70/109/76 
f 68/110/74 74/108/80 75/111/81 
f 74/108/80 68/110/74 70/109/76 
f 69/112/75 75/111/81 76/113/82 
f 75/111/81 69/112/75 68/110/74 
f 66/114/72 69/112/75 77/115/83 
f 76/113/82 77/115/83 69/112/75 
f 67/116/73 77/115/83 78/117/84 
f 77/115/83 67/116/73 66/114/72 
f 65/118/71 67/116/73 79/119/85 
f 78/117/84 79/119/85 67/116/73 
f 65/118/71 80/120/86 63/121/69 
f 80/120/86 65/118/71 79/119/85 
f 63/96/69 81/122/87 64/97/70 
f 81/122/87 72/105/78 64/97/70 
f 64/97/70 72/105/78 71/104/77 
f 74/108/80 52/123/61 82/124/88 
f 52/123/61 74/108/80 73/107/79 
f 75/111/81 74/108/80 83/125/23 
f 83/125/23 74/108/80 82/124/88 
f 75/111/81 84/126/24 76/113/82 
f 84/126/24 75/111/81 83/125/23 
f 77/115/83 76/113/82 85/127/25 
f 85/127/25 76/113/82 84/126/24 
f 78/117/84 77/115/83 86/128/26 
f 86/128/26 77/115/83 85/127/25 
f 78/117/84 87/129/27 79/119/85 
f 87/129/27 78/117/84 86/128/26 
f 80/120/86 79/119/85 88/130/89 
f 88/130/89 79/119/85 87/129/27 
f 60/131/65 81/132/87 80/120/86 
f 60/131/65 80/120/86 88/130/89 
f 52/133/90 85/134/91 82/135/92 
f 82/135/92 85/134/91 83/136/93 
f 85/134/91 84/137/45 83/136/93 
f 85/134/91 87/138/94 86/139/95 
f 87/138/94 85/134/91 52/133/90 
f 87/138/94 52/133/90 88/140/96 
f 52/133/90 60/141/96 88/140/96 
f 60/141/66 52/133/97 61/142/67 
f 55/143/98 89/144/99 53/145/100 
f 89/144/99 55/143/98 90/146/101 
f 55/143/98 54/147/102 90/146/101 
f 90/146/101 54/147/102 91/148/102 
f 54/147/102 57/149/103 91/148/102 
f 91/148/102 57/149/103 92/150/104 
f 93/151/105 92/150/104 56/152/106 
f 92/150/104 57/149/103 56/152/106 
f 39/153/48 93/151/105 40/154/49 
f 93/151/105 56/152/106 40/154/49 
f 90/146/101 58/90/63 89/144/99 
f 58/90/63 90/146/101 94/155/107 
f 90/146/101 91/148/102 94/155/107 
f 94/155/107 91/148/102 95/156/108 
f 91/148/102 92/150/104 95/156/108 
f 95/156/108 92/150/104 96/157/109 
f 97/158/110 96/157/109 93/151/105 
f 96/157/109 92/150/104 93/151/105 
f 97/158/110 93/151/105 45/159/54 
f 45/159/54 93/151/105 39/153/48 
f 94/155/107 59/91/64 58/90/63 
f 59/91/64 94/155/107 98/160/111 
f 94/155/107 95/156/108 98/160/111 
f 98/160/111 95/156/108 99/161/112 
f 95/156/108 96/157/109 99/161/112 
f 99/161/112 96/157/109 100/162/113 
f 51/76/60 96/157/109 97/158/110 
f 96/157/109 51/76/60 100/162/113 
f 50/77/59 51/76/60 45/159/54 
f 51/76/60 97/158/110 45/159/54 
f 60/92/65 98/160/111 81/163/87 
f 98/160/111 60/92/65 59/91/64 
f 98/160/111 72/164/78 81/163/87 
f 72/164/78 98/160/111 99/161/112 
f 99/161/112 100/162/113 72/164/78 
f 72/164/78 100/162/113 73/165/79 
f 100/162/113 52/79/61 73/165/79 
f 52/79/61 100/162/113 51/76/60 
f 31/51/41 53/145/100 89/144/99 
f 31/51/41 89/144/99 32/52/42 
f 32/52/42 89/144/99 58/90/63 
f 32/52/42 58/90/63 41/61/50 
f 30/50/40 61/94/67 21/48/38 
f 61/94/67 52/166/97 21/48/38 
f 80/120/86 81/132/87 63/121/69 
f 62/95/68 73/106/79 70/103/76 
# 0 polygons - 196 triangles

