# 3ds Max Wavefront OBJ Exporter v0.97b - (c)2007 guruware
# File Created: 30.01.2015 11:03:25

mtllib r_hand.mtl

#
# object r_hand
#

v  0.0245 -0.1139 0.0177
v  0.0093 -0.1139 0.0288
v  -0.0095 -0.1139 0.0288
v  0.0245 -0.1139 -0.0180
v  -0.0248 -0.1139 0.0177
v  -0.0306 -0.1139 -0.0002
v  -0.0248 -0.1139 -0.0180
v  -0.0095 -0.1139 -0.0291
v  0.0093 -0.1139 -0.0291
v  0.0303 -0.1139 -0.0002
v  0.0303 -0.0935 -0.0002
v  0.0245 -0.0935 0.0177
v  0.0093 -0.0935 0.0288
v  -0.0095 -0.0935 0.0288
v  -0.0248 -0.0935 0.0177
v  -0.0306 -0.0935 -0.0002
v  -0.0248 -0.0935 -0.0180
v  -0.0095 -0.0935 -0.0291
v  0.0093 -0.0935 -0.0291
v  0.0245 -0.0935 -0.0180
v  0.0384 -0.0935 -0.0002
v  0.0311 -0.0935 0.0225
v  0.0118 -0.0935 0.0365
v  -0.0121 -0.0935 0.0365
v  -0.0314 -0.0935 0.0225
v  -0.0387 -0.0935 -0.0002
v  -0.0314 -0.0935 -0.0228
v  -0.0121 -0.0935 -0.0368
v  0.0118 -0.0935 -0.0368
v  0.0311 -0.0935 -0.0228
v  0.0387 -0.0933 0.0219
v  0.0405 -0.0933 0.0167
v  0.0405 -0.0825 0.0167
v  0.0387 -0.0825 0.0219
v  0.0311 -0.0824 0.0225
v  0.0118 -0.0824 0.0365
v  -0.0121 -0.0824 0.0365
v  -0.0314 -0.0824 0.0225
v  -0.0407 -0.0933 0.0173
v  -0.0393 -0.0933 0.0219
v  -0.0393 -0.0825 0.0219
v  -0.0407 -0.0825 0.0173
v  -0.0420 -0.0933 -0.0134
v  -0.0440 -0.0933 -0.0085
v  -0.0440 -0.0825 -0.0085
v  -0.0420 -0.0825 -0.0134
v  -0.0314 -0.0824 -0.0228
v  -0.0121 -0.0824 -0.0368
v  0.0118 -0.0824 -0.0368
v  0.0311 -0.0824 -0.0228
v  0.0406 -0.0933 -0.0179
v  0.0388 -0.0933 -0.0221
v  0.0388 -0.0825 -0.0221
v  0.0406 -0.0825 -0.0179
v  0.0384 -0.0824 -0.0002
v  0.0509 -0.0824 -0.0002
v  0.0412 -0.0824 0.0299
v  0.0156 -0.0824 0.0484
v  -0.0159 -0.0824 0.0484
v  -0.0414 -0.0824 0.0299
v  -0.0387 -0.0824 -0.0002
v  -0.0512 -0.0824 -0.0002
v  -0.0414 -0.0824 -0.0302
v  -0.0159 -0.0824 -0.0487
v  0.0156 -0.0824 -0.0487
v  0.0412 -0.0824 -0.0302
v  0.0509 -0.0682 -0.0002
v  0.0412 -0.0682 0.0299
v  0.0156 -0.0682 0.0484
v  -0.0159 -0.0682 0.0484
v  -0.0414 -0.0682 0.0299
v  -0.0512 -0.0682 -0.0002
v  -0.0414 -0.0682 -0.0302
v  -0.0159 -0.0682 -0.0487
v  0.0156 -0.0682 -0.0487
v  0.0412 -0.0682 -0.0302
v  0.0403 -0.0508 -0.0002
v  0.0326 -0.0508 0.0236
v  0.0124 -0.0508 0.0383
v  -0.0127 -0.0508 0.0383
v  -0.0329 -0.0508 0.0236
v  -0.0406 -0.0508 -0.0002
v  -0.0329 -0.0508 -0.0239
v  -0.0127 -0.0508 -0.0386
v  0.0124 -0.0508 -0.0386
v  0.0326 -0.0508 -0.0239
v  0.0403 -0.0383 -0.0002
v  0.0326 -0.0333 0.0236
v  0.0124 -0.0416 0.0383
v  -0.0127 -0.0416 0.0383
v  -0.0329 -0.0333 0.0236
v  -0.0406 -0.0383 -0.0002
v  -0.0329 -0.0333 -0.0239
v  -0.0127 -0.0405 -0.0386
v  0.0124 -0.0405 -0.0386
v  0.0326 -0.0333 -0.0239
v  -0.0145 -0.0303 0.0283
v  -0.0144 -0.0378 -0.0002
v  -0.0147 -0.0296 -0.0285
v  0.0139 -0.0303 0.0283
v  0.0147 -0.0378 -0.0002
v  0.0143 -0.0296 -0.0285
v  -0.0147 0.0336 -0.0237
v  -0.0147 0.0136 -0.0382
v  -0.0147 -0.0112 -0.0382
v  -0.0147 -0.0112 0.0379
v  -0.0147 0.0136 0.0379
v  -0.0147 0.0336 0.0234
v  -0.0147 0.0412 -0.0002
v  0.0143 0.0336 0.0234
v  0.0143 0.0412 -0.0002
v  0.0143 0.0136 0.0379
v  0.0143 -0.0112 0.0379
v  0.0143 -0.0112 -0.0382
v  0.0143 0.0136 -0.0382
v  0.0143 0.0336 -0.0237
v  0.0352 -0.0933 0.0099
v  0.0313 -0.0933 0.0219
v  0.0352 -0.0825 0.0099
v  0.0313 -0.0825 0.0219
v  0.0311 -0.0933 -0.0227
v  0.0351 -0.0933 -0.0106
v  0.0311 -0.0825 -0.0227
v  0.0351 -0.0825 -0.0106
v  -0.0315 -0.0933 0.0222
v  -0.0353 -0.0933 0.0104
v  -0.0315 -0.0825 0.0222
v  -0.0353 -0.0825 0.0104
v  -0.0378 -0.0933 -0.0032
v  -0.0344 -0.0933 -0.0136
v  -0.0378 -0.0825 -0.0032
v  -0.0344 -0.0825 -0.0136
v  -0.0348 -0.0933 0.0232
v  -0.0378 -0.0933 0.0129
v  -0.0348 -0.0825 0.0232
v  -0.0378 -0.0825 0.0129
v  -0.0409 -0.0933 -0.0042
v  -0.0375 -0.0933 -0.0146
v  -0.0409 -0.0825 -0.0042
v  -0.0375 -0.0825 -0.0146
v  0.0376 -0.0933 0.0125
v  0.0343 -0.0933 0.0230
v  0.0376 -0.0825 0.0125
v  0.0343 -0.0825 0.0230
v  0.0347 -0.0933 -0.0236
v  0.0387 -0.0933 -0.0140
v  0.0347 -0.0825 -0.0236
v  0.0387 -0.0825 -0.0140
# 148 vertices

vn 0.0000 -1.0000 0.0000
vn 0.8090 0.0000 0.5878
vn 1.0000 0.0000 0.0000
vn 0.3090 0.0000 0.9511
vn -0.3090 0.0000 0.9511
vn -0.8090 0.0000 0.5878
vn -1.0000 0.0000 0.0000
vn -0.8090 0.0000 -0.5878
vn -0.3090 0.0000 -0.9511
vn 0.3090 0.0000 -0.9511
vn 0.8090 0.0000 -0.5878
vn 0.9453 0.0000 0.3262
vn 0.8092 0.0002 0.5875
vn 0.8092 -0.0002 0.5875
vn -0.7996 -0.0136 0.6004
vn -0.7996 0.0136 0.6004
vn -0.9529 0.0000 0.3034
vn -0.9263 0.0000 -0.3768
vn 0.7548 -0.0900 -0.6497
vn 0.7551 0.0899 -0.6495
vn 0.9222 0.0000 -0.3867
vn 0.9663 0.2576 0.0000
vn 0.7817 0.2576 0.5680
vn 0.2986 0.2576 0.9190
vn -0.2986 0.2576 0.9190
vn -0.7817 0.2576 0.5679
vn -0.9663 0.2576 0.0000
vn -0.7817 0.2576 -0.5680
vn -0.2986 0.2576 -0.9190
vn 0.2986 0.2576 -0.9190
vn 0.7817 0.2576 -0.5680
vn 0.9584 0.2855 0.0000
vn 0.7753 0.2855 0.5633
vn 0.2962 0.2855 0.9115
vn -0.2962 0.2855 0.9115
vn -0.7753 0.2855 0.5633
vn -0.9584 0.2855 0.0000
vn -0.7754 0.2855 -0.5633
vn -0.2962 0.2855 -0.9115
vn 0.2962 0.2855 -0.9115
vn 0.7754 0.2855 -0.5633
vn 0.7550 0.1282 0.6431
vn 0.2495 0.3010 0.9204
vn -0.2490 0.3003 0.9208
vn -0.7553 0.1267 0.6430
vn -0.7565 0.1263 -0.6416
vn -0.2498 0.3119 -0.9167
vn 0.2500 0.3122 -0.9166
vn 0.7565 0.1270 -0.6416
vn -0.0617 0.9711 -0.2304
vn -0.0942 0.9626 -0.2540
vn -0.0591 0.9982 0.0042
vn -0.0216 0.9998 0.0000
vn -0.0784 0.9670 0.2426
vn -0.1239 0.9533 0.2754
vn -0.1577 0.6424 0.7500
vn -0.1691 0.6557 -0.7359
vn 0.1532 0.6458 0.7480
vn 0.0619 0.9714 -0.2291
vn 0.0221 0.9998 0.0000
vn 0.0592 0.9982 0.0037
vn 0.0934 0.9634 -0.2513
vn 0.0793 0.9672 0.2413
vn 0.1239 0.9542 0.2724
vn 0.1670 0.6573 -0.7349
vn -1.0000 -0.0017 0.0005
vn -1.0000 0.0005 0.0065
vn -1.0000 -0.0023 0.0010
vn -0.9999 0.0100 0.0139
vn -1.0000 -0.0054 -0.0032
vn -1.0000 -0.0032 -0.0022
vn 0.0000 0.8090 0.5878
vn 0.0000 1.0000 0.0000
vn 0.0000 0.3090 0.9511
vn 0.0000 -0.2308 0.9730
vn 0.0000 -0.2301 0.9732
vn 0.0000 -0.4500 0.8930
vn 0.0000 -0.4501 0.8930
vn 0.0000 -0.2401 -0.9708
vn 0.0000 -0.2399 -0.9708
vn 0.0000 -0.4658 -0.8849
vn 0.0000 0.3090 -0.9511
vn 0.0000 0.8090 -0.5878
vn 1.0000 0.0027 0.0009
vn 0.9999 -0.0048 0.0133
vn 1.0000 -0.0015 0.0023
vn 0.9986 -0.0375 0.0375
vn 0.9998 -0.0084 -0.0172
vn 1.0000 0.0022 -0.0058
vn 1.0000 -0.0011 0.0013
vn 0.9510 -0.0158 0.3088
vn 0.9511 0.0027 0.3089
vn 1.0000 0.0011 0.0013
vn 0.9506 0.0309 0.3090
vn 0.9511 -0.0017 0.3087
vn 0.8568 -0.1377 -0.4968
vn 0.9492 -0.0716 -0.3064
vn 0.8570 0.1384 -0.4963
vn 0.9435 0.1287 -0.3055
vn -1.0000 -0.0019 0.0006
vn -0.9438 -0.0532 0.3262
vn -0.9432 -0.1290 0.3062
vn -0.9437 0.0522 0.3266
vn -1.0000 0.0019 0.0006
vn -0.9468 0.0973 0.3068
vn -0.9505 -0.0438 -0.3075
vn -0.9501 0.0407 -0.3094
vn -0.9497 0.0567 -0.3080
vn -0.9511 -0.0005 -0.3090
vn 0.3021 0.0000 0.9533
vn 0.0107 0.0000 0.9999
vn -0.7127 0.0000 -0.7014
vn -0.7747 0.0000 -0.6324
vn -0.2817 0.0000 0.9595
vn -0.8299 0.0000 -0.5579
vn -0.3099 0.0000 0.9508
vn -0.5913 0.0000 0.8064
vn 0.3100 0.0000 -0.9507
vn 0.0318 0.0000 -0.9995
vn -0.8136 0.0000 0.5815
vn -0.2489 0.0000 -0.9685
vn 0.7241 0.0000 -0.6897
vn 0.7733 0.0000 -0.6341
vn -0.3574 0.0000 0.9340
vn -0.0599 0.0000 0.9982
vn 0.8181 0.0000 -0.5750
vn 0.2431 0.0000 0.9700
vn -0.2396 0.0000 -0.9709
vn 0.0546 0.0000 -0.9985
vn 0.6821 0.0000 0.7313
vn 0.8062 0.0000 0.5916
vn 0.3441 0.0000 -0.9389
vn 0.9022 0.0000 0.4314
# 133 vertex normals

vt 0.5294 0.2520 0.0000
vt 0.5294 0.2603 0.0000
vt 0.5245 0.2670 0.0000
vt 0.5166 0.2427 0.0000
vt 0.5166 0.2696 0.0000
vt 0.5087 0.2670 0.0000
vt 0.5038 0.2603 0.0000
vt 0.5038 0.2520 0.0000
vt 0.5087 0.2453 0.0000
vt 0.5245 0.2453 0.0000
vt 0.0023 0.2168 0.0000
vt 0.0022 0.2051 0.0000
vt 0.0149 0.2050 0.0000
vt 0.0150 0.2167 0.0000
vt 0.0024 0.2285 0.0000
vt 0.0151 0.2284 0.0000
vt 0.0025 0.2402 0.0000
vt 0.0152 0.2401 0.0000
vt 0.0026 0.2519 0.0000
vt 0.0153 0.2518 0.0000
vt 0.0027 0.2636 0.0000
vt 0.0154 0.2635 0.0000
vt 0.0028 0.2752 0.0000
vt 0.0155 0.2751 0.0000
vt 0.0029 0.2869 0.0000
vt 0.0156 0.2868 0.0000
vt 0.0020 0.1818 0.0000
vt 0.0019 0.1701 0.0000
vt 0.0146 0.1700 0.0000
vt 0.0147 0.1817 0.0000
vt 0.0021 0.1935 0.0000
vt 0.0148 0.1933 0.0000
vt 0.5312 0.2522 0.0000
vt 0.5255 0.2444 0.0000
vt 0.5280 0.2410 0.0000
vt 0.5352 0.2509 0.0000
vt 0.5312 0.2618 0.0000
vt 0.5352 0.2631 0.0000
vt 0.5255 0.2696 0.0000
vt 0.5280 0.2730 0.0000
vt 0.5164 0.2726 0.0000
vt 0.5164 0.2767 0.0000
vt 0.5072 0.2696 0.0000
vt 0.5048 0.2730 0.0000
vt 0.5016 0.2618 0.0000
vt 0.4976 0.2631 0.0000
vt 0.5016 0.2522 0.0000
vt 0.4976 0.2509 0.0000
vt 0.5072 0.2444 0.0000
vt 0.5048 0.2410 0.0000
vt 0.5164 0.2414 0.0000
vt 0.5164 0.2372 0.0000
vt 0.2961 0.1084 0.0000
vt 0.2956 0.1118 0.0000
vt 0.2889 0.1108 0.0000
vt 0.2895 0.1074 0.0000
vt 0.7203 0.3928 0.0000
vt 0.7202 0.4076 0.0000
vt 0.7133 0.4075 0.0000
vt 0.7134 0.3927 0.0000
vt 0.7204 0.3780 0.0000
vt 0.7135 0.3779 0.0000
vt 0.7206 0.3631 0.0000
vt 0.7137 0.3631 0.0000
vt 0.3088 0.1161 0.0000
vt 0.3119 0.1163 0.0000
vt 0.3113 0.1230 0.0000
vt 0.3083 0.1227 0.0000
vt 0.2962 0.1248 0.0000
vt 0.2962 0.1281 0.0000
vt 0.2895 0.1282 0.0000
vt 0.2895 0.1249 0.0000
vt 0.7209 0.3187 0.0000
vt 0.7208 0.3335 0.0000
vt 0.7139 0.3334 0.0000
vt 0.7140 0.3186 0.0000
vt 0.7210 0.3039 0.0000
vt 0.7141 0.3038 0.0000
vt 0.7200 0.4372 0.0000
vt 0.7199 0.4520 0.0000
vt 0.7130 0.4520 0.0000
vt 0.7131 0.4372 0.0000
vt 0.3416 0.1214 0.0000
vt 0.3444 0.1220 0.0000
vt 0.3429 0.1286 0.0000
vt 0.3401 0.1279 0.0000
vt 0.5367 0.2502 0.0000
vt 0.5292 0.2397 0.0000
vt 0.5332 0.2343 0.0000
vt 0.5431 0.2482 0.0000
vt 0.5366 0.2631 0.0000
vt 0.5430 0.2652 0.0000
vt 0.5289 0.2734 0.0000
vt 0.5328 0.2789 0.0000
vt 0.5167 0.2773 0.0000
vt 0.5166 0.2840 0.0000
vt 0.5045 0.2732 0.0000
vt 0.5005 0.2786 0.0000
vt 0.4970 0.2627 0.0000
vt 0.4906 0.2647 0.0000
vt 0.4971 0.2499 0.0000
vt 0.4908 0.2477 0.0000
vt 0.5048 0.2395 0.0000
vt 0.5009 0.2341 0.0000
vt 0.5170 0.2357 0.0000
vt 0.5171 0.2289 0.0000
vt 0.5522 0.0092 0.0000
vt 0.5725 0.0081 0.0000
vt 0.5722 0.0169 0.0000
vt 0.5535 0.0179 0.0000
vt 0.5324 0.0139 0.0000
vt 0.5352 0.0222 0.0000
vt 0.5123 0.0172 0.0000
vt 0.5173 0.0244 0.0000
vt 0.4928 0.0324 0.0000
vt 0.5008 0.0359 0.0000
vt 0.4872 0.0501 0.0000
vt 0.4960 0.0499 0.0000
vt 0.4876 0.0643 0.0000
vt 0.4962 0.0625 0.0000
vt 0.4925 0.0770 0.0000
vt 0.5006 0.0737 0.0000
vt 0.4991 0.0922 0.0000
vt 0.5071 0.0880 0.0000
vt 0.5926 0.0108 0.0000
vt 0.6024 0.0127 0.0000
vt 0.6009 0.0219 0.0000
vt 0.5908 0.0193 0.0000
vt 0.5717 0.0294 0.0000
vt 0.5553 0.0305 0.0000
vt 0.5393 0.0340 0.0000
vt 0.5246 0.0346 0.0000
vt 0.5124 0.0410 0.0000
vt 0.5085 0.0495 0.0000
vt 0.5086 0.0598 0.0000
vt 0.5121 0.0688 0.0000
vt 0.5170 0.0802 0.0000
vt 0.5980 0.0342 0.0000
vt 0.5879 0.0316 0.0000
vt 0.5714 0.0371 0.0000
vt 0.5568 0.0413 0.0000
vt 0.5411 0.0394 0.0000
vt 0.5326 0.0426 0.0000
vt 0.5225 0.0454 0.0000
vt 0.5207 0.0502 0.0000
vt 0.5193 0.0575 0.0000
vt 0.5181 0.0663 0.0000
vt 0.5226 0.0772 0.0000
vt 0.5969 0.0403 0.0000
vt 0.5856 0.0424 0.0000
vt 0.7244 0.2895 0.0000
vt 0.7227 0.2774 0.0000
vt 0.7377 0.2806 0.0000
vt 0.7375 0.2958 0.0000
vt 0.7508 0.2899 0.0000
vt 0.7528 0.2779 0.0000
vt 0.1854 0.2675 0.0000
vt 0.1956 0.2763 0.0000
vt 0.1858 0.2755 0.0000
vt 0.0584 0.2785 0.0000
vt 0.0636 0.2736 0.0000
vt 0.0635 0.2781 0.0000
vt 0.1955 0.2867 0.0000
vt 0.1851 0.2954 0.0000
vt 0.1857 0.2873 0.0000
vt 0.7847 0.1870 0.0000
vt 0.7926 0.2014 0.0000
vt 0.7774 0.2032 0.0000
vt 0.7720 0.1863 0.0000
vt 0.7883 0.2174 0.0000
vt 0.7763 0.2210 0.0000
vt 0.0634 0.2849 0.0000
vt 0.0634 0.2893 0.0000
vt 0.0583 0.2844 0.0000
vt 0.7510 0.2380 0.0000
vt 0.7588 0.2505 0.0000
vt 0.7586 0.2660 0.0000
vt 0.7177 0.2650 0.0000
vt 0.7179 0.2499 0.0000
vt 0.7257 0.2378 0.0000
vt 0.7384 0.2333 0.0000
vt 0.1400 0.2753 0.0000
vt 0.1399 0.2873 0.0000
vt 0.1239 0.2872 0.0000
vt 0.1240 0.2752 0.0000
vt 0.1560 0.2753 0.0000
vt 0.1559 0.2874 0.0000
vt 0.1720 0.2754 0.0000
vt 0.1718 0.2874 0.0000
vt 0.0761 0.2749 0.0000
vt 0.0759 0.2869 0.0000
vt 0.0921 0.2750 0.0000
vt 0.0919 0.2870 0.0000
vt 0.1080 0.2751 0.0000
vt 0.1079 0.2871 0.0000
vt 0.7320 0.1950 0.0000
vt 0.7431 0.1841 0.0000
vt 0.7587 0.1817 0.0000
vt 0.7653 0.2287 0.0000
vt 0.7501 0.2310 0.0000
vt 0.7364 0.2239 0.0000
vt 0.7295 0.2102 0.0000
vt 0.7201 0.4224 0.0000
vt 0.7200 0.4158 0.0000
vt 0.7201 0.4080 0.0000
vt 0.7132 0.4224 0.0000
vt 0.7133 0.4158 0.0000
vt 0.7134 0.4080 0.0000
vt 0.7199 0.4371 0.0000
vt 0.7199 0.4292 0.0000
vt 0.7132 0.4371 0.0000
vt 0.7133 0.4292 0.0000
vt 0.7207 0.3483 0.0000
vt 0.7205 0.3629 0.0000
vt 0.7205 0.3552 0.0000
vt 0.7138 0.3629 0.0000
vt 0.7138 0.3483 0.0000
vt 0.7138 0.3551 0.0000
vt 0.7206 0.3464 0.0000
vt 0.7206 0.3395 0.0000
vt 0.7139 0.3463 0.0000
vt 0.7139 0.3395 0.0000
vt 0.3034 0.1156 0.0000
vt 0.3075 0.1091 0.0000
vt 0.3093 0.1102 0.0000
vt 0.3056 0.1158 0.0000
vt 0.3169 0.1168 0.0000
vt 0.3163 0.1234 0.0000
vt 0.3142 0.1232 0.0000
vt 0.3148 0.1166 0.0000
vt 0.3057 0.1294 0.0000
vt 0.3028 0.1222 0.0000
vt 0.3050 0.1224 0.0000
vt 0.3077 0.1285 0.0000
vt 0.3105 0.1129 0.0000
vt 0.3088 0.1154 0.0000
vt 0.3082 0.1233 0.0000
vt 0.3093 0.1261 0.0000
vt 0.2962 0.1199 0.0000
vt 0.3030 0.1198 0.0000
vt 0.3030 0.1218 0.0000
vt 0.2962 0.1219 0.0000
vt 0.2963 0.1335 0.0000
vt 0.2896 0.1335 0.0000
vt 0.2896 0.1315 0.0000
vt 0.2963 0.1314 0.0000
vt 0.2827 0.1200 0.0000
vt 0.2895 0.1200 0.0000
vt 0.2895 0.1220 0.0000
vt 0.2827 0.1220 0.0000
vt 0.3011 0.1245 0.0000
vt 0.2978 0.1243 0.0000
vt 0.2879 0.1244 0.0000
vt 0.2847 0.1247 0.0000
vt 0.3021 0.1146 0.0000
vt 0.2947 0.1171 0.0000
vt 0.2950 0.1150 0.0000
vt 0.3015 0.1126 0.0000
vt 0.2881 0.1161 0.0000
vt 0.2884 0.1139 0.0000
vt 0.2819 0.1114 0.0000
vt 0.2831 0.1097 0.0000
vt 0.2903 0.1026 0.0000
vt 0.2969 0.1036 0.0000
vt 0.2965 0.1056 0.0000
vt 0.2899 0.1046 0.0000
vt 0.2960 0.1119 0.0000
vt 0.2993 0.1109 0.0000
vt 0.2857 0.1087 0.0000
vt 0.2885 0.1107 0.0000
vt 0.3505 0.1153 0.0000
vt 0.3492 0.1232 0.0000
vt 0.3470 0.1227 0.0000
vt 0.3475 0.1162 0.0000
vt 0.3477 0.1297 0.0000
vt 0.3455 0.1292 0.0000
vt 0.3454 0.1373 0.0000
vt 0.3431 0.1352 0.0000
vt 0.3344 0.1266 0.0000
vt 0.3360 0.1201 0.0000
vt 0.3390 0.1208 0.0000
vt 0.3375 0.1273 0.0000
vt 0.3452 0.1207 0.0000
vt 0.3454 0.1178 0.0000
vt 0.3419 0.1328 0.0000
vt 0.3430 0.1301 0.0000
# 286 texture coords

g r_hand
usemtl extremities_diffuse
s off
f 1/1/1 2/2/1 3/3/1 
f 3/3/1 4/4/1 1/1/1 
f 3/3/1 5/5/1 6/6/1 
f 6/6/1 4/4/1 3/3/1 
f 6/6/1 7/7/1 8/8/1 
f 8/8/1 4/4/1 6/6/1 
f 8/8/1 9/9/1 4/4/1 
f 10/10/1 1/1/1 4/4/1 
f 1/11/2 10/12/3 11/13/3 
f 11/13/3 12/14/2 1/11/2 
f 2/15/4 1/11/2 12/14/2 
f 12/14/2 13/16/4 2/15/4 
f 3/17/5 2/15/4 13/16/4 
f 13/16/4 14/18/5 3/17/5 
f 5/19/6 3/17/5 14/18/5 
f 14/18/5 15/20/6 5/19/6 
f 6/21/7 5/19/6 15/20/6 
f 15/20/6 16/22/7 6/21/7 
f 7/23/8 6/21/7 16/22/7 
f 16/22/7 17/24/8 7/23/8 
f 8/25/9 7/23/8 17/24/8 
f 17/24/8 18/26/9 8/25/9 
f 9/27/10 8/28/9 18/29/9 
f 18/29/9 19/30/10 9/27/10 
f 4/31/11 9/27/10 19/30/10 
f 19/30/10 20/32/11 4/31/11 
f 10/12/3 4/31/11 20/32/11 
f 20/32/11 11/13/3 10/12/3 
f 12/33/1 11/34/1 21/35/1 
f 21/35/1 22/36/1 12/33/1 
f 13/37/1 12/33/1 22/36/1 
f 22/36/1 23/38/1 13/37/1 
f 14/39/1 13/37/1 23/38/1 
f 23/38/1 24/40/1 14/39/1 
f 15/41/1 14/39/1 24/40/1 
f 24/40/1 25/42/1 15/41/1 
f 16/43/1 15/41/1 25/42/1 
f 25/42/1 26/44/1 16/43/1 
f 17/45/1 16/43/1 26/44/1 
f 26/44/1 27/46/1 17/45/1 
f 18/47/1 17/45/1 27/46/1 
f 27/46/1 28/48/1 18/47/1 
f 19/49/1 18/47/1 28/48/1 
f 28/48/1 29/50/1 19/49/1 
f 20/51/1 19/49/1 29/50/1 
f 29/50/1 30/52/1 20/51/1 
f 11/34/1 20/51/1 30/52/1 
f 30/52/1 21/35/1 11/34/1 
f 31/53/12 32/54/12 33/55/12 
f 33/55/12 34/56/12 31/53/12 
f 23/57/4 22/58/13 35/59/14 
f 35/59/14 36/60/4 23/57/4 
f 24/61/5 23/57/4 36/60/4 
f 36/60/4 37/62/5 24/61/5 
f 25/63/15 24/61/5 37/62/5 
f 37/62/5 38/64/16 25/63/15 
f 39/65/17 40/66/17 41/67/17 
f 41/67/17 42/68/17 39/65/17 
f 43/69/18 44/70/18 45/71/18 
f 45/71/18 46/72/18 43/69/18 
f 28/73/9 27/74/8 47/75/8 
f 47/75/8 48/76/9 28/73/9 
f 29/77/10 28/73/9 48/76/9 
f 48/76/9 49/78/10 29/77/10 
f 30/79/19 29/80/10 49/81/10 
f 49/81/10 50/82/20 30/79/19 
f 51/83/21 52/84/21 53/85/21 
f 53/85/21 54/86/21 51/83/21 
f 35/87/1 55/88/1 56/89/1 
f 56/89/1 57/90/1 35/87/1 
f 36/91/1 35/87/1 57/90/1 
f 57/90/1 58/92/1 36/91/1 
f 37/93/1 36/91/1 58/92/1 
f 58/92/1 59/94/1 37/93/1 
f 38/95/1 37/93/1 59/94/1 
f 59/94/1 60/96/1 38/95/1 
f 61/97/1 38/95/1 60/96/1 
f 60/96/1 62/98/1 61/97/1 
f 47/99/1 61/97/1 62/98/1 
f 62/98/1 63/100/1 47/99/1 
f 48/101/1 47/99/1 63/100/1 
f 63/100/1 64/102/1 48/101/1 
f 49/103/1 48/101/1 64/102/1 
f 64/102/1 65/104/1 49/103/1 
f 50/105/1 49/103/1 65/104/1 
f 65/104/1 66/106/1 50/105/1 
f 55/88/1 50/105/1 66/106/1 
f 66/106/1 56/89/1 55/88/1 
f 57/107/2 56/108/3 67/109/22 
f 67/109/22 68/110/23 57/107/2 
f 58/111/4 57/107/2 68/110/23 
f 68/110/23 69/112/24 58/111/4 
f 59/113/5 58/111/4 69/112/24 
f 69/112/24 70/114/25 59/113/5 
f 60/115/6 59/113/5 70/114/25 
f 70/114/25 71/116/26 60/115/6 
f 62/117/7 60/115/6 71/116/26 
f 71/116/26 72/118/27 62/117/7 
f 63/119/8 62/117/7 72/118/27 
f 72/118/27 73/120/28 63/119/8 
f 64/121/9 63/119/8 73/120/28 
f 73/120/28 74/122/29 64/121/9 
f 65/123/10 64/121/9 74/122/29 
f 74/122/29 75/124/30 65/123/10 
f 66/125/11 65/126/10 75/127/30 
f 75/127/30 76/128/31 66/125/11 
f 56/108/3 66/125/11 76/128/31 
f 76/128/31 67/109/22 56/108/3 
f 68/110/23 67/109/22 77/129/32 
f 77/129/32 78/130/33 68/110/23 
f 69/112/24 68/110/23 78/130/33 
f 78/130/33 79/131/34 69/112/24 
f 70/114/25 69/112/24 79/131/34 
f 79/131/34 80/132/35 70/114/25 
f 71/116/26 70/114/25 80/132/35 
f 80/132/35 81/133/36 71/116/26 
f 72/118/27 71/116/26 81/133/36 
f 81/133/36 82/134/37 72/118/27 
f 73/120/28 72/118/27 82/134/37 
f 82/134/37 83/135/38 73/120/28 
f 74/122/29 73/120/28 83/135/38 
f 83/135/38 84/136/39 74/122/29 
f 75/124/30 74/122/29 84/136/39 
f 84/136/39 85/137/40 75/124/30 
f 76/128/31 75/127/30 85/138/40 
f 85/138/40 86/139/41 76/128/31 
f 67/109/22 76/128/31 86/139/41 
f 86/139/41 77/129/32 67/109/22 
f 78/130/33 77/129/32 87/140/3 
f 87/140/3 88/141/42 78/130/33 
f 79/131/34 78/130/33 88/141/42 
f 88/141/42 89/142/43 79/131/34 
f 80/132/35 79/131/34 89/142/43 
f 89/142/43 90/143/44 80/132/35 
f 81/133/36 80/132/35 90/143/44 
f 90/143/44 91/144/45 81/133/36 
f 82/134/37 81/133/36 91/144/45 
f 91/144/45 92/145/7 82/134/37 
f 83/135/38 82/134/37 92/145/7 
f 92/145/7 93/146/46 83/135/38 
f 84/136/39 83/135/38 93/146/46 
f 93/146/46 94/147/47 84/136/39 
f 85/137/40 84/136/39 94/147/47 
f 94/147/47 95/148/48 85/137/40 
f 86/139/41 85/138/40 95/149/48 
f 95/149/48 96/150/49 86/139/41 
f 77/129/32 86/139/41 96/150/49 
f 96/150/49 87/140/3 77/129/32 
f 91/151/50 97/152/51 98/153/52 
f 98/153/52 92/154/53 91/151/50 
f 93/155/54 92/154/53 98/153/52 
f 98/153/52 99/156/55 93/155/54 
f 91/157/45 90/158/44 97/159/56 
f 94/160/47 93/161/46 99/162/57 
f 89/163/43 88/164/42 100/165/58 
f 88/166/59 87/167/60 101/168/61 
f 101/168/61 100/169/62 88/166/59 
f 101/168/61 87/167/60 96/170/63 
f 96/170/63 102/171/64 101/168/61 
f 102/172/65 96/173/49 95/174/48 
f 90/158/44 89/163/43 100/165/58 
f 100/165/58 97/159/56 90/158/44 
f 99/162/57 102/172/65 95/174/48 
f 95/174/48 94/160/47 99/162/57 
f 103/175/66 104/176/7 105/177/67 
f 105/177/67 98/153/68 103/175/66 
f 105/177/67 99/156/69 98/153/68 
f 98/153/68 97/152/70 106/178/71 
f 106/178/71 103/175/66 98/153/68 
f 106/178/71 107/179/7 108/180/7 
f 108/180/7 103/175/66 106/178/71 
f 109/181/7 103/175/66 108/180/7 
f 108/182/72 110/183/72 111/184/73 
f 111/184/73 109/185/73 108/182/72 
f 107/186/74 112/187/74 110/183/72 
f 110/183/72 108/182/72 107/186/74 
f 106/188/75 113/189/76 112/187/74 
f 112/187/74 107/186/74 106/188/75 
f 97/159/77 100/165/78 113/189/76 
f 113/189/76 106/188/75 97/159/77 
f 105/190/79 114/191/80 102/172/81 
f 102/172/81 99/162/81 105/190/79 
f 104/192/82 115/193/82 114/191/80 
f 114/191/80 105/190/79 104/192/82 
f 103/194/83 116/195/83 115/193/82 
f 115/193/82 104/192/82 103/194/83 
f 109/185/73 111/184/73 116/195/83 
f 116/195/83 103/194/83 109/185/73 
f 110/196/84 112/197/3 113/198/85 
f 113/198/85 101/168/86 110/196/84 
f 113/198/85 100/169/87 101/168/86 
f 101/168/86 102/171/88 114/199/89 
f 114/199/89 110/196/84 101/168/86 
f 114/199/89 115/200/3 116/201/3 
f 116/201/3 110/196/84 114/199/89 
f 111/202/3 110/196/84 116/201/3 
f 22/58/13 21/203/90 117/204/91 
f 117/204/91 118/205/92 22/58/13 
f 21/203/90 55/206/93 119/207/94 
f 119/207/94 117/204/91 21/203/90 
f 55/206/93 35/59/14 120/208/95 
f 120/208/95 119/207/94 55/206/93 
f 35/59/14 22/58/13 118/205/92 
f 118/205/92 120/208/95 35/59/14 
f 21/203/90 30/79/19 121/209/96 
f 121/209/96 122/210/97 21/203/90 
f 30/79/19 50/82/20 123/211/98 
f 123/211/98 121/209/96 30/79/19 
f 50/82/20 55/206/93 124/212/99 
f 124/212/99 123/211/98 50/82/20 
f 55/206/93 21/203/90 122/210/97 
f 122/210/97 124/212/99 55/206/93 
f 26/213/100 25/63/15 125/214/101 
f 125/214/101 126/215/102 26/213/100 
f 25/63/15 38/64/16 127/216/103 
f 127/216/103 125/214/101 25/63/15 
f 38/64/16 61/217/104 128/218/105 
f 128/218/105 127/216/103 38/64/16 
f 61/217/104 26/213/100 126/215/102 
f 126/215/102 128/218/105 61/217/104 
f 27/74/8 26/213/100 129/219/106 
f 129/219/106 130/220/107 27/74/8 
f 26/213/100 61/217/104 131/221/108 
f 131/221/108 129/219/106 26/213/100 
f 61/217/104 47/75/8 132/222/109 
f 132/222/109 131/221/108 61/217/104 
f 47/75/8 27/74/8 130/220/107 
f 130/220/107 132/222/109 47/75/8 
f 126/223/1 125/224/1 133/225/1 
f 133/225/1 134/226/1 126/223/1 
f 125/227/110 127/228/110 135/229/111 
f 135/229/111 133/230/111 125/227/110 
f 127/231/73 128/232/73 136/233/73 
f 136/233/73 135/234/73 127/231/73 
f 128/232/112 126/223/112 134/226/113 
f 134/226/113 136/233/113 128/232/112 
f 134/226/1 133/225/1 40/235/1 
f 40/235/1 39/236/1 134/226/1 
f 133/230/111 135/229/111 41/67/114 
f 41/67/114 40/66/114 133/230/111 
f 135/234/73 136/233/73 42/237/73 
f 42/237/73 41/238/73 135/234/73 
f 136/233/113 134/226/113 39/65/115 
f 39/65/115 42/68/115 136/233/113 
f 130/239/1 129/240/1 137/241/1 
f 137/241/1 138/242/1 130/239/1 
f 129/243/116 131/244/116 139/245/117 
f 139/245/117 137/246/117 129/243/116 
f 131/247/73 132/248/73 140/249/73 
f 140/249/73 139/250/73 131/247/73 
f 132/248/118 130/239/118 138/242/119 
f 138/242/119 140/249/119 132/248/118 
f 138/242/1 137/241/1 44/251/1 
f 44/251/1 43/252/1 138/242/1 
f 137/246/117 139/245/117 45/71/120 
f 45/71/120 44/70/120 137/246/117 
f 139/250/73 140/249/73 46/253/73 
f 46/253/73 45/254/73 139/250/73 
f 140/249/119 138/242/119 43/69/121 
f 43/69/121 46/72/121 140/249/119 
f 118/255/1 117/256/1 141/257/1 
f 141/257/1 142/258/1 118/255/1 
f 117/256/122 119/259/122 143/260/123 
f 143/260/123 141/257/123 117/256/122 
f 119/259/73 120/261/73 144/262/73 
f 144/262/73 143/260/73 119/259/73 
f 120/263/124 118/264/124 142/265/125 
f 142/265/125 144/266/125 120/263/124 
f 142/258/1 141/257/1 32/267/1 
f 32/267/1 31/268/1 142/258/1 
f 141/257/123 143/260/123 33/55/126 
f 33/55/126 32/54/126 141/257/123 
f 143/260/73 144/262/73 34/269/73 
f 34/269/73 33/270/73 143/260/73 
f 144/266/125 142/265/125 31/53/127 
f 31/53/127 34/56/127 144/266/125 
f 122/271/1 121/272/1 145/273/1 
f 145/273/1 146/274/1 122/271/1 
f 121/272/128 123/275/128 147/276/129 
f 147/276/129 145/273/129 121/272/128 
f 123/275/73 124/277/73 148/278/73 
f 148/278/73 147/276/73 123/275/73 
f 124/279/130 122/280/130 146/281/131 
f 146/281/131 148/282/131 124/279/130 
f 146/274/1 145/273/1 52/283/1 
f 52/283/1 51/284/1 146/274/1 
f 145/273/129 147/276/129 53/85/132 
f 53/85/132 52/84/132 145/273/129 
f 147/276/73 148/278/73 54/285/73 
f 54/285/73 53/286/73 147/276/73 
f 148/282/131 146/281/131 51/83/133 
f 51/83/133 54/86/133 148/282/131 
# 0 polygons - 292 triangles

