# 3ds Max Wavefront OBJ Exporter v0.97b - (c)2007 guruware
# File Created: 30.04.2018 11:33:14

mtllib indexj2_right.mtl

#
# object Cylinder_001
#

v  0.0061 -0.0167 0.0060
v  0.0038 -0.0179 0.0089
v  0.0041 -0.0187 0.0076
v  0.0065 -0.0092 0.0000
v  0.0065 -0.0092 0.0062
v  0.0069 -0.0130 0.0055
v  0.0061 -0.0167 0.0000
v  0.0040 -0.0186 0.0054
v  -0.0055 -0.0181 0.0057
v  -0.0055 -0.0181 0.0000
v  -0.0039 -0.0075 0.0094
v  0.0035 -0.0075 0.0094
v  0.0037 -0.0062 0.0085
v  -0.0056 -0.0070 0.0083
v  -0.0051 -0.0063 0.0079
v  0.0047 -0.0227 0.0075
v  0.0030 -0.0265 0.0073
v  0.0036 -0.0265 0.0057
v  -0.0003 -0.0275 0.0073
v  -0.0000 -0.0280 0.0057
v  -0.0034 -0.0261 0.0073
v  -0.0037 -0.0265 0.0057
v  -0.0047 -0.0231 0.0075
v  -0.0052 -0.0228 0.0057
v  0.0034 -0.0056 0.0043
v  -0.0061 -0.0044 0.0043
v  -0.0058 -0.0075 0.0062
v  0.0034 -0.0056 0.0000
v  0.0045 -0.0042 0.0000
v  -0.0051 -0.0056 0.0043
v  -0.0063 0.0002 0.0043
v  0.0045 -0.0042 0.0043
v  -0.0058 -0.0083 0.0000
v  0.0038 -0.0199 0.0076
v  0.0045 0.0047 0.0043
v  0.0045 0.0047 0.0000
v  -0.0000 0.0066 0.0000
v  -0.0000 0.0066 0.0043
v  -0.0045 0.0047 0.0000
v  0.0031 -0.0230 0.0086
v  0.0019 -0.0253 0.0085
v  0.0001 -0.0259 0.0085
v  -0.0022 -0.0249 0.0085
v  -0.0030 -0.0231 0.0086
v  0.0015 -0.0196 0.0088
v  0.0051 -0.0228 0.0057
v  0.0063 0.0002 0.0043
v  0.0063 0.0002 0.0000
v  -0.0063 0.0002 0.0000
v  -0.0045 0.0047 0.0043
v  0.0061 -0.0167 -0.0060
v  0.0041 -0.0187 -0.0076
v  0.0038 -0.0179 -0.0089
v  0.0069 -0.0130 0.0000
v  0.0069 -0.0130 -0.0055
v  -0.0055 -0.0181 -0.0057
v  0.0040 -0.0186 -0.0054
v  0.0037 -0.0062 -0.0085
v  0.0035 -0.0075 -0.0094
v  -0.0039 -0.0075 -0.0094
v  -0.0056 -0.0070 -0.0083
v  -0.0051 -0.0063 -0.0079
v  0.0047 -0.0227 -0.0075
v  0.0051 -0.0228 -0.0057
v  0.0036 -0.0265 -0.0057
v  0.0030 -0.0265 -0.0073
v  -0.0000 -0.0280 -0.0057
v  -0.0003 -0.0275 -0.0073
v  -0.0037 -0.0265 -0.0057
v  -0.0034 -0.0261 -0.0073
v  -0.0052 -0.0228 -0.0057
v  0.0065 -0.0092 -0.0062
v  0.0034 -0.0056 -0.0043
v  -0.0061 -0.0044 -0.0043
v  -0.0051 -0.0056 -0.0043
v  -0.0063 0.0002 -0.0043
v  -0.0000 0.0066 -0.0043
v  0.0045 0.0047 -0.0043
v  0.0045 -0.0042 -0.0043
v  -0.0058 -0.0075 -0.0062
v  -0.0059 -0.0056 0.0000
v  0.0038 -0.0199 -0.0076
v  0.0031 -0.0230 -0.0086
v  0.0019 -0.0253 -0.0085
v  0.0001 -0.0259 -0.0085
v  -0.0022 -0.0249 -0.0085
v  -0.0047 -0.0231 -0.0075
v  0.0015 -0.0196 -0.0088
v  0.0038 -0.0183 0.0000
v  -0.0030 -0.0231 -0.0086
v  0.0063 0.0002 -0.0043
v  -0.0045 0.0047 -0.0043
# 92 vertices

vn 0.7276 -0.6838 0.0555
vn 0.7937 -0.4065 0.4525
vn 0.7940 -0.5458 0.2678
vn 0.9917 0.1284 0.0000
vn 0.9988 -0.0499 -0.0000
vn 0.9729 -0.2311 0.0000
vn -0.0327 -0.9988 -0.0368
vn -0.0536 -0.9986 0.0000
vn -0.0430 -0.9991 0.0000
vn -0.0508 0.7469 0.6629
vn -0.0014 0.5714 0.8206
vn -0.0170 0.8549 0.5186
vn -0.7792 0.3530 0.5179
vn -0.5445 0.0577 0.8368
vn -0.7127 0.5933 0.3742
vn 0.9730 -0.0244 0.2295
vn 0.6059 -0.7573 0.2436
vn 0.7162 -0.6560 0.2383
vn -0.0882 -0.9606 0.2637
vn -0.0006 -0.9723 0.2337
vn -0.6989 -0.6591 0.2777
vn -0.6869 -0.6735 0.2731
vn -0.8089 -0.2215 0.5446
vn -0.9434 -0.2004 0.2644
vn 0.7624 0.6466 0.0260
vn 0.7638 0.6451 0.0209
vn 0.7522 0.6561 0.0604
vn 0.1235 0.2481 0.9608
vn -0.9771 0.0899 0.1929
vn 0.7854 -0.6190 0.0000
vn 0.8628 -0.5056 0.0000
vn 0.7173 0.5819 0.3832
vn 0.0278 0.0015 0.9996
vn -0.0021 -0.0051 1.0000
vn -0.0005 -0.0022 1.0000
vn -0.0037 -0.0097 0.9999
vn 0.7633 0.1536 0.6275
vn 0.7445 0.0177 0.6674
vn 0.7729 0.2851 0.5669
vn -0.9995 -0.0326 0.0001
vn -0.9986 -0.0529 0.0028
vn -0.9992 -0.0407 0.0000
vn -0.9978 -0.0657 -0.0050
vn 0.9468 -0.2546 0.1966
vn 0.8934 -0.2500 0.3732
vn 0.9819 0.0444 0.1843
vn -0.0276 0.9298 0.3670
vn -0.0169 0.9859 0.1667
vn 0.7071 0.7071 0.0000
vn 0.0000 1.0000 0.0000
vn -0.7071 0.7071 0.0000
vn 0.7694 0.6387 0.0000
vn 0.7710 -0.0400 0.6356
vn 0.7796 -0.0552 0.6239
vn 0.5615 -0.0912 0.8225
vn 0.5627 -0.0478 0.8253
vn 0.4780 -0.0898 0.8737
vn 0.3841 -0.4510 0.8056
vn 0.3726 -0.4592 0.8064
vn -0.0132 -0.5928 0.8052
vn -0.0499 -0.5887 0.8068
vn -0.4056 -0.4205 0.8116
vn -0.3956 -0.4278 0.8127
vn -0.5562 -0.1772 0.8119
vn -0.0001 -0.0523 0.9986
vn 0.0000 -0.0524 0.9986
vn 0.4557 -0.1547 0.8766
vn 0.3505 -0.5165 0.7812
vn -0.9655 -0.0642 0.2525
vn 0.9728 -0.0401 0.2281
vn 0.6215 -0.7834 0.0000
vn 0.6803 -0.7318 -0.0400
vn -0.0001 -0.0522 0.9986
vn -0.0004 -0.0523 0.9986
vn -0.0003 -0.0522 0.9986
vn -0.0006 -0.0524 0.9986
vn 1.0000 0.0000 0.0000
vn 0.8630 -0.5051 0.0000
vn 0.0000 -0.0393 -0.9992
vn 0.0000 0.0000 -1.0000
vn 0.9820 0.1004 0.1601
vn -0.9975 -0.0692 -0.0141
vn -0.9859 0.1675 0.0000
vn -0.9867 0.1623 0.0000
vn 0.7276 -0.6838 -0.0555
vn 0.7940 -0.5458 -0.2678
vn 0.7937 -0.4065 -0.4525
vn 0.9986 -0.0521 0.0000
vn 0.9988 -0.0499 0.0000
vn -0.0327 -0.9988 0.0368
vn -0.0170 0.8549 -0.5186
vn -0.0014 0.5714 -0.8206
vn -0.0508 0.7469 -0.6629
vn -0.7792 0.3530 -0.5179
vn -0.7127 0.5933 -0.3742
vn -0.5445 0.0577 -0.8368
vn 0.9730 -0.0244 -0.2295
vn 0.9728 -0.0401 -0.2281
vn 0.7162 -0.6560 -0.2383
vn 0.6059 -0.7573 -0.2436
vn -0.0006 -0.9723 -0.2337
vn -0.0882 -0.9606 -0.2637
vn -0.6869 -0.6735 -0.2731
vn -0.6989 -0.6591 -0.2777
vn -0.9434 -0.2004 -0.2644
vn 0.7624 0.6466 -0.0260
vn 0.7522 0.6561 -0.0604
vn 0.7638 0.6451 -0.0209
vn 0.1235 0.2481 -0.9608
vn 0.7173 0.5819 -0.3832
vn 0.0278 0.0015 -0.9996
vn -0.0021 -0.0051 -1.0000
vn 0.7633 0.1536 -0.6275
vn 0.7729 0.2851 -0.5669
vn 0.7445 0.0177 -0.6674
vn -0.9986 -0.0529 -0.0028
vn -0.9995 -0.0326 -0.0001
vn -0.9995 -0.0301 0.0000
vn -0.9978 -0.0657 0.0050
vn 0.9468 -0.2546 -0.1966
vn 0.9819 0.0444 -0.1843
vn 0.8934 -0.2500 -0.3732
vn -0.0169 0.9859 -0.1667
vn -0.0276 0.9298 -0.3670
vn 0.7710 -0.0400 -0.6356
vn 0.4780 -0.0898 -0.8737
vn 0.5627 -0.0478 -0.8253
vn 0.5615 -0.0912 -0.8225
vn 0.3726 -0.4592 -0.8064
vn 0.3841 -0.4510 -0.8056
vn -0.0499 -0.5887 -0.8068
vn -0.0132 -0.5928 -0.8052
vn -0.3956 -0.4278 -0.8127
vn -0.4056 -0.4205 -0.8116
vn -0.8089 -0.2215 -0.5446
vn 0.0000 -0.0524 -0.9986
vn -0.9771 0.0899 -0.1929
vn 0.4557 -0.1547 -0.8766
vn 0.3505 -0.5165 -0.7812
vn -0.9655 -0.0642 -0.2525
vn 0.9820 0.1004 -0.1601
vn 0.5890 -0.8081 0.0000
vn 0.6803 -0.7318 0.0400
vn -0.0001 -0.0523 -0.9986
vn -0.0004 -0.0523 -0.9986
vn -0.0001 -0.0522 -0.9986
vn -0.0006 -0.0524 -0.9986
vn -0.0003 -0.0522 -0.9986
vn 0.0000 -0.0393 0.9992
vn -0.0141 -0.0122 0.9998
vn 0.0000 0.0000 1.0000
vn -0.9975 -0.0692 0.0141
vn -0.9969 -0.0783 0.0000
vn -0.0215 -0.9998 0.0000
vn -0.0008 -0.0047 1.0000
vn -0.9995 -0.0326 0.0000
vn -0.0044 0.9807 0.1954
vn 0.6603 -0.0516 0.7492
vn -0.0141 -0.0122 -0.9998
vn -0.0330 -0.0020 -0.9995
vn -0.0084 -0.0562 -0.9984
vn -0.0000 0.0000 -1.0000
vn -0.0005 -0.0022 -1.0000
vn -0.0037 -0.0097 -0.9999
vn -0.0008 -0.0047 -1.0000
vn -0.0044 0.9807 -0.1954
vn 0.7796 -0.0552 -0.6239
vn 0.6603 -0.0516 -0.7492
vn -0.5562 -0.1772 -0.8119
vn -0.0084 -0.0562 0.9984
vn -0.0000 0.0000 1.0000
vn -0.0330 -0.0020 0.9995
# 172 vertex normals

vt 0.0000 0.0000 0.0000
vt 1.0000 0.0000 0.0000
vt 1.0000 1.0000 0.0000
# 3 texture coords

o Cylinder_001
g Cylinder_001
usemtl Material
s off
f 1/1/1 2/2/2 3/3/3 
f 4/1/4 5/2/4 6/3/5 
f 6/1/5 1/2/6 7/3/6 
f 8/1/7 9/2/8 10/3/9 
f 11/1/10 12/2/11 13/3/12 
f 14/1/13 11/2/14 15/3/15 
f 16/1/16 17/2/17 18/3/18 
f 17/1/17 19/2/19 20/3/20 
f 19/1/19 21/2/21 22/3/22 
f 21/1/21 23/2/23 24/3/24 
f 5/1/25 25/2/26 13/3/27 
f 26/1/28 27/2/29 15/3/15 
f 25/1/30 28/2/30 29/3/31 
f 30/1/32 31/2/33 26/3/28 
f 32/1/34 31/2/35 25/3/36 
f 12/1/37 5/2/38 13/3/39 
f 9/1/40 27/2/41 33/3/42 
f 33/1/42 27/2/41 26/3/43 
f 3/1/44 2/2/45 34/3/46 
f 15/1/47 13/2/12 25/3/48 
f 35/1/49 36/2/49 37/3/50 
f 38/1/50 37/2/50 39/3/51 
f 25/1/26 5/2/25 4/3/52 
f 2/1/53 1/2/54 5/3/38 
f 40/1/55 16/2/56 34/3/57 
f 41/1/58 17/2/59 16/3/56 
f 42/1/60 19/2/61 17/3/59 
f 42/1/60 43/2/62 21/3/63 
f 43/1/62 44/2/64 23/3/23 
f 44/1/65 43/2/66 40/3/66 
f 27/1/29 14/2/13 15/3/15 
f 45/1/67 34/2/57 2/3/68 
f 23/1/23 9/2/69 24/3/24 
f 9/1/69 23/2/23 14/3/13 
f 23/1/23 44/2/64 11/3/14 
f 34/1/46 16/2/16 46/3/70 
f 7/1/71 1/2/1 8/3/72 
f 44/1/65 45/2/73 11/3/74 
f 2/1/75 12/2/76 11/3/74 
f 47/1/77 48/2/77 36/3/49 
f 32/1/78 29/2/31 48/3/77 
f 46/1/79 20/2/80 22/3/80 
f 3/1/44 34/2/46 8/3/81 
f 26/1/82 31/2/83 49/3/84 
f 31/1/83 50/2/51 39/3/51 
f 51/1/85 52/2/86 53/3/87 
f 4/1/4 54/2/88 55/3/89 
f 7/1/6 51/2/6 55/3/89 
f 10/1/9 56/2/8 57/3/90 
f 58/1/91 59/2/92 60/3/93 
f 61/1/94 62/2/95 60/3/96 
f 63/1/97 64/2/98 65/3/99 
f 66/1/100 65/2/99 67/3/101 
f 68/1/102 67/2/101 69/3/103 
f 70/1/104 69/2/103 71/3/105 
f 72/1/106 58/2/107 73/3/108 
f 74/1/109 75/2/110 62/3/95 
f 29/1/31 28/2/30 73/3/30 
f 75/1/110 74/2/109 76/3/111 
f 77/1/80 78/2/80 79/3/112 
f 59/1/113 58/2/114 72/3/115 
f 33/1/42 80/2/116 56/3/117 
f 33/1/42 81/2/118 74/3/119 
f 52/1/120 82/2/121 53/3/122 
f 73/1/123 58/2/91 62/3/124 
f 37/1/50 36/2/49 78/3/49 
f 39/1/51 37/2/50 77/3/50 
f 73/1/108 28/2/52 4/3/52 
f 53/1/125 59/2/113 72/3/115 
f 82/1/126 63/2/127 83/3/128 
f 63/1/127 66/2/129 84/3/130 
f 66/1/129 68/2/131 85/3/132 
f 85/1/132 68/2/131 70/3/133 
f 86/1/134 70/2/133 87/3/135 
f 86/1/136 83/2/136 84/3/136 
f 80/1/137 62/2/95 61/3/94 
f 88/1/138 53/2/139 82/3/126 
f 87/1/135 71/2/105 56/3/140 
f 56/1/140 80/2/137 61/3/94 
f 87/1/135 61/2/94 60/3/96 
f 82/1/121 57/2/141 64/3/98 
f 7/1/71 89/2/142 57/3/143 
f 90/1/144 60/2/145 88/3/146 
f 60/1/145 59/2/147 53/3/148 
f 36/1/49 48/2/77 91/3/77 
f 48/1/77 29/2/31 79/3/78 
f 64/1/149 71/2/150 69/3/151 
f 52/1/120 57/2/141 82/3/121 
f 74/1/152 81/2/153 49/3/84 
f 49/1/84 39/2/51 92/3/51 
f 54/1/88 4/2/4 6/3/5 
f 54/1/88 6/2/5 7/3/6 
f 89/1/154 8/2/7 10/3/9 
f 15/1/47 11/2/10 13/3/12 
f 46/1/70 16/2/16 18/3/18 
f 18/1/18 17/2/17 20/3/20 
f 20/1/20 19/2/19 22/3/22 
f 22/1/22 21/2/21 24/3/24 
f 30/1/32 26/2/28 15/3/15 
f 32/1/78 25/2/30 29/3/31 
f 32/1/34 35/2/151 38/3/151 
f 35/1/151 32/2/34 47/3/151 
f 31/1/35 30/2/155 25/3/36 
f 38/1/151 50/2/151 31/3/35 
f 31/1/35 32/2/34 38/3/151 
f 10/1/156 9/2/40 33/3/42 
f 81/1/118 33/2/42 26/3/43 
f 30/1/157 15/2/47 25/3/48 
f 38/1/50 35/2/49 37/3/50 
f 50/1/51 38/2/50 39/3/51 
f 28/1/52 25/2/26 4/3/52 
f 5/1/38 12/2/37 2/3/53 
f 1/1/54 6/2/158 5/3/38 
f 45/1/67 40/2/55 34/3/57 
f 40/1/55 41/2/58 16/3/56 
f 41/1/58 42/2/60 17/3/59 
f 19/1/61 42/2/60 21/3/63 
f 21/1/63 43/2/62 23/3/23 
f 40/1/66 45/2/73 44/3/65 
f 43/1/66 41/2/66 40/3/66 
f 41/1/66 43/2/66 42/3/66 
f 27/1/29 9/2/69 14/3/13 
f 14/1/13 23/2/23 11/3/14 
f 8/1/81 34/2/46 46/3/70 
f 8/1/72 89/2/142 7/3/71 
f 1/1/1 3/2/3 8/3/72 
f 45/1/73 2/2/75 11/3/74 
f 35/1/49 47/2/77 36/3/49 
f 47/1/77 32/2/78 48/3/77 
f 24/1/159 9/2/160 8/3/161 
f 46/1/79 22/2/80 24/3/159 
f 46/1/79 18/2/162 20/3/80 
f 24/1/159 8/2/161 46/3/79 
f 81/1/153 26/2/82 49/3/84 
f 49/1/84 31/2/83 39/3/51 
f 72/1/4 4/2/4 55/3/89 
f 54/1/88 7/2/6 55/3/89 
f 89/1/154 10/2/9 57/3/90 
f 62/1/124 58/2/91 60/3/93 
f 66/1/100 63/2/97 65/3/99 
f 68/1/102 66/2/100 67/3/101 
f 70/1/104 68/2/102 69/3/103 
f 87/1/135 70/2/104 71/3/105 
f 80/1/137 74/2/109 62/3/95 
f 79/1/78 29/2/31 73/3/30 
f 76/1/163 92/2/80 77/3/80 
f 73/1/164 75/2/165 76/3/163 
f 76/1/163 79/2/112 73/3/164 
f 79/1/112 78/2/80 91/3/80 
f 79/1/112 76/2/163 77/3/80 
f 10/1/156 33/2/42 56/3/117 
f 80/1/116 33/2/42 74/3/119 
f 75/1/166 73/2/123 62/3/124 
f 77/1/50 37/2/50 78/3/49 
f 92/1/51 39/2/51 77/3/50 
f 72/1/106 73/2/108 4/3/52 
f 72/1/115 51/2/167 53/3/125 
f 51/1/167 72/2/115 55/3/168 
f 88/1/138 82/2/126 83/3/128 
f 83/1/128 63/2/127 84/3/130 
f 84/1/130 66/2/129 85/3/132 
f 86/1/134 85/2/132 70/3/133 
f 90/1/169 86/2/134 87/3/135 
f 83/1/136 86/2/136 90/3/144 
f 86/1/136 84/2/136 85/3/136 
f 90/1/144 88/2/146 83/3/136 
f 87/1/135 56/2/140 61/3/94 
f 90/1/169 87/2/135 60/3/96 
f 63/1/97 82/2/121 64/3/98 
f 57/1/143 51/2/85 7/3/71 
f 51/1/85 57/2/143 52/3/86 
f 88/1/146 60/2/145 53/3/148 
f 78/1/49 36/2/49 91/3/77 
f 91/1/77 48/2/77 79/3/78 
f 71/1/150 64/2/149 57/3/170 
f 64/1/149 67/2/151 65/3/171 
f 67/1/151 64/2/149 69/3/151 
f 71/1/150 57/2/170 56/3/172 
f 76/1/83 74/2/152 49/3/84 
f 76/1/83 49/2/84 92/3/51 
# 0 polygons - 180 triangles

