# 3ds Max Wavefront OBJ Exporter v0.97b - (c)2007 guruware
# File Created: 30.04.2018 11:31:47

mtllib indexj1_left.mtl

#
# object Cylinder_001
#

v  0.0046 0.0335 -0.0064
v  0.0065 0.0381 -0.0100
v  0.0065 0.0381 -0.0064
v  0.0046 0.0426 -0.0100
v  0.0046 0.0426 -0.0064
v  0.0000 0.0445 -0.0100
v  0.0000 0.0445 -0.0064
v  -0.0045 0.0426 -0.0100
v  -0.0045 0.0426 -0.0064
v  -0.0064 0.0381 -0.0100
v  -0.0064 0.0381 -0.0064
v  0.0044 0.0311 -0.0100
v  0.0092 0.0199 -0.0078
v  0.0052 0.0087 -0.0114
v  0.0078 0.0269 0.0075
v  0.0044 0.0311 0.0100
v  0.0090 0.0129 0.0080
v  0.0092 0.0199 0.0078
v  0.0090 0.0129 -0.0080
v  -0.0067 -0.0068 0.0114
v  -0.0095 -0.0000 -0.0114
v  -0.0067 -0.0068 -0.0114
v  -0.0088 0.0087 -0.0094
v  -0.0058 0.0345 -0.0100
v  -0.0076 0.0087 -0.0114
v  0.0000 -0.0096 0.0114
v  0.0000 -0.0096 -0.0114
v  0.0068 -0.0068 0.0114
v  0.0068 -0.0068 -0.0114
v  0.0095 -0.0000 0.0114
v  0.0095 -0.0000 -0.0114
v  -0.0095 -0.0000 0.0114
v  0.0068 0.0067 0.0114
v  0.0068 0.0067 -0.0114
v  0.0078 0.0269 -0.0075
v  0.0031 0.0329 0.0064
v  -0.0067 0.0332 -0.0064
v  -0.0067 0.0332 0.0064
v  0.0031 0.0329 -0.0099
v  0.0031 0.0329 -0.0064
v  0.0052 0.0087 0.0114
v  0.0065 0.0381 0.0100
v  0.0046 0.0335 0.0064
v  0.0065 0.0381 0.0064
v  0.0046 0.0426 0.0100
v  0.0046 0.0426 0.0064
v  0.0000 0.0445 0.0100
v  0.0000 0.0445 0.0064
v  -0.0045 0.0426 0.0100
v  -0.0045 0.0426 0.0064
v  -0.0064 0.0381 0.0100
v  -0.0064 0.0381 0.0064
v  -0.0058 0.0345 0.0100
v  -0.0088 0.0087 0.0094
v  -0.0076 0.0087 0.0114
v  0.0031 0.0329 0.0099
v  0.0046 0.0335 0.0100
v  0.0046 0.0335 -0.0100
# 58 vertices

vn 0.7071 -0.7071 0.0000
vn 1.0000 0.0000 0.0000
vn 0.7071 0.7071 0.0000
vn 0.0000 1.0000 0.0000
vn -0.7071 0.7071 0.0000
vn -0.9942 0.1071 0.0000
vn -0.9836 0.1690 -0.0635
vn 0.6237 0.1131 -0.7735
vn 0.5837 0.0729 -0.8087
vn 0.6060 0.0416 -0.7944
vn 0.7817 0.6236 0.0000
vn 0.9997 -0.0260 0.0000
vn 0.9968 0.0802 0.0000
vn 0.7401 -0.6725 0.0000
vn -0.7071 -0.7071 0.0000
vn -0.9846 -0.1747 0.0000
vn -0.8502 0.1345 -0.5090
vn -0.9826 0.0237 -0.1843
vn -0.8420 0.1342 -0.5225
vn 0.0000 -1.0000 0.0000
vn -0.9969 0.0783 0.0000
vn 0.8630 0.5051 0.0000
vn 0.9817 0.1904 0.0000
vn 0.0383 0.9993 0.0000
vn 0.9625 -0.2711 0.0000
vn 0.9878 0.1559 0.0000
vn 0.0000 0.0000 1.0000
vn -0.8355 0.1841 -0.5177
vn 0.7874 0.6165 0.0000
vn 0.9878 0.1559 -0.0000
vn 0.7874 0.6165 -0.0000
vn 0.0000 0.0000 -1.0000
vn -0.0021 0.0051 -1.0000
vn 0.0023 0.0306 -0.9995
vn 0.0176 0.0544 -0.9984
vn -0.0024 0.0321 -0.9995
vn -0.9688 0.0923 -0.2300
vn 0.7854 0.6190 0.0000
vn 0.0004 -0.0096 -1.0000
vn -0.0082 -0.0103 -0.9999
vn -0.0005 0.0261 -0.9997
vn 0.7071 -0.7071 -0.0000
vn -0.9836 0.1690 0.0635
vn 0.6236 0.1131 0.7735
vn 0.5837 0.0729 0.8087
vn 0.7018 0.1615 0.6939
vn -0.9826 0.0237 0.1843
vn -0.8502 0.1345 0.5090
vn -0.8420 0.1342 0.5225
vn 0.9625 -0.2711 -0.0000
vn 0.7137 -0.7005 0.0000
vn -0.8355 0.1841 0.5177
vn -0.0021 0.0051 1.0000
vn -0.0024 0.0321 0.9995
vn -0.0005 0.0022 1.0000
vn 0.0023 0.0306 0.9995
vn 0.0176 0.0544 0.9984
vn 0.0172 0.0239 0.9996
vn -0.9688 0.0923 0.2300
vn -0.0005 0.0261 0.9997
vn 0.0004 -0.0096 1.0000
vn 0.0064 -0.0066 1.0000
vn -0.9965 0.0833 0.0000
vn 0.7018 0.1615 -0.6939
vn 0.6565 0.0106 -0.7542
vn 0.0000 0.0001 1.0000
vn -0.0005 0.0022 -1.0000
vn 0.0172 0.0239 -0.9996
vn 0.0109 -0.0018 -0.9999
vn 0.0064 -0.0066 -1.0000
vn -0.0260 -0.0048 -0.9997
vn -0.0901 0.0373 -0.9952
vn 0.6060 0.0416 0.7944
vn 0.6565 0.0106 0.7542
vn -0.0000 0.0000 -1.0000
vn 0.0000 0.0001 -1.0000
vn 0.0109 -0.0018 0.9999
vn -0.0901 0.0373 0.9952
vn -0.0260 -0.0048 0.9997
vn -0.0082 -0.0103 0.9999
# 80 vertex normals

vt 0.0000 0.0000 0.0000
vt 1.0000 1.0000 0.0000
vt 1.0000 0.0000 0.0000
# 3 texture coords

o Cylinder_001
g Cylinder_001
usemtl Material
s off
f 1/1/1 2/2/2 3/3/2 
f 3/1/2 4/2/3 5/3/3 
f 5/1/3 6/2/4 7/3/4 
f 7/1/4 8/2/5 9/3/5 
f 9/1/5 10/2/6 11/3/7 
f 12/1/8 13/2/9 14/3/10 
f 15/1/11 12/2/11 16/3/11 
f 17/1/12 13/2/13 18/3/13 
f 17/1/14 14/2/14 19/3/14 
f 20/1/15 21/2/16 22/3/15 
f 23/1/17 24/2/18 25/3/19 
f 26/1/20 22/2/15 27/3/20 
f 28/1/1 27/2/20 29/3/1 
f 30/1/2 29/2/1 31/3/2 
f 32/1/16 23/2/21 21/3/16 
f 33/1/22 31/2/2 34/3/22 
f 18/1/13 35/2/23 15/3/23 
f 36/1/24 37/2/24 38/3/24 
f 39/1/25 1/2/1 40/3/26 
f 9/1/27 11/2/27 40/3/27 
f 25/1/19 21/2/28 23/3/17 
f 12/1/29 36/2/30 16/3/31 
f 27/1/32 34/2/33 29/3/32 
f 25/1/34 12/2/35 14/3/36 
f 11/1/7 24/2/18 37/3/37 
f 41/1/38 34/2/22 14/3/38 
f 6/1/39 4/2/40 39/3/41 
f 42/1/2 43/2/42 44/3/2 
f 45/1/3 44/2/2 46/3/3 
f 47/1/4 46/2/3 48/3/4 
f 49/1/5 48/2/4 50/3/5 
f 51/1/6 50/2/5 52/3/43 
f 16/1/44 18/2/45 15/3/46 
f 53/1/47 54/2/48 55/3/49 
f 56/1/50 43/2/42 57/3/51 
f 36/1/32 48/2/32 46/3/32 
f 55/1/49 54/2/48 32/3/52 
f 33/1/53 41/2/54 32/3/55 
f 55/1/56 16/2/57 53/3/58 
f 53/1/47 52/2/43 38/3/59 
f 56/1/60 47/2/61 49/3/62 
f 38/1/63 23/2/63 54/3/63 
f 58/1/51 2/2/2 1/3/1 
f 2/1/2 4/2/3 3/3/2 
f 4/1/3 6/2/4 5/3/3 
f 6/1/4 8/2/5 7/3/4 
f 8/1/5 10/2/6 9/3/5 
f 13/1/9 12/2/8 35/3/64 
f 14/1/10 13/2/9 19/3/65 
f 35/1/11 12/2/11 15/3/11 
f 19/1/12 13/2/13 17/3/12 
f 41/1/14 14/2/14 17/3/14 
f 32/1/16 21/2/16 20/3/15 
f 37/1/37 24/2/18 23/3/17 
f 20/1/15 22/2/15 26/3/20 
f 26/1/20 27/2/20 28/3/1 
f 28/1/1 29/2/1 30/3/2 
f 54/1/21 23/2/21 32/3/16 
f 30/1/2 31/2/2 33/3/22 
f 13/1/13 35/2/23 18/3/13 
f 40/1/24 37/2/24 36/3/24 
f 58/1/51 1/2/1 39/3/25 
f 40/1/27 1/2/27 3/3/27 
f 40/1/27 5/2/27 7/3/27 
f 7/1/27 9/2/27 40/3/27 
f 11/1/27 37/2/66 40/3/27 
f 40/1/27 3/2/27 5/3/27 
f 40/1/26 12/2/29 39/3/25 
f 16/1/31 36/2/30 56/3/50 
f 36/1/30 12/2/29 40/3/26 
f 21/1/67 27/2/32 22/3/32 
f 14/1/36 21/2/67 25/3/34 
f 21/1/67 14/2/36 34/3/33 
f 34/1/33 31/2/32 29/3/32 
f 34/1/33 27/2/32 21/3/67 
f 12/1/35 25/2/34 24/3/68 
f 24/1/68 39/2/41 12/3/35 
f 10/1/6 24/2/18 11/3/7 
f 33/1/22 34/2/22 41/3/38 
f 39/1/41 24/2/68 10/3/69 
f 39/1/41 8/2/70 6/3/39 
f 39/1/41 4/2/40 2/3/71 
f 2/1/71 58/2/72 39/3/41 
f 39/1/41 10/2/69 8/3/70 
f 57/1/51 43/2/42 42/3/2 
f 42/1/2 44/2/2 45/3/3 
f 45/1/3 46/2/3 47/3/4 
f 47/1/4 48/2/4 49/3/5 
f 49/1/5 50/2/5 51/3/6 
f 18/1/45 16/2/44 41/3/73 
f 41/1/73 17/2/74 18/3/45 
f 38/1/59 54/2/48 53/3/47 
f 36/1/30 43/2/42 56/3/50 
f 44/1/32 43/2/75 36/3/32 
f 36/1/32 38/2/76 52/3/32 
f 36/1/32 50/2/32 48/3/32 
f 36/1/32 46/2/32 44/3/32 
f 50/1/32 36/2/32 52/3/32 
f 33/1/53 26/2/27 28/3/27 
f 28/1/27 30/2/27 33/3/53 
f 32/1/55 41/2/54 55/3/56 
f 26/1/27 32/2/55 20/3/27 
f 32/1/55 26/2/27 33/3/53 
f 16/1/57 55/2/56 41/3/54 
f 53/1/58 16/2/57 56/3/60 
f 51/1/6 52/2/43 53/3/47 
f 51/1/77 53/2/58 56/3/60 
f 56/1/60 57/2/78 42/3/79 
f 56/1/60 45/2/80 47/3/61 
f 56/1/60 49/2/62 51/3/77 
f 45/1/80 56/2/60 42/3/79 
f 37/1/63 23/2/63 38/3/63 
# 0 polygons - 112 triangles

