# 3ds Max Wavefront OBJ Exporter v0.97b - (c)2007 guruware
# File Created: 30.04.2018 11:34:13

mtllib middlej1_left.mtl

#
# object Cylinder_001
#

v  0.0046 0.0335 -0.0070
v  0.0065 0.0381 -0.0113
v  0.0065 0.0381 -0.0070
v  0.0046 0.0426 -0.0113
v  0.0046 0.0426 -0.0070
v  0.0000 0.0445 -0.0113
v  0.0000 0.0445 -0.0070
v  -0.0045 0.0426 -0.0113
v  -0.0045 0.0426 -0.0070
v  -0.0064 0.0381 -0.0113
v  -0.0064 0.0381 -0.0070
v  0.0044 0.0311 -0.0112
v  0.0092 0.0199 -0.0078
v  0.0052 0.0087 -0.0129
v  0.0078 0.0269 0.0075
v  0.0044 0.0311 0.0112
v  0.0090 0.0129 0.0080
v  0.0092 0.0199 0.0078
v  0.0090 0.0129 -0.0080
v  -0.0067 -0.0068 0.0114
v  -0.0095 -0.0000 -0.0114
v  -0.0067 -0.0068 -0.0114
v  -0.0088 0.0087 -0.0094
v  -0.0058 0.0345 -0.0113
v  -0.0076 0.0087 -0.0129
v  0.0000 -0.0096 0.0114
v  0.0000 -0.0096 -0.0114
v  0.0068 -0.0068 0.0114
v  0.0068 -0.0068 -0.0114
v  0.0095 -0.0000 0.0114
v  0.0095 -0.0000 -0.0114
v  -0.0095 -0.0000 0.0114
v  0.0068 0.0067 0.0114
v  0.0068 0.0067 -0.0114
v  0.0078 0.0269 -0.0075
v  0.0031 0.0329 0.0070
v  -0.0067 0.0332 -0.0070
v  -0.0067 0.0332 0.0070
v  0.0031 0.0329 -0.0112
v  0.0031 0.0329 -0.0070
v  0.0052 0.0087 0.0129
v  0.0065 0.0381 0.0113
v  0.0046 0.0335 0.0070
v  0.0065 0.0381 0.0070
v  0.0046 0.0426 0.0113
v  0.0046 0.0426 0.0070
v  0.0000 0.0445 0.0113
v  0.0000 0.0445 0.0070
v  -0.0045 0.0426 0.0113
v  -0.0045 0.0426 0.0070
v  -0.0064 0.0381 0.0113
v  -0.0064 0.0381 0.0070
v  -0.0058 0.0345 0.0113
v  -0.0088 0.0087 0.0094
v  -0.0076 0.0087 0.0129
v  0.0031 0.0329 0.0112
v  0.0046 0.0335 0.0113
v  0.0046 0.0335 -0.0113
# 58 vertices

vn 0.7071 -0.7071 0.0000
vn 1.0000 0.0000 0.0000
vn 0.7071 0.7071 0.0000
vn 0.0000 1.0000 0.0000
vn -0.7071 0.7071 0.0000
vn -0.7071 0.7071 -0.0000
vn -0.9942 0.1071 -0.0000
vn -0.9827 0.1755 -0.0592
vn 0.7576 0.1225 -0.6411
vn 0.7299 0.0769 -0.6792
vn 0.7412 0.0406 -0.6701
vn 0.7817 0.6236 0.0000
vn 0.9997 -0.0260 0.0000
vn 0.9968 0.0802 0.0000
vn 0.7401 -0.6725 0.0000
vn -0.7071 -0.7071 0.0000
vn -0.9846 -0.1747 0.0000
vn -0.9386 0.1162 -0.3249
vn -0.9884 0.0146 -0.1514
vn -0.9359 0.1156 -0.3328
vn 0.0000 -1.0000 0.0000
vn -0.9969 0.0783 0.0000
vn 0.8527 0.5223 0.0000
vn 0.9817 0.1904 0.0000
vn 0.0383 0.9993 0.0000
vn 0.9620 -0.2732 0.0000
vn 0.9878 0.1559 0.0000
vn 0.0000 0.0000 1.0000
vn -0.9318 0.1489 -0.3310
vn 0.7874 0.6165 0.0000
vn 0.0000 0.0000 -1.0000
vn 0.0925 -0.2233 -0.9704
vn 0.0023 -0.0554 -0.9985
vn 0.0198 0.0613 -0.9979
vn 0.0888 -0.2088 -0.9739
vn -0.9764 0.0873 -0.1976
vn 0.7854 0.6190 0.0000
vn 0.0005 -0.0108 -0.9999
vn -0.0093 -0.0117 -0.9999
vn -0.0005 0.0295 -0.9996
vn -0.9942 0.1071 0.0000
vn -0.9827 0.1755 0.0592
vn 0.7576 0.1225 0.6411
vn 0.7299 0.0769 0.6792
vn 0.8202 0.1790 0.5433
vn -0.9884 0.0146 0.1514
vn -0.9386 0.1162 0.3249
vn -0.9359 0.1156 0.3328
vn 0.7145 -0.6996 0.0000
vn -0.9318 0.1489 0.3310
vn 0.0925 -0.2233 0.9704
vn 0.0888 -0.2088 0.9739
vn 0.0122 -0.0825 0.9965
vn 0.0023 -0.0554 0.9985
vn 0.0198 0.0613 0.9979
vn 0.0194 0.0269 0.9994
vn -0.9764 0.0873 0.1976
vn -0.0005 0.0295 0.9996
vn 0.0005 -0.0108 0.9999
vn 0.0072 -0.0075 0.9999
vn -0.9965 0.0833 0.0000
vn 0.8202 0.1790 -0.5433
vn 0.7846 0.0023 -0.6200
vn 0.0000 0.0001 1.0000
vn 0.0122 -0.0825 -0.9965
vn 0.0194 0.0269 -0.9994
vn 0.0123 -0.0020 -0.9999
vn 0.0072 -0.0075 -0.9999
vn -0.0293 -0.0054 -0.9996
vn -0.1015 0.0421 -0.9939
vn 0.7412 0.0406 0.6701
vn 0.7846 0.0023 0.6200
vn 0.0000 0.0001 -1.0000
vn 0.0123 -0.0020 0.9999
vn -0.1015 0.0421 0.9939
vn -0.0293 -0.0054 0.9996
vn -0.0093 -0.0117 0.9999
# 77 vertex normals

vt 0.0000 0.0000 0.0000
vt 1.0000 1.0000 0.0000
vt 1.0000 0.0000 0.0000
# 3 texture coords

o Cylinder_001
g Cylinder_001
usemtl Material
s off
f 1/1/1 2/2/2 3/3/2 
f 3/1/2 4/2/3 5/3/3 
f 5/1/3 6/2/4 7/3/4 
f 7/1/4 8/2/5 9/3/6 
f 9/1/6 10/2/7 11/3/8 
f 12/1/9 13/2/10 14/3/11 
f 15/1/12 12/2/12 16/3/12 
f 17/1/13 13/2/14 18/3/14 
f 17/1/15 14/2/15 19/3/15 
f 20/1/16 21/2/17 22/3/16 
f 23/1/18 24/2/19 25/3/20 
f 26/1/21 22/2/16 27/3/21 
f 28/1/1 27/2/21 29/3/1 
f 30/1/2 29/2/1 31/3/2 
f 32/1/17 23/2/22 21/3/17 
f 33/1/23 31/2/2 34/3/23 
f 18/1/14 35/2/24 15/3/24 
f 36/1/25 37/2/25 38/3/25 
f 39/1/26 1/2/1 40/3/27 
f 9/1/28 11/2/28 40/3/28 
f 25/1/20 21/2/29 23/3/18 
f 12/1/30 40/2/27 16/3/30 
f 27/1/31 34/2/32 29/3/31 
f 25/1/33 12/2/34 14/3/35 
f 11/1/8 24/2/19 37/3/36 
f 33/1/23 14/2/37 41/3/37 
f 6/1/38 4/2/39 39/3/40 
f 42/1/2 43/2/1 44/3/2 
f 45/1/3 44/2/2 46/3/3 
f 47/1/4 46/2/3 48/3/4 
f 49/1/5 48/2/4 50/3/5 
f 51/1/41 50/2/5 52/3/42 
f 16/1/43 18/2/44 15/3/45 
f 53/1/46 54/2/47 55/3/48 
f 56/1/26 43/2/1 57/3/49 
f 36/1/31 48/2/31 46/3/31 
f 55/1/48 54/2/47 32/3/50 
f 33/1/51 41/2/52 32/3/53 
f 55/1/54 16/2/55 53/3/56 
f 53/1/46 52/2/42 38/3/57 
f 56/1/58 47/2/59 49/3/60 
f 38/1/61 23/2/61 54/3/61 
f 58/1/49 2/2/2 1/3/1 
f 2/1/2 4/2/3 3/3/2 
f 4/1/3 6/2/4 5/3/3 
f 6/1/4 8/2/5 7/3/4 
f 8/1/5 10/2/7 9/3/6 
f 13/1/10 12/2/9 35/3/62 
f 14/1/11 13/2/10 19/3/63 
f 35/1/12 12/2/12 15/3/12 
f 19/1/13 13/2/14 17/3/13 
f 41/1/15 14/2/15 17/3/15 
f 32/1/17 21/2/17 20/3/16 
f 37/1/36 24/2/19 23/3/18 
f 20/1/16 22/2/16 26/3/21 
f 26/1/21 27/2/21 28/3/1 
f 28/1/1 29/2/1 30/3/2 
f 54/1/22 23/2/22 32/3/17 
f 30/1/2 31/2/2 33/3/23 
f 13/1/14 35/2/24 18/3/14 
f 40/1/25 37/2/25 36/3/25 
f 58/1/49 1/2/1 39/3/26 
f 40/1/28 1/2/28 3/3/28 
f 40/1/28 5/2/28 7/3/28 
f 7/1/28 9/2/28 40/3/28 
f 11/1/28 37/2/64 40/3/28 
f 40/1/28 3/2/28 5/3/28 
f 40/1/27 12/2/30 39/3/26 
f 16/1/30 40/2/27 36/3/27 
f 36/1/27 56/2/26 16/3/30 
f 21/1/65 27/2/31 22/3/31 
f 14/1/35 21/2/65 25/3/33 
f 21/1/65 14/2/35 34/3/32 
f 34/1/32 31/2/31 29/3/31 
f 34/1/32 27/2/31 21/3/65 
f 12/1/34 25/2/33 24/3/66 
f 24/1/66 39/2/40 12/3/34 
f 10/1/7 24/2/19 11/3/8 
f 34/1/23 14/2/37 33/3/23 
f 39/1/40 24/2/66 10/3/67 
f 39/1/40 8/2/68 6/3/38 
f 39/1/40 4/2/39 2/3/69 
f 2/1/69 58/2/70 39/3/40 
f 39/1/40 10/2/67 8/3/68 
f 57/1/49 43/2/1 42/3/2 
f 42/1/2 44/2/2 45/3/3 
f 45/1/3 46/2/3 47/3/4 
f 47/1/4 48/2/4 49/3/5 
f 49/1/5 50/2/5 51/3/41 
f 18/1/44 16/2/43 41/3/71 
f 41/1/71 17/2/72 18/3/44 
f 38/1/57 54/2/47 53/3/46 
f 36/1/27 43/2/1 56/3/26 
f 44/1/31 43/2/31 36/3/31 
f 36/1/31 38/2/73 52/3/31 
f 36/1/31 50/2/31 48/3/31 
f 36/1/31 46/2/31 44/3/31 
f 50/1/31 36/2/31 52/3/31 
f 33/1/51 26/2/28 28/3/28 
f 28/1/28 30/2/28 33/3/51 
f 32/1/53 41/2/52 55/3/54 
f 26/1/28 32/2/53 20/3/28 
f 32/1/53 26/2/28 33/3/51 
f 16/1/55 55/2/54 41/3/52 
f 53/1/56 16/2/55 56/3/58 
f 51/1/41 52/2/42 53/3/46 
f 51/1/74 53/2/56 56/3/58 
f 56/1/58 57/2/75 42/3/76 
f 56/1/58 45/2/77 47/3/59 
f 56/1/58 49/2/60 51/3/74 
f 45/1/77 56/2/58 42/3/76 
f 37/1/61 23/2/61 38/3/61 
# 0 polygons - 112 triangles

