# 3ds Max Wavefront OBJ Exporter v0.97b - (c)2007 guruware
# File Created: 30.04.2018 13:53:47

mtllib thumbj4_right.mtl

#
# object Cube
#

v  0.0055 -0.0005 0.0220
v  0.0062 0.0010 0.0164
v  0.0000 0.0010 0.0164
v  0.0070 0.0025 0.0108
v  0.0077 0.0040 0.0052
v  0.0000 0.0040 0.0052
v  0.0083 -0.0056 0.0107
v  0.0037 -0.0089 0.0108
v  0.0043 -0.0081 0.0054
v  0.0077 -0.0053 0.0162
v  0.0032 -0.0085 0.0162
v  0.0071 -0.0037 0.0212
v  0.0027 -0.0064 0.0225
v  0.0000 -0.0005 0.0220
v  0.0000 -0.0039 0.0243
v  0.0039 -0.0039 0.0243
v  0.0000 -0.0085 0.0162
v  0.0000 -0.0089 0.0108
v  0.0000 -0.0081 0.0054
v  0.0000 -0.0064 0.0225
v  0.0000 0.0025 0.0108
v  0.0080 -0.0009 0.0164
v  0.0088 0.0008 0.0101
v  0.0091 -0.0042 0.0042
v  0.0073 -0.0025 0.0224
v  0.0094 0.0020 0.0056
v  -0.0062 0.0010 0.0164
v  -0.0055 -0.0005 0.0220
v  -0.0077 0.0040 0.0052
v  -0.0070 0.0025 0.0108
v  -0.0083 -0.0056 0.0107
v  -0.0091 -0.0042 0.0042
v  -0.0043 -0.0081 0.0054
v  -0.0077 -0.0053 0.0162
v  -0.0037 -0.0089 0.0108
v  -0.0071 -0.0037 0.0212
v  -0.0032 -0.0085 0.0162
v  -0.0039 -0.0039 0.0243
v  -0.0027 -0.0064 0.0225
v  -0.0080 -0.0009 0.0164
v  -0.0088 0.0008 0.0101
v  -0.0094 0.0020 0.0056
v  -0.0073 -0.0025 0.0224
# 43 vertices

vn 0.0000 0.9584 0.2854
vn 0.0000 1.0000 -0.0014
vn 0.5914 -0.7755 0.2212
vn 0.5794 -0.7755 0.2507
vn 0.5976 -0.7903 0.1354
vn 0.5677 -0.7122 0.4129
vn 0.5687 -0.7128 0.4106
vn 0.5668 -0.5676 0.5971
vn 0.5615 -0.5995 0.5704
vn 0.0000 0.9383 0.3457
vn 0.0000 0.2519 0.9677
vn 0.0000 0.4096 0.9123
vn -0.0000 -0.8993 0.4373
vn 0.0000 -0.8963 0.4434
vn 0.0000 -0.9731 0.2304
vn 0.0000 -0.9747 0.2235
vn 0.0000 -0.9922 0.1247
vn 0.0000 -0.6012 0.7991
vn 0.0000 -0.6233 0.7820
vn 0.5683 -0.2294 0.7902
vn 0.9821 -0.1343 0.1318
vn 0.9879 -0.0498 0.1472
vn 0.9887 -0.0567 0.1387
vn 0.9912 -0.0403 0.1260
vn 0.9919 -0.0370 0.1217
vn 0.9919 -0.0368 0.1220
vn 0.6773 0.3358 0.6546
vn 0.5852 0.7330 0.3468
vn 0.6982 0.7109 0.0844
vn -0.0899 -0.3030 -0.9487
vn 0.0000 -0.2311 -0.9729
vn -0.0693 -0.2522 -0.9652
vn -0.5914 -0.7755 0.2212
vn -0.6140 -0.7813 0.1126
vn -0.5976 -0.7903 0.1354
vn -0.5677 -0.7122 0.4129
vn -0.5794 -0.7755 0.2507
vn -0.5668 -0.5676 0.5971
vn -0.5687 -0.7128 0.4106
vn -0.0000 0.4096 0.9123
vn 0.0000 -0.8993 0.4373
vn -0.0000 -0.9922 0.1247
vn -0.0000 -0.6012 0.7991
vn -0.5615 -0.5995 0.5704
vn -0.5683 -0.2294 0.7902
vn -0.9887 -0.0567 0.1387
vn -0.9879 -0.0498 0.1472
vn -0.9821 -0.1343 0.1318
vn -0.9919 -0.0370 0.1217
vn -0.9912 -0.0403 0.1260
vn -0.9919 -0.0364 0.1214
vn -0.9919 -0.0368 0.1220
vn -0.6773 0.3358 0.6546
vn -0.5852 0.7330 0.3468
vn -0.6982 0.7109 0.0844
vn 0.0693 -0.2522 -0.9652
vn -0.1032 -0.1200 -0.9874
vn 0.6140 -0.7813 0.1126
vn 0.9774 -0.1743 0.1198
vn 0.9919 -0.0364 0.1214
vn 0.0000 -0.2735 -0.9619
vn 0.1032 -0.1200 -0.9874
vn 0.3967 -0.0569 -0.9162
vn -0.9774 -0.1743 0.1198
vn 0.0899 -0.3030 -0.9487
vn -0.3967 -0.0569 -0.9162
# 66 vertex normals

vt 0.0000 0.0000 0.0000
vt 1.0000 0.0000 0.0000
vt 1.0000 1.0000 0.0000
# 3 texture coords

o Cube
g Cube
usemtl Material
s off
f 1/1/1 2/2/2 3/3/2 
f 4/1/2 5/2/2 6/3/2 
f 7/1/3 8/2/4 9/3/5 
f 10/1/6 11/2/7 8/3/4 
f 12/1/8 13/2/9 11/3/7 
f 14/1/10 15/2/11 16/3/12 
f 11/1/13 17/2/14 18/3/15 
f 8/1/16 18/2/15 19/3/17 
f 13/1/18 20/2/19 17/3/14 
f 2/1/2 4/2/2 21/3/2 
f 13/1/9 12/2/8 16/3/20 
f 12/1/21 10/2/22 22/3/23 
f 22/1/23 10/2/22 7/3/24 
f 23/1/25 7/2/24 24/3/26 
f 12/1/8 25/2/27 16/3/20 
f 13/1/18 16/2/12 15/3/11 
f 25/1/27 1/2/28 16/3/20 
f 22/1/29 23/2/29 4/3/29 
f 4/1/29 23/2/29 26/3/29 
f 1/1/28 25/2/27 22/3/29 
f 9/1/30 6/2/31 24/3/32 
f 3/1/2 27/2/2 28/3/1 
f 6/1/2 29/2/2 30/3/2 
f 31/1/33 32/2/34 33/3/35 
f 34/1/36 31/2/33 35/3/37 
f 36/1/38 34/2/36 37/3/39 
f 38/1/40 15/2/11 14/3/10 
f 37/1/41 35/2/16 18/3/15 
f 35/1/16 33/2/42 19/3/17 
f 39/1/43 37/2/41 17/3/14 
f 21/1/2 30/2/2 27/3/2 
f 39/1/44 38/2/45 36/3/38 
f 40/1/46 34/2/47 36/3/48 
f 40/1/46 41/2/49 31/3/50 
f 41/1/49 42/2/51 32/3/52 
f 36/1/38 38/2/45 43/3/53 
f 15/1/11 38/2/40 39/3/43 
f 43/1/53 38/2/45 28/3/54 
f 30/1/55 41/2/55 40/3/55 
f 30/1/55 29/2/55 42/3/55 
f 28/1/54 27/2/55 40/3/55 
f 6/1/31 32/2/56 29/3/57 
f 14/1/10 1/2/1 3/3/2 
f 21/1/2 4/2/2 6/3/2 
f 24/1/58 7/2/3 9/3/5 
f 7/1/3 10/2/6 8/3/4 
f 10/1/6 12/2/8 11/3/7 
f 1/1/1 14/2/10 16/3/12 
f 8/1/16 11/2/13 18/3/15 
f 9/1/17 8/2/16 19/3/17 
f 11/1/13 13/2/18 17/3/14 
f 3/1/2 2/2/2 21/3/2 
f 25/1/59 12/2/21 22/3/23 
f 23/1/25 22/2/23 7/3/24 
f 26/1/60 23/2/25 24/3/26 
f 20/1/19 13/2/18 15/3/11 
f 2/1/29 22/2/29 4/3/29 
f 5/1/29 4/2/29 26/3/29 
f 2/1/29 1/2/28 22/3/29 
f 6/1/31 9/2/30 19/3/61 
f 5/1/62 26/2/63 24/3/32 
f 24/1/32 6/2/31 5/3/62 
f 14/1/10 3/2/2 28/3/1 
f 21/1/2 6/2/2 30/3/2 
f 35/1/37 31/2/33 33/3/35 
f 37/1/39 34/2/36 35/3/37 
f 39/1/44 36/2/38 37/3/39 
f 28/1/1 38/2/40 14/3/10 
f 17/1/14 37/2/41 18/3/15 
f 18/1/15 35/2/16 19/3/17 
f 20/1/19 39/2/43 17/3/14 
f 3/1/2 21/2/2 27/3/2 
f 43/1/64 40/2/46 36/3/48 
f 34/1/47 40/2/46 31/3/50 
f 31/1/50 41/2/49 32/3/52 
f 20/1/19 15/2/11 39/3/43 
f 27/1/55 30/2/55 40/3/55 
f 41/1/55 30/2/55 42/3/55 
f 43/1/53 28/2/54 40/3/55 
f 33/1/65 6/2/31 19/3/61 
f 32/1/56 42/2/66 29/3/57 
f 6/1/31 33/2/65 32/3/56 
# 0 polygons - 82 triangles

