mtllib Stairs.mtl
g Part 1
usemtl 0.615686_0.811765_0.929412_0.000000_0.000000
o mesh0
v -0.012 0 0.17 
v -0.012 0.28 0.17 
v -1.463 0.28 0.17 
v -1.463 0 0.17 
vn -0 -0 1 
vn -0 -0 1 
vn -0 -0 1 
vn -0 -0 1 
f 1//1 2//2 3//3 
f 3//3 4//4 1//1 
o mesh1
v -1.463 0.28 0.34 
v -1.463 0.28 0.17 
v -0.012 0.28 0.17 
v -0.012 0.28 0.34 
vn -0 -1 -0 
vn -0 -1 -0 
vn -0 -1 -0 
vn -0 -1 -0 
f 5//5 6//6 7//7 
f 7//7 8//8 5//5 
o mesh2
v -0.012 0.56 0.34 
v -1.463 0.56 0.34 
v -1.463 0.28 0.34 
v -0.012 0.28 0.34 
vn -0 -0 1 
vn -0 -0 1 
vn -0 -0 1 
vn -0 -0 1 
f 9//9 10//10 11//11 
f 11//11 12//12 9//9 
o mesh3
v -0.012 0.56 0.51 
v -1.463 0.56 0.51 
v -1.463 0.56 0.34 
v -0.012 0.56 0.34 
vn -0 -1 -0 
vn -0 -1 -0 
vn -0 -1 -0 
vn -0 -1 -0 
f 13//13 14//14 15//15 
f 15//15 16//16 13//13 
o mesh4
v -0.012 0.56 0.51 
v -0.012 0.84 0.51 
v -1.463 0.84 0.51 
v -1.463 0.56 0.51 
vn -0 -0 1 
vn -0 -0 1 
vn -0 -0 1 
vn -0 -0 1 
f 17//17 18//18 19//19 
f 19//19 20//20 17//17 
o mesh5
v -0.012 0.84 0.68 
v -1.463 0.84 0.68 
v -1.463 0.84 0.51 
v -0.012 0.84 0.51 
vn -0 -1 -0 
vn -0 -1 -0 
vn -0 -1 -0 
vn -0 -1 -0 
f 21//21 22//22 23//23 
f 23//23 24//24 21//21 
o mesh6
v -0.012 0.84 0.68 
v -0.012 1.12 0.68 
v -1.463 1.12 0.68 
v -1.463 0.84 0.68 
vn -0 -0 1 
vn -0 -0 1 
vn -0 -0 1 
vn -0 -0 1 
f 25//25 26//26 27//27 
f 27//27 28//28 25//25 
o mesh7
v -0.012 1.12 0.85 
v -1.463 1.12 0.85 
v -1.463 1.12 0.68 
v -0.012 1.12 0.68 
vn -0 -1 -0 
vn -0 -1 -0 
vn -0 -1 -0 
vn -0 -1 -0 
f 29//29 30//30 31//31 
f 31//31 32//32 29//29 
o mesh8
v -0.012 1.12 0.85 
v -0.012 1.4 0.85 
v -1.463 1.4 0.85 
v -1.463 1.12 0.85 
vn -0 -0 1 
vn -0 -0 1 
vn -0 -0 1 
vn -0 -0 1 
f 33//33 34//34 35//35 
f 35//35 36//36 33//33 
o mesh9
v -0.012 1.4 1.02 
v -1.463 1.4 1.02 
v -1.463 1.4 0.85 
v -0.012 1.4 0.85 
vn -0 -1 -0 
vn -0 -1 -0 
vn -0 -1 -0 
vn -0 -1 -0 
f 37//37 38//38 39//39 
f 39//39 40//40 37//37 
o mesh10
v -0.012 2.355 1.02 
v -1.463 2.355 1.02 
v -1.463 1.4 1.02 
v -0.012 1.4 1.02 
vn -0 -0 1 
vn -0 -0 1 
vn -0 -0 1 
vn -0 -0 1 
f 41//41 42//42 43//43 
f 43//43 44//44 41//41 
o mesh11
v -0.012 0.28 0.17 
v -0.012 0 0.17 
v -0.012 -2.22045e-16 0.22 
v -0.012 0.56 0.51 
v -0.012 0.56 0.34 
v -0.012 0.28 0.34 
v -0.012 0.84 0.68 
v -0.012 0.84 0.51 
v -0.012 1.12 0.85 
v -0.012 1.12 0.68 
v -0.012 1.39 1.072 
v -0.012 1.4 1.02 
v -0.012 1.4 0.85 
v -0.012 2.355 1.072 
v -0.012 2.355 1.02 
vn -1 -0 -0 
vn -1 -0 -0 
vn -1 -0 -0 
vn -1 -0 -0 
vn -1 -0 -0 
vn -1 -0 -0 
vn -1 -0 -0 
vn -1 -0 -0 
vn -1 -0 -0 
vn -1 -0 -0 
vn -1 -0 -0 
vn -1 -0 -0 
vn -1 -0 -0 
vn -1 -0 -0 
vn -1 -0 -0 
f 45//45 46//46 47//47 
f 48//48 49//49 50//50 
f 50//50 47//47 48//48 
f 51//51 52//52 48//48 
f 48//48 47//47 51//51 
f 53//53 54//54 51//51 
f 53//53 55//55 56//56 
f 51//51 47//47 53//53 
f 56//56 57//57 53//53 
f 53//53 47//47 55//55 
f 58//58 59//59 56//56 
f 56//56 55//55 58//58 
f 47//47 50//50 45//45 
o mesh12
v -0.012 1.39 1.072 
v 0 1.39 1.072 
v 0 2.355 1.072 
v -0.012 2.355 1.072 
vn 0 0 1 
vn 0 0 1 
vn 0 0 1 
vn 0 0 1 
f 60//60 61//61 62//62 
f 62//62 63//63 60//60 
o mesh13
v -0.012 -2.22045e-16 0.22 
v 0 -2.22045e-16 0.22 
v 0 1.39 1.072 
v -0.012 1.39 1.072 
vn -0 -0.522591 0.852584 
vn -0 -0.522591 0.852584 
vn -0 -0.522591 0.852584 
vn -0 -0.522591 0.852584 
f 64//64 65//65 66//66 
f 66//66 67//67 64//64 
o mesh14
v 0 2.355 0 
v 0 1.39 1.072 
v 0 -2.22045e-16 0.22 
v 0 2.355 1.072 
v 0 0 0 
vn 1 0 0 
vn 1 0 0 
vn 1 0 0 
vn 1 0 0 
vn 1 0 0 
f 68//68 69//69 70//70 
f 68//68 71//71 69//69 
f 70//70 72//72 68//68 
o mesh15
v -1.475 2.355 0 
v 0 2.355 0 
v 0 0 0 
v -1.475 0 0 
vn 0 0 -1 
vn 0 0 -1 
vn 0 0 -1 
vn 0 0 -1 
f 73//73 74//74 75//75 
f 75//75 76//76 73//73 
o mesh16
v -1.475 -2.22045e-16 0.22 
v -1.475 0 0 
v -1.463 0 0.17 
v 0 0 0 
v -0.012 0 0.17 
v 0 -2.22045e-16 0.22 
v -0.012 -2.22045e-16 0.22 
v -1.463 -2.22045e-16 0.22 
vn -0 -1 -0 
vn -0 -1 -0 
vn -0 -1 -0 
vn -0 -1 -0 
vn -0 -1 -0 
vn -0 -1 -0 
vn -0 -1 -0 
vn -0 -1 -0 
f 77//77 78//78 79//79 
f 78//78 80//80 81//81 
f 81//81 79//79 78//78 
f 82//82 83//83 81//81 
f 81//81 80//80 82//82 
f 79//79 84//84 77//77 
o mesh17
v -1.463 1.12 0.85 
v -1.463 1.4 0.85 
v -1.463 1.4 1.02 
v -1.463 2.355 1.072 
v -1.463 1.39 1.072 
v -1.463 -2.22045e-16 0.22 
v -1.463 0.84 0.68 
v -1.463 1.12 0.68 
v -1.463 0.56 0.51 
v -1.463 0.84 0.51 
v -1.463 0.28 0.34 
v -1.463 0.56 0.34 
v -1.463 0.28 0.17 
v -1.463 0 0.17 
v -1.463 2.355 1.02 
vn 1 -0 -0 
vn 1 -0 -0 
vn 1 -0 -0 
vn 1 -0 -0 
vn 1 -0 -0 
vn 1 -0 -0 
vn 1 -0 -0 
vn 1 -0 -0 
vn 1 -0 -0 
vn 1 -0 -0 
vn 1 -0 -0 
vn 1 -0 -0 
vn 1 -0 -0 
vn 1 -0 -0 
vn 1 -0 -0 
f 85//85 86//86 87//87 
f 88//88 89//89 87//87 
f 89//89 90//90 85//85 
f 87//87 89//89 85//85 
f 85//85 90//90 91//91 
f 91//91 92//92 85//85 
f 91//91 90//90 93//93 
f 93//93 94//94 91//91 
f 93//93 90//90 95//95 
f 95//95 96//96 93//93 
f 97//97 95//95 90//90 
f 90//90 98//98 97//97 
f 87//87 99//99 88//88 
o mesh18
v 0 2.355 0 
v -1.475 2.355 0 
v -1.463 2.355 1.02 
v -1.475 2.355 1.072 
v -1.463 2.355 1.072 
v 0 2.355 1.072 
v -0.012 2.355 1.02 
v -0.012 2.355 1.072 
vn 0 1 0 
vn 0 1 0 
vn 0 1 0 
vn 0 1 0 
vn 0 1 0 
vn 0 1 0 
vn 0 1 0 
vn 0 1 0 
f 100//100 101//101 102//102 
f 103//103 104//104 102//102 
f 105//105 100//100 106//106 
f 102//102 101//101 103//103 
f 102//102 106//106 100//100 
f 106//106 107//107 105//105 
o mesh19
v -1.475 2.355 0 
v -1.475 0 0 
v -1.475 -2.22045e-16 0.22 
v -1.475 1.39 1.072 
v -1.475 2.355 1.072 
vn -1 0 0 
vn -1 0 0 
vn -1 0 0 
vn -1 0 0 
vn -1 0 0 
f 108//108 109//109 110//110 
f 110//110 111//111 108//108 
f 111//111 112//112 108//108 
o mesh20
v -1.463 2.355 1.072 
v -1.475 2.355 1.072 
v -1.475 1.39 1.072 
v -1.463 1.39 1.072 
vn 0 0 1 
vn 0 0 1 
vn 0 0 1 
vn 0 0 1 
f 113//113 114//114 115//115 
f 115//115 116//116 113//113 
o mesh21
v -1.463 1.39 1.072 
v -1.475 1.39 1.072 
v -1.475 -2.22045e-16 0.22 
v -1.463 -2.22045e-16 0.22 
vn -0 -0.522591 0.852584 
vn -0 -0.522591 0.852584 
vn -0 -0.522591 0.852584 
vn -0 -0.522591 0.852584 
f 117//117 118//118 119//119 
f 119//119 120//120 117//117 
