# Blender v2.82 (sub 7) OBJ File: ''
# www.blender.org
mtllib door.mtl
o Box002
v 0.007500 -0.022000 0.011600
v 0.921900 -0.022000 0.011600
v 0.921900 -0.022000 2.043600
v 0.007500 -0.022000 2.043600
v 0.921900 0.022500 0.011600
v 0.007500 0.022500 0.011600
v 0.007500 0.022500 2.043600
v 0.921900 0.022500 2.043600
vt 0.695900 1.015500
vt 0.304100 1.015500
vt 0.304100 -0.015500
vt 0.695900 -0.015500
vt 0.695900 1.015500
vt 0.304100 1.015500
vt 0.304100 -0.015500
vt 0.695900 -0.015500
vt 0.695900 0.845000
vt 0.304100 0.845000
vt 0.304100 0.155000
vt 0.695900 0.155000
vt 1.015500 0.845000
vt -0.015500 0.845000
vt -0.015500 0.155000
vt 1.015500 0.155000
vt 0.695900 0.155000
vt 0.695900 0.845000
vt 0.304100 0.845000
vt 0.304100 0.155000
vt 1.015500 0.845000
vt -0.015500 0.845000
vt -0.015500 0.155000
vt 1.015500 0.155000
vn -0.5773 -0.5774 -0.5774
vn 0.5774 -0.5774 -0.5773
vn 0.5773 -0.5774 0.5774
vn -0.5774 -0.5774 0.5773
vn 0.5773 0.5774 -0.5774
vn -0.5774 0.5774 -0.5773
vn -0.5773 0.5774 0.5774
vn 0.5774 0.5774 0.5773
vn 0.5773 0.5774 0.5774
vn -0.5774 0.5773 0.5774
vn -0.5773 -0.5774 0.5774
vn 0.5774 -0.5773 0.5774
vn 0.5774 0.5774 -0.5773
vn 0.5774 0.5773 0.5774
vn 0.5774 -0.5774 0.5773
vn 0.5774 -0.5773 -0.5774
vn -0.5774 -0.5773 -0.5774
vn -0.5773 0.5774 -0.5774
vn 0.5774 0.5773 -0.5774
vn 0.5773 -0.5774 -0.5774
vn -0.5774 0.5774 0.5773
vn -0.5774 0.5773 -0.5774
vn -0.5774 -0.5774 -0.5773
vn -0.5774 -0.5773 0.5774
usemtl 07___Default
s 1
f 1/1/1 2/2/2 3/3/3 4/4/4
f 5/5/5 6/6/6 7/7/7 8/8/8
f 8/9/9 7/10/10 4/11/11 3/12/12
f 5/13/13 8/14/14 3/15/15 2/16/16
f 1/17/17 6/18/18 5/19/19 2/20/20
f 7/21/21 6/22/22 1/23/23 4/24/24