# 3ds Max Wavefront OBJ Exporter v0.97b - (c)2007 guruware
# File Created: 04.08.2017 15:42:03

mtllib genericHip.mtl

#
# object stitch_result_stitch_all
#

v  0.2400 0.0400 -0.0000
v  0.2400 0.0390 0.0089
v  0.2400 0.0390 -0.0089
v  0.2400 0.0360 -0.0174
v  0.2400 0.0360 0.0174
v  0.2400 0.0313 -0.0249
v  0.2400 0.0313 0.0249
v  0.2400 0.0249 -0.0313
v  0.2400 0.0249 0.0313
v  0.2400 0.0174 -0.0360
v  0.2400 0.0174 0.0360
v  0.2400 0.0089 -0.0390
v  0.2400 0.0089 0.0390
v  0.2400 -0.0000 -0.0400
v  0.2400 0.0000 0.0400
v  0.2400 -0.0089 -0.0390
v  0.2400 -0.0089 0.0390
v  0.2400 -0.0174 -0.0360
v  0.2400 -0.0174 0.0360
v  0.2400 -0.0249 -0.0313
v  0.2400 -0.0249 0.0313
v  0.2400 -0.0313 -0.0249
v  0.2400 -0.0313 0.0249
v  0.2400 -0.0360 -0.0174
v  0.2400 -0.0360 0.0174
v  0.2400 -0.0390 -0.0089
v  0.2400 -0.0390 0.0089
v  0.2400 -0.0400 0.0000
v  0.0000 0.0390 -0.0089
v  0.0000 0.0400 -0.0000
v  -0.0000 0.0390 0.0089
v  -0.0000 0.0360 0.0174
v  -0.0000 0.0313 0.0249
v  -0.0000 0.0249 0.0313
v  -0.0000 0.0174 0.0360
v  -0.0000 0.0089 0.0390
v  -0.0000 0.0000 0.0400
v  -0.0000 -0.0089 0.0390
v  -0.0000 -0.0174 0.0360
v  -0.0000 -0.0249 0.0313
v  -0.0000 -0.0313 0.0249
v  -0.0000 -0.0360 0.0174
v  -0.0000 -0.0390 0.0089
v  -0.0000 -0.0400 0.0000
v  0.0000 -0.0390 -0.0089
v  0.0000 -0.0360 -0.0174
v  0.0000 -0.0313 -0.0249
v  0.0000 -0.0249 -0.0313
v  0.0000 -0.0174 -0.0360
v  0.0000 -0.0089 -0.0390
v  0.0000 -0.0000 -0.0400
v  0.0000 0.0089 -0.0390
v  0.0000 0.0174 -0.0360
v  0.0000 0.0249 -0.0313
v  0.0000 0.0313 -0.0249
v  0.0000 0.0360 -0.0174
# 56 vertices

vn 2.5400 0.0000 0.0000
vn 0.0000 2.4763 -0.5652
vn 0.0000 2.5400 -0.0000
vn 0.0000 2.4763 0.5652
vn 0.0000 2.2885 1.1021
vn 0.0000 1.9859 1.5837
vn 0.0000 1.5837 1.9859
vn 0.0000 1.1021 2.2885
vn 0.0000 0.5652 2.4763
vn 0.0000 0.0000 2.5400
vn 0.0000 -0.5652 2.4763
vn 0.0000 -1.1021 2.2885
vn 0.0000 -1.5837 1.9859
vn 0.0000 -1.9859 1.5837
vn 0.0000 -2.2885 1.1021
vn 0.0000 -2.4763 0.5652
vn 0.0000 -2.5400 0.0000
vn 0.0000 -2.4763 -0.5652
vn 0.0000 -2.2885 -1.1021
vn 0.0000 -1.9859 -1.5837
vn 0.0000 -1.5837 -1.9859
vn 0.0000 -1.1021 -2.2885
vn 0.0000 -0.5652 -2.4763
vn 0.0000 -0.0000 -2.5400
vn 0.0000 0.5652 -2.4763
vn 0.0000 1.1021 -2.2885
vn 0.0000 1.5837 -1.9859
vn 0.0000 1.9859 -1.5837
vn 0.0000 2.2885 -1.1021
vn -2.5400 0.0000 0.0000
# 30 vertex normals

vt -4.0480 4.0000 0.0000
vt -4.9381 3.8997 0.0000
vt -3.1579 3.8997 0.0000
vt -2.3125 3.6039 0.0000
vt -5.7835 3.6039 0.0000
vt -1.5540 3.1273 0.0000
vt -6.5420 3.1273 0.0000
vt -0.9207 2.4940 0.0000
vt -7.1753 2.4940 0.0000
vt -0.4441 1.7355 0.0000
vt -7.6519 1.7355 0.0000
vt -0.1483 0.8901 0.0000
vt -7.9477 0.8901 0.0000
vt -0.0480 -0.0000 0.0000
vt -8.0480 0.0000 0.0000
vt -0.1483 -0.8901 0.0000
vt -7.9477 -0.8901 0.0000
vt -0.4441 -1.7355 0.0000
vt -7.6519 -1.7355 0.0000
vt -0.9207 -2.4940 0.0000
vt -7.1753 -2.4940 0.0000
vt -1.5540 -3.1273 0.0000
vt -6.5420 -3.1273 0.0000
vt -2.3125 -3.6039 0.0000
vt -5.7835 -3.6039 0.0000
vt -3.1579 -3.8997 0.0000
vt -4.9381 -3.8997 0.0000
vt -4.0480 -4.0000 0.0000
vt 12.0000 -11.6688 0.0000
vt -12.0000 -11.6688 0.0000
vt 12.0000 -12.5664 0.0000
vt -12.0000 -12.5664 0.0000
vt 12.0000 12.5664 0.0000
vt -12.0000 12.5664 0.0000
vt 12.0000 11.6688 0.0000
vt -12.0000 11.6688 0.0000
vt 12.0000 10.7712 0.0000
vt -12.0000 10.7712 0.0000
vt 12.0000 9.8736 0.0000
vt -12.0000 9.8736 0.0000
vt 12.0000 8.9760 0.0000
vt -12.0000 8.9760 0.0000
vt 12.0000 8.0784 0.0000
vt -12.0000 8.0784 0.0000
vt 12.0000 7.1808 0.0000
vt -12.0000 7.1808 0.0000
vt 12.0000 6.2832 0.0000
vt -12.0000 6.2832 0.0000
vt 12.0000 5.3856 0.0000
vt -12.0000 5.3856 0.0000
vt 12.0000 4.4880 0.0000
vt -12.0000 4.4880 0.0000
vt 12.0000 3.5904 0.0000
vt -12.0000 3.5904 0.0000
vt 12.0000 2.6928 0.0000
vt -12.0000 2.6928 0.0000
vt 12.0000 1.7952 0.0000
vt -12.0000 1.7952 0.0000
vt 12.0000 0.8976 0.0000
vt -12.0000 0.8976 0.0000
vt 12.0000 0.0000 0.0000
vt -12.0000 0.0000 0.0000
vt 12.0000 -0.8976 0.0000
vt -12.0000 -0.8976 0.0000
vt 12.0000 -1.7952 0.0000
vt -12.0000 -1.7952 0.0000
vt 12.0000 -2.6928 0.0000
vt -12.0000 -2.6928 0.0000
vt 12.0000 -3.5904 0.0000
vt -12.0000 -3.5904 0.0000
vt 12.0000 -4.4880 0.0000
vt -12.0000 -4.4880 0.0000
vt 12.0000 -5.3856 0.0000
vt -12.0000 -5.3856 0.0000
vt 12.0000 -6.2832 0.0000
vt -12.0000 -6.2832 0.0000
vt 12.0000 -7.1808 0.0000
vt -12.0000 -7.1808 0.0000
vt 12.0000 -8.0784 0.0000
vt -12.0000 -8.0784 0.0000
vt 12.0000 -8.9760 0.0000
vt -12.0000 -8.9760 0.0000
vt 12.0000 -9.8736 0.0000
vt -12.0000 -9.8736 0.0000
vt 12.0000 -10.7712 0.0000
vt -12.0000 -10.7712 0.0000
vt 4.0480 4.0000 0.0000
vt 3.1579 3.8997 0.0000
vt 4.9381 3.8997 0.0000
vt 5.7835 3.6039 0.0000
vt 2.3125 3.6039 0.0000
vt 6.5420 3.1273 0.0000
vt 1.5540 3.1273 0.0000
vt 7.1753 2.4940 0.0000
vt 0.9207 2.4940 0.0000
vt 7.6519 1.7355 0.0000
vt 0.4441 1.7355 0.0000
vt 7.9477 0.8901 0.0000
vt 0.1483 0.8901 0.0000
vt 8.0480 0.0000 0.0000
vt 0.0480 -0.0000 0.0000
vt 7.9477 -0.8901 0.0000
vt 0.1483 -0.8901 0.0000
vt 7.6519 -1.7355 0.0000
vt 0.4441 -1.7355 0.0000
vt 7.1753 -2.4940 0.0000
vt 0.9207 -2.4940 0.0000
vt 6.5420 -3.1273 0.0000
vt 1.5540 -3.1273 0.0000
vt 5.7835 -3.6039 0.0000
vt 2.3125 -3.6039 0.0000
vt 4.9381 -3.8997 0.0000
vt 3.1579 -3.8997 0.0000
vt 4.0480 -4.0000 0.0000
# 114 texture coords

g stitch_result_stitch_all
usemtl Material__60
f 1/1/1 2/2/1 3/3/1 
f 3/3/1 2/2/1 4/4/1 
f 4/4/1 2/2/1 5/5/1 
f 4/4/1 5/5/1 6/6/1 
f 6/6/1 5/5/1 7/7/1 
f 6/6/1 7/7/1 8/8/1 
f 8/8/1 7/7/1 9/9/1 
f 8/8/1 9/9/1 10/10/1 
f 10/10/1 9/9/1 11/11/1 
f 10/10/1 11/11/1 12/12/1 
f 12/12/1 11/11/1 13/13/1 
f 12/12/1 13/13/1 14/14/1 
f 14/14/1 13/13/1 15/15/1 
f 14/14/1 15/15/1 16/16/1 
f 16/16/1 15/15/1 17/17/1 
f 16/16/1 17/17/1 18/18/1 
f 18/18/1 17/17/1 19/19/1 
f 18/18/1 19/19/1 20/20/1 
f 20/20/1 19/19/1 21/21/1 
f 20/20/1 21/21/1 22/22/1 
f 22/22/1 21/21/1 23/23/1 
f 22/22/1 23/23/1 24/24/1 
f 24/24/1 23/23/1 25/25/1 
f 24/24/1 25/25/1 26/26/1 
f 26/26/1 25/25/1 27/27/1 
f 26/26/1 27/27/1 28/28/1 
f 3/29/2 29/30/2 1/31/3 
f 1/31/3 29/30/2 30/32/3 
f 1/33/3 30/34/3 2/35/4 
f 2/35/4 30/34/3 31/36/4 
f 2/35/4 31/36/4 5/37/5 
f 5/37/5 31/36/4 32/38/5 
f 5/37/5 32/38/5 7/39/6 
f 7/39/6 32/38/5 33/40/6 
f 7/39/6 33/40/6 9/41/7 
f 9/41/7 33/40/6 34/42/7 
f 9/41/7 34/42/7 11/43/8 
f 11/43/8 34/42/7 35/44/8 
f 11/43/8 35/44/8 13/45/9 
f 13/45/9 35/44/8 36/46/9 
f 13/45/9 36/46/9 15/47/10 
f 15/47/10 36/46/9 37/48/10 
f 15/47/10 37/48/10 17/49/11 
f 17/49/11 37/48/10 38/50/11 
f 17/49/11 38/50/11 19/51/12 
f 19/51/12 38/50/11 39/52/12 
f 19/51/12 39/52/12 21/53/13 
f 21/53/13 39/52/12 40/54/13 
f 21/53/13 40/54/13 23/55/14 
f 23/55/14 40/54/13 41/56/14 
f 23/55/14 41/56/14 25/57/15 
f 25/57/15 41/56/14 42/58/15 
f 25/57/15 42/58/15 27/59/16 
f 27/59/16 42/58/15 43/60/16 
f 27/59/16 43/60/16 28/61/17 
f 28/61/17 43/60/16 44/62/17 
f 28/61/17 44/62/17 26/63/18 
f 26/63/18 44/62/17 45/64/18 
f 26/63/18 45/64/18 24/65/19 
f 24/65/19 45/64/18 46/66/19 
f 24/65/19 46/66/19 22/67/20 
f 22/67/20 46/66/19 47/68/20 
f 22/67/20 47/68/20 20/69/21 
f 20/69/21 47/68/20 48/70/21 
f 20/69/21 48/70/21 18/71/22 
f 18/71/22 48/70/21 49/72/22 
f 18/71/22 49/72/22 16/73/23 
f 16/73/23 49/72/22 50/74/23 
f 16/73/23 50/74/23 14/75/24 
f 14/75/24 50/74/23 51/76/24 
f 14/75/24 51/76/24 12/77/25 
f 12/77/25 51/76/24 52/78/25 
f 12/77/25 52/78/25 10/79/26 
f 10/79/26 52/78/25 53/80/26 
f 10/79/26 53/80/26 8/81/27 
f 8/81/27 53/80/26 54/82/27 
f 8/81/27 54/82/27 6/83/28 
f 6/83/28 54/82/27 55/84/28 
f 6/83/28 55/84/28 4/85/29 
f 4/85/29 55/84/28 56/86/29 
f 4/85/29 56/86/29 3/29/2 
f 3/29/2 56/86/29 29/30/2 
f 30/87/30 29/88/30 31/89/30 
f 31/89/30 29/88/30 32/90/30 
f 32/90/30 29/88/30 56/91/30 
f 32/90/30 56/91/30 33/92/30 
f 33/92/30 56/91/30 55/93/30 
f 33/92/30 55/93/30 34/94/30 
f 34/94/30 55/93/30 54/95/30 
f 34/94/30 54/95/30 35/96/30 
f 35/96/30 54/95/30 53/97/30 
f 35/96/30 53/97/30 36/98/30 
f 36/98/30 53/97/30 52/99/30 
f 36/98/30 52/99/30 37/100/30 
f 37/100/30 52/99/30 51/101/30 
f 37/100/30 51/101/30 38/102/30 
f 38/102/30 51/101/30 50/103/30 
f 38/102/30 50/103/30 39/104/30 
f 39/104/30 50/103/30 49/105/30 
f 39/104/30 49/105/30 40/106/30 
f 40/106/30 49/105/30 48/107/30 
f 40/106/30 48/107/30 41/108/30 
f 41/108/30 48/107/30 47/109/30 
f 41/108/30 47/109/30 42/110/30 
f 42/110/30 47/109/30 46/111/30 
f 42/110/30 46/111/30 43/112/30 
f 43/112/30 46/111/30 45/113/30 
f 43/112/30 45/113/30 44/114/30 
# 108 faces

