# File units = meters
mtllib stool.mtl
g stool
v 0.075 0.375 0 
v 0.075 0.3 0 
v 0 0.3 0 
v 0 0.375 0 
v 0.075 0.375 0.5 
v 0.075 0.3 0.5 
v 0 0.3 0.5 
v 0 0 0 
v 0 0 0.575 
v 0 0.075 0.5 
v -2.77556e-17 0.375 0.575 
v 0 0.075 0 
v 0.075 0.075 0 
v 0.075 0 0 
v 0.075 0.075 0.5 
v 0.075 0 0.5 
v 0.375 0.375 0.575 
v 0.375 0 0.575 
v 0.3 0.375 0.5 
v 0.375 0.375 0 
v 0.3 0.375 0 
v 0.3 0.3 0 
v 0.3 0.3 0.5 
v 0.375 0.3 0 
v 0.375 0.3 0.5 
v 0.375 0.075 0.5 
v 0.3 0.075 0.5 
v 0.3 0 0.5 
v 0.375 0 0 
v 0.3 0 0 
v 0.375 0.075 0 
v 0.3 0.075 0 
vn 0 0 -1 
vn 1 0 5.55112e-17 
vn 0 -1 0 
vn -1 0 0 
vn 0 0 -1 
vn 1 0 5.55112e-17 
vn 0 1 0 
vn 0 0 1 
vn -1 0 0 
vn 0 0 -1 
vn 0 -1 0 
vn 1 0 5.55112e-17 
vn -1 0 0 
vn 0 0 -1 
vn 0 1 0 
usemtl 0.917647_0.490196_0.533333_0.000000_0.000000
o mesh0
f 1//1 2//1 3//1 
f 3//1 4//1 1//1 
o mesh1
f 5//2 6//2 2//2 
f 2//2 1//2 5//2 
o mesh2
f 2//3 6//3 7//3 
f 7//3 3//3 2//3 
o mesh3
f 8//4 9//4 10//4 
f 9//4 11//4 7//4 
f 7//4 10//4 9//4 
f 4//4 3//4 7//4 
f 7//4 11//4 4//4 
f 10//4 12//4 8//4 
o mesh4
f 13//5 14//5 8//5 
f 8//5 12//5 13//5 
o mesh5
f 15//6 16//6 14//6 
f 14//6 13//6 15//6 
o mesh6
f 12//7 10//7 15//7 
f 15//7 13//7 12//7 
o mesh7
f 17//8 11//8 9//8 
f 9//8 18//8 17//8 
o mesh8
f 4//7 11//7 5//7 
f 11//7 17//7 19//7 
f 19//7 5//7 11//7 
f 20//7 21//7 19//7 
f 19//7 17//7 20//7 
f 5//7 1//7 4//7 
o mesh9
f 21//9 22//9 23//9 
f 23//9 19//9 21//9 
o mesh10
f 20//10 24//10 22//10 
f 22//10 21//10 20//10 
o mesh11
f 24//11 25//11 23//11 
f 23//11 22//11 24//11 
o mesh12
f 26//10 27//10 23//10 
f 7//10 6//10 15//10 
f 27//10 6//10 23//10 
f 19//10 23//10 6//10 
f 6//10 27//10 15//10 
f 16//10 15//10 27//10 
f 6//10 5//10 19//10 
f 27//10 28//10 16//10 
f 15//10 10//10 7//10 
f 23//10 25//10 26//10 
o mesh13
f 29//11 18//11 28//11 
f 18//11 9//11 16//11 
f 16//11 28//11 18//11 
f 8//11 14//11 16//11 
f 16//11 9//11 8//11 
f 28//11 30//11 29//11 
o mesh14
f 20//12 17//12 25//12 
f 17//12 18//12 26//12 
f 26//12 25//12 17//12 
f 29//12 31//12 26//12 
f 26//12 18//12 29//12 
f 25//12 24//12 20//12 
o mesh15
f 32//13 30//13 28//13 
f 28//13 27//13 32//13 
o mesh16
f 31//14 29//14 30//14 
f 30//14 32//14 31//14 
o mesh17
f 32//15 27//15 26//15 
f 26//15 31//15 32//15 
