# 3ds Max Wavefront OBJ Exporter v0.97b - (c)2007 guruware
# File Created: 30.01.2015 10:00:04

mtllib LeftFootPathIcon_1meter.mtl

#
# object 1
#

v  -0.2736 0.3623 -0.0000
v  -0.1822 0.3623 -0.0000
v  -0.1822 -0.3500 -0.0000
v  -0.3181 0.3497 -0.0000
v  -0.3689 -0.2370 -0.0000
v  -0.3752 -0.1492 -0.0000
v  -0.3752 0.1615 -0.0000
v  -0.3498 -0.2998 -0.0000
v  -0.3181 -0.3374 -0.0000
v  -0.2736 -0.3500 -0.0000
v  -0.3689 0.2493 -0.0000
v  -0.3498 0.3121 -0.0000
v  0.2172 0.3623 1.0019
v  0.1561 0.3623 1.0019
v  0.1250 -0.1512 1.0019
v  0.2172 -0.3500 1.0019
v  0.1250 -0.1512 -0.0000
v  0.2172 -0.3500 -0.0000
v  0.3909 0.1208 1.0019
v  0.3909 -0.1085 1.0019
v  0.3909 -0.1085 -0.0000
v  0.3909 0.1208 -0.0000
v  0.3366 0.2750 1.0019
v  0.3366 0.2750 -0.0000
v  0.2172 0.3623 -0.0000
v  -0.3752 -0.1492 1.0019
v  -0.3752 0.1615 1.0019
v  -0.2736 -0.3500 1.0019
v  -0.3181 -0.3374 1.0019
v  -0.3181 0.3497 1.0019
v  -0.2736 0.3623 1.0019
v  -0.3498 -0.2998 1.0019
v  -0.3689 -0.2370 1.0019
v  -0.3498 0.3121 1.0019
v  -0.3689 0.2493 1.0019
v  0.3875 -0.1610 -0.0000
v  0.3773 -0.2043 -0.0000
v  0.3604 -0.2381 -0.0000
v  0.3366 -0.2627 -0.0000
v  0.3604 0.2504 -0.0000
v  0.3773 0.2166 -0.0000
v  0.3875 0.1733 -0.0000
v  0.3875 0.1733 1.0019
v  0.3773 0.2166 1.0019
v  0.3604 0.2504 1.0019
v  0.3366 -0.2627 1.0019
v  0.3604 -0.2381 1.0019
v  0.3773 -0.2043 1.0019
v  0.3875 -0.1610 1.0019
v  -0.1822 0.3623 1.0019
v  0.0842 0.3623 -0.0000
v  0.0402 -0.1512 -0.0000
v  -0.0499 -0.1512 -0.0000
v  0.0078 0.3623 -0.0000
v  -0.1822 -0.3500 1.0019
v  -0.0499 -0.1512 1.0019
v  0.0078 0.3623 1.0019
v  0.0842 0.3623 1.0019
v  0.0402 -0.1512 1.0019
v  0.1561 0.3623 -0.0000
# 60 vertices

vn 0.0000 0.0000 -1.0000
vn 0.0000 0.0000 1.0000
vn -0.9038 -0.4279 -0.0000
vn 0.9995 0.0323 -0.0000
vn 0.9995 -0.0323 -0.0000
vn 0.6566 0.7542 -0.0000
vn 0.4116 0.9114 -0.0000
vn 0.2058 0.9786 -0.0000
vn -0.9993 -0.0361 -0.0000
vn -0.9993 0.0361 -0.0000
vn -0.1371 -0.9906 -0.0000
vn -0.5417 -0.8405 -0.0000
vn -0.1371 0.9906 -0.0000
vn -0.5417 0.8405 -0.0000
vn -0.8786 -0.4775 -0.0000
vn -0.9832 -0.1825 -0.0000
vn -0.8786 0.4775 -0.0000
vn -0.9832 0.1825 -0.0000
vn 0.5903 -0.8072 -0.0000
vn 0.5903 -0.8072 0.0000
vn 0.6566 -0.7542 -0.0000
vn -0.0000 1.0000 -0.0000
vn 0.0000 1.0000 -0.0000
vn 0.8156 -0.5787 -0.0000
vn 0.7849 -0.6196 -0.0000
vn 0.9891 0.1475 -0.0000
vn 0.9400 -0.3411 -0.0000
vn 0.9891 -0.1475 -0.0000
vn 0.9400 0.3411 -0.0000
vn 0.7849 0.6196 -0.0000
vn 0.8156 0.5787 -0.0000
vn 0.8467 -0.5321 -0.0000
vn 0.0000 -1.0000 -0.0000
vn -0.0000 -1.0000 -0.0000
vn 0.0000 -1.0000 0.0000
# 35 vertex normals

vt 0.1330 0.9995 0.0000
vt 0.2522 0.9995 0.0000
vt 0.2522 0.0005 0.0000
vt 0.0750 0.9819 0.0000
vt 0.0088 0.1589 0.0000
vt 0.0005 0.2821 0.0000
vt 0.0005 0.7179 0.0000
vt 0.0336 0.0709 0.0000
vt 0.0750 0.0181 0.0000
vt 0.1330 0.0005 0.0000
vt 0.0088 0.8411 0.0000
vt 0.0336 0.9291 0.0000
vt 0.7730 0.9995 0.0000
vt 0.6933 0.9995 0.0000
vt 0.6933 0.0005 0.0000
vt 0.7730 0.0005 0.0000
vt 0.9995 0.6608 0.0000
vt 0.9995 0.3392 0.0000
vt 0.9287 0.8771 0.0000
vt 0.9951 0.2655 0.0000
vt 0.9818 0.2049 0.0000
vt 0.9596 0.1574 0.0000
vt 0.9287 0.1229 0.0000
vt 0.9596 0.8426 0.0000
vt 0.9818 0.7951 0.0000
vt 0.9951 0.7345 0.0000
vt 0.5996 0.9995 0.0000
vt 0.5996 0.0005 0.0000
vt 0.5000 0.0005 0.0000
vt 0.5000 0.9995 0.0000
# 30 texture coords

g 1
usemtl 1
s 1
f 1/1/1 2/2/1 3/3/1 
f 4/4/1 1/1/1 3/3/1 
f 5/5/1 6/6/1 7/7/1 
f 8/8/1 5/5/1 7/7/1 
f 9/9/1 8/8/1 7/7/1 
f 10/10/1 9/9/1 7/7/1 
f 3/3/1 10/10/1 7/7/1 
f 3/3/1 7/7/1 11/11/1 
f 3/3/1 11/11/1 12/12/1 
f 4/4/1 3/3/1 12/12/1 
f 13/13/2 14/14/2 15/15/2 
f 15/15/2 16/16/2 13/13/2 
f 16/16/3 15/15/3 17/15/3 
f 17/15/3 18/16/3 16/16/3 
f 19/17/4 20/18/5 21/18/5 
f 21/18/5 22/17/4 19/17/4 
f 23/19/6 24/19/6 25/13/7 
f 25/13/7 13/13/8 23/19/6 
f 26/6/9 27/7/10 7/7/10 
f 7/7/10 6/6/9 26/6/9 
f 28/10/11 29/9/12 9/9/12 
f 9/9/12 10/10/11 28/10/11 
f 1/1/13 4/4/14 30/4/14 
f 30/4/14 31/1/13 1/1/13 
f 29/9/12 32/8/15 8/8/15 
f 8/8/15 9/9/12 29/9/12 
f 32/8/15 33/5/16 5/5/16 
f 5/5/16 8/8/15 32/8/15 
f 33/5/16 26/6/9 6/6/9 
f 6/6/9 5/5/16 33/5/16 
f 4/4/14 12/12/17 34/12/17 
f 34/12/17 30/4/14 4/4/14 
f 12/12/17 11/11/18 35/11/18 
f 35/11/18 34/12/17 12/12/17 
f 11/11/18 7/7/10 27/7/10 
f 27/7/10 35/11/18 11/11/18 
f 22/17/1 21/18/1 36/20/1 
f 22/17/1 36/20/1 37/21/1 
f 22/17/1 37/21/1 38/22/1 
f 22/17/1 38/22/1 39/23/1 
f 22/17/1 39/23/1 18/16/1 
f 22/17/1 18/16/1 25/13/1 
f 25/13/1 24/19/1 40/24/1 
f 25/13/1 40/24/1 41/25/1 
f 25/13/1 41/25/1 42/26/1 
f 22/17/1 25/13/1 42/26/1 
f 20/18/2 19/17/2 43/26/2 
f 20/18/2 43/26/2 44/25/2 
f 20/18/2 44/25/2 45/24/2 
f 20/18/2 45/24/2 23/19/2 
f 20/18/2 23/19/2 13/13/2 
f 20/18/2 13/13/2 16/16/2 
f 16/16/2 46/23/2 47/22/2 
f 16/16/2 47/22/2 48/21/2 
f 16/16/2 48/21/2 49/20/2 
f 20/18/2 16/16/2 49/20/2 
f 16/16/19 18/16/20 39/23/21 
f 39/23/21 46/23/21 16/16/19 
f 31/1/13 50/2/22 2/2/23 
f 2/2/23 1/1/13 31/1/13 
f 39/23/21 38/22/24 47/22/25 
f 47/22/25 46/23/21 39/23/21 
f 22/17/4 42/26/26 43/26/26 
f 43/26/26 19/17/4 22/17/4 
f 38/22/24 37/21/27 48/21/27 
f 48/21/27 47/22/25 38/22/24 
f 37/21/27 36/20/28 49/20/28 
f 49/20/28 48/21/27 37/21/27 
f 36/20/28 21/18/5 20/18/5 
f 20/18/5 49/20/28 36/20/28 
f 42/26/26 41/25/29 44/25/29 
f 44/25/29 43/26/26 42/26/26 
f 41/25/29 40/24/30 45/24/31 
f 45/24/31 44/25/29 41/25/29 
f 40/24/30 24/19/6 23/19/6 
f 23/19/6 45/24/31 40/24/30 
f 51/27/1 52/28/1 53/29/1 
f 53/29/1 54/30/1 51/27/1 
f 50/2/2 55/3/2 56/29/2 
f 56/29/2 57/30/2 50/2/2 
f 55/3/32 3/3/32 53/29/32 
f 53/29/32 56/29/32 55/3/32 
f 58/27/22 51/27/23 54/30/22 
f 54/30/22 57/30/22 58/27/22 
f 58/27/2 59/28/2 15/15/2 
f 15/15/2 14/14/2 58/27/2 
f 59/28/33 52/28/34 17/15/33 
f 17/15/33 15/15/35 59/28/33 
f 25/13/1 18/16/1 17/15/1 
f 17/15/1 60/14/1 25/13/1 
f 13/13/8 25/13/7 60/14/23 
f 60/14/23 14/14/23 13/13/8 
f 60/14/1 17/15/1 52/28/1 
f 52/28/1 51/27/1 60/14/1 
f 14/14/23 60/14/23 51/27/23 
f 51/27/23 58/27/22 14/14/23 
f 57/30/2 56/29/2 59/28/2 
f 59/28/2 58/27/2 57/30/2 
f 56/29/34 53/29/34 52/28/34 
f 52/28/34 59/28/33 56/29/34 
f 54/30/1 53/29/1 3/3/1 
f 3/3/1 2/2/1 54/30/1 
f 57/30/22 54/30/22 2/2/23 
f 2/2/23 50/2/22 57/30/22 
f 35/11/2 27/7/2 26/6/2 
f 34/12/2 35/11/2 26/6/2 
f 30/4/2 34/12/2 26/6/2 
f 31/1/2 30/4/2 26/6/2 
f 50/2/2 31/1/2 26/6/2 
f 50/2/2 26/6/2 33/5/2 
f 50/2/2 33/5/2 32/8/2 
f 50/2/2 32/8/2 29/9/2 
f 50/2/2 29/9/2 28/10/2 
f 50/2/2 28/10/2 55/3/2 
f 28/10/11 10/10/11 3/3/34 
f 3/3/34 55/3/34 28/10/11 
# 0 polygons - 116 triangles

