mtllib RightFootPathIconRing.mtl
g 1
usemtl 1
v 0.08227554 0.060000002 1.0
v 0.107252136 0.060000002 1.0
v 0.10725215 0.060000002 0.0
v 0.08227554 0.060000002 0.0
v 0.16506234 0.019314738 0.0
v 0.16506234 0.019314738 1.0
v 0.16506234 -0.019314738 1.0
v 0.16506234 -0.019314738 0.0
v 0.10725215 -0.060000002 1.0
v 0.107252136 -0.060000002 0.0
v 0.14697829 -0.045293085 0.0
v 0.14697829 -0.04529309 1.0
v -0.08993766 -0.02617855 0.0
v -0.08993766 -0.02617855 1.0
v -0.08993766 0.02617855 1.0
v -0.08993766 0.02617855 0.0
v -0.070913084 0.05788616 0.0
v -0.070913084 0.05788616 1.0
v -0.056116205 0.060000002 1.0
v -0.056116205 0.060000002 0.0
v -0.056116205 -0.060000002 1.0
v -0.070913084 -0.05788616 1.0
v -0.070913084 -0.05788616 0.0
v -0.056116205 -0.060000002 0.0
v -0.08148229 0.05154464 0.0
v -0.08148229 0.05154464 1.0
v -0.08782382 0.040975433 0.0
v -0.08782382 0.040975433 1.0
v -0.08148229 -0.05154464 1.0
v -0.08148229 -0.05154464 0.0
v -0.08782382 -0.040975433 1.0
v -0.08782382 -0.040975433 0.0
v 0.14697829 0.045293085 1.0
v 0.14697829 0.04529309 0.0
v -0.01974815 -0.060000002 0.77738607
v -0.019748142 -0.060000002 0.0
v 0.15489006 0.041158874 1.0
v 0.15489006 0.041158874 0.0
v 0.16393206 -0.028169699 1.0
v 0.16393206 -0.028169699 0.0
v 0.16054133 0.035451077 1.0
v 0.16054133 0.035451077 0.0
v 0.16393206 0.028169699 1.0
v 0.16393206 0.028169699 0.0
v 0.16054133 -0.035451077 1.0
v 0.16054133 -0.035451077 0.0
v 0.15489006 -0.041158874 1.0
v 0.15489006 -0.041158874 0.0
v -0.07604063 0.034332156 1.0
v -0.07029505 0.043187793 0.0
v -0.07604063 0.034332156 0.0
v -0.047312748 -0.05027231 0.0
v -0.047312748 -0.05027231 1.0
v -0.019748142 -0.05027231 1.0
v -0.019748142 -0.05027231 0.0
v 0.13669592 -0.0379498 0.0
v 0.10070302 -0.05027231 0.0
v 0.100703046 -0.050272312 1.0
v 0.14386415 -0.03448586 1.0
v 0.14386415 -0.03448586 0.0
v 0.14898434 -0.02970346 0.0
v 0.14898434 -0.02970346 1.0
v 0.15205646 -0.023602597 1.0
v 0.15205646 -0.023602597 0.0
v 0.1530805 -0.016183276 1.0
v 0.1530805 -0.016183276 0.0
v 0.1530805 0.016183268 1.0
v 0.1530805 0.016183268 0.0
v 0.15205646 0.02360259 1.0
v 0.14898434 0.029703455 1.0
v 0.14898434 0.029703455 0.0
v 0.14386415 0.034485854 1.0
v 0.14386415 0.034485854 0.0
v 0.13669592 0.037949793 1.0
v 0.13669592 0.037949797 0.0
v 0.10070302 0.050272305 1.0
v 0.100703046 0.050272305 0.0
v -0.047312748 0.050272305 0.0
v -0.019748142 0.050272305 0.0
v -0.019748142 0.050272305 0.1862275
v -0.0607191 0.048501175 0.0
v -0.047312748 0.050272305 1.0
v -0.0607191 0.048501175 1.0
v -0.07029505 0.043187793 1.0
v -0.07795582 0.021934265 1.0
v -0.07795582 0.021934265 0.0
v -0.07795582 -0.021934273 1.0
v -0.07795582 -0.021934273 0.0
v -0.07604063 -0.034332167 1.0
v -0.07604063 -0.034332167 0.0
v -0.07029505 -0.0431878 1.0
v -0.07029505 -0.0431878 0.0
v -0.0607191 -0.048501186 1.0
v -0.0607191 -0.048501186 0.0
v 0.08227554 -0.060000002 0.15288521
v 0.08227554 -0.060000002 1.0
v 0.13669592 -0.037949804 1.0
v -0.019748142 -0.060000002 1.0
v -0.019748142 -0.057744045 1.0
v -0.01974815 -0.05027231 1.0
v 0.08227554 0.05141538 1.0
v -0.01974815 0.050272305 1.0
v -0.019748142 0.05774404 1.0
v 0.08227554 -0.060000002 0.0
v 0.08227554 -0.051415388 0.0
v -0.01974815 -0.05027231 0.0
v -0.019748142 -0.057744045 0.0
v 0.15205646 0.02360259 0.0
v -0.019748142 0.060000002 0.0
v -0.019748142 0.057744045 0.0
v -0.01974815 0.050272305 0.0
v 0.06816086 0.01809737 1.0
v 0.06816086 0.01809737 0.8755032
v -0.019748142 0.060000002 1.0
v 0.037562333 0.060000002 1.0
v 0.03756233 0.060000002 0.0
v 0.060601894 -0.060000002 0.2855525
v 0.037562322 -0.060000002 0.42658088
v 0.037562333 -0.060000002 0.0
v 0.060601894 -0.060000002 0.0
v 0.060601894 -0.05027231 0.0
v 0.037562333 -0.05027231 0.0
v 0.037562333 -0.050272312 1.0
v 0.060601894 -0.050272316 1.0
v 0.02344766 0.01809737 0.57341915
v 0.02344766 0.018097376 0.0
v 0.046487223 0.018097376 0.0
v 0.046487223 0.01809737 0.72907525
v 0.037562333 -0.060000002 0.42658082
v 0.03756233 -0.060000002 1.0
v -0.019748142 -0.060000002 0.77738607
v 0.037562326 -0.05418901 1.0
v 0.060601894 -0.060000002 1.0
v 0.060601894 -0.052759837 1.0
v 0.060601894 -0.05027231 1.0
v 0.037562337 -0.05027231 1.0
v 0.037562333 -0.05418901 1.0
v 0.037562337 0.054189 1.0
v 0.037562322 0.060000002 1.0
v -0.01974815 0.060000002 1.0
v 0.046487223 0.01809737 1.0
v 0.060601894 0.052759822 1.0
v 0.037562326 0.054189 1.0
v 0.023447666 0.01809737 1.0
v 0.037562337 -0.054189004 0.0
v 0.037562322 -0.060000002 0.0
v -0.01974815 -0.060000002 0.0
v 0.060601898 -0.05027231 0.0
v 0.060601894 -0.052759837 0.0
v 0.037562326 -0.054189004 0.0
v 0.03756234 -0.05027231 0.0
v 0.037562326 0.054189004 0.0
v 0.060601894 0.060000002 0.0
v 0.060601894 0.052759837 0.0
v 0.046487223 0.01809737 0.0
v 0.023447664 0.01809737 0.0
v 0.037562333 0.054189004 0.0
v 0.023447666 0.01809737 0.5734193
v 0.02344766 0.01809737 1.0
v -0.019748142 0.050272305 1.0
v -0.01974815 0.050272305 0.18622749
v 0.060601894 0.060000002 1.0
v 0.046487223 0.01809737 0.7290753
v 0.08227554 -0.05027231 0.0
v 0.08227554 -0.050272316 1.0
v 0.06816086 0.018097376 0.0
v 0.08227554 -0.0514154 1.0
v 0.08227554 -0.050272312 1.0
v 0.08227554 0.051415384 1.0
v 0.08227554 -0.05141539 0.0
v 0.08227554 0.051415388 0.0
v 0.068160854 0.01809737 0.0
v 0.08227554 0.05141539 0.0
vt 0.6751708 0.9995002 0
vt 0.7730204 0.99950016 0
vt 0.7730205 0.99950016 0
vt 0.9995005 0.66079503 0
vt 0.99950045 0.33920443 0
vt 0.7730204 0.0004995 0
vt 0.77302027 0.0004995 0
vt 0.9286535 0.12293458 0
vt 0.9286535 0.12293455 0
vt 0.0004995 0.28206363 0
vt 0.0004995 0.71793675 0
vt 0.07503119 0.9819027 0
vt 0.13300022 0.9995005 0
vt 0.1330001 0.0004998 0
vt 0.07503107 0.01809761 0
vt 0.03362474 0.9291096 0
vt 0.008780807 0.8411209 0
vt 0.03362462 0.070890784 0
vt 0.008780748 0.15887952 0
vt 0.9286536 0.87706494 0
vt 0.27547747 0.0004998 0
vt 0.2754775 0.0004998 0
vt 0.9596491 0.84264755 0
vt 0.9950725 0.26548684 0
vt 0.98178875 0.79513013 0
vt 0.99507254 0.7345126 0
vt 0.98178875 0.20486933 0
vt 0.959649 0.15735194 0
vt 0.054943204 0.7858156 0
vt 0.07745242 0.8595388 0
vt 0.16748896 0.08148289 0
vt 0.27547753 0.08148286 0
vt 0.88837075 0.18406749 0
vt 0.7473632 0.08148262 0
vt 0.74736327 0.08148259 0
vt 0.9164535 0.21290478 0
vt 0.9365125 0.2527183 0
vt 0.94854796 0.303508 0
vt 0.95255977 0.3652739 0
vt 0.9525598 0.6347256 0
vt 0.948548 0.6964915 0
vt 0.9365126 0.7472812 0
vt 0.9164535 0.7870947 0
vt 0.8883708 0.81593204 0
vt 0.74736327 0.918517 0
vt 0.7473633 0.91851705 0
vt 0.16748908 0.9185173 0
vt 0.2754776 0.9185173 0
vt 0.2754776 0.91851723 0
vt 0.114967704 0.9037727 0
vt 0.04744017 0.68260306 0
vt 0.04744011 0.31739724 0
vt 0.054943144 0.21418473 0
vt 0.07745236 0.14046153 0
vt 0.114967585 0.09622753 0
vt 0.67517066 0.0004995 0
vt 0.88837075 0.18406746 0
vt 0.2754775 0.019280612 0
vt 0.27547747 0.08148286 0
vt 0.6751708 0.9280332 0
vt 0.27547762 0.9807195 0
vt 0.67517066 0.0719665 0
vt 0.27547762 0.9995004 0
vt 0.27547762 0.98071957 0
vt 0.61987436 0.65066063 0
vt 0.50000006 0.9995003 0
vt 0.5902609 0.0004996 0
vt 0.4999999 0.0004996 0
vt 0.49999994 0.0004996 0
vt 0.5902609 0.08148271 0
vt 0.49999994 0.08148274 0
vt 0.49999994 0.08148271 0
vt 0.5902609 0.08148265 0
vt 0.44470367 0.6506607 0
vt 0.44470367 0.65066075 0
vt 0.5349646 0.6506607 0
vt 0.5349646 0.65066063 0
vt 0.4999999 0.048876166 0
vt 0.5902609 0.06077403 0
vt 0.49999997 0.08148274 0
vt 0.49999994 0.048876166 0
vt 0.50000006 0.95112365 0
vt 0.5 0.9995003 0
vt 0.2754776 0.9995004 0
vt 0.59026104 0.93922573 0
vt 0.5 0.95112365 0
vt 0.4447037 0.6506607 0
vt 0.49999997 0.048876226 0
vt 0.4999999 0.048876226 0
vt 0.5 0.9511237 0
vt 0.59026104 0.9995003 0
vt 0.59026104 0.93922585 0
vt 0.50000006 0.9511237 0
vt 0.67517066 0.08148265 0
vt 0.6751707 0.08148259 0
vt 0.67517066 0.07196644 0
vt 0.67517066 0.08148262 0
vt 0.6751707 0.07196644 0
vt 0.6751708 0.92803323 0
vt 0.67517066 0.07196647 0
vt 0.6751708 0.9280333 0
vn 0.0 1.0 0.0
vn 0.17635404 0.9843268 0
vn 0.17635404 0.9843268 0
vn 0.9979859 0.06343612 0.0
vn 0.9979859 -0.06343612 0.0
vn 0.23472054 -0.9720629 -0
vn 0.17635404 -0.9843268 -0
vn 0.4059694 -0.9138867 -0
vn 0.40596947 -0.9138866 -0
vn -0.9974842 -0.07088881 0.0
vn -0.9974842 0.07088881 0.0
vn -0.3345787 0.9423678 0.0
vn -0.07088906 0.99748427 0.0
vn -0.07088906 -0.99748427 0.0
vn -0.3345787 -0.9423678 0.0
vn -0.70710653 0.70710707 0.0
vn -0.94236773 0.33457893 0.0
vn -0.70710653 -0.70710707 0.0
vn -0.94236773 -0.33457893 0.0
vn 0.40596947 0.9138867 0
vn 0.40596947 0.9138866 0
vn 0.0 -1.0 0.0
vn 0.5939384 0.8045106 0.0
vn 0.55145085 0.83420736 0
vn 0.96067214 -0.27768502 0.0
vn 0.8207261 0.57132185 0.0
vn 0.96067214 0.27768502 0.0
vn 0.8207261 -0.57132185 0.0
vn 0.55145085 -0.8342074 -0
vn 0.5939384 -0.8045106 0.0
vn 0.0 0.0 1.0
vn 0.0 0.0 -1.0
vn 0.06562782 0.99784416 0.0
vn 0 1.0 0
vn -0.38018745 0.92490953 0
vn -0.10928489 0.99401045 0
vn -0.21856976 0.9758213 0
vn -0.52285 0.85242474 0
vn -0.565239 0.82492715 0.0
vn -0.8003058 0.59959203 0.0
vn -0.95479655 0.2972599 0.0
vn -0.9976495 0.06852452 0.0
vn -0.9976495 -0.06852452 0.0
vn -0.9547966 -0.29725984 0.0
vn -0.8003057 -0.5995921 0.0
vn -0.56523895 -0.8249272 0.0
vn -0.5228499 -0.85242474 -0
vn -0.38018745 -0.9249094 -0
vn -0.3801876 -0.9249095 -0
vn -0.32390302 -0.9460903 -0
vn -0.3239031 -0.94609034 -0
vn -0.3146638 -0.94920325 0.0
vn -0.41701347 -0.90890026 -0
vn 0.31358048 -0.9495616 0.0
vn 0.06562809 -0.99784416 0.0
vn 0.6823093 -0.7310636 0.0
vn 0.9343378 -0.35638884 0.0
vn 0.9970651 -0.07655769 0.0
vn 0.9970651 0.076557666 0.0
vn 0.9343377 0.35638887 0.0
vn 0.6823093 0.73106354 0.0
vn 0.3135804 0.94956166 0.0
vn -0.3801876 0.9249095 0
vn 0.7030829 -0.71110785 0
vn 0.703083 -0.71110785 0.0
vn 0.70308286 -0.7111079 0
vn 0.0000001 1.0 0
vn 0 1.0 0
vn 0.0000001 1.0 0
vn 0.0000001 1.0 0
vn -0.20850672 -0.9780209 -0
vn -0.41701347 -0.90890026 -0
vn 0 -1.0 -0
vn 0 -1.0 -0
vn -0.41701347 -0.90890026 -0
vn -0.31466383 -0.94920313 -0
vn -0.3146638 -0.94920313 0
vn 0.0 1.0 0
vn -0.0000001 1.0 0
vn 0.7030827 -0.7111081 -0
vn 0.7030828 -0.711108 0
vn 0 -1.0 -0
vn 0 -1.0 -0
f 1/1/1 2/2/2 3/3/3
f 3/3/3 4/1/1 1/1/1
f 5/4/4 6/4/4 7/5/5
f 7/5/5 8/5/5 5/4/4
f 9/6/6 10/7/7 11/8/8
f 11/8/8 12/9/9 9/6/6
f 13/10/10 14/10/10 15/11/11
f 15/11/11 16/11/11 13/10/10
f 17/12/12 18/12/12 19/13/13
f 19/13/13 20/13/13 17/12/12
f 21/14/14 22/15/15 23/15/15
f 23/15/15 24/14/14 21/14/14
f 17/12/12 25/16/16 26/16/16
f 26/16/16 18/12/12 17/12/12
f 27/17/17 28/17/17 26/16/16
f 26/16/16 25/16/16 27/17/17
f 16/11/11 15/11/11 28/17/17
f 28/17/17 27/17/17 16/11/11
f 29/18/18 30/18/18 23/15/15
f 23/15/15 22/15/15 29/18/18
f 31/19/19 32/19/19 30/18/18
f 30/18/18 29/18/18 31/19/19
f 14/10/10 13/10/10 32/19/19
f 32/19/19 31/19/19 14/10/10
f 33/20/20 34/20/21 3/3/3
f 3/3/3 2/2/2 33/20/20
f 35/21/22 21/14/14 24/14/14
f 24/14/14 36/22/22 35/21/22
f 33/20/20 37/23/23 38/23/24
f 7/5/5 39/24/25 40/24/25
f 41/25/26 42/25/26 38/23/24
f 38/23/24 37/23/23 41/25/26
f 41/25/26 43/26/27 44/26/27
f 43/26/27 6/4/4 5/4/4
f 45/27/28 46/27/28 40/24/25
f 40/24/25 39/24/25 45/27/28
f 47/28/29 48/28/30 46/27/28
f 46/27/28 45/27/28 47/28/29
f 47/28/29 12/9/9 11/8/8
f 26/16/31 28/17/31 49/29/31
f 25/16/32 50/30/32 51/29/32
f 52/31/33 53/31/33 54/32/34
f 54/32/34 55/32/1 52/31/33
f 56/33/35 57/34/36 58/35/37
f 59/36/38 60/36/39 56/33/35
f 61/37/40 60/36/39 59/36/38
f 62/37/40 63/38/41 64/38/41
f 64/38/41 61/37/40 62/37/40
f 64/38/41 63/38/41 65/39/42
f 65/39/42 66/39/42 64/38/41
f 65/39/42 67/40/43 68/40/43
f 68/40/43 67/40/43 69/41/44
f 69/41/44 70/42/45 71/42/45
f 71/42/45 70/42/45 72/43/46
f 72/43/46 73/43/47 71/42/45
f 73/43/47 72/43/46 74/44/48
f 74/44/48 75/44/49 73/43/47
f 74/44/48 76/45/50 77/46/51
f 78/47/22 79/48/52 80/49/53
f 81/50/54 78/47/55 82/47/55
f 82/47/55 83/50/54 81/50/54
f 84/30/56 50/30/56 81/50/54
f 81/50/54 83/50/54 84/30/56
f 49/29/57 51/29/57 50/30/56
f 49/29/57 85/51/58 86/51/58
f 85/51/58 87/52/59 88/52/59
f 88/52/59 87/52/59 89/53/60
f 90/53/60 89/53/60 91/54/61
f 91/54/61 92/54/61 90/53/60
f 92/54/61 91/54/61 93/55/62
f 93/55/62 94/55/62 92/54/61
f 94/55/62 93/55/62 53/31/33
f 95/56/22 10/7/7 9/6/6
f 9/6/6 96/56/22 95/56/22
f 38/23/24 34/20/21 33/20/20
f 40/24/25 8/5/5 7/5/5
f 44/26/27 42/25/26 41/25/26
f 5/4/4 44/26/27 43/26/27
f 11/8/8 48/28/30 47/28/29
f 59/36/31 12/9/31 47/28/31
f 62/37/31 59/36/31 47/28/31
f 62/37/31 47/28/31 45/27/31
f 12/9/31 59/36/31 97/57/31
f 9/6/31 12/9/31 97/57/31
f 9/6/31 97/57/31 58/35/31
f 21/14/31 98/22/31 99/58/31
f 53/31/31 21/14/31 99/58/31
f 99/58/31 100/59/31 53/31/31
f 21/14/31 53/31/31 93/55/31
f 22/15/31 21/14/31 93/55/31
f 22/15/31 93/55/31 91/54/31
f 29/18/31 22/15/31 91/54/31
f 31/19/31 29/18/31 91/54/31
f 31/19/31 91/54/31 89/53/31
f 14/10/31 31/19/31 89/53/31
f 14/10/31 89/53/31 87/52/31
f 15/11/31 14/10/31 87/52/31
f 15/11/31 87/52/31 85/51/31
f 15/11/31 85/51/31 49/29/31
f 28/17/31 15/11/31 49/29/31
f 62/37/31 45/27/31 39/24/31
f 63/38/31 62/37/31 39/24/31
f 63/38/31 39/24/31 7/5/31
f 65/39/31 63/38/31 7/5/31
f 65/39/31 7/5/31 6/4/31
f 67/40/31 65/39/31 6/4/31
f 69/41/31 67/40/31 6/4/31
f 69/41/31 6/4/31 43/26/31
f 69/41/31 43/26/31 41/25/31
f 70/42/31 69/41/31 41/25/31
f 70/42/31 41/25/31 37/23/31
f 72/43/31 70/42/31 37/23/31
f 72/43/31 37/23/31 33/20/31
f 74/44/31 72/43/31 33/20/31
f 74/44/31 33/20/31 2/2/31
f 76/45/31 74/44/31 2/2/31
f 76/45/31 2/2/31 1/1/31
f 1/1/31 101/60/31 76/45/31
f 82/47/31 102/49/31 103/61/31
f 103/61/31 19/13/31 82/47/31
f 83/50/31 82/47/31 19/13/31
f 83/50/31 19/13/31 18/12/31
f 84/30/31 83/50/31 18/12/31
f 84/30/31 18/12/31 26/16/31
f 49/29/31 84/30/31 26/16/31
f 48/28/32 11/8/32 60/36/32
f 48/28/32 60/36/32 61/37/32
f 46/27/32 48/28/32 61/37/32
f 56/33/32 60/36/32 11/8/32
f 56/33/32 11/8/32 10/7/32
f 57/34/32 56/33/32 10/7/32
f 57/34/32 10/7/32 104/56/32
f 104/56/32 105/62/32 57/34/32
f 52/31/32 106/59/32 107/58/32
f 107/58/32 24/14/32 52/31/32
f 94/55/32 52/31/32 24/14/32
f 94/55/32 24/14/32 23/15/32
f 92/54/32 94/55/32 23/15/32
f 92/54/32 23/15/32 30/18/32
f 92/54/32 30/18/32 32/19/32
f 90/53/32 92/54/32 32/19/32
f 90/53/32 32/19/32 13/10/32
f 88/52/32 90/53/32 13/10/32
f 88/52/32 13/10/32 16/11/32
f 86/51/32 88/52/32 16/11/32
f 51/29/32 86/51/32 16/11/32
f 51/29/32 16/11/32 27/17/32
f 40/24/32 46/27/32 61/37/32
f 40/24/32 61/37/32 64/38/32
f 8/5/32 40/24/32 64/38/32
f 8/5/32 64/38/32 66/39/32
f 5/4/32 8/5/32 66/39/32
f 5/4/32 66/39/32 68/40/32
f 5/4/32 68/40/32 108/41/32
f 44/26/32 5/4/32 108/41/32
f 42/25/32 44/26/32 108/41/32
f 42/25/32 108/41/32 71/42/32
f 38/23/32 42/25/32 71/42/32
f 38/23/32 71/42/32 73/43/32
f 34/20/32 38/23/32 73/43/32
f 34/20/32 73/43/32 75/44/32
f 3/3/32 34/20/32 75/44/32
f 3/3/32 75/44/32 77/46/32
f 20/13/32 109/63/32 110/64/32
f 78/47/32 20/13/32 110/64/32
f 110/64/32 111/48/32 78/47/32
f 20/13/32 78/47/32 81/50/32
f 17/12/32 20/13/32 81/50/32
f 17/12/32 81/50/32 50/30/32
f 25/16/32 17/12/32 50/30/32
f 51/29/32 27/17/32 25/16/32
f 58/35/37 97/57/63 56/33/35
f 56/33/35 97/57/63 59/36/38
f 59/36/38 62/37/40 61/37/40
f 68/40/43 66/39/42 65/39/42
f 69/41/44 108/41/44 68/40/43
f 71/42/45 108/41/44 69/41/44
f 77/46/51 75/44/49 74/44/48
f 76/45/64 112/65/65 113/65/66
f 50/30/56 84/30/56 49/29/57
f 86/51/58 51/29/57 49/29/57
f 88/52/59 86/51/58 85/51/58
f 89/53/60 90/53/60 88/52/59
f 53/31/33 52/31/33 94/55/62
f 114/63/1 115/66/1 116/66/1
f 116/66/1 109/63/1 114/63/1
f 117/67/22 118/68/22 119/69/22
f 119/69/22 120/67/22 117/67/22
f 121/70/67 122/71/68 123/72/69
f 123/72/69 124/73/70 121/70/67
f 125/74/71 126/75/72 127/76/73
f 127/76/73 128/77/74 125/74/71
f 129/69/22 130/69/22 98/22/22
f 98/22/22 131/22/22 129/69/22
f 132/78/31 130/69/31 133/67/31
f 133/67/31 134/79/31 132/78/31
f 134/79/31 135/70/31 136/80/31
f 136/80/31 137/81/31 134/79/31
f 138/82/31 139/83/31 140/84/31
f 140/84/31 103/61/31 138/82/31
f 141/77/31 142/85/31 143/86/31
f 143/86/31 144/87/31 141/77/31
f 145/88/32 146/68/32 147/21/32
f 147/21/32 107/58/32 145/88/32
f 148/70/32 149/79/32 150/89/32
f 150/89/32 151/80/32 148/70/32
f 152/90/32 116/66/32 153/91/32
f 153/91/32 154/92/32 152/90/32
f 154/92/32 155/77/32 156/74/32
f 156/74/32 157/93/32 154/92/32
f 158/87/75 159/74/76 160/49/75
f 160/49/75 161/49/77 158/87/75
f 162/91/1 1/1/1 4/1/1
f 4/1/1 153/91/1 162/91/1
f 117/67/22 95/56/22 96/56/22
f 96/56/22 133/67/22 117/67/22
f 142/85/31 101/60/31 1/1/31
f 1/1/31 162/91/31 142/85/31
f 149/79/32 105/62/32 104/56/32
f 104/56/32 120/67/32 149/79/32
f 113/65/22 112/65/22 141/77/22
f 141/77/22 163/77/22 113/65/22
f 95/56/22 104/56/22 10/7/7
f 57/34/36 164/94/78 165/95/79
f 165/95/79 58/35/37 57/34/36
f 113/65/66 166/65/80 77/46/81
f 77/46/81 76/45/64 113/65/66
f 58/35/31 167/96/31 96/56/31
f 96/56/31 9/6/31 58/35/31
f 168/97/31 167/98/31 58/35/31
f 169/99/31 112/65/31 76/45/31
f 170/100/32 164/94/32 57/34/32
f 77/46/32 171/99/32 4/1/32
f 4/1/32 3/3/32 77/46/32
f 172/65/32 173/101/32 77/46/32
f 95/56/22 117/67/22 120/67/22
f 120/67/22 104/56/22 95/56/22
f 164/94/78 121/70/67 124/73/70
f 124/73/70 165/95/79 164/94/78
f 128/77/74 127/76/73 166/65/82
f 166/65/82 113/65/83 128/77/74
f 134/79/31 133/67/31 96/56/31
f 96/56/31 167/96/31 134/79/31
f 167/98/31 168/97/31 135/70/31
f 135/70/31 134/79/31 167/98/31
f 112/65/31 169/99/31 142/85/31
f 142/85/31 141/77/31 112/65/31
f 164/94/32 170/100/32 149/79/32
f 149/79/32 148/70/32 164/94/32
f 154/92/32 153/91/32 4/1/32
f 4/1/32 171/99/32 154/92/32
f 173/101/32 172/65/32 155/77/32
f 155/77/32 154/92/32 173/101/32
f 115/66/1 162/91/1 153/91/1
f 153/91/1 116/66/1 115/66/1
f 129/69/22 117/67/22 133/67/22
f 133/67/22 130/69/22 129/69/22
f 138/82/31 142/85/31 162/91/31
f 162/91/31 139/83/31 138/82/31
f 145/88/32 149/79/32 120/67/32
f 120/67/32 146/68/32 145/88/32
f 163/77/22 141/77/22 159/74/76
f 159/74/76 158/87/75 163/77/22
f 118/68/22 35/21/22 36/22/22
f 36/22/22 119/69/22 118/68/22
f 122/71/68 55/32/1 54/32/34
f 54/32/34 123/72/69 122/71/68
f 126/75/72 125/74/71 80/49/53
f 80/49/53 79/48/52 126/75/72
f 130/69/31 132/78/31 99/58/31
f 99/58/31 98/22/31 130/69/31
f 100/59/31 99/58/31 137/81/31
f 137/81/31 136/80/31 100/59/31
f 143/86/31 103/61/31 102/49/31
f 102/49/31 144/87/31 143/86/31
f 150/89/32 107/58/32 106/59/32
f 106/59/32 151/80/32 150/89/32
f 116/66/32 152/90/32 110/64/32
f 110/64/32 109/63/32 116/66/32
f 111/48/32 110/64/32 157/93/32
f 157/93/32 156/74/32 111/48/32
f 19/13/13 114/63/1 109/63/1
f 109/63/1 20/13/13 19/13/13
f 131/22/22 98/22/22 21/14/22
f 103/61/31 140/84/31 19/13/31
f 107/58/32 147/21/32 24/14/32
f 161/49/77 160/49/75 82/47/55
f 82/47/55 78/47/55 161/49/77
