# 3ds Max Wavefront OBJ Exporter v0.97b - (c)2007 guruware
# File Created: 30.01.2015 10:01:41

mtllib RightFootPathIcon_1meter.mtl

#
# object 002
#

v  -0.3790 -0.1612 -0.0000
v  -0.3790 0.1495 -0.0000
v  -0.3726 0.2373 -0.0000
v  -0.3534 0.3000 -0.0000
v  -0.3215 0.3376 -0.0000
v  -0.2769 0.3501 -0.0000
v  -0.1850 0.3501 -0.0000
v  -0.3726 -0.2490 -0.0000
v  -0.3534 -0.3117 -0.0000
v  -0.3215 -0.3493 -0.0000
v  -0.1850 -0.3619 -0.0000
v  -0.2769 -0.3619 -0.0000
v  0.2164 -0.3619 1.0019
v  0.2164 0.3501 1.0019
v  0.1229 0.1505 1.0019
v  0.1550 -0.3619 1.0019
v  0.2164 0.3501 -0.0000
v  0.1229 0.1505 -0.0000
v  0.3909 -0.1205 1.0019
v  0.3909 -0.1205 -0.0000
v  0.3909 0.1087 -0.0000
v  0.3909 0.1087 1.0019
v  0.3363 -0.2746 1.0019
v  0.2164 -0.3619 -0.0000
v  0.3363 -0.2746 -0.0000
v  -0.3790 0.1495 1.0019
v  -0.3790 -0.1612 1.0019
v  -0.2769 0.3501 1.0019
v  -0.3215 0.3376 1.0019
v  -0.2769 -0.3619 1.0019
v  -0.3215 -0.3493 1.0019
v  -0.3534 0.3000 1.0019
v  -0.3726 0.2373 1.0019
v  -0.3534 -0.3117 1.0019
v  -0.3726 -0.2490 1.0019
v  0.3602 -0.2501 -0.0000
v  0.3773 -0.2162 -0.0000
v  0.3875 -0.1730 -0.0000
v  0.3363 0.2629 -0.0000
v  0.3602 0.2383 -0.0000
v  0.3773 0.2045 -0.0000
v  0.3875 0.1613 -0.0000
v  0.3602 0.2383 1.0019
v  0.3363 0.2629 1.0019
v  0.3773 0.2045 1.0019
v  0.3875 0.1613 1.0019
v  0.3602 -0.2501 1.0019
v  0.3773 -0.2162 1.0019
v  0.3875 -0.1730 1.0019
v  -0.1850 -0.3619 1.0019
v  0.0828 -0.3619 -0.0000
v  0.0060 -0.3619 -0.0000
v  -0.0520 0.1505 -0.0000
v  0.0381 0.1505 -0.0000
v  0.0060 -0.3619 1.0019
v  -0.0520 0.1505 1.0019
v  -0.1850 0.3501 1.0019
v  0.0828 -0.3619 1.0019
v  0.0381 0.1505 1.0019
v  0.1550 -0.3619 -0.0000
# 60 vertices

vn -0.7146 -0.0259 -0.6990
vn -0.7146 0.0259 -0.6990
vn -0.7182 0.1340 -0.6828
vn -0.6560 0.3582 -0.6643
vn -0.4119 0.6418 -0.6468
vn -0.1003 0.7285 -0.6777
vn 0.3724 0.6953 -0.6147
vn -0.7182 -0.1340 -0.6828
vn -0.6560 -0.3582 -0.6643
vn -0.4119 -0.6418 -0.6468
vn -0.0000 -0.7071 -0.7071
vn -0.1003 -0.7285 -0.6777
vn 0.2367 -0.7278 0.6437
vn -0.2052 0.7971 0.5680
vn -0.2828 0.4447 0.8498
vn 0.0000 -0.7071 0.7071
vn -0.2052 0.7971 -0.5680
vn -0.2828 0.4447 -0.8498
vn 0.7139 -0.0232 0.6999
vn 0.7139 -0.0232 -0.6999
vn 0.7139 0.0232 -0.6999
vn 0.7139 0.0232 0.6999
vn 0.4748 -0.5482 0.6885
vn 0.2367 -0.7278 -0.6437
vn 0.4748 -0.5482 -0.6885
vn -0.7146 0.0259 0.6990
vn -0.7146 -0.0259 0.6990
vn -0.1003 0.7285 0.6777
vn -0.4119 0.6418 0.6468
vn -0.1003 -0.7285 0.6777
vn -0.4119 -0.6418 0.6468
vn -0.6560 0.3582 0.6643
vn -0.7182 0.1340 0.6828
vn -0.6560 -0.3582 0.6643
vn -0.7182 -0.1340 0.6828
vn 0.6012 -0.4286 -0.6744
vn 0.6873 -0.2506 -0.6818
vn 0.7170 -0.1075 -0.6887
vn 0.4748 0.5482 -0.6885
vn 0.6012 0.4286 -0.6744
vn 0.6873 0.2506 -0.6818
vn 0.7170 0.1075 -0.6887
vn 0.6012 0.4286 0.6744
vn 0.4748 0.5482 0.6885
vn 0.6873 0.2506 0.6818
vn 0.7170 0.1075 0.6887
vn 0.6012 -0.4286 0.6744
vn 0.6873 -0.2506 0.6818
vn 0.7170 -0.1075 0.6887
vn -0.0000 -0.7071 0.7071
vn 0.0000 -0.7071 -0.7071
vn 0.2632 0.4914 -0.8302
vn -0.0000 0.7071 -0.7071
vn 0.2632 0.4914 0.8302
vn 0.3724 0.6953 0.6147
vn 0.0000 0.7071 0.7071
# 56 vertex normals

vt 0.0005 0.2821 0.0000
vt 0.0005 0.7179 0.0000
vt 0.0088 0.8411 0.0000
vt 0.0336 0.9291 0.0000
vt 0.0750 0.9819 0.0000
vt 0.1330 0.9995 0.0000
vt 0.2522 0.9995 0.0000
vt 0.0088 0.1589 0.0000
vt 0.0336 0.0709 0.0000
vt 0.0750 0.0181 0.0000
vt 0.2522 0.0005 0.0000
vt 0.1330 0.0005 0.0000
vt 0.7730 0.0005 0.0000
vt 0.7730 0.9995 0.0000
vt 0.6323 0.6798 0.0000
vt 0.6933 0.0005 0.0000
vt 0.9995 0.3392 0.0000
vt 0.9995 0.6608 0.0000
vt 0.9287 0.1229 0.0000
vt 0.9596 0.1574 0.0000
vt 0.9818 0.2049 0.0000
vt 0.9951 0.2655 0.0000
vt 0.9287 0.8771 0.0000
vt 0.9596 0.8426 0.0000
vt 0.9818 0.7951 0.0000
vt 0.9951 0.7345 0.0000
vt 0.5996 0.0005 0.0000
vt 0.5000 0.0005 0.0000
vt 0.4390 0.6798 0.0000
vt 0.5386 0.6798 0.0000
# 30 texture coords

g 002
usemtl 1
s 1
f 1/1/1 2/2/2 3/3/3 
f 1/1/1 3/3/3 4/4/4 
f 1/1/1 4/4/4 5/5/5 
f 1/1/1 5/5/5 6/6/6 
f 1/1/1 6/6/6 7/7/7 
f 8/8/8 1/1/1 7/7/7 
f 9/9/9 8/8/8 7/7/7 
f 10/10/10 9/9/9 7/7/7 
f 7/7/7 11/11/11 12/12/12 
f 10/10/10 7/7/7 12/12/12 
f 13/13/13 14/14/14 15/15/15 
f 15/15/15 16/16/16 13/13/13 
f 14/14/14 17/14/17 18/15/18 
f 18/15/18 15/15/15 14/14/14 
f 19/17/19 20/17/20 21/18/21 
f 21/18/21 22/18/22 19/17/19 
f 23/19/23 13/13/13 24/13/24 
f 24/13/24 25/19/25 23/19/23 
f 26/2/26 2/2/2 1/1/1 
f 1/1/1 27/1/27 26/2/26 
f 28/6/28 6/6/6 5/5/5 
f 5/5/5 29/5/29 28/6/28 
f 12/12/12 30/12/30 31/10/31 
f 31/10/31 10/10/10 12/12/12 
f 29/5/29 5/5/5 4/4/4 
f 4/4/4 32/4/32 29/5/29 
f 32/4/32 4/4/4 3/3/3 
f 3/3/3 33/3/33 32/4/32 
f 33/3/33 3/3/3 2/2/2 
f 2/2/2 26/2/26 33/3/33 
f 10/10/10 31/10/31 34/9/34 
f 34/9/34 9/9/9 10/10/10 
f 9/9/9 34/9/34 35/8/35 
f 35/8/35 8/8/8 9/9/9 
f 8/8/8 35/8/35 27/1/27 
f 27/1/27 1/1/1 8/8/8 
f 36/20/36 25/19/25 24/13/24 
f 37/21/37 36/20/36 24/13/24 
f 38/22/38 37/21/37 24/13/24 
f 20/17/20 38/22/38 24/13/24 
f 20/17/20 24/13/24 17/14/17 
f 20/17/20 17/14/17 39/23/39 
f 20/17/20 39/23/39 40/24/40 
f 20/17/20 40/24/40 41/25/41 
f 20/17/20 41/25/41 42/26/42 
f 20/17/20 42/26/42 21/18/21 
f 43/24/43 44/23/44 14/14/14 
f 45/25/45 43/24/43 14/14/14 
f 46/26/46 45/25/45 14/14/14 
f 22/18/22 46/26/46 14/14/14 
f 22/18/22 14/14/14 13/13/13 
f 22/18/22 13/13/13 23/19/23 
f 22/18/22 23/19/23 47/20/47 
f 22/18/22 47/20/47 48/21/48 
f 22/18/22 48/21/48 49/22/49 
f 22/18/22 49/22/49 19/17/19 
f 14/14/14 44/23/44 39/23/39 
f 39/23/39 17/14/17 14/14/14 
f 30/12/30 12/12/12 11/11/11 
f 11/11/11 50/11/50 30/12/30 
f 39/23/39 44/23/44 43/24/43 
f 43/24/43 40/24/40 39/23/39 
f 20/17/20 19/17/19 49/22/49 
f 49/22/49 38/22/38 20/17/20 
f 40/24/40 43/24/43 45/25/45 
f 45/25/45 41/25/41 40/24/40 
f 41/25/41 45/25/45 46/26/46 
f 46/26/46 42/26/42 41/25/41 
f 42/26/42 46/26/46 22/18/22 
f 22/18/22 21/18/21 42/26/42 
f 38/22/38 49/22/49 48/21/48 
f 48/21/48 37/21/37 38/22/38 
f 37/21/37 48/21/48 47/20/47 
f 47/20/47 36/20/36 37/21/37 
f 36/20/36 47/20/47 23/19/23 
f 23/19/23 25/19/25 36/20/36 
f 51/27/51 52/28/11 53/29/52 
f 53/29/52 54/30/53 51/27/51 
f 50/11/50 55/28/50 56/29/54 
f 56/29/54 57/7/55 50/11/50 
f 57/7/55 56/29/54 53/29/52 
f 53/29/52 7/7/7 57/7/55 
f 58/27/50 55/28/50 52/28/11 
f 52/28/11 51/27/51 58/27/50 
f 58/27/50 16/16/16 15/15/15 
f 15/15/15 59/30/56 58/27/50 
f 59/30/56 15/15/15 18/15/18 
f 18/15/18 54/30/53 59/30/56 
f 24/13/24 60/16/51 18/15/18 
f 18/15/18 17/14/17 24/13/24 
f 13/13/13 16/16/16 60/16/51 
f 60/16/51 24/13/24 13/13/13 
f 60/16/51 51/27/51 54/30/53 
f 54/30/53 18/15/18 60/16/51 
f 16/16/16 58/27/50 51/27/51 
f 51/27/51 60/16/51 16/16/16 
f 55/28/50 58/27/50 59/30/56 
f 59/30/56 56/29/54 55/28/50 
f 56/29/54 59/30/56 54/30/53 
f 54/30/53 53/29/52 56/29/54 
f 52/28/11 11/11/11 7/7/7 
f 7/7/7 53/29/52 52/28/11 
f 55/28/50 50/11/50 11/11/11 
f 11/11/11 52/28/11 55/28/50 
f 50/11/50 57/7/55 28/6/28 
f 50/11/50 28/6/28 29/5/29 
f 50/11/50 29/5/29 32/4/32 
f 50/11/50 32/4/32 33/3/33 
f 50/11/50 33/3/33 26/2/26 
f 26/2/26 27/1/27 35/8/35 
f 26/2/26 35/8/35 34/9/34 
f 26/2/26 34/9/34 31/10/31 
f 26/2/26 31/10/31 30/12/30 
f 50/11/50 26/2/26 30/12/30 
f 28/6/28 57/7/55 7/7/7 
f 7/7/7 6/6/6 28/6/28 
# 0 polygons - 116 triangles

