# File units = meters
# mtllib Doorway.mtl
g Doorway
v 1.25 -0.75 -0.25 
v 1.25 0.75 -0.25 
v 1.25 0.75 2.75 
v 1.25 -0.75 2.75 
v -1.25 0.75 2.75 
v -1.25 -0.75 2.75 
v -1.25 0.75 -0.25 
v -1.25 -0.75 -0.25 
v 1 -0.75 2.5 
v -1 -0.75 2.5 
v -1 -0.75 0 
v 1 -0.75 3.46945e-17 
v 1 0.75 3.46945e-17 
v -1 0.75 0 
v -1 0.75 2.5 
v 1 0.75 2.5 
vn 1 0 -7.40149e-17 
vn 0 0 1 
vn -1 0 7.40149e-17 
vn 0 0 -1 
vn 0 -1 0 
vn 0 1 0 
vn 1 0 -1.33227e-16 
vn 0 0 -1 
vn -1 0 8.88178e-17 
vn 0 0 1 
# usemtl 0.615686_0.811765_0.929412_0.000000_0.000000
# mesh0
f 1//1 2//1 3//1 
f 3//1 4//1 1//1 
# mesh1
f 4//2 3//2 5//2 
f 5//2 6//2 4//2 
# mesh2
f 6//3 5//3 7//3 
f 7//3 8//3 6//3 
# mesh3
f 8//4 7//4 2//4 
f 2//4 1//4 8//4 
# mesh4
f 1//5 4//5 9//5 
f 4//5 6//5 10//5 
f 6//5 8//5 11//5 
f 8//5 1//5 12//5 
f 10//5 9//5 4//5 
f 12//5 11//5 8//5 
f 11//5 10//5 6//5 
f 9//5 12//5 1//5 
# mesh5
f 3//6 2//6 13//6 
f 2//6 7//6 14//6 
f 7//6 5//6 15//6 
f 5//6 3//6 16//6 
f 14//6 13//6 2//6 
f 16//6 15//6 5//6 
f 15//6 14//6 7//6 
f 13//6 16//6 3//6 
# mesh6
f 11//7 14//7 15//7 
f 15//7 10//7 11//7 
# mesh7
f 10//8 15//8 16//8 
f 16//8 9//8 10//8 
# mesh8
f 9//9 16//9 13//9 
f 13//9 12//9 9//9 
# mesh9
f 12//10 13//10 14//10 
f 14//10 11//10 12//10 
