# 3ds Max Wavefront OBJ Exporter v0.97b - (c)2007 guruware
# File Created: 30.04.2018 11:15:01

mtllib multisense_hokuyo.mtl

#
# object Cylinder
#

v  0.1102 0.0095 0.0000
v  0.1102 0.0067 -0.0067
v  0.0619 0.0067 -0.0067
v  0.1102 0.0000 -0.0095
v  0.0619 0.0000 -0.0095
v  0.1102 -0.0067 -0.0067
v  0.1102 -0.0095 0.0000
v  0.0619 -0.0095 0.0000
v  0.1102 -0.0067 0.0067
v  0.0619 -0.0067 0.0067
v  0.1102 0.0000 0.0095
v  0.1102 0.0067 0.0067
v  0.0619 0.0095 0.0000
v  0.0619 0.0067 0.0067
v  0.1102 0.0000 0.0237
v  0.1289 0.0000 0.0237
v  0.1289 0.0168 0.0168
v  0.1102 -0.0168 0.0168
v  0.1102 -0.0238 0.0010
v  0.1102 0.0168 0.0168
v  0.1289 -0.0274 0.0020
v  0.1289 -0.0168 0.0168
v  0.1289 0.0269 0.0010
v  0.1102 0.0339 -0.0424
v  0.1289 0.0339 0.0010
v  0.1912 0.0339 -0.0424
v  0.1912 -0.0339 0.0010
v  0.1912 -0.0339 -0.0424
v  0.1289 -0.0339 0.0010
v  0.1102 -0.0339 -0.0424
v  0.1102 0.0339 0.0010
v  0.1102 0.0269 0.0010
v  0.1102 -0.0339 0.0010
v  0.1602 0.0246 0.0281
v  0.1776 0.0174 0.0281
v  0.1793 0.0191 0.0010
v  0.1848 0.0000 0.0281
v  0.1872 0.0000 0.0010
v  0.1776 -0.0174 0.0281
v  0.1793 -0.0191 0.0010
v  0.1602 -0.0246 0.0281
v  0.1602 -0.0270 0.0010
v  0.1428 -0.0174 0.0281
v  0.1412 -0.0191 0.0010
v  0.1356 0.0000 0.0281
v  0.1428 0.0174 0.0281
v  0.1323 0.0000 0.0281
v  0.1602 0.0270 0.0010
v  0.1412 0.0191 0.0010
v  0.1374 0.0228 0.0281
v  0.1374 0.0228 0.0470
v  0.1602 0.0280 0.0470
v  0.1830 0.0228 0.0281
v  0.1882 0.0000 0.0281
v  0.1602 -0.0280 0.0281
v  0.1602 0.0280 0.0281
v  0.1374 -0.0228 0.0281
v  0.1830 -0.0228 0.0281
v  0.1882 0.0000 0.0470
v  0.1323 0.0000 0.0470
v  0.1374 -0.0228 0.0470
v  0.1830 -0.0228 0.0470
v  0.1602 -0.0280 0.0470
v  0.1830 0.0228 0.0470
v  0.1333 0.0000 0.0010
v  0.1912 0.0339 0.0010
v  0.0619 -0.0067 -0.0067
v  0.0619 0.0000 0.0095
# 68 vertices

vn 0.0000 1.0000 0.0000
vn 0.0000 0.7071 -0.7071
vn 0.0000 0.0000 -1.0000
vn 0.0000 -0.7071 -0.7071
vn 0.0000 -1.0000 0.0000
vn 0.0000 -0.7071 0.7071
vn 0.0000 0.0000 1.0000
vn 0.0000 0.7071 0.7071
vn -1.0000 -0.0000 0.0000
vn -1.0000 0.0000 0.0000
vn -0.0000 0.0000 1.0000
vn -0.0000 0.6427 0.7661
vn -0.0909 -0.8671 0.4898
vn -0.1841 -0.8001 0.5709
vn -0.0523 -0.6584 0.7509
vn -0.0000 0.8433 0.5374
vn -0.0000 -0.6992 0.7149
vn 1.0000 0.0000 0.0000
vn -0.0419 -0.0326 0.9986
vn 0.0144 -0.1410 0.9899
vn 0.0232 -0.0734 0.9970
vn -1.0000 0.0000 -0.0000
vn -1.0000 -0.0000 -0.0000
vn 0.0000 0.6273 -0.7788
vn 0.4435 0.4435 -0.7788
vn 0.7044 0.7044 0.0872
vn 0.6273 0.0000 -0.7788
vn 0.9962 -0.0000 0.0872
vn 0.4435 -0.4435 -0.7788
vn 0.7044 -0.7044 0.0872
vn 0.0000 -0.6273 -0.7788
vn 0.0000 -0.9962 0.0872
vn -0.4435 -0.4435 -0.7788
vn -0.7044 -0.7044 0.0872
vn -0.6273 0.0000 -0.7788
vn -0.4435 0.4435 -0.7788
vn -0.0000 0.9962 0.0872
vn -0.7044 0.7044 0.0872
vn -0.7071 0.7071 0.0000
vn -0.7071 -0.7071 0.0000
vn 0.7071 -0.7071 0.0000
vn 0.7071 0.7071 0.0000
vn 1.0000 -0.0000 0.0000
vn 0.0000 -0.0000 1.0000
vn 0.0039 0.0006 1.0000
vn 0.0908 0.0169 0.9957
vn 0.0458 0.0529 0.9976
vn 0.0050 -0.0003 1.0000
vn -0.0533 0.0000 0.9986
vn -0.9962 0.0000 0.0872
# 50 vertex normals

vt 1.0000 0.0000 0.0000
vt 1.0000 1.0000 0.0000
vt 0.0000 1.0000 0.0000
vt 0.0000 0.0000 0.0000
vt 0.5000 1.0000 0.0000
vt 1.0000 0.5000 0.0000
vt 0.5000 0.0000 0.0000
vt 0.9755 0.6545 0.0000
vt 0.2061 0.0955 0.0000
vt 0.0245 0.6545 0.0000
vt 0.1464 0.8536 0.0000
vt 0.8536 0.8536 0.0000
vt 0.8536 0.1464 0.0000
vt 0.0000 0.5000 0.0000
vt 0.1464 0.1464 0.0000
vt 0.7939 0.0955 0.0000
# 16 texture coords

o Cylinder
g Cylinder
usemtl Material
s off
f 1/1/1 2/2/2 3/3/2 
f 2/1/2 4/2/3 5/3/3 
f 5/4/3 4/1/3 6/2/4 
f 6/1/4 7/2/5 8/3/5 
f 7/1/5 9/2/6 10/3/6 
f 10/4/6 9/1/6 11/2/7 
f 12/1/8 1/2/1 13/3/1 
f 11/1/7 12/2/8 14/3/8 
f 13/5/9 5/6/9 8/7/10 
f 15/1/11 16/2/7 17/3/12 
f 9/1/10 18/2/10 15/3/9 
f 12/4/9 11/1/10 15/2/9 
f 9/4/10 7/1/10 19/2/10 
f 1/4/9 12/1/9 20/2/9 
f 19/1/13 21/2/14 22/3/15 
f 20/1/12 17/2/12 23/3/16 
f 15/4/11 18/1/17 22/2/15 
f 23/5/18 17/8/18 22/9/18 
f 24/10/1 25/8/1 26/9/1 
f 27/1/18 28/2/18 26/3/18 
f 28/10/5 29/8/5 30/9/5 
f 24/1/3 26/2/3 28/3/3 
f 25/1/7 31/2/7 32/3/7 
f 33/1/19 29/2/20 21/3/21 
f 6/4/22 19/1/10 7/2/10 
f 33/1/23 19/2/10 6/3/22 
f 4/4/23 24/1/23 30/2/22 
f 2/4/23 24/1/23 4/2/23 
f 1/4/9 32/1/10 2/2/10 
f 31/1/22 24/2/23 2/3/23 
f 4/4/23 30/1/22 6/2/22 
f 34/1/24 35/2/25 36/3/26 
f 35/1/25 37/2/27 38/3/28 
f 37/1/27 39/2/29 40/3/30 
f 39/1/29 41/2/31 42/3/32 
f 41/1/31 43/2/33 44/3/34 
f 44/4/34 43/1/33 45/2/35 
f 46/4/36 45/1/35 47/2/3 
f 46/1/36 34/2/24 48/3/37 
f 45/1/35 46/2/36 49/3/38 
f 50/1/39 51/2/39 52/3/1 
f 35/1/25 53/2/3 54/3/3 
f 43/4/33 41/1/31 55/2/3 
f 46/1/36 50/2/3 56/3/3 
f 35/4/25 34/1/24 56/2/3 
f 39/4/29 37/1/27 54/2/3 
f 43/1/33 57/2/3 47/3/3 
f 39/1/29 58/2/3 55/3/3 
f 59/11/7 52/12/7 60/13/7 
f 57/1/40 61/2/40 60/3/9 
f 58/1/41 62/2/41 63/3/5 
f 53/1/42 64/2/42 59/3/43 
f 47/1/10 60/2/9 51/3/39 
f 55/1/5 63/2/5 61/3/40 
f 54/1/18 59/2/43 62/3/41 
f 56/1/1 52/2/1 64/3/42 
f 49/4/44 48/1/7 23/2/45 
f 23/4/45 21/1/21 65/2/46 
f 65/4/46 21/1/21 44/2/47 
f 29/4/20 42/1/48 21/2/21 
f 29/4/20 27/1/7 42/2/48 
f 42/4/48 44/1/47 21/2/21 
f 38/4/7 27/1/7 66/2/7 
f 66/4/7 25/1/7 48/2/7 
f 49/4/44 23/1/45 65/2/46 
f 48/4/7 25/1/7 23/2/45 
f 38/4/7 40/1/7 27/2/7 
f 36/4/7 38/1/7 66/2/7 
f 36/4/7 66/1/7 48/2/7 
f 27/4/7 40/1/7 42/2/48 
f 13/4/1 1/1/1 3/3/2 
f 3/4/2 2/1/2 5/3/3 
f 67/3/4 5/4/3 6/2/4 
f 67/4/4 6/1/4 8/3/5 
f 8/4/5 7/1/5 10/3/6 
f 68/3/7 10/4/6 11/2/7 
f 14/4/8 12/1/8 13/3/1 
f 68/4/7 11/1/7 14/3/8 
f 68/14/23 14/11/9 13/5/9 
f 8/7/10 10/15/10 68/14/23 
f 5/6/9 67/13/10 8/7/10 
f 13/5/9 3/12/9 5/6/9 
f 8/7/10 68/14/23 13/5/9 
f 20/4/12 15/1/11 17/3/12 
f 11/4/10 9/1/10 15/3/9 
f 20/3/9 12/4/9 15/2/9 
f 18/3/10 9/4/10 19/2/10 
f 32/3/10 1/4/9 20/2/9 
f 18/4/17 19/1/13 22/3/15 
f 32/4/16 20/1/12 23/3/16 
f 16/3/7 15/4/11 22/2/15 
f 22/9/18 21/10/18 23/5/18 
f 17/8/18 16/16/18 22/9/18 
f 25/8/1 24/10/1 31/5/1 
f 25/8/1 66/16/1 26/9/1 
f 66/4/18 27/1/18 26/3/18 
f 29/8/5 28/10/5 27/5/5 
f 29/8/5 33/16/5 30/9/5 
f 30/4/3 24/1/3 28/3/3 
f 23/4/45 25/1/7 32/3/7 
f 19/4/49 33/1/19 21/3/21 
f 30/4/22 33/1/23 6/3/22 
f 32/4/10 31/1/22 2/3/23 
f 48/4/37 34/1/24 36/3/26 
f 36/4/26 35/1/25 38/3/28 
f 38/4/28 37/1/27 40/3/30 
f 40/4/30 39/1/29 42/3/32 
f 42/4/32 41/1/31 44/3/34 
f 65/3/50 44/4/34 45/2/35 
f 50/3/3 46/4/36 47/2/3 
f 49/4/38 46/1/36 48/3/37 
f 65/4/50 45/1/35 49/3/38 
f 56/4/1 50/1/39 52/3/1 
f 37/4/27 35/1/25 54/3/3 
f 57/3/3 43/4/33 55/2/3 
f 34/4/24 46/1/36 56/3/3 
f 53/3/3 35/4/25 56/2/3 
f 58/3/3 39/4/29 54/2/3 
f 45/4/35 43/1/33 47/3/3 
f 41/4/31 39/1/29 55/3/3 
f 52/12/7 59/11/7 64/5/7 
f 59/11/7 63/15/7 62/14/7 
f 63/15/7 60/13/7 61/7/7 
f 60/13/7 52/12/7 51/6/7 
f 60/13/7 63/15/7 59/11/7 
f 47/4/10 57/1/40 60/3/9 
f 55/4/5 58/1/41 63/3/5 
f 54/4/18 53/1/42 59/3/43 
f 50/4/39 47/1/10 51/3/39 
f 57/4/40 55/1/5 61/3/40 
f 58/4/41 54/1/18 62/3/41 
f 53/4/42 56/1/1 64/3/42 
# 0 polygons - 132 triangles

