# 3ds Max Wavefront OBJ Exporter v0.97b - (c)2007 guruware
# File Created: 30.04.2018 11:15:46

mtllib neckj2.mtl

#
# object Cylinder
#

v  0.0303 0.0297 0.1328
v  0.0426 -0.0001 0.1328
v  0.0426 -0.0001 0.0900
v  0.0303 -0.0298 0.1328
v  0.0303 -0.0298 0.0900
v  -0.0291 0.0297 0.0900
v  -0.0291 0.0297 0.1265
v  -0.0146 0.0356 0.1265
v  -0.0162 -0.0169 0.1328
v  -0.0276 -0.0324 0.1465
v  -0.0142 -0.0359 0.1328
v  0.0006 -0.0421 0.1328
v  -0.0144 -0.0358 0.1265
v  0.0006 0.0237 0.1675
v  -0.0078 0.0202 0.1328
v  -0.0162 0.0168 0.1675
v  0.0006 0.0420 0.0900
v  0.0006 -0.0421 0.0900
v  0.0006 0.0237 0.1328
v  0.0174 0.0168 0.1328
v  0.0244 -0.0001 0.1328
v  0.0174 -0.0169 0.1328
v  0.0006 -0.0239 0.1328
v  -0.0474 0.0292 0.1265
v  -0.0474 -0.0292 0.1265
v  -0.0682 -0.0125 0.1463
v  0.0006 0.0420 0.1328
v  -0.0142 0.0358 0.1328
v  -0.0094 0.0100 0.1675
v  -0.0069 0.0075 0.1815
v  0.0006 0.0106 0.1815
v  -0.0232 -0.0001 0.1328
v  -0.0232 -0.0001 0.1675
v  -0.0162 -0.0169 0.1675
v  -0.0078 -0.0204 0.1328
v  0.0006 -0.0239 0.1675
v  0.0174 -0.0169 0.1675
v  0.0244 -0.0001 0.1675
v  0.0174 0.0168 0.1675
v  0.0006 0.0141 0.1675
v  0.0106 0.0100 0.1675
v  0.0148 -0.0001 0.1675
v  0.0106 -0.0101 0.1675
v  0.0006 -0.0143 0.1675
v  -0.0094 -0.0101 0.1675
v  -0.0136 -0.0001 0.1675
v  0.0082 0.0075 0.1815
v  -0.0069 -0.0076 0.1815
v  -0.0101 -0.0001 0.1815
v  0.0006 -0.0107 0.1815
v  0.0082 -0.0076 0.1815
v  0.0113 -0.0001 0.1815
v  -0.0291 -0.0298 0.0900
v  -0.0291 -0.0298 0.1265
v  -0.0414 -0.0001 0.1265
v  -0.0414 -0.0001 0.0900
v  -0.0162 0.0168 0.1328
v  0.0303 0.0297 0.0900
v  -0.0279 -0.0125 0.1465
v  -0.0282 0.0331 0.1465
v  -0.0682 0.0262 0.1463
v  -0.0891 -0.0125 0.1680
v  -0.0308 -0.0125 0.1680
v  -0.0600 -0.0190 0.2384
v  -0.0308 -0.0190 0.2263
v  -0.0308 -0.0125 0.2263
v  -0.0188 -0.0190 0.1972
v  -0.0188 -0.0125 0.1972
v  -0.0308 -0.0190 0.1680
v  -0.0891 -0.0190 0.1680
v  -0.1012 -0.0190 0.1972
v  -0.1012 -0.0125 0.1972
v  -0.0682 -0.0262 0.1463
v  -0.0891 -0.0190 0.2263
v  -0.0600 -0.0125 0.2384
v  -0.0891 -0.0125 0.2263
# 76 vertices

vn 0.7071 0.7071 0.0000
vn 1.0000 -0.0000 0.0000
vn 1.0000 0.0000 0.0000
vn 0.7071 -0.7071 -0.0000
vn -0.7071 0.7071 0.0000
vn -0.3354 0.9421 -0.0025
vn 0.6002 0.1148 0.7916
vn 0.8678 0.0345 0.4957
vn 0.3039 0.0314 0.9522
vn -0.0000 -1.0000 -0.0000
vn -0.3827 -0.9239 -0.0000
vn 0.0000 1.0000 0.0000
vn -0.3827 0.9239 0.0000
vn 0.0000 0.0000 -1.0000
vn 0.0000 0.0000 1.0000
vn -0.6900 0.0000 -0.7238
vn -0.7007 0.0000 -0.7135
vn -0.1654 -0.9862 0.0060
vn -0.2232 -0.9745 0.0222
vn -0.1717 -0.9635 0.2054
vn 0.3013 -0.0311 0.9530
vn -0.6859 0.6859 0.2432
vn 0.0000 0.9700 0.2432
vn -1.0000 0.0000 0.0000
vn -0.7071 -0.7071 0.0000
vn -0.3827 -0.9239 0.0000
vn -0.0000 -1.0000 0.0000
vn 0.7071 -0.7071 0.0000
vn -0.0000 0.0000 1.0000
vn -0.9700 0.0000 0.2432
vn -0.6859 -0.6859 0.2432
vn 0.0000 -0.9700 0.2432
vn 0.6859 -0.6859 0.2432
vn 0.9700 0.0000 0.2432
vn 0.6859 0.6859 0.2432
vn -0.2779 0.9606 -0.0072
vn -0.0000 1.0000 0.0000
vn -0.7071 -0.7071 -0.0000
vn 0.4715 -0.1429 0.8702
vn -0.0000 0.0000 -1.0000
vn -0.0042 -0.0000 1.0000
vn -0.1861 0.9824 -0.0162
vn -0.1774 0.9839 -0.0239
vn 0.8612 0.0548 0.5053
vn 0.7448 -0.1010 0.6596
vn 0.9043 0.0785 0.4196
vn 0.7071 0.0000 0.7071
vn 1.0000 0.0000 -0.0000
vn 0.9961 0.0035 -0.0883
vn 0.9916 0.0000 -0.1291
vn -0.8300 0.0000 -0.5578
vn -0.8372 0.0000 -0.5469
vn -1.0000 0.0000 -0.0000
vn -0.0426 -0.9758 0.2145
vn 0.0000 -0.9955 0.0950
vn -0.0629 -0.9582 0.2793
vn -0.7071 0.0000 0.7071
vn 0.0000 -1.0000 0.0000
vn -0.7042 0.0000 -0.7100
vn -0.2611 -0.9653 -0.0044
vn -0.0042 0.0000 1.0000
vn -0.1692 0.9851 -0.0320
# 62 vertex normals

vt 0.5694 0.3289 0.0000
vt 0.5218 0.3289 0.0000
vt 0.5218 0.2584 0.0000
vt 0.4688 0.3289 0.0000
vt 0.4688 0.2584 0.0000
vt 0.4481 0.2584 0.0000
vt 0.4481 0.3184 0.0000
vt 0.4187 0.3184 0.0000
vt 0.4805 0.3289 0.0000
vt 0.4517 0.3513 0.0000
vt 0.4486 0.3289 0.0000
vt 0.6356 0.3289 0.0000
vt 0.6020 0.3289 0.0000
vt 0.6015 0.3184 0.0000
vt 0.3826 0.3859 0.0000
vt 0.3997 0.3289 0.0000
vt 0.4169 0.3859 0.0000
vt 0.3877 0.5838 0.0000
vt 0.2857 0.5218 0.0000
vt 0.3644 0.4415 0.0000
vt 0.6174 0.5529 0.0000
vt 0.6554 0.5448 0.0000
vt 0.6796 0.5694 0.0000
vt 0.6751 0.5178 0.0000
vt 0.7143 0.5218 0.0000
vt 0.6648 0.4878 0.0000
vt 0.6961 0.4688 0.0000
vt 0.6306 0.4723 0.0000
vt 0.6356 0.4415 0.0000
vt 0.4484 0.3184 0.0000
vt 0.5472 0.3184 0.0000
vt 0.5235 0.3511 0.0000
vt 0.5288 0.3184 0.0000
vt 0.5722 0.3513 0.0000
vt 0.6123 0.5838 0.0000
vt 0.5821 0.5701 0.0000
vt 0.4004 0.3859 0.0000
vt 0.3944 0.4090 0.0000
vt 0.3790 0.4090 0.0000
vt 0.4926 0.3289 0.0000
vt 0.4926 0.3859 0.0000
vt 0.4626 0.3859 0.0000
vt 0.5195 0.3289 0.0000
vt 0.5195 0.3859 0.0000
vt 0.5925 0.3859 0.0000
vt 0.6115 0.3289 0.0000
vt 0.6306 0.3859 0.0000
vt 0.6648 0.3289 0.0000
vt 0.6648 0.3859 0.0000
vt 0.5178 0.3289 0.0000
vt 0.5178 0.3859 0.0000
vt 0.4878 0.3859 0.0000
vt 0.5448 0.3289 0.0000
vt 0.5448 0.3859 0.0000
vt 0.3826 0.3289 0.0000
vt 0.3446 0.3859 0.0000
vt 0.6200 0.5367 0.0000
vt 0.6427 0.5318 0.0000
vt 0.6545 0.5157 0.0000
vt 0.6483 0.4978 0.0000
vt 0.6279 0.4886 0.0000
vt 0.6052 0.4934 0.0000
vt 0.5925 0.4805 0.0000
vt 0.5935 0.5095 0.0000
vt 0.5728 0.5074 0.0000
vt 0.5996 0.5274 0.0000
vt 0.5831 0.5374 0.0000
vt 0.6381 0.5271 0.0000
vt 0.6056 0.5238 0.0000
vt 0.6098 0.4982 0.0000
vt 0.4726 0.3859 0.0000
vt 0.4905 0.3859 0.0000
vt 0.4897 0.4090 0.0000
vt 0.5066 0.3859 0.0000
vt 0.5018 0.4090 0.0000
vt 0.6279 0.3859 0.0000
vt 0.6269 0.4090 0.0000
vt 0.6098 0.4090 0.0000
vt 0.6483 0.3859 0.0000
vt 0.6423 0.4090 0.0000
vt 0.5157 0.3859 0.0000
vt 0.5150 0.4090 0.0000
vt 0.5015 0.4090 0.0000
vt 0.5318 0.3859 0.0000
vt 0.5271 0.4090 0.0000
vt 0.3800 0.3859 0.0000
vt 0.3619 0.4090 0.0000
vt 0.6115 0.4764 0.0000
vt 0.6020 0.4486 0.0000
vt 0.6961 0.3289 0.0000
vt 0.6356 0.2584 0.0000
vt 0.4179 0.3289 0.0000
vt 0.3877 0.3289 0.0000
vt 0.5442 0.2584 0.0000
vt 0.5442 0.3184 0.0000
vt 0.4966 0.3184 0.0000
vt 0.4966 0.2584 0.0000
vt 0.4436 0.3184 0.0000
vt 0.6003 0.5452 0.0000
vt 0.3204 0.3289 0.0000
vt 0.3204 0.2584 0.0000
vt 0.4663 0.5034 0.0000
vt 0.4712 0.4528 0.0000
vt 0.4874 0.5516 0.0000
vt 0.5661 0.4853 0.0000
vt 0.5527 0.5625 0.0000
vt 0.4687 0.5421 0.0000
vt 0.4473 0.3513 0.0000
vt 0.4874 0.3184 0.0000
vt 0.5684 0.3184 0.0000
vt 0.5684 0.2584 0.0000
vt 0.5074 0.3289 0.0000
vt 0.4853 0.3513 0.0000
vt 0.5205 0.3511 0.0000
vt 0.5654 0.3869 0.0000
vt 0.4402 0.3869 0.0000
vt 0.4990 0.4673 0.0000
vt 0.5616 0.4737 0.0000
vt 0.5598 0.4847 0.0000
vt 0.4737 0.4829 0.0000
vt 0.4763 0.4349 0.0000
vt 0.4873 0.4349 0.0000
vt 0.4737 0.3869 0.0000
vt 0.4847 0.3869 0.0000
vt 0.5391 0.3869 0.0000
vt 0.5281 0.3869 0.0000
vt 0.5417 0.4349 0.0000
vt 0.5307 0.4349 0.0000
vt 0.5616 0.3869 0.0000
vt 0.4364 0.3869 0.0000
vt 0.4833 0.3511 0.0000
vt 0.4364 0.4609 0.0000
vt 0.4972 0.4783 0.0000
vt 0.5391 0.4829 0.0000
vt 0.5281 0.4829 0.0000
vt 0.4402 0.4829 0.0000
vt 0.5913 0.4349 0.0000
vt 0.4990 0.5028 0.0000
vt 0.4105 0.4349 0.0000
vt 0.5694 0.2584 0.0000
vt 0.3877 0.2584 0.0000
vt 0.4169 0.3289 0.0000
vt 0.4481 0.5564 0.0000
vt 0.4316 0.4558 0.0000
vt 0.3039 0.4688 0.0000
vt 0.3204 0.5694 0.0000
vt 0.4579 0.3511 0.0000
vt 0.5468 0.3511 0.0000
vt 0.4626 0.3289 0.0000
vt 0.5925 0.3289 0.0000
vt 0.6306 0.3289 0.0000
vt 0.4878 0.3289 0.0000
vt 0.3446 0.3289 0.0000
vt 0.6469 0.5150 0.0000
vt 0.6269 0.4945 0.0000
vt 0.6423 0.5015 0.0000
vt 0.6010 0.5103 0.0000
vt 0.6210 0.5307 0.0000
vt 0.4762 0.4090 0.0000
vt 0.6052 0.3859 0.0000
vt 0.4978 0.3859 0.0000
vt 0.3573 0.3859 0.0000
vt 0.6961 0.2584 0.0000
vt 0.4436 0.2584 0.0000
vt 0.5625 0.3513 0.0000
vt 0.5374 0.3289 0.0000
vt 0.5701 0.3289 0.0000
vt 0.3985 0.4487 0.0000
vt 0.4187 0.5698 0.0000
vt 0.4795 0.4765 0.0000
vt 0.5313 0.3511 0.0000
vt 0.4339 0.3513 0.0000
vt 0.4847 0.4829 0.0000
vt 0.4346 0.4719 0.0000
vt 0.5654 0.4829 0.0000
vt 0.5028 0.5028 0.0000
vt 0.4142 0.4349 0.0000
vt 0.5876 0.4349 0.0000
vt 0.5616 0.4829 0.0000
vt 0.4364 0.4829 0.0000
# 180 texture coords

o Cylinder
g Cylinder
usemtl Material
s off
f 1/1/1 2/2/2 3/3/3 
f 2/2/2 4/4/4 5/5/4 
f 6/6/5 7/7/5 8/8/6 
f 9/9/7 10/10/8 11/11/9 
f 12/12/10 11/13/11 13/14/11 
f 14/15/12 15/16/13 16/17/5 
f 17/18/14 3/19/14 18/20/14 
f 19/21/15 20/22/15 1/23/15 
f 20/22/15 21/24/15 2/25/15 
f 22/26/15 4/27/15 2/25/15 
f 23/28/15 12/29/15 4/27/15 
f 24/30/16 25/31/16 26/32/17 
f 25/33/18 13/14/19 10/34/20 
f 19/21/15 27/35/15 28/36/21 
f 29/37/22 30/38/22 31/39/23 
f 32/40/24 33/41/24 16/42/5 
f 9/43/25 34/44/25 33/41/24 
f 34/45/25 35/46/26 36/47/27 
f 22/48/28 37/49/28 36/47/27 
f 21/50/3 38/51/3 37/52/28 
f 20/53/1 39/54/1 38/51/3 
f 19/55/12 14/15/12 39/56/1 
f 40/57/15 41/58/15 39/22/29 
f 42/59/15 38/24/15 39/22/29 
f 43/60/15 37/26/15 38/24/15 
f 44/61/15 36/28/15 37/26/15 
f 44/61/15 45/62/29 34/63/29 
f 46/64/29 33/65/29 34/63/29 
f 29/66/29 16/67/29 33/65/29 
f 40/57/15 14/21/15 16/67/29 
f 47/68/29 30/69/29 48/70/29 
f 29/71/22 46/72/30 49/73/30 
f 45/74/31 48/75/31 49/73/30 
f 44/76/32 50/77/32 48/78/31 
f 43/79/33 51/80/33 50/77/32 
f 42/81/34 52/82/34 51/83/33 
f 41/84/35 47/85/35 52/82/34 
f 40/86/23 31/39/23 47/87/35 
f 23/28/15 35/88/29 11/89/9 
f 4/90/4 12/12/10 18/91/10 
f 8/8/6 28/92/36 27/93/37 
f 53/94/38 54/95/38 55/96/24 
f 56/97/24 55/96/24 7/98/5 
f 57/67/39 15/99/15 28/36/21 
f 27/93/37 1/100/1 58/101/1 
f 55/102/40 25/103/40 24/104/40 
f 59/105/41 60/106/41 61/107/41 
f 60/108/42 8/8/6 24/109/43 
f 13/14/11 54/110/38 53/111/38 
f 32/65/44 57/67/39 60/106/45 
f 9/9/7 32/112/44 59/113/46 
f 26/114/12 62/115/12 63/116/12 
f 64/117/15 65/118/47 66/119/47 
f 65/120/47 67/121/48 68/122/48 
f 67/121/48 69/123/49 63/124/50 
f 70/125/51 62/126/52 26/32/17 
f 70/125/51 71/127/53 72/128/24 
f 69/129/54 70/130/55 73/131/56 
f 74/132/57 64/117/15 75/133/15 
f 71/127/53 74/134/57 76/135/57 
f 59/113/46 63/124/50 69/123/49 
f 66/136/12 63/116/12 72/137/12 
f 64/138/58 71/139/58 69/129/54 
f 58/140/1 1/1/1 3/3/3 
f 3/3/3 2/2/2 5/5/4 
f 17/141/37 6/6/5 8/8/6 
f 35/88/29 9/63/7 11/89/9 
f 18/91/10 12/12/10 13/14/11 
f 15/16/13 14/15/12 19/55/12 
f 15/16/13 57/142/5 16/17/5 
f 56/102/40 6/143/14 17/18/14 
f 17/18/14 53/144/40 56/102/40 
f 3/19/14 5/145/40 18/20/14 
f 17/18/14 58/146/14 3/19/14 
f 18/20/14 53/144/40 17/18/14 
f 27/35/15 19/21/15 1/23/15 
f 1/23/15 20/22/15 2/25/15 
f 21/24/15 22/26/15 2/25/15 
f 22/26/15 23/28/15 4/27/15 
f 26/32/17 61/147/16 24/30/16 
f 25/31/16 73/148/59 26/32/17 
f 11/13/60 10/34/20 13/14/19 
f 25/33/18 10/34/20 73/131/56 
f 15/99/15 19/21/15 28/36/21 
f 40/86/23 29/37/22 31/39/23 
f 57/149/5 32/40/24 16/42/5 
f 32/40/24 9/43/25 33/41/24 
f 35/46/26 34/45/25 9/150/25 
f 35/46/26 23/151/27 36/47/27 
f 23/151/27 22/48/28 36/47/27 
f 22/152/28 21/50/3 37/52/28 
f 21/50/3 20/53/1 38/51/3 
f 20/153/1 19/55/12 39/56/1 
f 14/21/15 40/57/15 39/22/29 
f 41/58/15 42/59/15 39/22/29 
f 42/59/15 43/60/15 38/24/15 
f 43/60/15 44/61/15 37/26/15 
f 36/28/15 44/61/15 34/63/29 
f 45/62/29 46/64/29 34/63/29 
f 46/64/29 29/66/29 33/65/29 
f 29/66/29 40/57/15 16/67/29 
f 48/70/29 52/154/15 47/68/29 
f 48/70/29 50/155/29 51/156/29 
f 30/69/29 49/157/15 48/70/29 
f 47/68/29 31/158/29 30/69/29 
f 48/70/29 51/156/29 52/154/15 
f 30/159/22 29/71/22 49/73/30 
f 46/72/30 45/74/31 49/73/30 
f 45/160/31 44/76/32 48/78/31 
f 44/76/32 43/79/33 50/77/32 
f 43/161/33 42/81/34 51/83/33 
f 42/81/34 41/84/35 52/82/34 
f 41/162/35 40/86/23 47/87/35 
f 12/29/15 23/28/15 11/89/9 
f 5/163/4 4/90/4 18/91/10 
f 17/141/37 8/8/6 27/93/37 
f 56/97/24 53/94/38 55/96/24 
f 6/164/5 56/97/24 7/98/5 
f 60/165/45 57/166/39 28/167/21 
f 17/141/37 27/93/37 58/101/1 
f 54/144/40 13/168/14 25/103/40 
f 24/104/40 8/169/14 7/143/14 
f 55/102/40 54/144/40 25/103/40 
f 24/104/40 7/143/14 55/102/40 
f 26/170/61 59/105/41 61/107/41 
f 8/8/6 60/108/42 28/92/36 
f 60/108/42 24/109/43 61/171/62 
f 18/91/10 13/14/11 53/111/38 
f 59/113/46 32/112/44 60/165/45 
f 10/10/8 9/9/7 59/113/46 
f 59/172/12 26/114/12 63/116/12 
f 75/133/15 64/117/15 66/119/47 
f 66/173/47 65/120/47 68/122/48 
f 68/122/48 67/121/48 63/124/50 
f 73/148/59 70/125/51 26/32/17 
f 62/126/52 70/125/51 72/128/24 
f 10/34/20 69/129/54 73/131/56 
f 76/174/57 74/132/57 75/133/15 
f 72/128/24 71/127/53 76/135/57 
f 10/10/8 59/113/46 69/123/49 
f 66/136/12 76/175/12 75/176/12 
f 63/116/12 62/115/12 72/137/12 
f 66/136/12 68/177/12 63/116/12 
f 72/137/12 76/175/12 66/136/12 
f 69/129/54 67/178/58 65/179/58 
f 71/139/58 70/130/55 69/129/54 
f 64/138/58 74/180/58 71/139/58 
f 69/129/54 65/179/58 64/138/58 
# 0 polygons - 148 triangles

