# File units = meters
mtllib simpleShapeForTesting.mtl
g simpleShapeForTesting
v 0.125 -0.125 -0.125 
v 0.125 0.125 -0.125 
v 0.125 0.125 5.55112e-17 
v 0.125 -0.125 5.55112e-17 
v -4.16334e-17 0.125 0.125 
v -4.16334e-17 -0.125 0.125 
v -0.125 -0.125 -0.125 
v -0.125 -0.125 0.125 
v -0.125 0.125 -0.125 
v -0.125 0.125 0.125 
vn 1 0 2.22045e-16 
vn 0.707107 0 0.707107 
vn 0 -1 0 
vn 0 1 0 
vn -2.22045e-16 0 1 
vn -1 0 -2.77556e-16 
vn 0 0 -1 
usemtl 0.615686_0.811765_0.929412_0.000000_0.000000
o mesh0
f 1//1 2//1 3//1 
f 3//1 4//1 1//1 
o mesh1
f 4//2 3//2 5//2 
f 5//2 6//2 4//2 
o mesh2
f 7//3 1//3 4//3 
f 4//3 6//3 7//3 
f 6//3 8//3 7//3 
o mesh3
f 9//4 5//4 3//4 
f 9//4 10//4 5//4 
f 3//4 2//4 9//4 
o mesh4
f 6//5 5//5 10//5 
f 10//5 8//5 6//5 
o mesh5
f 8//6 10//6 9//6 
f 9//6 7//6 8//6 
o mesh6
f 7//7 9//7 2//7 
f 2//7 1//7 7//7 
