# This file uses centimeters as units for non-parametric coordinates.

mtllib R_ButtonA.mtl
g default
v -0.009850 0.000629 0.057818
v -0.010157 0.000204 0.056990
v -0.010640 -0.000186 0.056231
v -0.011280 -0.000524 0.055571
v -0.012052 -0.000799 0.055033
v -0.012928 -0.000999 0.054640
v -0.013872 -0.001118 0.054406
v -0.014850 -0.001149 0.054341
v -0.015822 -0.001093 0.054446
v -0.016753 -0.000951 0.054718
v -0.017606 -0.000729 0.055147
v -0.018349 -0.000435 0.055716
v -0.018952 -0.000081 0.056401
v -0.019393 0.000321 0.057180
v -0.019655 0.000753 0.058020
v -0.019728 0.001200 0.058889
v -0.019608 0.001645 0.059754
v -0.019301 0.002070 0.060581
v -0.018819 0.002460 0.061341
v -0.018179 0.002798 0.062002
v -0.017406 0.003073 0.062538
v -0.016531 0.003273 0.062931
v -0.015586 0.003391 0.063166
v -0.014609 0.003423 0.063231
v -0.013636 0.003367 0.063126
v -0.012705 0.003225 0.062853
v -0.011852 0.003003 0.062424
v -0.011110 0.002709 0.061856
v -0.010506 0.002354 0.061171
v -0.010065 0.001953 0.060392
v -0.009803 0.001521 0.059552
v -0.009731 0.001073 0.058683
v -0.009850 0.004881 0.055632
v -0.010150 0.004438 0.054812
v -0.010635 0.004036 0.054061
v -0.011274 0.003688 0.053405
v -0.012046 0.003408 0.052870
v -0.012923 0.003211 0.052482
v -0.013866 0.003098 0.052243
v -0.014843 0.003076 0.052173
v -0.015814 0.003148 0.052273
v -0.016744 0.003308 0.052535
v -0.017599 0.003549 0.052948
v -0.018335 0.003869 0.053510
v -0.018938 0.004248 0.054181
v -0.019377 0.004673 0.054945
v -0.019646 0.005129 0.055769
v -0.019719 0.005599 0.056627
v -0.019596 0.006065 0.057480
v -0.019286 0.006507 0.058297
v -0.018806 0.006910 0.059050
v -0.018160 0.007254 0.059700
v -0.017384 0.007530 0.060227
v -0.016518 0.007736 0.060633
v -0.015574 0.007848 0.060868
v -0.014598 0.007862 0.060925
v -0.013628 0.007793 0.060829
v -0.012697 0.007636 0.060574
v -0.011845 0.007394 0.060158
v -0.011104 0.007077 0.059603
v -0.010500 0.006698 0.058932
v -0.010059 0.006273 0.058168
v -0.009797 0.005816 0.057342
v -0.009722 0.005346 0.056484
v -0.010117 0.005322 0.055463
v -0.010404 0.004901 0.054691
v -0.010864 0.004522 0.053987
v -0.011469 0.004194 0.053372
v -0.012198 0.003931 0.052872
v -0.013024 0.003746 0.052510
v -0.013912 0.003640 0.052289
v -0.014829 0.003621 0.052226
v -0.015740 0.003689 0.052322
v -0.016613 0.003840 0.052569
v -0.017414 0.004067 0.052955
v -0.018105 0.004367 0.053479
v -0.018674 0.004724 0.054109
v -0.019090 0.005125 0.054825
v -0.019347 0.005555 0.055598
v -0.019421 0.005998 0.056401
v -0.019310 0.006439 0.057204
v -0.019024 0.006860 0.057977
v -0.018577 0.007244 0.058687
v -0.017970 0.007572 0.059303
v -0.017235 0.007837 0.059807
v -0.016415 0.008035 0.060194
v -0.015526 0.008143 0.060417
v -0.014599 0.008157 0.060473
v -0.013676 0.008092 0.060383
v -0.012793 0.007942 0.060139
v -0.011987 0.007711 0.059746
v -0.011286 0.007409 0.059218
v -0.010716 0.007049 0.058581
v -0.010302 0.006643 0.057857
v -0.010058 0.006208 0.057075
v -0.009991 0.005763 0.056267
v -0.011586 0.006100 0.055438
v -0.011785 0.005811 0.054910
v -0.012094 0.005554 0.054436
v -0.012503 0.005326 0.054015
v -0.012988 0.005144 0.053674
v -0.013547 0.005009 0.053416
v -0.014157 0.004934 0.053266
v -0.014780 0.004919 0.053220
v -0.015407 0.004961 0.053277
v -0.016009 0.005069 0.053454
v -0.016546 0.005229 0.053723
v -0.017016 0.005436 0.054077
v -0.017405 0.005683 0.054512
v -0.017687 0.005962 0.055006
v -0.017854 0.006258 0.055535
v -0.017904 0.006556 0.056073
v -0.017826 0.006854 0.056615
v -0.017633 0.007142 0.057145
v -0.017331 0.007400 0.057623
v -0.016929 0.007621 0.058037
v -0.016419 0.007808 0.058396
v -0.015856 0.007939 0.058661
v -0.015275 0.008009 0.058809
v -0.014642 0.008024 0.058857
v -0.013996 0.007978 0.058794
v -0.013398 0.007873 0.058623
v -0.012856 0.007716 0.058352
v -0.012382 0.007511 0.057990
v -0.011999 0.007266 0.057554
v -0.011721 0.006992 0.057061
v -0.011557 0.006697 0.056526
v -0.011485 0.006393 0.055989
v -0.013131 0.006650 0.055538
v -0.013231 0.006504 0.055273
v -0.013386 0.006376 0.055036
v -0.013591 0.006262 0.054825
v -0.013834 0.006171 0.054653
v -0.014114 0.006104 0.054524
v -0.014419 0.006067 0.054448
v -0.014731 0.006060 0.054424
v -0.015045 0.006082 0.054453
v -0.015347 0.006136 0.054542
v -0.015616 0.006216 0.054676
v -0.015851 0.006319 0.054856
v -0.016046 0.006443 0.055073
v -0.016187 0.006582 0.055320
v -0.016271 0.006730 0.055585
v -0.016296 0.006880 0.055855
v -0.016257 0.007029 0.056127
v -0.016160 0.007174 0.056392
v -0.016009 0.007304 0.056631
v -0.015808 0.007415 0.056838
v -0.015552 0.007510 0.057018
v -0.015269 0.007577 0.057150
v -0.014979 0.007613 0.057224
v -0.014662 0.007621 0.057248
v -0.014338 0.007598 0.057216
v -0.014038 0.007545 0.057130
v -0.013767 0.007465 0.056996
v -0.013529 0.007361 0.056814
v -0.013338 0.007237 0.056597
v -0.013199 0.007099 0.056351
v -0.013116 0.006950 0.056083
v -0.013080 0.006798 0.055813
v -0.014691 0.006958 0.055771
v -0.009925 0.005143 0.055510
v -0.010227 0.004705 0.054707
v -0.010703 0.004311 0.053970
v -0.011333 0.003969 0.053327
v -0.012092 0.003696 0.052803
v -0.012952 0.003504 0.052419
v -0.013878 0.003393 0.052189
v -0.014836 0.003373 0.052121
v -0.015789 0.003444 0.052218
v -0.016701 0.003602 0.052476
v -0.017537 0.003837 0.052885
v -0.018263 0.004152 0.053429
v -0.018855 0.004523 0.054088
v -0.019288 0.004941 0.054836
v -0.019549 0.005386 0.055649
v -0.019629 0.005851 0.056486
v -0.019510 0.006308 0.057326
v -0.019212 0.006746 0.058131
v -0.018741 0.007142 0.058874
v -0.018111 0.007489 0.059517
v -0.017350 0.007767 0.060044
v -0.016490 0.007962 0.060440
v -0.015560 0.008074 0.060673
v -0.014595 0.008098 0.060736
v -0.013635 0.008027 0.060641
v -0.012717 0.007867 0.060385
v -0.011877 0.007626 0.059973
v -0.011147 0.007311 0.059424
v -0.010554 0.006936 0.058760
v -0.010122 0.006515 0.058006
v -0.009867 0.006063 0.057192
v -0.009802 0.005597 0.056351
vt 0.155571 0.118158
vt 0.161062 0.118158
vt 0.778061 0.811872
vt 0.779237 0.805714
vt 0.166555 0.118158
vt 0.775741 0.817699
vt 0.172047 0.118158
vt 0.772295 0.822933
vt 0.177540 0.118158
vt 0.767914 0.827388
vt 0.183032 0.118158
vt 0.762768 0.830917
vt 0.188523 0.118158
vt 0.757036 0.833390
vt 0.194014 0.118158
vt 0.750928 0.834709
vt 0.023815 0.118158
vt 0.744677 0.834797
vt 0.029305 0.118158
vt 0.738522 0.833685
vt 0.034797 0.118158
vt 0.732689 0.831405
vt 0.040287 0.118158
vt 0.727427 0.828003
vt 0.045775 0.118158
vt 0.722911 0.823657
vt 0.051264 0.118158
vt 0.719326 0.818508
vt 0.056754 0.118158
vt 0.716789 0.812760
vt 0.062247 0.118158
vt 0.715422 0.806615
vt 0.067740 0.118158
vt 0.715309 0.800312
vt 0.073231 0.118158
vt 0.716419 0.794102
vt 0.078723 0.118158
vt 0.718718 0.788217
vt 0.084213 0.118158
vt 0.722149 0.782902
vt 0.089699 0.118158
vt 0.726542 0.778346
vt 0.095187 0.118158
vt 0.731758 0.774752
vt 0.100679 0.118158
vt 0.737569 0.772234
vt 0.106167 0.118158
vt 0.743776 0.770932
vt 0.111651 0.118158
vt 0.750110 0.770885
vt 0.117138 0.118158
vt 0.756323 0.772056
vt 0.122627 0.118158
vt 0.762178 0.774422
vt 0.128116 0.118158
vt 0.767445 0.777892
vt 0.133606 0.118158
vt 0.771929 0.782313
vt 0.139097 0.118158
vt 0.775456 0.787519
vt 0.144588 0.118158
vt 0.777897 0.793303
vt 0.150080 0.118158
vt 0.779154 0.799444
vt 0.777458 0.805553
vt 0.776386 0.811381
vt 0.774881 0.810942
vt 0.775884 0.805410
vt 0.774160 0.816870
vt 0.772760 0.816137
vt 0.770920 0.821820
vt 0.769693 0.820836
vt 0.766786 0.826042
vt 0.765770 0.824830
vt 0.761902 0.829358
vt 0.761132 0.827965
vt 0.756483 0.831692
vt 0.755992 0.830176
vt 0.750715 0.832933
vt 0.750528 0.831349
vt 0.744813 0.833007
vt 0.744937 0.831409
vt 0.739000 0.831954
vt 0.739426 0.830409
vt 0.733495 0.829808
vt 0.734215 0.828384
vt 0.728536 0.826586
vt 0.729529 0.825324
vt 0.724270 0.822483
vt 0.725485 0.821435
vt 0.720885 0.817620
vt 0.722276 0.816826
vt 0.718478 0.812195
vt 0.719985 0.811692
vt 0.717194 0.806395
vt 0.718775 0.806203
vt 0.717086 0.800446
vt 0.718671 0.800569
vt 0.718136 0.794579
vt 0.719672 0.795009
vt 0.720302 0.789021
vt 0.721706 0.789742
vt 0.723549 0.784012
vt 0.724794 0.785013
vt 0.727717 0.779728
vt 0.728762 0.780952
vt 0.732607 0.776285
vt 0.733379 0.777662
vt 0.738101 0.773923
vt 0.738566 0.775435
vt 0.743963 0.772733
vt 0.744125 0.774332
vt 0.749941 0.772660
vt 0.749800 0.774251
vt 0.755811 0.773753
vt 0.755363 0.775267
vt 0.761344 0.775982
vt 0.760600 0.777383
vt 0.766322 0.779259
vt 0.765322 0.780482
vt 0.770563 0.783434
vt 0.769346 0.784436
vt 0.773899 0.788352
vt 0.772511 0.789098
vt 0.776210 0.793819
vt 0.774706 0.794285
vt 0.777423 0.799624
vt 0.775869 0.799783
vt 0.765469 0.808140
vt 0.766142 0.804442
vt 0.764096 0.811555
vt 0.762085 0.814691
vt 0.759549 0.817361
vt 0.756501 0.819525
vt 0.753053 0.821016
vt 0.749424 0.821793
vt 0.745683 0.821898
vt 0.741972 0.821176
vt 0.738558 0.819773
vt 0.735460 0.817735
vt 0.732764 0.815105
vt 0.730645 0.811996
vt 0.729170 0.808563
vt 0.728383 0.804979
vt 0.728341 0.801272
vt 0.728991 0.797562
vt 0.730330 0.794122
vt 0.732325 0.791041
vt 0.735003 0.788252
vt 0.738075 0.786058
vt 0.741358 0.784616
vt 0.745043 0.783815
vt 0.748906 0.783763
vt 0.752581 0.784468
vt 0.756018 0.785871
vt 0.759137 0.787944
vt 0.761787 0.790583
vt 0.763871 0.793672
vt 0.765327 0.797125
vt 0.766252 0.800699
vt 0.756261 0.805433
vt 0.756595 0.803602
vt 0.755578 0.807118
vt 0.754586 0.808666
vt 0.753336 0.809984
vt 0.751831 0.811052
vt 0.750130 0.811784
vt 0.748343 0.812172
vt 0.746497 0.812220
vt 0.744668 0.811860
vt 0.742987 0.811167
vt 0.741460 0.810160
vt 0.740132 0.808862
vt 0.739090 0.807328
vt 0.738365 0.805636
vt 0.737973 0.803871
vt 0.737957 0.802043
vt 0.738274 0.800214
vt 0.738931 0.798518
vt 0.739918 0.796999
vt 0.741235 0.795616
vt 0.742753 0.794535
vt 0.744369 0.793822
vt 0.746185 0.793431
vt 0.748090 0.793405
vt 0.749902 0.793752
vt 0.751597 0.794443
vt 0.753136 0.795465
vt 0.754443 0.796766
vt 0.755470 0.798289
vt 0.756188 0.799996
vt 0.756645 0.801756
vt 0.747278 0.802803
vt 0.150080 0.145423
vt 0.155571 0.145423
vt 0.144588 0.145423
vt 0.139097 0.145423
vt 0.133606 0.145423
vt 0.128116 0.145423
vt 0.122627 0.145423
vt 0.117138 0.145423
vt 0.111651 0.145423
vt 0.106167 0.145423
vt 0.100679 0.145423
vt 0.095187 0.145423
vt 0.089699 0.145423
vt 0.084213 0.145423
vt 0.078723 0.145423
vt 0.073231 0.145423
vt 0.067740 0.145423
vt 0.062247 0.145423
vt 0.056754 0.145423
vt 0.051264 0.145423
vt 0.045775 0.145423
vt 0.040287 0.145423
vt 0.034797 0.145423
vt 0.029305 0.145423
vt 0.023815 0.145423
vt 0.018325 0.145423
vt 0.188523 0.145423
vt 0.183032 0.145423
vt 0.177540 0.145423
vt 0.172047 0.145423
vt 0.166555 0.145423
vt 0.161062 0.145423
vt 0.018325 0.118158
vt 0.194014 0.145423
vn 0.975744 -0.100840 -0.194309
vn 0.914936 -0.185386 -0.358504
vn 0.915135 -0.171328 -0.364932
vn 0.975821 -0.087104 -0.200467
vn 0.817613 -0.264153 -0.511597
vn 0.817805 -0.249813 -0.518448
vn 0.690143 -0.331630 -0.643214
vn 0.690257 -0.317119 -0.650370
vn 0.534310 -0.386831 -0.751581
vn 0.534238 -0.372267 -0.758951
vn 0.359499 -0.426334 -0.830060
vn 0.359244 -0.411749 -0.837500
vn 0.172075 -0.449783 -0.876405
vn 0.171596 -0.434858 -0.883999
vn -0.024833 -0.456194 -0.889534
vn -0.025495 -0.440876 -0.897206
vn -0.219300 -0.444734 -0.868401
vn -0.220044 -0.429229 -0.875981
vn -0.403619 -0.416911 -0.814418
vn -0.404385 -0.400964 -0.822010
vn -0.576389 -0.372162 -0.727510
vn -0.577186 -0.355859 -0.734997
vn -0.725301 -0.312617 -0.613359
vn -0.725946 -0.296482 -0.620566
vn -0.844798 -0.241946 -0.477262
vn -0.845267 -0.226049 -0.484176
vn -0.932377 -0.162719 -0.322792
vn -0.932572 -0.146744 -0.329811
vn -0.984859 -0.077284 -0.155178
vn -0.984836 -0.061367 -0.162273
vn -0.999688 0.013139 0.021226
vn -0.999485 0.028659 0.014402
vn -0.975369 0.103029 0.195041
vn -0.974993 0.117890 0.188387
vn -0.914297 0.187619 0.358971
vn -0.913877 0.201735 0.352323
vn -0.816927 0.266312 0.511574
vn -0.816486 0.279594 0.505151
vn -0.686400 0.336031 0.644932
vn -0.686007 0.348038 0.638955
vn -0.536844 0.389415 0.748435
vn -0.536749 0.400592 0.742581
vn -0.364154 0.428107 0.827113
vn -0.364318 0.439529 0.821028
vn -0.167361 0.452783 0.875773
vn -0.167645 0.463960 0.869848
vn 0.027085 0.460002 0.887505
vn 0.026586 0.470212 0.882153
vn 0.215822 0.449100 0.867024
vn 0.214999 0.459246 0.861898
vn 0.402678 0.419861 0.813368
vn 0.401730 0.430659 0.808174
vn 0.575007 0.374498 0.727405
vn 0.574077 0.385809 0.722210
vn 0.723232 0.315697 0.614223
vn 0.722362 0.327405 0.609097
vn 0.844155 0.244635 0.477029
vn 0.843450 0.256767 0.471872
vn 0.932667 0.164107 0.321248
vn 0.932169 0.176640 0.316004
vn 0.985006 0.077710 0.154026
vn 0.984741 0.090798 0.148459
vn 0.999676 -0.012721 -0.022045
vn 0.999609 0.000824 -0.027933
vn 0.847847 0.342224 -0.405016
vn 0.791231 0.274210 -0.546591
vn 0.425656 0.687267 -0.588626
vn 0.455296 0.725593 -0.515965
vn 0.703618 0.213113 -0.677867
vn 0.379565 0.651907 -0.656467
vn 0.592064 0.161657 -0.789510
vn 0.321662 0.622465 -0.713492
vn 0.457709 0.120853 -0.880851
vn 0.251353 0.598350 -0.760788
vn 0.308778 0.094228 -0.946455
vn 0.172196 0.581911 -0.794813
vn 0.150855 0.080891 -0.985241
vn 0.088502 0.572434 -0.815160
vn -0.013298 0.082003 -0.996543
vn 0.002311 0.570618 -0.821213
vn -0.175038 0.096531 -0.979818
vn -0.084405 0.577216 -0.812218
vn -0.328163 0.123661 -0.936492
vn -0.167025 0.590953 -0.789226
vn -0.472199 0.162369 -0.866409
vn -0.243134 0.611878 -0.752656
vn -0.597410 0.212681 -0.773219
vn -0.309012 0.640222 -0.703297
vn -0.700151 0.269809 -0.661054
vn -0.363087 0.673161 -0.644222
vn -0.777300 0.334726 -0.532695
vn -0.404249 0.709343 -0.577422
vn -0.827014 0.402555 -0.392424
vn -0.430637 0.748331 -0.504532
vn -0.845611 0.476566 -0.240473
vn -0.439170 0.791276 -0.425454
vn -0.830997 0.549441 -0.086946
vn -0.429936 0.833446 -0.347164
vn -0.785295 0.616314 0.058903
vn -0.405002 0.872616 -0.272974
vn -0.706213 0.679280 0.199606
vn -0.361900 0.910148 -0.201640
vn -0.595850 0.735298 0.322954
vn -0.301370 0.943064 -0.140739
vn -0.467481 0.777992 0.419749
vn -0.233318 0.967877 -0.093679
vn -0.316175 0.808707 0.496010
vn -0.154887 0.986467 -0.053788
vn -0.140843 0.827365 0.543720
vn -0.063549 0.997508 -0.030651
vn 0.031789 0.829922 0.556973
vn 0.025917 0.999286 -0.027489
vn 0.199241 0.817190 0.540835
vn 0.112862 0.992952 -0.036187
vn 0.365084 0.789722 0.493005
vn 0.199301 0.978130 -0.059510
vn 0.517600 0.748250 0.414984
vn 0.278263 0.955421 -0.098692
vn 0.647313 0.695239 0.312456
vn 0.345328 0.926261 -0.150959
vn 0.751248 0.632358 0.189076
vn 0.399401 0.891585 -0.213438
vn 0.825247 0.562617 0.049296
vn 0.438247 0.852842 -0.283901
vn 0.866477 0.489037 -0.100303
vn 0.461976 0.811691 -0.357402
vn 0.874203 0.413024 -0.255305
vn 0.468999 0.767206 -0.437534
vn 0.333470 0.747080 -0.575038
vn 0.354882 0.778050 -0.518360
vn 0.298396 0.718847 -0.627868
vn 0.254435 0.695242 -0.672236
vn 0.200669 0.675558 -0.709474
vn 0.138948 0.660962 -0.737444
vn 0.072974 0.653219 -0.753644
vn 0.006076 0.651460 -0.758658
vn -0.063225 0.655841 -0.752247
vn -0.128982 0.667317 -0.733520
vn -0.188011 0.684436 -0.704414
vn -0.239984 0.706397 -0.665891
vn -0.282517 0.732686 -0.619157
vn -0.313396 0.762241 -0.566367
vn -0.331929 0.794005 -0.509294
vn -0.338257 0.827644 -0.447870
vn -0.329840 0.860755 -0.387695
vn -0.309547 0.891492 -0.330790
vn -0.275418 0.920780 -0.276241
vn -0.229344 0.946100 -0.228685
vn -0.176499 0.965408 -0.191926
vn -0.114804 0.979865 -0.163355
vn -0.045294 0.988245 -0.146016
vn 0.023206 0.989718 -0.141140
vn 0.090992 0.984807 -0.147903
vn 0.157379 0.973258 -0.167334
vn 0.217680 0.955743 -0.197914
vn 0.269394 0.933222 -0.237746
vn 0.310998 0.906489 -0.285585
vn 0.341222 0.876693 -0.339083
vn 0.358171 0.845688 -0.395633
vn 0.366340 0.810519 -0.457005
vn 0.208595 0.810376 -0.547520
vn 0.221781 0.830244 -0.511378
vn 0.187518 0.793046 -0.579582
vn 0.161287 0.778560 -0.606491
vn 0.129401 0.766636 -0.628908
vn 0.091175 0.757485 -0.646454
vn 0.050741 0.752430 -0.656715
vn 0.011307 0.751386 -0.659766
vn -0.032145 0.754365 -0.655668
vn -0.073290 0.761562 -0.643935
vn -0.108660 0.771993 -0.626275
vn -0.139518 0.785765 -0.602584
vn -0.165266 0.801988 -0.574024
vn -0.184006 0.820303 -0.541521
vn -0.194863 0.839678 -0.506922
vn -0.198395 0.860130 -0.469911
vn -0.193097 0.880248 -0.433448
vn -0.180857 0.898974 -0.398920
vn -0.160457 0.916635 -0.366108
vn -0.132883 0.931937 -0.337396
vn -0.100295 0.944119 -0.313975
vn -0.062840 0.953259 -0.295548
vn -0.022032 0.958423 -0.284498
vn 0.019847 0.959442 -0.281207
vn 0.062663 0.956389 -0.285296
vn 0.103803 0.949181 -0.297121
vn 0.140576 0.938405 -0.315649
vn 0.172203 0.924409 -0.340315
vn 0.197517 0.907981 -0.369537
vn 0.215191 0.890051 -0.401872
vn 0.224693 0.870742 -0.437403
vn 0.229981 0.849900 -0.474109
vn 0.015474 0.874997 -0.483882
s 1
g __CM__ButtonA
usemtl __CM__BodySG
f 1/1/1 2/2/2 34/225/3 33/195/4
f 2/2/2 3/5/5 35/224/6 34/225/3
f 3/5/5 4/7/7 36/223/8 35/224/6
f 4/7/7 5/9/9 37/222/10 36/223/8
f 5/9/9 6/11/11 38/221/12 37/222/10
f 6/11/11 7/13/13 39/220/14 38/221/12
f 7/13/13 8/15/15 40/227/16 39/220/14
f 8/226/15 9/17/17 41/218/18 40/219/16
f 9/17/17 10/19/19 42/217/20 41/218/18
f 10/19/19 11/21/21 43/216/22 42/217/20
f 11/21/21 12/23/23 44/215/24 43/216/22
f 12/23/23 13/25/25 45/214/26 44/215/24
f 13/25/25 14/27/27 46/213/28 45/214/26
f 14/27/27 15/29/29 47/212/30 46/213/28
f 15/29/29 16/31/31 48/211/32 47/212/30
f 16/31/31 17/33/33 49/210/34 48/211/32
f 17/33/33 18/35/35 50/209/36 49/210/34
f 18/35/35 19/37/37 51/208/38 50/209/36
f 19/37/37 20/39/39 52/207/40 51/208/38
f 20/39/39 21/41/41 53/206/42 52/207/40
f 21/41/41 22/43/43 54/205/44 53/206/42
f 22/43/43 23/45/45 55/204/46 54/205/44
f 23/45/45 24/47/47 56/203/48 55/204/46
f 24/47/47 25/49/49 57/202/50 56/203/48
f 25/49/49 26/51/51 58/201/52 57/202/50
f 26/51/51 27/53/53 59/200/54 58/201/52
f 27/53/53 28/55/55 60/199/56 59/200/54
f 28/55/55 29/57/57 61/198/58 60/199/56
f 29/57/57 30/59/59 62/197/60 61/198/58
f 30/59/59 31/61/61 63/196/62 62/197/60
f 31/61/61 32/63/63 64/194/64 63/196/62
f 32/63/63 1/1/1 33/195/4 64/194/64
f 162/65/65 163/66/66 66/67/67 65/68/68
f 163/66/66 164/69/69 67/70/70 66/67/67
f 164/69/69 165/71/71 68/72/72 67/70/70
f 165/71/71 166/73/73 69/74/74 68/72/72
f 166/73/73 167/75/75 70/76/76 69/74/74
f 167/75/75 168/77/77 71/78/78 70/76/76
f 168/77/77 169/79/79 72/80/80 71/78/78
f 169/79/79 170/81/81 73/82/82 72/80/80
f 170/81/81 171/83/83 74/84/84 73/82/82
f 171/83/83 172/85/85 75/86/86 74/84/84
f 172/85/85 173/87/87 76/88/88 75/86/86
f 173/87/87 174/89/89 77/90/90 76/88/88
f 174/89/89 175/91/91 78/92/92 77/90/90
f 175/91/91 176/93/93 79/94/94 78/92/92
f 176/93/93 177/95/95 80/96/96 79/94/94
f 177/95/95 178/97/97 81/98/98 80/96/96
f 178/97/97 179/99/99 82/100/100 81/98/98
f 179/99/99 180/101/101 83/102/102 82/100/100
f 180/101/101 181/103/103 84/104/104 83/102/102
f 181/103/103 182/105/105 85/106/106 84/104/104
f 182/105/105 183/107/107 86/108/108 85/106/106
f 183/107/107 184/109/109 87/110/110 86/108/108
f 184/109/109 185/111/111 88/112/112 87/110/110
f 185/111/111 186/113/113 89/114/114 88/112/112
f 186/113/113 187/115/115 90/116/116 89/114/114
f 187/115/115 188/117/117 91/118/118 90/116/116
f 188/117/117 189/119/119 92/120/120 91/118/118
f 189/119/119 190/121/121 93/122/122 92/120/120
f 190/121/121 191/123/123 94/124/124 93/122/122
f 191/123/123 192/125/125 95/126/126 94/124/124
f 192/125/125 193/127/127 96/128/128 95/126/126
f 193/127/127 162/65/65 65/68/68 96/128/128
f 65/68/68 66/67/67 98/129/129 97/130/130
f 66/67/67 67/70/70 99/131/131 98/129/129
f 67/70/70 68/72/72 100/132/132 99/131/131
f 68/72/72 69/74/74 101/133/133 100/132/132
f 69/74/74 70/76/76 102/134/134 101/133/133
f 70/76/76 71/78/78 103/135/135 102/134/134
f 71/78/78 72/80/80 104/136/136 103/135/135
f 72/80/80 73/82/82 105/137/137 104/136/136
f 73/82/82 74/84/84 106/138/138 105/137/137
f 74/84/84 75/86/86 107/139/139 106/138/138
f 75/86/86 76/88/88 108/140/140 107/139/139
f 76/88/88 77/90/90 109/141/141 108/140/140
f 77/90/90 78/92/92 110/142/142 109/141/141
f 78/92/92 79/94/94 111/143/143 110/142/142
f 79/94/94 80/96/96 112/144/144 111/143/143
f 80/96/96 81/98/98 113/145/145 112/144/144
f 81/98/98 82/100/100 114/146/146 113/145/145
f 82/100/100 83/102/102 115/147/147 114/146/146
f 83/102/102 84/104/104 116/148/148 115/147/147
f 84/104/104 85/106/106 117/149/149 116/148/148
f 85/106/106 86/108/108 118/150/150 117/149/149
f 86/108/108 87/110/110 119/151/151 118/150/150
f 87/110/110 88/112/112 120/152/152 119/151/151
f 88/112/112 89/114/114 121/153/153 120/152/152
f 89/114/114 90/116/116 122/154/154 121/153/153
f 90/116/116 91/118/118 123/155/155 122/154/154
f 91/118/118 92/120/120 124/156/156 123/155/155
f 92/120/120 93/122/122 125/157/157 124/156/156
f 93/122/122 94/124/124 126/158/158 125/157/157
f 94/124/124 95/126/126 127/159/159 126/158/158
f 95/126/126 96/128/128 128/160/160 127/159/159
f 96/128/128 65/68/68 97/130/130 128/160/160
f 97/130/130 98/129/129 130/161/161 129/162/162
f 98/129/129 99/131/131 131/163/163 130/161/161
f 99/131/131 100/132/132 132/164/164 131/163/163
f 100/132/132 101/133/133 133/165/165 132/164/164
f 101/133/133 102/134/134 134/166/166 133/165/165
f 102/134/134 103/135/135 135/167/167 134/166/166
f 103/135/135 104/136/136 136/168/168 135/167/167
f 104/136/136 105/137/137 137/169/169 136/168/168
f 105/137/137 106/138/138 138/170/170 137/169/169
f 106/138/138 107/139/139 139/171/171 138/170/170
f 107/139/139 108/140/140 140/172/172 139/171/171
f 108/140/140 109/141/141 141/173/173 140/172/172
f 109/141/141 110/142/142 142/174/174 141/173/173
f 110/142/142 111/143/143 143/175/175 142/174/174
f 111/143/143 112/144/144 144/176/176 143/175/175
f 112/144/144 113/145/145 145/177/177 144/176/176
f 113/145/145 114/146/146 146/178/178 145/177/177
f 114/146/146 115/147/147 147/179/179 146/178/178
f 115/147/147 116/148/148 148/180/180 147/179/179
f 116/148/148 117/149/149 149/181/181 148/180/180
f 117/149/149 118/150/150 150/182/182 149/181/181
f 118/150/150 119/151/151 151/183/183 150/182/182
f 119/151/151 120/152/152 152/184/184 151/183/183
f 120/152/152 121/153/153 153/185/185 152/184/184
f 121/153/153 122/154/154 154/186/186 153/185/185
f 122/154/154 123/155/155 155/187/187 154/186/186
f 123/155/155 124/156/156 156/188/188 155/187/187
f 124/156/156 125/157/157 157/189/189 156/188/188
f 125/157/157 126/158/158 158/190/190 157/189/189
f 126/158/158 127/159/159 159/191/191 158/190/190
f 127/159/159 128/160/160 160/192/192 159/191/191
f 128/160/160 97/130/130 129/162/162 160/192/192
f 129/162/162 130/161/161 161/193/193
f 130/161/161 131/163/163 161/193/193
f 131/163/163 132/164/164 161/193/193
f 132/164/164 133/165/165 161/193/193
f 133/165/165 134/166/166 161/193/193
f 134/166/166 135/167/167 161/193/193
f 135/167/167 136/168/168 161/193/193
f 136/168/168 137/169/169 161/193/193
f 137/169/169 138/170/170 161/193/193
f 138/170/170 139/171/171 161/193/193
f 139/171/171 140/172/172 161/193/193
f 140/172/172 141/173/173 161/193/193
f 141/173/173 142/174/174 161/193/193
f 142/174/174 143/175/175 161/193/193
f 143/175/175 144/176/176 161/193/193
f 144/176/176 145/177/177 161/193/193
f 145/177/177 146/178/178 161/193/193
f 146/178/178 147/179/179 161/193/193
f 147/179/179 148/180/180 161/193/193
f 148/180/180 149/181/181 161/193/193
f 149/181/181 150/182/182 161/193/193
f 150/182/182 151/183/183 161/193/193
f 151/183/183 152/184/184 161/193/193
f 152/184/184 153/185/185 161/193/193
f 153/185/185 154/186/186 161/193/193
f 154/186/186 155/187/187 161/193/193
f 155/187/187 156/188/188 161/193/193
f 156/188/188 157/189/189 161/193/193
f 157/189/189 158/190/190 161/193/193
f 158/190/190 159/191/191 161/193/193
f 159/191/191 160/192/192 161/193/193
f 160/192/192 129/162/162 161/193/193
f 33/4/4 34/3/3 163/66/66 162/65/65
f 34/3/3 35/6/6 164/69/69 163/66/66
f 35/6/6 36/8/8 165/71/71 164/69/69
f 36/8/8 37/10/10 166/73/73 165/71/71
f 37/10/10 38/12/12 167/75/75 166/73/73
f 38/12/12 39/14/14 168/77/77 167/75/75
f 39/14/14 40/16/16 169/79/79 168/77/77
f 40/16/16 41/18/18 170/81/81 169/79/79
f 41/18/18 42/20/20 171/83/83 170/81/81
f 42/20/20 43/22/22 172/85/85 171/83/83
f 43/22/22 44/24/24 173/87/87 172/85/85
f 44/24/24 45/26/26 174/89/89 173/87/87
f 45/26/26 46/28/28 175/91/91 174/89/89
f 46/28/28 47/30/30 176/93/93 175/91/91
f 47/30/30 48/32/32 177/95/95 176/93/93
f 48/32/32 49/34/34 178/97/97 177/95/95
f 49/34/34 50/36/36 179/99/99 178/97/97
f 50/36/36 51/38/38 180/101/101 179/99/99
f 51/38/38 52/40/40 181/103/103 180/101/101
f 52/40/40 53/42/42 182/105/105 181/103/103
f 53/42/42 54/44/44 183/107/107 182/105/105
f 54/44/44 55/46/46 184/109/109 183/107/107
f 55/46/46 56/48/48 185/111/111 184/109/109
f 56/48/48 57/50/50 186/113/113 185/111/111
f 57/50/50 58/52/52 187/115/115 186/113/113
f 58/52/52 59/54/54 188/117/117 187/115/115
f 59/54/54 60/56/56 189/119/119 188/117/117
f 60/56/56 61/58/58 190/121/121 189/119/119
f 61/58/58 62/60/60 191/123/123 190/121/121
f 62/60/60 63/62/62 192/125/125 191/123/123
f 63/62/62 64/64/64 193/127/127 192/125/125
f 64/64/64 33/4/4 162/65/65 193/127/127
