# This file uses centimeters as units for non-parametric coordinates.

mtllib R_Light.mtl
g default
v -0.000462 -0.012647 0.026104
v -0.000766 -0.012745 0.025911
v -0.001140 -0.012741 0.025917
v -0.001438 -0.012636 0.026121
v -0.001542 -0.012472 0.026440
v -0.001415 -0.012313 0.026750
v -0.001109 -0.012219 0.026934
v -0.000743 -0.012224 0.026924
v -0.000452 -0.012326 0.026728
v -0.000344 -0.012487 0.026415
v -0.000937 -0.011438 0.025890
v -0.000954 -0.012757 0.025888
v -0.001307 -0.012699 0.025997
v -0.001519 -0.012558 0.026272
v -0.001506 -0.012387 0.026604
v -0.001278 -0.012255 0.026863
v -0.000925 -0.012208 0.026955
v -0.000580 -0.012265 0.026846
v -0.000370 -0.012403 0.026579
v -0.000375 -0.012571 0.026251
v -0.000597 -0.012707 0.025986
v -0.000460 -0.011601 0.025566
v -0.000466 -0.011580 0.025560
v -0.000598 -0.011636 0.025444
v -0.000595 -0.011658 0.025448
v -0.000765 -0.011673 0.025370
v -0.000764 -0.011696 0.025373
v -0.000951 -0.011686 0.025347
v -0.000951 -0.011709 0.025350
v -0.001136 -0.011675 0.025377
v -0.001138 -0.011698 0.025381
v -0.001300 -0.011641 0.025461
v -0.001305 -0.011661 0.025463
v -0.001429 -0.011586 0.025585
v -0.001436 -0.011606 0.025589
v -0.001508 -0.011517 0.025740
v -0.001517 -0.011534 0.025745
v -0.001530 -0.011441 0.025907
v -0.001540 -0.011456 0.025917
v -0.001494 -0.011365 0.026073
v -0.001504 -0.011377 0.026083
v -0.001404 -0.011296 0.026220
v -0.001412 -0.011308 0.026232
v -0.001270 -0.011243 0.026333
v -0.001276 -0.011252 0.026346
v -0.001104 -0.011208 0.026401
v -0.001107 -0.011217 0.026417
v -0.000923 -0.011196 0.026421
v -0.000923 -0.011204 0.026438
v -0.000745 -0.011207 0.026390
v -0.000741 -0.011217 0.026405
v -0.000584 -0.011240 0.026310
v -0.000578 -0.011251 0.026323
v -0.000456 -0.011293 0.026190
v -0.000449 -0.011305 0.026203
v -0.000376 -0.011360 0.026041
v -0.000368 -0.011374 0.026050
v -0.000350 -0.011435 0.025875
v -0.000342 -0.011452 0.025883
v -0.000380 -0.011510 0.025709
v -0.000374 -0.011530 0.025717
vt 0.842345 0.975433
vt 0.838823 0.980022
vt 0.830570 0.972234
vt 0.831480 0.970280
vt 0.834097 0.983384
vt 0.829038 0.973802
vt 0.828586 0.985175
vt 0.827049 0.974865
vt 0.822807 0.985202
vt 0.824672 0.975290
vt 0.817327 0.983452
vt 0.822112 0.974879
vt 0.812699 0.980098
vt 0.819735 0.973556
vt 0.809395 0.975488
vt 0.817861 0.971463
vt 0.807754 0.970110
vt 0.816739 0.968823
vt 0.807942 0.964540
vt 0.816470 0.965938
vt 0.809935 0.959363
vt 0.817035 0.963085
vt 0.812947 0.954726
vt 0.818984 0.960945
vt 0.817299 0.951331
vt 0.821432 0.959455
vt 0.822518 0.949504
vt 0.824174 0.958776
vt 0.828072 0.949410
vt 0.826936 0.958985
vt 0.833414 0.951051
vt 0.829414 0.960042
vt 0.838027 0.954267
vt 0.831320 0.961796
vt 0.841475 0.958756
vt 0.832456 0.963972
vt 0.843440 0.964108
vt 0.832811 0.966200
vt 0.843737 0.969839
vt 0.832485 0.968368
vt 0.832459 0.966092
vt 0.832174 0.963825
vt 0.832128 0.968235
vt 0.831225 0.970141
vt 0.830265 0.972007
vt 0.828761 0.973550
vt 0.826781 0.974675
vt 0.824481 0.975079
vt 0.822080 0.974632
vt 0.819832 0.973342
vt 0.818036 0.971326
vt 0.816950 0.968776
vt 0.816685 0.965978
vt 0.817301 0.963223
vt 0.819144 0.961097
vt 0.821523 0.959653
vt 0.824181 0.959000
vt 0.826846 0.959199
vt 0.829225 0.960197
vt 0.831050 0.961828
vt 0.823662 0.966240
vn 0.293035 -0.436820 -0.850482
vn -0.016793 -0.456558 -0.889535
vn -0.015159 -0.456571 -0.889558
vn 0.293694 -0.436728 -0.850301
vn -0.326690 -0.431445 -0.840909
vn -0.324347 -0.431814 -0.841627
vn -0.608517 -0.362256 -0.706030
vn -0.605495 -0.363308 -0.708084
vn -0.824835 -0.257784 -0.503186
vn -0.822242 -0.259512 -0.506528
vn -0.960405 -0.126155 -0.248409
vn -0.959095 -0.128209 -0.252387
vn -0.999416 0.017319 0.029471
vn -0.999544 0.015484 0.025918
vn -0.939369 0.159055 0.303789
vn -0.940515 0.157606 0.300986
vn -0.787060 0.284416 0.547398
vn -0.788597 0.283520 0.545647
vn -0.558637 0.381108 0.736669
vn -0.559471 0.380853 0.736168
vn -0.279643 0.440317 0.853183
vn -0.279538 0.440330 0.853210
vn 0.028630 0.457682 0.888655
vn 0.030398 0.457654 0.888611
vn 0.335492 0.430808 0.837765
vn 0.338417 0.430326 0.836835
vn 0.604561 0.363617 0.708723
vn 0.607517 0.362575 0.706726
vn 0.819526 0.260547 0.510384
vn 0.821959 0.258940 0.507281
vn 0.956729 0.131399 0.259623
vn 0.957960 0.129538 0.255993
vn 0.999871 -0.008743 -0.013490
vn 0.999803 -0.010480 -0.016871
vn 0.947087 -0.148000 -0.284821
vn 0.946125 -0.149289 -0.287335
vn 0.802533 -0.273688 -0.530128
vn 0.801082 -0.274575 -0.531861
vn 0.578255 -0.373304 -0.725442
vn 0.577461 -0.373559 -0.725943
vn 0.765733 0.026887 -0.642597
vn 0.764869 0.026326 -0.643648
vn 0.894886 0.159688 -0.416748
vn 0.897082 0.163765 -0.410396
vn 0.545449 -0.072077 -0.835039
vn 0.554381 -0.069302 -0.829373
vn 0.277554 -0.135088 -0.951165
vn 0.280130 -0.134639 -0.950473
vn -0.019007 -0.160039 -0.986928
vn -0.017124 -0.160041 -0.986962
vn -0.313822 -0.105130 -0.943644
vn -0.312545 -0.105620 -0.944013
vn -0.566772 0.018025 -0.823678
vn -0.567812 0.018674 -0.822947
vn -0.756437 0.149648 -0.636717
vn -0.755863 0.149194 -0.637505
vn -0.867253 0.290437 -0.404376
vn -0.866055 0.287477 -0.409031
vn -0.874214 0.454643 -0.170438
vn -0.876652 0.445065 -0.182754
vn -0.800369 0.598450 0.035593
vn -0.799856 0.599075 0.036594
vn -0.662547 0.713322 0.228481
vn -0.660551 0.714504 0.230555
vn -0.465997 0.801507 0.374746
vn -0.463512 0.802348 0.376025
vn -0.229929 0.861169 0.453343
vn -0.228414 0.861438 0.453599
vn 0.012483 0.878493 0.477592
vn 0.017166 0.878334 0.477739
vn 0.266509 0.845394 0.462906
vn 0.265595 0.845606 0.463043
vn 0.505104 0.774656 0.380499
vn 0.501352 0.776043 0.382628
vn 0.699755 0.672403 0.241282
vn 0.707505 0.666745 0.234283
vn 0.856279 0.514202 0.048820
vn 0.856353 0.514090 0.048688
vn 0.927033 0.331169 -0.175888
vn 0.926719 0.333712 -0.172710
vn -0.016963 0.909197 -0.416020
vn -0.015726 0.909512 -0.415381
vn -0.016431 0.909689 -0.414965
vn -0.017296 0.909239 -0.415916
vn -0.015262 0.909563 -0.415285
vn -0.017237 0.909836 -0.414610
vn -0.017474 0.909552 -0.415222
vn -0.015861 0.909132 -0.416205
vn -0.016166 0.909360 -0.415696
vn -0.016204 0.909858 -0.414602
vn -0.016056 0.910424 -0.413364
vn -0.016664 0.910167 -0.413906
vn -0.017839 0.909622 -0.415053
vn -0.017530 0.909595 -0.415126
vn -0.015925 0.909705 -0.414950
vn -0.016002 0.909831 -0.414671
vn -0.016950 0.909957 -0.414357
vn -0.015886 0.909330 -0.415772
vn -0.015376 0.909464 -0.415499
vn -0.015912 0.910377 -0.413473
vn -0.016322 0.910046 -0.414186
s 1
g __CM__Light
usemtl __CM__BodySG
f 2/1/1 12/2/2 29/3/3 27/4/4
f 12/2/2 3/5/5 31/6/6 29/3/3
f 3/5/5 13/7/7 33/8/8 31/6/6
f 13/7/7 4/9/9 35/10/10 33/8/8
f 4/9/9 14/11/11 37/12/12 35/10/10
f 14/11/11 5/13/13 39/14/14 37/12/12
f 5/13/13 15/15/15 41/16/16 39/14/14
f 15/15/15 6/17/17 43/18/18 41/16/16
f 6/17/17 16/19/19 45/20/20 43/18/18
f 16/19/19 7/21/21 47/22/22 45/20/20
f 7/21/21 17/23/23 49/24/24 47/22/22
f 17/23/23 8/25/25 51/26/26 49/24/24
f 8/25/25 18/27/27 53/28/28 51/26/26
f 18/27/27 9/29/29 55/30/30 53/28/28
f 9/29/29 19/31/31 57/32/32 55/30/30
f 19/31/31 10/33/33 59/34/34 57/32/32
f 10/33/33 20/35/35 61/36/36 59/34/34
f 20/35/35 1/37/37 22/38/38 61/36/36
f 1/37/37 21/39/39 25/40/40 22/38/38
f 21/39/39 2/1/1 27/4/4 25/40/40
s 2
f 22/38/41 23/41/42 60/42/43 61/36/44
f 23/41/42 22/38/41 25/40/45 24/43/46
f 24/43/46 25/40/45 27/4/47 26/44/48
f 26/44/48 27/4/47 29/3/49 28/45/50
f 28/45/50 29/3/49 31/6/51 30/46/52
f 30/46/52 31/6/51 33/8/53 32/47/54
f 32/47/54 33/8/53 35/10/55 34/48/56
f 34/48/56 35/10/55 37/12/57 36/49/58
f 36/49/58 37/12/57 39/14/59 38/50/60
f 38/50/60 39/14/59 41/16/61 40/51/62
f 40/51/62 41/16/61 43/18/63 42/52/64
f 42/52/64 43/18/63 45/20/65 44/53/66
f 44/53/66 45/20/65 47/22/67 46/54/68
f 46/54/68 47/22/67 49/24/69 48/55/70
f 48/55/70 49/24/69 51/26/71 50/56/72
f 50/56/72 51/26/71 53/28/73 52/57/74
f 52/57/74 53/28/73 55/30/75 54/58/76
f 54/58/76 55/30/75 57/32/77 56/59/78
f 56/59/78 57/32/77 59/34/79 58/60/80
f 58/60/80 59/34/79 61/36/44 60/42/43
s 3
f 24/43/81 26/44/82 11/61/83
f 23/41/84 24/43/81 11/61/83
f 28/45/85 30/46/86 11/61/83
f 11/61/83 26/44/82 28/45/85
f 32/47/87 34/48/88 11/61/83
f 11/61/83 30/46/86 32/47/87
f 36/49/89 38/50/90 11/61/83
f 11/61/83 34/48/88 36/49/89
f 40/51/91 42/52/92 11/61/83
f 11/61/83 38/50/90 40/51/91
f 44/53/93 46/54/94 11/61/83
f 11/61/83 42/52/92 44/53/93
f 48/55/95 50/56/96 11/61/83
f 11/61/83 46/54/94 48/55/95
f 52/57/97 54/58/98 11/61/83
f 11/61/83 50/56/96 52/57/97
f 56/59/99 58/60/100 11/61/83
f 11/61/83 54/58/98 56/59/99
f 60/42/101 23/41/84 11/61/83
f 11/61/83 58/60/100 60/42/101
