<?xml version="1.0" encoding="UTF-8" standalone="no"?>
<!-- Created with Inkscape (http://www.inkscape.org/) -->

<svg
   width="24in"
   height="30in"
   viewBox="0 0 24 30"
   version="1.1"
   id="SVGRoot"
   sodipodi:docname="Markers4Through7.svg"
   xml:space="preserve"
   inkscape:version="1.3.2 (091e20ef0f, 2023-11-25, custom)"
   inkscape:export-filename="Markers4Through7.pdf"
   inkscape:export-xdpi="29.601"
   inkscape:export-ydpi="29.601"
   xmlns:inkscape="http://www.inkscape.org/namespaces/inkscape"
   xmlns:sodipodi="http://sodipodi.sourceforge.net/DTD/sodipodi-0.dtd"
   xmlns="http://www.w3.org/2000/svg"
   xmlns:svg="http://www.w3.org/2000/svg"><sodipodi:namedview
     id="namedview332"
     pagecolor="#ffffff"
     bordercolor="#666666"
     borderopacity="1.0"
     inkscape:showpageshadow="2"
     inkscape:pageopacity="1.0"
     inkscape:pagecheckerboard="0"
     inkscape:deskcolor="#d1d1d1"
     inkscape:document-units="in"
     showgrid="false"
     inkscape:zoom="0.32346812"
     inkscape:cx="1235.0522"
     inkscape:cy="1539.5644"
     inkscape:window-width="2011"
     inkscape:window-height="1230"
     inkscape:window-x="2929"
     inkscape:window-y="63"
     inkscape:window-maximized="0"
     inkscape:current-layer="layer1"
     inkscape:pageshadow="0" /><defs
     id="defs327" /><g
     inkscape:label="Layer 1"
     inkscape:groupmode="layer"
     id="layer1"><g
       style="shape-rendering:crispEdges"
       id="g1"
       transform="matrix(1.312336,0,0,1.312336,2.5109466,3.1517841)"><rect
         x="0"
         y="0"
         width="6"
         height="6"
         fill="#000000"
         id="rect1" /><rect
         width="1"
         height="1"
         x="2"
         y="1"
         fill="#ffffff"
         id="rect2" /><rect
         width="1"
         height="1.5"
         x="2"
         y="1"
         fill="#ffffff"
         id="rect3" /><rect
         width="1"
         height="1"
         x="4"
         y="1"
         fill="#ffffff"
         id="rect4" /><rect
         width="1"
         height="1"
         x="2"
         y="2"
         fill="#ffffff"
         id="rect5" /><rect
         width="1"
         height="1"
         x="1"
         y="3"
         fill="#ffffff"
         id="rect6" /><rect
         width="1"
         height="1.5"
         x="1"
         y="3"
         fill="#ffffff"
         id="rect7" /><rect
         width="1"
         height="1"
         x="4"
         y="3"
         fill="#ffffff"
         id="rect8" /><rect
         width="1.5"
         height="1"
         x="1"
         y="4"
         fill="#ffffff"
         id="rect9" /><rect
         width="1.5"
         height="1"
         x="2"
         y="4"
         fill="#ffffff"
         id="rect10" /><rect
         width="1"
         height="1"
         x="3"
         y="4"
         fill="#ffffff"
         id="rect11" /></g><g
       style="shape-rendering:crispEdges"
       id="g2"
       transform="matrix(1.312336,0,0,1.312336,13.408462,3.1711052)"><rect
         x="0"
         y="0"
         width="6"
         height="6"
         fill="#000000"
         id="rect1-3" /><rect
         width="1.5"
         height="1"
         x="2"
         y="1"
         fill="#ffffff"
         id="rect2-6" /><rect
         width="1.5"
         height="1"
         x="3"
         y="1"
         fill="#ffffff"
         id="rect3-7" /><rect
         width="1"
         height="1"
         x="4"
         y="1"
         fill="#ffffff"
         id="rect4-5" /><rect
         width="1"
         height="1.5"
         x="4"
         y="1"
         fill="#ffffff"
         id="rect5-3" /><rect
         width="1"
         height="1"
         x="1"
         y="2"
         fill="#ffffff"
         id="rect6-5" /><rect
         width="1"
         height="1.5"
         x="1"
         y="2"
         fill="#ffffff"
         id="rect7-6" /><rect
         width="1"
         height="1"
         x="4"
         y="2"
         fill="#ffffff"
         id="rect8-2" /><rect
         width="1.5"
         height="1"
         x="1"
         y="3"
         fill="#ffffff"
         id="rect9-9" /><rect
         width="1"
         height="1.5"
         x="1"
         y="3"
         fill="#ffffff"
         id="rect10-1" /><rect
         width="1"
         height="1"
         x="2"
         y="3"
         fill="#ffffff"
         id="rect11-2" /><rect
         width="1"
         height="1.5"
         x="2"
         y="3"
         fill="#ffffff"
         id="rect12" /><rect
         width="1.5"
         height="1"
         x="1"
         y="4"
         fill="#ffffff"
         id="rect13" /><rect
         width="1"
         height="1"
         x="2"
         y="4"
         fill="#ffffff"
         id="rect14" /><rect
         width="1"
         height="1"
         x="4"
         y="4"
         fill="#ffffff"
         id="rect15" /></g><g
       style="shape-rendering:crispEdges"
       id="g3"
       transform="matrix(1.312336,0,0,1.312336,2.3177282,16.30996)"><rect
         x="0"
         y="0"
         width="6"
         height="6"
         fill="#000000"
         id="rect1-7" /><rect
         width="1"
         height="1"
         x="1"
         y="1"
         fill="#ffffff"
         id="rect2-0" /><rect
         width="1"
         height="1.5"
         x="1"
         y="1"
         fill="#ffffff"
         id="rect3-9" /><rect
         width="1"
         height="1"
         x="4"
         y="1"
         fill="#ffffff"
         id="rect4-3" /><rect
         width="1.5"
         height="1"
         x="1"
         y="2"
         fill="#ffffff"
         id="rect5-6" /><rect
         width="1.5"
         height="1"
         x="2"
         y="2"
         fill="#ffffff"
         id="rect6-0" /><rect
         width="1"
         height="1"
         x="3"
         y="2"
         fill="#ffffff"
         id="rect7-62" /><rect
         width="1"
         height="1.5"
         x="3"
         y="2"
         fill="#ffffff"
         id="rect8-6" /><rect
         width="1"
         height="1"
         x="3"
         y="3"
         fill="#ffffff"
         id="rect9-1" /><rect
         width="1"
         height="1.5"
         x="3"
         y="3"
         fill="#ffffff"
         id="rect10-8" /><rect
         width="1.5"
         height="1"
         x="1"
         y="4"
         fill="#ffffff"
         id="rect11-7" /><rect
         width="1.5"
         height="1"
         x="2"
         y="4"
         fill="#ffffff"
         id="rect12-9" /><rect
         width="1"
         height="1"
         x="3"
         y="4"
         fill="#ffffff"
         id="rect13-2" /></g><g
       style="shape-rendering:crispEdges"
       id="g4"
       transform="matrix(1.312336,0,0,1.312336,13.427787,16.309958)"><rect
         x="0"
         y="0"
         width="6"
         height="6"
         fill="#000000"
         id="rect1-0" /><rect
         width="1.5"
         height="1"
         x="1"
         y="1"
         fill="#ffffff"
         id="rect2-2" /><rect
         width="1"
         height="1"
         x="2"
         y="1"
         fill="#ffffff"
         id="rect3-3" /><rect
         width="1"
         height="1.5"
         x="2"
         y="1"
         fill="#ffffff"
         id="rect4-7" /><rect
         width="1"
         height="1"
         x="2"
         y="2"
         fill="#ffffff"
         id="rect5-5" /><rect
         width="1"
         height="1.5"
         x="2"
         y="2"
         fill="#ffffff"
         id="rect6-9" /><rect
         width="1.5"
         height="1"
         x="1"
         y="3"
         fill="#ffffff"
         id="rect7-2" /><rect
         width="1.5"
         height="1"
         x="2"
         y="3"
         fill="#ffffff"
         id="rect8-28" /><rect
         width="1.5"
         height="1"
         x="3"
         y="3"
         fill="#ffffff"
         id="rect9-97" /><rect
         width="1"
         height="1.5"
         x="3"
         y="3"
         fill="#ffffff"
         id="rect10-3" /><rect
         width="1"
         height="1"
         x="4"
         y="3"
         fill="#ffffff"
         id="rect11-6" /><rect
         width="1"
         height="1"
         x="3"
         y="4"
         fill="#ffffff"
         id="rect12-1" /></g></g></svg>
