<?xml version="1.0" encoding="UTF-8" standalone="no"?>
<!-- Created with Inkscape (http://www.inkscape.org/) -->

<svg
   width="24in"
   height="30in"
   viewBox="0 0 24 30"
   version="1.1"
   id="SVGRoot"
   sodipodi:docname="Markers0Through3.svg"
   xml:space="preserve"
   inkscape:version="1.2.2 (b0a8486541, 2022-12-01)"
   xmlns:inkscape="http://www.inkscape.org/namespaces/inkscape"
   xmlns:sodipodi="http://sodipodi.sourceforge.net/DTD/sodipodi-0.dtd"
   xmlns="http://www.w3.org/2000/svg"
   xmlns:svg="http://www.w3.org/2000/svg"><sodipodi:namedview
     id="namedview332"
     pagecolor="#ffffff"
     bordercolor="#666666"
     borderopacity="1.0"
     inkscape:showpageshadow="2"
     inkscape:pageopacity="1.0"
     inkscape:pagecheckerboard="0"
     inkscape:deskcolor="#d1d1d1"
     inkscape:document-units="in"
     showgrid="false"
     inkscape:zoom="0.32346812"
     inkscape:cx="1235.0522"
     inkscape:cy="1538.0186"
     inkscape:window-width="2011"
     inkscape:window-height="1230"
     inkscape:window-x="2929"
     inkscape:window-y="63"
     inkscape:window-maximized="0"
     inkscape:current-layer="layer1"
     inkscape:pageshadow="0" /><defs
     id="defs327" /><g
     inkscape:label="Layer 1"
     inkscape:groupmode="layer"
     id="layer1"><g
       style="shape-rendering:crispEdges"
       id="g384"
       transform="matrix(1.312336,0,0,1.312336,2.1728064,2.0182288)"><rect
         x="0"
         y="0"
         width="6"
         height="6"
         fill="#000000"
         id="rect342" /><rect
         width="1"
         height="1"
         x="1"
         y="1"
         fill="#ffffff"
         id="rect344" /><rect
         width="1.5"
         height="1"
         x="3"
         y="1"
         fill="#ffffff"
         id="rect346" /><rect
         width="1"
         height="1"
         x="4"
         y="1"
         fill="#ffffff"
         id="rect348" /><rect
         width="1"
         height="1.5"
         x="4"
         y="1"
         fill="#ffffff"
         id="rect350" /><rect
         width="1"
         height="1"
         x="2"
         y="2"
         fill="#ffffff"
         id="rect352" /><rect
         width="1"
         height="1"
         x="4"
         y="2"
         fill="#ffffff"
         id="rect354" /><rect
         width="1"
         height="1.5"
         x="4"
         y="2"
         fill="#ffffff"
         id="rect356" /><rect
         width="1.5"
         height="1"
         x="3"
         y="3"
         fill="#ffffff"
         id="rect358" /><rect
         width="1"
         height="1.5"
         x="3"
         y="3"
         fill="#ffffff"
         id="rect360" /><rect
         width="1"
         height="1"
         x="4"
         y="3"
         fill="#ffffff"
         id="rect362" /><rect
         width="1"
         height="1"
         x="3"
         y="4"
         fill="#ffffff"
         id="rect364" /></g><g
       style="shape-rendering:crispEdges"
       id="g611"
       transform="matrix(1.312336,0,0,1.312336,13.379475,2.0375599)"><rect
         x="0"
         y="0"
         width="6"
         height="6"
         fill="#000000"
         id="rect569" /><rect
         width="1.5"
         height="1"
         x="3"
         y="1"
         fill="#ffffff"
         id="rect571" /><rect
         width="1"
         height="1.5"
         x="3"
         y="1"
         fill="#ffffff"
         id="rect573" /><rect
         width="1"
         height="1"
         x="4"
         y="1"
         fill="#ffffff"
         id="rect575" /><rect
         width="1"
         height="1.5"
         x="4"
         y="1"
         fill="#ffffff"
         id="rect577" /><rect
         width="1.5"
         height="1"
         x="3"
         y="2"
         fill="#ffffff"
         id="rect579" /><rect
         width="1"
         height="1.5"
         x="3"
         y="2"
         fill="#ffffff"
         id="rect581" /><rect
         width="1"
         height="1"
         x="4"
         y="2"
         fill="#ffffff"
         id="rect583" /><rect
         width="1"
         height="1"
         x="3"
         y="3"
         fill="#ffffff"
         id="rect585" /><rect
         width="1.5"
         height="1"
         x="1"
         y="4"
         fill="#ffffff"
         id="rect587" /><rect
         width="1"
         height="1"
         x="2"
         y="4"
         fill="#ffffff"
         id="rect589" /><rect
         width="1"
         height="1"
         x="4"
         y="4"
         fill="#ffffff"
         id="rect591" /></g><g
       style="shape-rendering:crispEdges"
       id="g652"
       transform="matrix(1.312336,0,0,1.312336,2.0826439,12.986603)"><rect
         x="0"
         y="0"
         width="6"
         height="6"
         fill="#000000"
         id="rect613" /><rect
         width="1"
         height="1"
         x="1"
         y="1"
         fill="#ffffff"
         id="rect615" /><rect
         width="1"
         height="1.5"
         x="1"
         y="1"
         fill="#ffffff"
         id="rect617" /><rect
         width="1"
         height="1"
         x="4"
         y="1"
         fill="#ffffff"
         id="rect619" /><rect
         width="1"
         height="1.5"
         x="4"
         y="1"
         fill="#ffffff"
         id="rect621" /><rect
         width="1"
         height="1"
         x="1"
         y="2"
         fill="#ffffff"
         id="rect623" /><rect
         width="1"
         height="1"
         x="4"
         y="2"
         fill="#ffffff"
         id="rect625" /><rect
         width="1"
         height="1"
         x="2"
         y="3"
         fill="#ffffff"
         id="rect627" /><rect
         width="1"
         height="1.5"
         x="2"
         y="3"
         fill="#ffffff"
         id="rect629" /><rect
         width="1.5"
         height="1"
         x="2"
         y="4"
         fill="#ffffff"
         id="rect631" /><rect
         width="1"
         height="1"
         x="3"
         y="4"
         fill="#ffffff"
         id="rect633" /></g><g
       style="shape-rendering:crispEdges"
       id="g693"
       transform="matrix(1.312336,0,0,1.312336,13.263548,12.947959)"><rect
         x="0"
         y="0"
         width="6"
         height="6"
         fill="#000000"
         id="rect654" /><rect
         width="1"
         height="1"
         x="2"
         y="1"
         fill="#ffffff"
         id="rect656" /><rect
         width="1"
         height="1.5"
         x="2"
         y="1"
         fill="#ffffff"
         id="rect658" /><rect
         width="1"
         height="1"
         x="4"
         y="1"
         fill="#ffffff"
         id="rect660" /><rect
         width="1"
         height="1"
         x="2"
         y="2"
         fill="#ffffff"
         id="rect662" /><rect
         width="1"
         height="1"
         x="1"
         y="3"
         fill="#ffffff"
         id="rect664" /><rect
         width="1"
         height="1.5"
         x="1"
         y="3"
         fill="#ffffff"
         id="rect666" /><rect
         width="1"
         height="1"
         x="4"
         y="3"
         fill="#ffffff"
         id="rect668" /><rect
         width="1.5"
         height="1"
         x="1"
         y="4"
         fill="#ffffff"
         id="rect670" /><rect
         width="1.5"
         height="1"
         x="2"
         y="4"
         fill="#ffffff"
         id="rect672" /><rect
         width="1"
         height="1"
         x="3"
         y="4"
         fill="#ffffff"
         id="rect674" /></g></g></svg>
