# WaveFront *.obj file (generated by CINEMA 4D)

mtllib table.mtl

v -50 25 -84.90884399414062
v -50 35 -84.90884399414062
v 50 25 -84.90884399414062
v 50 35 -84.90884399414062
v 50 25 -94.90884399414062
v 50 35 -94.90884399414062
v -50 25 -94.90884399414062
v -50 35 -94.90884399414062
# 8 vertices

vn 0 0 1
vn 1 0 0
vn 0 0 -1
vn -1 0 0
vn 0 1 0
vn 0 -1 0
# 6 normals

o Stütze
usemtl Mat.1
f 3//1 4//1 2//1 1//1
f 5//2 6//2 4//2 3//2
f 7//3 8//3 6//3 5//3
f 1//4 2//4 8//4 7//4
f 4//5 6//5 8//5 2//5
f 5//6 3//6 1//6 7//6

v -50 25 94.41403961181641
v -50 35 94.41403961181641
v 50 25 94.41403961181641
v 50 35 94.41403961181641
v 50 25 84.41403961181641
v 50 35 84.41403961181641
v -50 25 84.41403961181641
v -50 35 84.41403961181641
# 8 vertices

# 0 normal

o Stütze_1
usemtl Mat.1
f 11//1 12//1 10//1 9//1
f 13//2 14//2 12//2 11//2
f 15//3 16//3 14//3 13//3
f 9//4 10//4 16//4 15//4
f 12//5 14//5 16//5 10//5
f 13//6 11//6 9//6 15//6

v -5 25 90
v -5 35 90
v 5 25 90
v 5 35 90
v 5 25 -90
v 5 35 -90
v -5 25 -90
v -5 35 -90
# 8 vertices

# 0 normal

o Stütze_2
usemtl Mat.1
f 19//1 20//1 18//1 17//1
f 21//2 22//2 20//2 19//2
f 23//3 24//3 22//3 21//3
f 17//4 18//4 24//4 23//4

usemtl Mat
f 20//5 22//5 24//5 18//5
f 21//6 19//6 17//6 23//6

v -70 47.51758575439453 110
v -70 52.51758575439453 110
v 70 47.51758575439453 110
v 70 52.51758575439453 110
v 70 47.51758575439453 -110
v 70 52.51758575439453 -110
v -70 47.51758575439453 -110
v -70 52.51758575439453 -110
# 8 vertices

# 0 normal

o Platte
usemtl Mat
f 27//1 28//1 26//1 25//1
f 31//3 32//3 30//3 29//3
f 28//5 30//5 32//5 26//5
f 29//6 27//6 25//6 31//6

usemtl Mat.1
f 29//2 30//2 28//2 27//2
f 25//4 26//4 32//4 31//4

v -60 -50 95
v -60 50 95
v -50 -50 95
v -50 50 95
v -50 -50 85
v -50 50 85
v -60 -50 85
v -60 50 85
# 8 vertices

# 0 normal

o Bein
usemtl Mat
f 35//1 36//1 34//1 33//1
f 37//2 38//2 36//2 35//2
f 39//3 40//3 38//3 37//3
f 33//4 34//4 40//4 39//4
f 36//5 38//5 40//5 34//5
f 37//6 35//6 33//6 39//6

v 50 -50 95
v 50 50 95
v 60 -50 95
v 60 50 95
v 60 -50 85
v 60 50 85
v 50 -50 85
v 50 50 85
# 8 vertices

# 0 normal

o Bein_1
usemtl Mat
f 43//1 44//1 42//1 41//1
f 45//2 46//2 44//2 43//2
f 47//3 48//3 46//3 45//3
f 41//4 42//4 48//4 47//4
f 44//5 46//5 48//5 42//5
f 45//6 43//6 41//6 47//6

v -60 -50 -85
v -60 50 -85
v -50 -50 -85
v -50 50 -85
v -50 -50 -95
v -50 50 -95
v -60 -50 -95
v -60 50 -95
# 8 vertices

# 0 normal

o Bein_2
usemtl Mat
f 51//1 52//1 50//1 49//1
f 53//2 54//2 52//2 51//2
f 55//3 56//3 54//3 53//3
f 49//4 50//4 56//4 55//4
f 52//5 54//5 56//5 50//5
f 53//6 51//6 49//6 55//6

v 50 -50 -85
v 50 50 -85
v 60 -50 -85
v 60 50 -85
v 60 -50 -95
v 60 50 -95
v 50 -50 -95
v 50 50 -95
# 8 vertices

# 0 normal

o Bein_3
usemtl Mat
f 59//1 60//1 58//1 57//1
f 61//2 62//2 60//2 59//2
f 63//3 64//3 62//3 61//3
f 57//4 58//4 64//4 63//4
f 60//5 62//5 64//5 58//5
f 61//6 59//6 57//6 63//6

