mtllib HalfEllipsoid.mtl
g 1
usemtl 1
v 0.107485615 0.48831016 0.009999977
v 0.05405993 0.4970689 0.009999977
v 0.0000005 0.5 0.009999977
v 0.0 0.0 0.009999977
v -0 -0.5 0.009999977
v 0.05405949 -0.497069 0.009999977
v 0.107485205 -0.4883103 0.009999977
v 0.15965076 -0.47382662 0.009999977
v 0.20994455 -0.45378774 0.009999977
v 0.25777692 -0.42842862 0.009999977
v 0.3025871 -0.39804655 0.009999977
v 0.34384972 -0.36299777 0.009999977
v 0.381081 -0.32369316 0.009999977
v 0.4138445 -0.28059354 0.009999977
v 0.441756 -0.23420422 0.009999977
v 0.46448836 -0.18506904 0.009999977
v 0.481775 -0.13376415 0.009999977
v 0.49341324 -0.08089102 0.009999977
v 0.49926674 -0.027069502 0.009999977
v 0.49926674 0.02706938 0.009999977
v 0.49341327 0.0808909 0.009999977
v 0.48177502 0.13376406 0.009999977
v 0.46448842 0.18506894 0.009999977
v 0.4417561 0.23420407 0.009999977
v 0.41384462 0.28059334 0.009999977
v 0.38108116 0.32369295 0.009999977
v 0.3438499 0.36299756 0.009999977
v 0.30258733 0.39804634 0.009999977
v 0.25777718 0.4284284 0.009999977
v 0.20994486 0.45378754 0.009999977
v 0.15965113 0.47382644 0.009999977
v 0.0000005 0.5 -0
v 0.05405993 0.4970689 -0
v 0.107485615 0.48831016 -0
v 0.15965113 0.47382644 -0
v 0.20994486 0.45378754 -0
v 0.25777718 0.4284284 -0
v 0.30258733 0.39804634 -0
v 0.3438499 0.36299756 -0
v 0.38108116 0.32369295 -0
v 0.41384462 0.28059334 -0
v 0.4417561 0.23420407 -0
v 0.46448842 0.18506894 -0
v 0.48177502 0.13376406 -0
v 0.49341327 0.0808909 -0
v 0.49926674 0.02706938 -0
v 0.49926674 -0.027069502 -0
v 0.49341324 -0.08089102 -0
v 0.481775 -0.13376415 -0
v 0.46448836 -0.18506904 -0
v 0.441756 -0.23420422 -0
v 0.4138445 -0.28059354 -0
v 0.381081 -0.32369316 -0
v 0.34384972 -0.36299777 -0
v 0.3025871 -0.39804655 -0
v 0.25777692 -0.42842862 -0
v 0.20994455 -0.45378774 -0
v 0.15965076 -0.47382662 -0
v 0.107485205 -0.4883103 -0
v 0.05405949 -0.497069 -0
v -0 -0.5 -0
v 0.0 0.0 -0
vt 0.39251444 0.011689812 0
vt 0.4459401 0.0029310584 0
vt 0.49999958 0.0 0
vt 0.5 0.5 0
vt 0.49999997 1.0 0
vt 0.44594046 0.997069 0
vt 0.39251477 0.9883103 0
vt 0.3403492 0.9738266 0
vt 0.29005542 0.9537877 0
vt 0.24222302 0.9284286 0
vt 0.19741285 0.8980465 0
vt 0.15615022 0.8629977 0
vt 0.118918955 0.8236931 0
vt 0.086155474 0.7805935 0
vt 0.05824396 0.7342042 0
vt 0.035511613 0.685069 0
vt 0.018224984 0.63376415 0
vt 0.0065867305 0.58089095 0
vt 0.0007333 0.52706945 0
vt 0.0007333 0.47293058 0
vt 0.0065867305 0.41910905 0
vt 0.018224984 0.3662359 0
vt 0.035511583 0.31493104 0
vt 0.0582439 0.2657959 0
vt 0.086155385 0.2194066 0
vt 0.118918836 0.176307 0
vt 0.15615013 0.13700238 0
vt 0.1974127 0.101953626 0
vt 0.24222285 0.07157156 0
vt 0.29005516 0.046212435 0
vt 0.3403489 0.026173532 0
vn 0.0 0.0 1.0
vn 0.0 0.0 -1.0
vn 0.10811896 -0.99413794 0.0
vn 0.2149703 -0.9766206 0.0
vn 0.31930143 -0.9476532 0.0
vn 0.41988912 -0.9075755 0.0
vn 0.515554 -0.8568572 0.0
vn 0.60517424 -0.7960931 0.0
vn 0.68769944 -0.72599554 0.0
vn 0.762162 -0.64738625 0.0
vn 0.827689 -0.561187 0.0
vn 0.88351214 -0.4684083 0.0
vn 0.9289767 -0.3701381 0.0
vn 0.96355003 -0.26752833 0.0
vn 0.9868265 -0.16178228 0.0
vn 0.9985334 -0.054139238 0.0
vn 0.9985334 0.05413915 0.0
vn 0.9868265 0.16178218 0.0
vn 0.96355015 0.26752806 0.0
vn 0.92897683 0.37013778 0.0
vn 0.88351226 0.46840823 0.0
vn 0.8276892 0.5611868 0.0
vn 0.76216245 0.6473859 0.0
vn 0.68769985 0.72599506 0.0
vn 0.6051747 0.7960927 0.0
vn 0.5155543 0.8568569 0.0
vn 0.41988963 0.90757513 0.0
vn 0.31930223 0.94765294 0.0
vn 0.21497132 0.9766204 0.0
vn 0.108119935 0.9941378 0.0
vn 0.05413967 0.99853337 0.0
vn -1.0 0.0000009 0.0
vn -1.0 0.0000005 0.0
vn 0.054138992 -0.99853337 0.0
vn -1.0 0 0.0
f 1/1/1 2/2/1 3/3/1
f 4/4/1 5/5/1 6/6/1
f 3/3/1 4/4/1 6/6/1
f 6/6/1 7/7/1 8/8/1
f 8/8/1 9/9/1 10/10/1
f 6/6/1 8/8/1 10/10/1
f 3/3/1 6/6/1 10/10/1
f 10/10/1 11/11/1 12/12/1
f 12/12/1 13/13/1 14/14/1
f 10/10/1 12/12/1 14/14/1
f 14/14/1 15/15/1 16/16/1
f 16/16/1 17/17/1 18/18/1
f 14/14/1 16/16/1 18/18/1
f 10/10/1 14/14/1 18/18/1
f 3/3/1 10/10/1 18/18/1
f 18/18/1 19/19/1 20/20/1
f 20/20/1 21/21/1 22/22/1
f 18/18/1 20/20/1 22/22/1
f 22/22/1 23/23/1 24/24/1
f 24/24/1 25/25/1 26/26/1
f 22/22/1 24/24/1 26/26/1
f 18/18/1 22/22/1 26/26/1
f 3/3/1 18/18/1 26/26/1
f 26/26/1 27/27/1 28/28/1
f 28/28/1 29/29/1 30/30/1
f 26/26/1 28/28/1 30/30/1
f 3/3/1 26/26/1 30/30/1
f 1/1/1 3/3/1 30/30/1
f 1/1/1 30/30/1 31/31/1
f 32/3/2 33/2/2 34/1/2
f 34/1/2 35/31/2 36/30/2
f 32/3/2 34/1/2 36/30/2
f 36/30/2 37/29/2 38/28/2
f 38/28/2 39/27/2 40/26/2
f 36/30/2 38/28/2 40/26/2
f 32/3/2 36/30/2 40/26/2
f 40/26/2 41/25/2 42/24/2
f 42/24/2 43/23/2 44/22/2
f 40/26/2 42/24/2 44/22/2
f 44/22/2 45/21/2 46/20/2
f 46/20/2 47/19/2 48/18/2
f 44/22/2 46/20/2 48/18/2
f 40/26/2 44/22/2 48/18/2
f 32/3/2 40/26/2 48/18/2
f 48/18/2 49/17/2 50/16/2
f 50/16/2 51/15/2 52/14/2
f 48/18/2 50/16/2 52/14/2
f 52/14/2 53/13/2 54/12/2
f 54/12/2 55/11/2 56/10/2
f 52/14/2 54/12/2 56/10/2
f 48/18/2 52/14/2 56/10/2
f 32/3/2 48/18/2 56/10/2
f 56/10/2 57/9/2 58/8/2
f 58/8/2 59/7/2 60/6/2
f 56/10/2 58/8/2 60/6/2
f 32/3/2 56/10/2 60/6/2
f 60/6/2 61/5/2 62/4/2
f 32/3/2 60/6/2 62/4/2
f 60/6/3 59/7/4 7/7/4
f 7/7/4 6/6/3 60/6/3
f 59/7/4 58/8/5 8/8/5
f 8/8/5 7/7/4 59/7/4
f 58/8/5 57/9/6 9/9/6
f 9/9/6 8/8/5 58/8/5
f 57/9/6 56/10/7 10/10/7
f 10/10/7 9/9/6 57/9/6
f 56/10/7 55/11/8 11/11/8
f 11/11/8 10/10/7 56/10/7
f 55/11/8 54/12/9 12/12/9
f 12/12/9 11/11/8 55/11/8
f 54/12/9 53/13/10 13/13/10
f 13/13/10 12/12/9 54/12/9
f 53/13/10 52/14/11 14/14/11
f 14/14/11 13/13/10 53/13/10
f 52/14/11 51/15/12 15/15/12
f 15/15/12 14/14/11 52/14/11
f 51/15/12 50/16/13 16/16/13
f 16/16/13 15/15/12 51/15/12
f 50/16/13 49/17/14 17/17/14
f 17/17/14 16/16/13 50/16/13
f 49/17/14 48/18/15 18/18/15
f 18/18/15 17/17/14 49/17/14
f 48/18/15 47/19/16 19/19/16
f 19/19/16 18/18/15 48/18/15
f 47/19/16 46/20/17 20/20/17
f 20/20/17 19/19/16 47/19/16
f 46/20/17 45/21/18 21/21/18
f 21/21/18 20/20/17 46/20/17
f 45/21/18 44/22/19 22/22/19
f 22/22/19 21/21/18 45/21/18
f 44/22/19 43/23/20 23/23/20
f 23/23/20 22/22/19 44/22/19
f 43/23/20 42/24/21 24/24/21
f 24/24/21 23/23/20 43/23/20
f 42/24/21 41/25/22 25/25/22
f 25/25/22 24/24/21 42/24/21
f 41/25/22 40/26/23 26/26/23
f 26/26/23 25/25/22 41/25/22
f 40/26/23 39/27/24 27/27/24
f 27/27/24 26/26/23 40/26/23
f 39/27/24 38/28/25 28/28/25
f 28/28/25 27/27/24 39/27/24
f 38/28/25 37/29/26 29/29/26
f 29/29/26 28/28/25 38/28/25
f 37/29/26 36/30/27 30/30/27
f 30/30/27 29/29/26 37/29/26
f 36/30/27 35/31/28 31/31/28
f 31/31/28 30/30/27 36/30/27
f 35/31/28 34/1/29 1/1/29
f 1/1/29 31/31/28 35/31/28
f 34/1/29 33/2/30 2/2/30
f 2/2/30 1/1/29 34/1/29
f 33/2/30 32/3/31 3/3/31
f 3/3/31 2/2/30 33/2/30
f 32/3/32 62/4/33 4/4/33
f 4/4/33 3/3/32 32/3/32
f 61/5/34 60/6/3 6/6/3
f 6/6/3 5/5/34 61/5/34
f 62/4/33 61/5/35 5/5/35
f 5/5/35 4/4/33 62/4/33
