mtllib LeftFootPathIconRing.mtl
g 1
usemtl 1
v 0.08227554 -0.060000002 1.0
v 0.08227554 -0.060000002 0.0
v 0.10725215 -0.060000002 0.0
v 0.107252136 -0.060000002 1.0
v 0.16506234 -0.019314738 0.0
v 0.16506234 0.019314738 0.0
v 0.16506234 0.019314738 1.0
v 0.16506234 -0.019314738 1.0
v 0.10725215 0.060000002 1.0
v 0.14697829 0.04529309 1.0
v 0.14697829 0.045293085 0.0
v 0.107252136 0.060000002 0.0
v -0.08993766 0.02617855 0.0
v -0.08993766 -0.02617855 0.0
v -0.08993766 -0.02617855 1.0
v -0.08993766 0.02617855 1.0
v -0.070913084 -0.05788616 0.0
v -0.056116205 -0.060000002 0.0
v -0.056116205 -0.060000002 1.0
v -0.070913084 -0.05788616 1.0
v -0.056116205 0.060000002 1.0
v -0.056116205 0.060000002 0.0
v -0.070913084 0.05788616 0.0
v -0.070913084 0.05788616 1.0
v -0.08148229 -0.05154464 1.0
v -0.08148229 -0.05154464 0.0
v -0.08782382 -0.040975433 0.0
v -0.08782382 -0.040975433 1.0
v -0.08148229 0.05154464 1.0
v -0.08148229 0.05154464 0.0
v -0.08782382 0.040975433 1.0
v -0.08782382 0.040975433 0.0
v 0.14697829 -0.045293085 1.0
v 0.14697829 -0.04529309 0.0
v -0.01974815 0.060000002 0.77738607
v -0.019748142 0.060000002 0.0
v 0.15489006 -0.041158874 0.0
v 0.15489006 -0.041158874 1.0
v 0.16393206 0.028169699 0.0
v 0.16393206 0.028169699 1.0
v 0.16054133 -0.035451077 1.0
v 0.16054133 -0.035451077 0.0
v 0.16393206 -0.028169699 0.0
v 0.16393206 -0.028169699 1.0
v 0.16054133 0.035451077 1.0
v 0.16054133 0.035451077 0.0
v 0.15489006 0.041158874 1.0
v 0.15489006 0.041158874 0.0
v -0.07604063 -0.034332156 1.0
v -0.07604063 -0.034332156 0.0
v -0.07029505 -0.043187793 0.0
v -0.047312748 0.05027231 0.0
v -0.019748142 0.05027231 0.0
v -0.019748142 0.05027231 1.0
v -0.047312748 0.05027231 1.0
v 0.13669592 0.0379498 0.0
v 0.100703046 0.050272312 1.0
v 0.10070302 0.05027231 0.0
v 0.14386415 0.03448586 1.0
v 0.14386415 0.03448586 0.0
v 0.14898434 0.02970346 0.0
v 0.14898434 0.02970346 1.0
v 0.15205646 0.023602597 0.0
v 0.15205646 0.023602597 1.0
v 0.1530805 0.016183276 0.0
v 0.1530805 0.016183276 1.0
v 0.1530805 -0.016183268 0.0
v 0.1530805 -0.016183268 1.0
v 0.15205646 -0.02360259 1.0
v 0.14898434 -0.029703455 0.0
v 0.14898434 -0.029703455 1.0
v 0.14386415 -0.034485854 0.0
v 0.14386415 -0.034485854 1.0
v 0.13669592 -0.037949797 0.0
v 0.13669592 -0.037949793 1.0
v 0.100703046 -0.050272305 0.0
v 0.10070302 -0.050272305 1.0
v -0.047312748 -0.050272305 0.0
v -0.019748142 -0.050272305 0.1862275
v -0.019748142 -0.050272305 0.0
v -0.0607191 -0.048501175 0.0
v -0.0607191 -0.048501175 1.0
v -0.047312748 -0.050272305 1.0
v -0.07029505 -0.043187793 1.0
v -0.07795582 -0.021934265 0.0
v -0.07795582 -0.021934265 1.0
v -0.07795582 0.021934273 0.0
v -0.07795582 0.021934273 1.0
v -0.07604063 0.034332167 1.0
v -0.07604063 0.034332167 0.0
v -0.07029505 0.0431878 0.0
v -0.07029505 0.0431878 1.0
v -0.0607191 0.048501186 0.0
v -0.0607191 0.048501186 1.0
v 0.08227554 0.060000002 0.15288521
v 0.08227554 0.060000002 1.0
v 0.13669592 0.037949804 1.0
v -0.019748142 0.057744045 1.0
v -0.019748142 0.060000002 1.0
v -0.01974815 0.05027231 1.0
v 0.08227554 -0.05141538 1.0
v -0.019748142 -0.05774404 1.0
v -0.01974815 -0.050272305 1.0
v 0.08227554 0.051415388 0.0
v 0.08227554 0.060000002 0.0
v -0.019748142 0.057744045 0.0
v -0.01974815 0.05027231 0.0
v 0.15205646 -0.02360259 0.0
v -0.019748142 -0.057744045 0.0
v -0.019748142 -0.060000002 0.0
v -0.01974815 -0.050272305 0.0
v 0.06816086 -0.01809737 0.8755032
v 0.06816086 -0.01809737 1.0
v -0.019748142 -0.060000002 1.0
v 0.03756233 -0.060000002 0.0
v 0.037562333 -0.060000002 1.0
v 0.060601894 0.060000002 0.2855525
v 0.060601894 0.060000002 0.0
v 0.037562333 0.060000002 0.0
v 0.037562322 0.060000002 0.42658088
v 0.060601894 0.05027231 0.0
v 0.060601894 0.050272316 1.0
v 0.037562333 0.050272312 1.0
v 0.037562333 0.05027231 0.0
v 0.02344766 -0.01809737 0.57341915
v 0.046487223 -0.01809737 0.72907525
v 0.046487223 -0.018097376 0.0
v 0.02344766 -0.018097376 0.0
v 0.037562333 0.060000002 0.42658082
v -0.019748142 0.060000002 0.77738607
v 0.03756233 0.060000002 1.0
v 0.037562326 0.05418901 1.0
v 0.060601894 0.052759837 1.0
v 0.060601894 0.060000002 1.0
v 0.037562333 0.05418901 1.0
v 0.037562337 0.05027231 1.0
v 0.060601894 0.05027231 1.0
v 0.037562337 -0.054189 1.0
v -0.01974815 -0.060000002 1.0
v 0.037562322 -0.060000002 1.0
v 0.046487223 -0.01809737 1.0
v 0.023447666 -0.01809737 1.0
v 0.037562326 -0.054189 1.0
v 0.060601894 -0.052759822 1.0
v 0.037562337 0.054189004 0.0
v -0.01974815 0.060000002 0.0
v 0.037562322 0.060000002 0.0
v 0.060601898 0.05027231 0.0
v 0.03756234 0.05027231 0.0
v 0.037562326 0.054189004 0.0
v 0.060601894 0.052759837 0.0
v 0.037562326 -0.054189004 0.0
v 0.060601894 -0.052759837 0.0
v 0.060601894 -0.060000002 0.0
v 0.037562333 -0.054189004 0.0
v 0.023447664 -0.01809737 0.0
v 0.046487223 -0.01809737 0.0
v 0.023447666 -0.01809737 0.5734193
v -0.01974815 -0.050272305 0.18622749
v -0.019748142 -0.050272305 1.0
v 0.02344766 -0.01809737 1.0
v 0.060601894 -0.060000002 1.0
v 0.046487223 -0.01809737 0.7290753
v 0.08227554 0.050272316 1.0
v 0.08227554 0.05027231 0.0
v 0.06816086 -0.018097376 0.0
v 0.08227554 0.0514154 1.0
v 0.08227554 0.050272312 1.0
v 0.08227554 -0.051415384 1.0
v 0.08227554 0.05141539 0.0
v 0.08227554 -0.051415388 0.0
v 0.068160854 -0.01809737 0.0
v 0.08227554 -0.05141539 0.0
vt 0.6337831 1.0 0
vt 0.63378304 0.0 0
vt 0.7242294 0.0 0
vt 0.7242294 1.0 0
vt 0.2497977 0.0 0
vt 0.7502023 0.0 0
vt 0.7502023 1.0 0
vt 0.2497977 1.0 0
vt 0.2757706 1.0 0
vt 0.08626592 1.0 0
vt 0.086265914 0.0 0
vt 0.27577066 0.0 0
vt 0.28184542 0.0000001 0
vt 0.71815455 0.0000001 0
vt 0.71815455 1.0 0
vt 0.28184542 1.0 0
vt 0.85809827 0.0 0
vt 0.9047461 0.0 0
vt 0.9047461 1.0 0
vt 0.85809827 1.0 0
vt 0.095253855 1.0 0
vt 0.095253885 -0 0
vt 0.14190176 -0 0
vt 0.14190173 1.0 0
vt 0.81145036 1.0 0
vt 0.81145036 0.0 0
vt 0.76480246 0.0 0
vt 0.76480246 1.0 0
vt 0.71815455 0.0 0
vt 0.18854962 1.0 0
vt 0.18854965 -0 0
vt 0.23519751 1.0 0
vt 0.18854964 1.0 0
vt 0.23519753 -0 0
vt 0.23519753 1.0 0
vt 0.28184542 0.0 0
vt 0.91373414 1.0000001 0
vt 0.72422934 1.0 0
vt 0.9137341 0.0 0
vt 0.7356694 0.777386 0
vt 0.7356693 0.0 0
vt 0.86736685 0.0 0
vt 0.8673669 0.9999999 0
vt 0.2770636 1.0 0
vt 0.27024728 0.0 0
vt 0.2702471 1.0 0
vt 0.04033586 1.0 0
vt 0.051818438 0.0 0
vt 0.051818352 1.0 0
vt 0.26343066 1.0 0
vt 0.2702472 1.0 0
vt 0.26343074 0.0 0
vt 0.2634307 1.0 0
vt 0.2566142 0.0 0
vt 0.25661418 1.0 0
vt 0.2566142 1.0 0
vt 0.06330088 1.0 0
vt 0.051818386 1.0 0
vt 0.06330093 0.0 0
vt 0.0747834 1.0 0
vt 0.06330091 1.0 0
vt 0.07478342 0.0 0
vt 0.07478343 1.0 0
vt 0.033158284 0.070461355 0
vt 0.05028552 0.21389869 0
vt 0.008289571 0.15853804 0
vt 0.9592235 0.070461355 0
vt 0.939518 0.2138987 0
vt 0.9187119 0.14010173 0
vt 0.86736685 0.06554675 0
vt 0.75719535 0.065546766 0
vt 0.7571955 0.8817545 0
vt 0.8673669 0.8817545 0
vt 0.086265914 0.06554681 0
vt 0.2757706 0.88175464 0
vt 0.27577066 0.06554687 0
vt 0.07478343 0.88175464 0
vt 0.086265914 0.06554682 0
vt 0.07478342 0.06554682 0
vt 0.06330093 0.06554682 0
vt 0.07478341 0.88175464 0
vt 0.063300885 0.88175464 0
vt 0.051818434 0.06554682 0
vt 0.051818393 0.88175464 0
vt 0.040335942 0.06554682 0
vt 0.04033587 0.88175464 0
vt 0.051818363 0.88175464 0
vt 0.7502023 0.8817546 0
vt 0.24979772 0.06554682 0
vt 0.2497977 0.88175464 0
vt 0.2497977 0.06554682 0
vt 0.2566142 0.88175464 0
vt 0.24979769 0.8817544 0
vt 0.25661418 0.88175434 0
vt 0.26343074 0.06554682 0
vt 0.2634307 0.88175464 0
vt 0.27024728 0.06554682 0
vt 0.27024722 0.88175464 0
vt 0.26343068 0.88175464 0
vt 0.2770638 0.06554682 0
vt 0.2770636 0.88175464 0
vt 0.27024713 0.88175464 0
vt 0.9137341 0.88175464 0
vt 0.7242294 0.06554679 0
vt 0.72422934 0.88175464 0
vt 0.13263315 0.065546766 0
vt 0.24280465 0.21754713 0
vt 0.24280463 0.065546766 0
vt 0.85809827 0.06554682 0
vt 0.85809827 0.88175464 0
vt 0.9047461 0.88175416 0
vt 0.9047461 0.06554682 0
vt 0.81145036 0.88175464 0
vt 0.85809827 0.881754 0
vt 0.81145036 0.06554682 0
vt 0.76480246 0.88175464 0
vt 0.76480246 0.06554682 0
vt 0.7648024 0.88175464 0
vt 0.71815455 0.06554682 0
vt 0.71815455 0.88175464 0
vt 0.71815455 0.8817546 0
vt 0.2818454 0.06554682 0
vt 0.28184542 0.8817546 0
vt 0.28184542 0.06554682 0
vt 0.23519751 0.88175464 0
vt 0.28184542 0.88175464 0
vt 0.23519751 0.06554682 0
vt 0.18854965 0.06554681 0
vt 0.18854964 0.88175464 0
vt 0.2351975 0.88175464 0
vt 0.14190172 0.0655468 0
vt 0.1419017 0.88175464 0
vt 0.14190173 0.06554681 0
vt 0.095253825 0.88175464 0
vt 0.366217 0.1528852 0
vt 0.36621702 1.0 0
vt 0.27577063 1.0 0
vt 0.2770638 0.0 0
vt 0.040335946 0.0 0
vt 0.84288067 0.78738225 0
vt 0.8821045 0.8429905 0
vt 0.8525289 0.8774422 0
vt 0.8623585 0.7475287 0
vt 0.9036714 0.7954256 0
vt 0.8161296 0.8162483 0
vt 0.7049954 1.0 0
vt 0.68262136 0.9189359 0
vt 0.107978016 0.9999999 0
vt 0.24124397 0.9812003 0
vt 0.24088238 0.99999994 0
vt 0.14170879 0.91893584 0
vt 0.24244156 0.9189359 0
vt 0.24124396 0.98120034 0
vt 0.093000144 0.9041766 0
vt 0.0542427 0.98238456 0
vt 0.058857173 0.85989827 0
vt 0.016634822 0.92953867 0
vt -0.004845768 0.84146184 0
vt 0.039279774 0.7861013 0
vt -0.010198936 0.71815455 0
vt 0.03426805 0.68278563 0
vt -0.001806967 0.2818454 0
vt 0.041299447 0.31721443 0
vt 0.9172297 0.7347474 0
vt 0.8745633 0.6966882 0
vt 0.9227796 0.6609561 0
vt 0.8794948 0.6348605 0
vt 0.9289711 0.33904386 0
vt 0.8846826 0.3651394 0
vt 0.8821294 0.3033117 0
vt 0.92626 0.26525247 0
vt 0.9150358 0.2045743 0
vt 0.8718804 0.25247124 0
vt 0.8952986 0.15700936 0
vt 0.8539357 0.21261783 0
vt 0.8670483 0.122557566 0
vt 0.828295 0.18375175 0
vt 0.72422934 0.0 0
vt 0.6987369 0.08106415 0
vt 0.6315782 0.07153848 0
vt 0.63295424 0 0
vt 0.15782437 0.08106415 0
vt 0.12721197 0 0
vt 0.25975475 0.018799659 0
vt 0.25855714 0.08106415 0
vt 0.108548 0.09582353 0
vt 0.072799064 0.017615348 0
vt 0.07270173 0.1401017 0
vt 0.10326226 0.8429907 0
vt 0.14318973 0.7873823 0
vt 0.13191271 0.8774424 0
vt 0.12464827 0.7475289 0
vt 0.08279775 0.79542565 0
vt 0.16914771 0.8162484 0
vt 0.27577066 1.0 0
vt 0.2994866 0.9189359 0
vt 0.36621702 0.92846155 0
vt 0.36621696 1.0 0
vt 0.83548737 0.9189359 0
vt 0.8673668 1.0 0
vt 0.73566926 0.98120034 0
vt 0.73566926 0.91893595 0
vt 0.8840351 0.90417653 0
vt 0.92095006 0.9823847 0
vt 0.91871184 0.8598983 0
vt 0.9592236 0.9295387 0
vt 0.98218775 0.841462 0
vt 0.93951803 0.7861014 0
vt 0.98984253 0.7181546 0
vt 0.9464534 0.68278563 0
vt 0.98984253 0.28184542 0
vt 0.94645345 0.31721443 0
vt 0.98218775 0.15853806 0
vt 0.07051897 0.7347475 0
vt 0.11352344 0.69668835 0
vt 0.06642604 0.66095626 0
vt 0.10981512 0.6348607 0
vt 0.066426024 0.33904392 0
vt 0.109815106 0.36513948 0
vt 0.11352341 0.3033118 0
vt 0.07051891 0.2652526 0
vt 0.082797706 0.20457442 0
vt 0.12464821 0.2524713 0
vt 0.103262246 0.15700942 0
vt 0.14318974 0.21261795 0
vt 0.13191266 0.122557625 0
vt 0.16914767 0.18375173 0
vt 0.27577063 0.0 0
vt 0.29948652 0.08106415 0
vt 0.73566926 0.018799646 0
vt 0.73566926 0.0 0
vt 0.8354874 0.08106415 0
vt 0.7356694 0.08106415 0
vt 0.7356693 0.018799644 0
vt 0.884035 0.095823534 0
vt 0.92095 0.017615344 0
vt 0.08626592 0.88175464 0
vt 0.063300915 0.88175464 0
vt 0.7502023 0.06554682 0
vt 0.2566142 0.06554682 0
vt 0.9137341 0.06554687 0
vt 0.7242294 0.88175464 0
vt 0.65057755 0.7801393 0
vt 0.65057755 0.88175464 0
vt 0.23519751 0.06554681 0
vt 0.095253855 0.0655468 0
vt 0.2643307 1.0 0
vt 0.2643307 0.0 0
vt 0.4718657 0.0 0
vt 0.47186577 1.0 0
vt 0.44470245 0.28555247 0
vt 0.44470248 0.0 0
vt 0.5281343 0.0 0
vt 0.52813435 0.42658085 0
vt 0.4360487 0.06554679 0
vt 0.43604878 0.88175464 0
vt 0.52813435 0.88175464 0
vt 0.5281343 0.06554678 0
vt 0.47186577 0.533576 0
vt 0.5639514 0.6606238 0
vt 0.5639514 0.06554675 0
vt 0.47186574 0.06554676 0
vt 0.5281343 0.4265808 0
vt 0.7356694 0.77738607 0
vt 0.7356694 0.9999999 0
vt 0.5281343 0.99999994 0
vt 0.45125058 0.951575 0
vt 0.53567606 0.9396652 0
vt 0.5345156 1.0 0
vt 0.4503192 1.0 0
vt 0.535676 0.93966526 0
vt 0.4512506 0.95157504 0
vt 0.45187837 0.9189359 0
vt 0.5360747 0.9189359 0
vt 0.46862176 0.048425008 0
vt 0.26011634 0 0
vt 0.4695531 0 0
vt 0.55219036 0.08106415 0
vt 0.467994 0.08106415 0
vt 0.46862173 0.048425 0
vt 0.55258906 0.06033478 0
vt 0.5281343 0.95157504 0
vt 0.7356693 0.98120034 0
vt 0.73566926 1.0 0
vt 0.5281343 1.0 0
vt 0.44470245 0.91893595 0
vt 0.5281342 0.91893595 0
vt 0.44470245 0.93966526 0
vt 0.5281343 0.04842499 0
vt 0.44470245 0.06033477 0
vt 0.4447025 0.0 0
vt 0.44470248 0.060334772 0
vt 0.5281343 0.048424993 0
vt 0.5281343 0.08106415 0
vt 0.44470248 0.08106415 0
vt 0.4718658 0.5335761 0
vt 0.24280465 0.21754712 0
vt 0.24280465 0.88175464 0
vt 0.47186577 0.88175464 0
vt 0.5552976 1.0 0
vt 0.55529755 0.0 0
vt 0.44470248 0.28555247 0
vt 0.4447025 1.0 0
vt 0.55258906 0.060334787 0
vt 0.55374956 0 0
vt 0.4447025 0.93966526 0
vt 0.4447024 1.0 0
vt 0.5639514 0.88175464 0
vt 0.366217 0.0 0
vt 0.27577066 0.0655468 0
vt 0.27577063 0.88175464 0
vt 0.34942257 0.88175464 0
vt 0.3494225 0.065546796 0
vt 0.7242294 0.06554675 0
vt 0.65057755 0.06554675 0
vt 0.6137203 1.0 0
vt 0.6150962 0.92846155 0
vt 0.6152794 0.9189359 0
vt 0.631395 0.08106415 0
vt 0.366217 0.92846155 0
vt 0.366217 0.9189359 0
vt 0.36621702 0.0 0
vt 0.36621696 0.07153846 0
vt 0.366217 0.08106415 0
vt 0.366217 0.07153846 0
vt 0.13263313 1.0 0
vt 0.13263313 0.0 0
vt 0.13263315 0.88175464 0
vn 0.0 -1.0 0.0
vn 0.17635404 -0.9843268 0
vn 0.17635404 -0.9843268 0
vn 0.9979859 -0.06343612 0.0
vn 0.9979859 0.06343612 0.0
vn 0.23472054 0.9720629 -0
vn 0.40596947 0.9138866 -0
vn 0.4059694 0.9138867 -0
vn 0.17635404 0.9843268 -0
vn -0.9974842 0.07088881 0.0
vn -0.9974842 -0.07088881 0.0
vn -0.3345787 -0.9423678 0.0
vn -0.07088906 -0.99748427 0.0
vn -0.07088906 0.99748427 0.0
vn -0.3345787 0.9423678 0.0
vn -0.70710653 -0.70710707 0.0
vn -0.94236773 -0.33457893 0.0
vn -0.70710653 0.70710707 0.0
vn -0.94236773 0.33457893 0.0
vn 0.4059694 -0.9138867 0
vn 0.40596947 -0.9138866 0
vn 0.0 1.0 0.0
vn 0.55145085 -0.8342074 0
vn 0.5939384 -0.8045106 0.0
vn 0.96067214 0.27768502 0.0
vn 0.8207261 -0.57132185 0.0
vn 0.96067214 -0.27768502 0.0
vn 0.8207261 0.57132185 0.0
vn 0.55145085 0.8342074 -0
vn 0.5939384 0.8045106 0.0
vn 0.0 0.0 1.0
vn 0.0 0.0 -1.0
vn 0.06562782 -0.99784416 0.0
vn 0 -1.0 0
vn -0.38018745 -0.92490953 0
vn -0.21856979 -0.9758213 0
vn -0.10928489 -0.99401045 0
vn -0.52285 -0.8524247 0
vn -0.565239 -0.82492715 0.0
vn -0.8003058 -0.59959203 0.0
vn -0.95479655 -0.2972599 0.0
vn -0.9976495 -0.06852452 0.0
vn -0.9976495 0.06852452 0.0
vn -0.9547966 0.29725984 0.0
vn -0.8003057 0.5995921 0.0
vn -0.5228499 0.85242474 -0
vn -0.56523895 0.8249272 0.0
vn -0.3801876 0.9249095 -0
vn -0.38018745 0.9249094 -0
vn -0.3239031 0.94609034 -0
vn -0.32390302 0.9460903 -0
vn -0.41701347 0.90890026 -0
vn -0.3146638 0.94920325 0.0
vn 0.31358048 0.9495616 0.0
vn 0.06562809 0.99784416 0.0
vn 0.6823093 0.7310636 0.0
vn 0.9343378 0.35638884 0.0
vn 0.9970651 0.07655769 0.0
vn 0.9970651 -0.076557666 0.0
vn 0.9343377 -0.35638887 0.0
vn 0.6823093 -0.73106354 0.0
vn 0.3135804 -0.94956166 0.0
vn -0.3801876 -0.9249095 0
vn 0.7030829 0.71110785 0
vn 0.70308286 0.7111079 0
vn 0.703083 0.71110785 0.0
vn 0.0000001 -1.0 0
vn 0.0000001 -1.0 0
vn 0.0000001 -1.0 0
vn 0 -1.0 0
vn -0.20850672 0.9780209 -0
vn 0 1.0 -0
vn 0 1.0 -0
vn -0.41701347 0.90890026 -0
vn -0.41701347 0.90890026 -0
vn -0.3146638 0.94920313 0
vn -0.31466383 0.94920313 -0
vn -0.0000001 -1.0 0
vn 0.0 -1.0 0
vn 0.7030828 0.711108 0
vn 0.7030827 0.7111081 -0
vn 0 1.0 -0
vn 0 1.0 -0
f 1/1/1 2/2/1 3/3/2
f 3/3/2 4/4/3 1/1/1
f 5/5/4 6/6/5 7/7/5
f 7/7/5 8/8/4 5/5/4
f 9/9/6 10/10/7 11/11/8
f 11/11/8 12/12/9 9/9/6
f 13/13/10 14/14/11 15/15/11
f 15/15/11 16/16/10 13/13/10
f 17/17/12 18/18/13 19/19/13
f 19/19/13 20/20/12 17/17/12
f 21/21/14 22/22/14 23/23/15
f 23/23/15 24/24/15 21/21/14
f 17/17/12 20/20/12 25/25/16
f 25/25/16 26/26/16 17/17/12
f 27/27/17 26/26/16 25/25/16
f 25/25/16 28/28/17 27/27/17
f 14/29/11 27/27/17 28/28/17
f 28/28/17 15/15/11 14/29/11
f 29/30/18 24/24/15 23/23/15
f 23/23/15 30/31/18 29/30/18
f 31/32/19 29/33/18 30/31/18
f 30/31/18 32/34/19 31/32/19
f 16/16/10 31/35/19 32/34/19
f 32/34/19 13/36/10 16/16/10
f 33/37/20 4/38/3 3/3/2
f 3/3/2 34/39/21 33/37/20
f 35/40/22 36/41/22 22/42/14
f 22/42/14 21/43/14 35/40/22
f 33/44/20 37/45/23 38/46/24
f 7/47/5 39/48/25 40/49/25
f 41/50/26 38/51/24 37/45/23
f 37/45/23 42/52/26 41/50/26
f 41/53/26 43/54/27 44/55/27
f 44/56/27 5/5/4 8/8/4
f 45/57/28 40/58/25 39/48/25
f 39/48/25 46/59/28 45/57/28
f 47/60/29 45/61/28 46/59/28
f 46/59/28 48/62/30 47/60/29
f 47/63/29 11/11/8 10/10/7
f 25/64/31 49/65/31 28/66/31
f 26/67/32 50/68/32 51/69/32
f 52/70/33 53/71/1 54/72/34
f 54/72/34 55/73/33 52/70/33
f 56/74/35 57/75/36 58/76/37
f 59/77/38 56/78/35 60/79/39
f 61/80/40 59/81/38 60/79/39
f 62/82/40 61/80/40 63/83/41
f 63/83/41 64/84/41 62/82/40
f 63/83/41 65/85/42 66/86/42
f 66/86/42 64/87/41 63/83/41
f 66/88/42 67/89/43 68/90/43
f 67/91/43 69/92/44 68/93/43
f 69/94/44 70/95/45 71/96/45
f 70/95/45 72/97/46 73/98/47
f 73/98/47 71/99/45 70/95/45
f 72/97/46 74/100/48 75/101/49
f 75/101/49 73/102/47 72/97/46
f 75/103/49 76/104/50 77/105/51
f 78/106/22 79/107/52 80/108/53
f 81/109/54 82/110/54 83/111/55
f 83/111/55 78/112/55 81/109/54
f 84/113/56 82/114/54 81/109/54
f 81/109/54 51/115/56 84/113/56
f 49/116/57 51/115/56 50/117/57
f 49/118/57 85/119/58 86/120/58
f 86/121/58 87/122/59 88/123/59
f 87/124/59 89/125/60 88/126/59
f 90/127/60 91/128/61 92/129/61
f 92/129/61 89/130/60 90/127/60
f 91/128/61 93/131/62 94/132/62
f 94/132/62 92/129/61 91/128/61
f 93/133/62 55/134/33 94/132/62
f 95/135/22 96/136/22 9/137/6
f 9/137/6 12/12/9 95/135/22
f 37/45/23 33/44/20 34/138/21
f 39/48/25 7/47/5 6/139/5
f 43/54/27 41/53/26 42/52/26
f 5/5/4 44/56/27 43/54/27
f 11/11/8 47/63/29 48/62/30
f 59/140/31 47/141/31 10/142/31
f 62/143/31 47/141/31 59/140/31
f 62/143/31 45/144/31 47/141/31
f 10/142/31 97/145/31 59/140/31
f 9/146/31 97/145/31 10/142/31
f 9/146/31 57/147/31 97/145/31
f 21/148/31 98/149/31 99/150/31
f 55/151/31 100/152/31 98/153/31
f 98/153/31 21/148/31 55/151/31
f 21/148/31 94/154/31 55/151/31
f 24/155/31 94/154/31 21/148/31
f 24/155/31 92/156/31 94/154/31
f 29/157/31 92/156/31 24/155/31
f 31/158/31 92/156/31 29/157/31
f 31/158/31 89/159/31 92/156/31
f 16/160/31 89/159/31 31/158/31
f 16/160/31 88/161/31 89/159/31
f 15/162/31 88/161/31 16/160/31
f 15/162/31 86/163/31 88/161/31
f 15/162/31 49/65/31 86/163/31
f 28/66/31 49/65/31 15/162/31
f 62/143/31 40/164/31 45/144/31
f 64/165/31 40/164/31 62/143/31
f 64/165/31 7/166/31 40/164/31
f 66/167/31 7/166/31 64/165/31
f 66/167/31 8/168/31 7/166/31
f 68/169/31 8/168/31 66/167/31
f 69/170/31 8/168/31 68/169/31
f 69/170/31 44/171/31 8/168/31
f 69/170/31 41/172/31 44/171/31
f 71/173/31 41/172/31 69/170/31
f 71/173/31 38/174/31 41/172/31
f 73/175/31 38/174/31 71/173/31
f 73/175/31 33/176/31 38/174/31
f 75/177/31 33/176/31 73/175/31
f 75/177/31 4/178/31 33/176/31
f 77/179/31 4/178/31 75/177/31
f 77/179/31 101/180/31 1/181/31
f 1/181/31 4/178/31 77/179/31
f 83/182/31 19/183/31 102/184/31
f 102/184/31 103/185/31 83/182/31
f 82/186/31 19/183/31 83/182/31
f 82/186/31 20/187/31 19/183/31
f 84/188/31 20/187/31 82/186/31
f 84/188/31 25/64/31 20/187/31
f 49/65/31 25/64/31 84/188/31
f 48/189/32 60/190/32 11/191/32
f 48/189/32 61/192/32 60/190/32
f 46/193/32 61/192/32 48/189/32
f 56/194/32 11/191/32 60/190/32
f 56/194/32 12/195/32 11/191/32
f 58/196/32 12/195/32 56/194/32
f 58/196/32 104/197/32 105/198/32
f 105/198/32 12/195/32 58/196/32
f 52/199/32 22/200/32 106/201/32
f 106/201/32 107/202/32 52/199/32
f 93/203/32 22/200/32 52/199/32
f 93/203/32 23/204/32 22/200/32
f 91/205/32 23/204/32 93/203/32
f 91/205/32 30/206/32 23/204/32
f 91/205/32 32/207/32 30/206/32
f 90/208/32 32/207/32 91/205/32
f 90/208/32 13/209/32 32/207/32
f 87/210/32 13/209/32 90/208/32
f 87/210/32 14/211/32 13/209/32
f 85/212/32 14/211/32 87/210/32
f 50/68/32 14/211/32 85/212/32
f 50/68/32 27/213/32 14/211/32
f 39/214/32 61/192/32 46/193/32
f 39/214/32 63/215/32 61/192/32
f 6/216/32 63/215/32 39/214/32
f 6/216/32 65/217/32 63/215/32
f 5/218/32 65/217/32 6/216/32
f 5/218/32 67/219/32 65/217/32
f 5/218/32 108/220/32 67/219/32
f 43/221/32 108/220/32 5/218/32
f 42/222/32 108/220/32 43/221/32
f 42/222/32 70/223/32 108/220/32
f 37/224/32 70/223/32 42/222/32
f 37/224/32 72/225/32 70/223/32
f 34/226/32 72/225/32 37/224/32
f 34/226/32 74/227/32 72/225/32
f 3/228/32 74/227/32 34/226/32
f 3/228/32 76/229/32 74/227/32
f 18/42/32 109/230/32 110/231/32
f 78/232/32 111/233/32 109/234/32
f 109/234/32 18/42/32 78/232/32
f 18/42/32 81/235/32 78/232/32
f 17/236/32 81/235/32 18/42/32
f 17/236/32 51/69/32 81/235/32
f 26/67/32 51/69/32 17/236/32
f 50/68/32 26/67/32 27/213/32
f 57/75/36 56/74/35 97/237/63
f 56/78/35 59/77/38 97/237/63
f 59/81/38 61/80/40 62/238/40
f 67/89/43 66/88/42 65/239/42
f 69/92/44 67/91/43 108/240/44
f 70/95/45 69/94/44 108/240/44
f 76/104/50 75/103/49 74/241/48
f 77/242/64 112/243/65 113/244/66
f 51/115/56 49/116/57 84/113/56
f 85/119/58 49/118/57 50/117/57
f 87/122/59 86/121/58 85/119/58
f 89/125/60 87/124/59 90/245/60
f 55/134/33 93/133/62 52/246/33
f 114/247/1 110/248/1 115/249/1
f 115/249/1 116/250/1 114/247/1
f 117/251/22 118/252/22 119/253/22
f 119/253/22 120/254/22 117/251/22
f 121/255/67 122/256/68 123/257/69
f 123/257/69 124/258/70 121/255/67
f 125/259/71 126/260/72 127/261/73
f 127/261/73 128/262/74 125/259/71
f 129/263/22 130/264/22 99/265/22
f 99/265/22 131/266/22 129/263/22
f 132/267/31 133/268/31 134/269/31
f 134/269/31 131/270/31 132/267/31
f 133/271/31 135/272/31 136/273/31
f 136/273/31 137/274/31 133/271/31
f 138/275/31 102/184/31 139/276/31
f 139/276/31 140/277/31 138/275/31
f 141/278/31 142/279/31 143/280/31
f 143/280/31 144/281/31 141/278/31
f 145/282/32 106/283/32 146/284/32
f 146/284/32 147/285/32 145/282/32
f 148/286/32 149/287/32 150/282/32
f 150/282/32 151/288/32 148/286/32
f 152/289/32 153/290/32 154/291/32
f 154/291/32 115/253/32 152/289/32
f 153/292/32 155/293/32 156/294/32
f 156/294/32 157/295/32 153/292/32
f 158/296/75 159/297/76 160/298/75
f 160/298/75 161/299/77 158/296/75
f 162/300/1 154/301/1 2/2/1
f 2/2/1 1/1/1 162/300/1
f 117/302/22 134/303/22 96/136/22
f 96/136/22 95/135/22 117/302/22
f 144/304/31 162/305/31 1/181/31
f 1/181/31 101/180/31 144/304/31
f 151/306/32 118/307/32 105/198/32
f 105/198/32 104/197/32 151/306/32
f 112/243/22 163/260/22 141/308/22
f 141/308/22 113/244/22 112/243/22
f 95/135/22 12/12/9 105/309/22
f 58/310/37 57/311/36 164/312/78
f 164/312/78 165/313/79 58/310/37
f 112/243/65 77/242/64 76/314/80
f 76/314/80 166/315/81 112/243/65
f 57/147/31 9/146/31 96/316/31
f 96/316/31 167/317/31 57/147/31
f 168/318/31 57/147/31 167/317/31
f 169/180/31 77/179/31 113/319/31
f 170/320/32 58/196/32 165/321/32
f 76/229/32 3/228/32 2/322/32
f 2/322/32 171/323/32 76/229/32
f 172/324/32 76/229/32 173/325/32
f 95/135/22 105/309/22 118/252/22
f 118/252/22 117/251/22 95/135/22
f 165/313/79 164/312/78 122/256/68
f 122/256/68 121/255/67 165/313/79
f 126/260/72 112/243/82 166/315/83
f 166/315/83 127/261/73 126/260/72
f 133/268/31 167/317/31 96/316/31
f 96/316/31 134/269/31 133/268/31
f 167/317/31 133/271/31 137/274/31
f 137/274/31 168/318/31 167/317/31
f 113/319/31 141/278/31 144/281/31
f 144/281/31 169/180/31 113/319/31
f 165/321/32 148/286/32 151/288/32
f 151/288/32 170/320/32 165/321/32
f 153/290/32 171/323/32 2/322/32
f 2/322/32 154/291/32 153/290/32
f 173/325/32 153/292/32 157/295/32
f 157/295/32 172/324/32 173/325/32
f 116/250/1 115/249/1 154/301/1
f 154/301/1 162/300/1 116/250/1
f 129/263/22 131/266/22 134/303/22
f 134/303/22 117/302/22 129/263/22
f 138/275/31 140/277/31 162/305/31
f 162/305/31 144/304/31 138/275/31
f 145/282/32 147/285/32 118/307/32
f 118/307/32 151/306/32 145/282/32
f 163/260/22 158/296/75 161/299/77
f 161/299/77 141/308/22 163/260/22
f 120/254/22 119/253/22 36/41/22
f 36/41/22 35/40/22 120/254/22
f 124/258/70 123/257/69 54/72/34
f 54/72/34 53/71/1 124/258/70
f 128/262/74 80/108/53 79/107/52
f 79/107/52 125/259/71 128/262/74
f 131/270/31 99/150/31 98/149/31
f 98/149/31 132/267/31 131/270/31
f 100/152/31 136/273/31 135/272/31
f 135/272/31 98/153/31 100/152/31
f 143/280/31 142/279/31 103/185/31
f 103/185/31 102/184/31 143/280/31
f 150/282/32 149/287/32 107/202/32
f 107/202/32 106/201/32 150/282/32
f 115/253/32 110/231/32 109/230/32
f 109/230/32 152/289/32 115/253/32
f 111/233/32 156/294/32 155/293/32
f 155/293/32 109/234/32 111/233/32
f 19/326/13 18/327/13 110/248/1
f 110/248/1 114/247/1 19/326/13
f 130/264/22 21/43/22 99/265/22
f 102/184/31 19/183/31 139/276/31
f 106/283/32 22/200/32 146/284/32
f 159/297/76 78/106/55 83/328/55
f 83/328/55 160/298/75 159/297/76
