mtllib LeftFootPathIcon_1meter.mtl
g 1
usemtl 1
v -0.3266909 0.42006347 0.0
v -0.21886395 0.4200635 0.0
v -0.21886395 -0.4200635 0.0
v -0.37913367 0.4052644 0.0
v -0.43906835 -0.28687143 0.0
v -0.4465601 -0.1832776 0.0
v -0.4465601 0.1832776 0.0
v -0.41659284 -0.36086705 0.0
v -0.37913367 -0.4052644 0.0
v -0.3266909 -0.42006347 0.0
v -0.43906835 0.28687143 0.0
v -0.41659284 0.36086705 0.0
v 0.25231555 0.4200635 1.001899
v 0.18023103 0.4200635 1.001899
v 0.12501737 -0.15121736 1.001899
v 0.2523155 -0.42006347 1.001899
v 0.12501737 -0.15121742 0.0
v 0.25231555 -0.4200635 0.0
v 0.45720503 0.13522361 1.001899
v 0.45720503 -0.13522361 1.001899
v 0.45720503 -0.13522361 0.0
v 0.45720503 0.13522361 0.0
v 0.39311203 0.3170996 1.001899
v 0.39311203 0.31709957 0.0
v 0.2523155 0.42006347 0.0
v -0.4465601 -0.1832776 1.001899
v -0.4465601 0.1832776 1.001899
v -0.3266909 -0.42006347 1.001899
v -0.37913367 -0.4052644 1.001899
v -0.37913367 0.4052644 1.001899
v -0.3266909 0.42006347 1.001899
v -0.41659284 -0.36086705 1.001899
v -0.43906835 -0.28687143 1.001899
v -0.41659284 0.36086705 1.001899
v -0.43906835 0.28687143 1.001899
v 0.4531992 -0.19721772 0.0
v 0.44118178 -0.24819507 0.0
v 0.42115274 -0.2881557 0.0
v 0.39311203 -0.3170996 0.0
v 0.42115274 0.2881557 0.0
v 0.44118178 0.24819507 0.0
v 0.4531992 0.19721772 0.0
v 0.4531992 0.19721772 1.001899
v 0.44118178 0.24819507 1.001899
v 0.42115274 0.2881557 1.001899
v 0.39311203 -0.31709957 1.001899
v 0.42115274 -0.2881557 1.001899
v 0.44118178 -0.24819507 1.001899
v 0.4531992 -0.19721772 1.001899
v -0.21886395 0.4200635 1.001899
v 0.09544834 0.4200635 0.0
v 0.040234722 -0.15121742 0.0
v -0.04989115 -0.15121736 0.0
v 0.0053224363 0.4200635 0.0
v -0.21886395 -0.4200635 1.001899
v -0.04989116 -0.15121742 1.001899
v 0.0053224526 0.42006347 1.001899
v 0.09544834 0.4200635 1.001899
v 0.040234722 -0.15121742 1.001899
v 0.18023103 0.42006347 0.0
vt 0.1330002 0.9995005 0
vt 0.2521896 0.99950045 0
vt 0.25218952 0.0004997 0
vt 0.07503119 0.9819027 0
vt 0.008780748 0.15887949 0
vt 0.0004995 0.28206366 0
vt 0.0004995 0.7179368 0
vt 0.03362462 0.070890814 0
vt 0.07503107 0.01809761 0
vt 0.13300008 0.0004998 0
vt 0.008780807 0.84112096 0
vt 0.03362474 0.9291096 0
vt 0.7730205 0.99950016 0
vt 0.69333994 0.99950016 0
vt 0.6933398 0.0004995 0
vt 0.7730203 0.0004995 0
vt 0.6933398 0.0004995 0
vt 0.7730204 0.0004995 0
vt 0.9995005 0.66079503 0
vt 0.99950045 0.33920443 0
vt 0.92865354 0.87706494 0
vt 0.77302045 0.99950016 0
vt 0.9950725 0.26548684 0
vt 0.9817887 0.20486933 0
vt 0.9596491 0.15735188 0
vt 0.9286535 0.12293455 0
vt 0.9596491 0.84264755 0
vt 0.98178875 0.79513013 0
vt 0.9950726 0.7345126 0
vt 0.9286535 0.12293458 0
vt 0.59962314 0.9995002 0
vt 0.599623 0.0004996 0
vt 0.49999994 0.0004996 0
vt 0.50000006 0.9995003 0
vt 0.25218952 0.0004998 0
vt 0.49999994 0.0004996 0
vt 0.599623 0.0004996 0
vn 0.0 0.0 -1.0
vn 0.0 0.0 1.0
vn -0.90380293 -0.42794898 -0
vn -0.90380293 -0.42794883 0
vn -0.9038029 -0.4279491 -0
vn 0.9994796 0.032257613 0.0
vn 0.9994796 -0.032257613 0.0
vn 0.65662456 0.7542176 -0
vn 0.65662444 0.75421774 -0
vn 0.41155818 0.91138357 -0
vn 0.20577915 0.97859854 -0
vn -0.9993486 -0.036088653 0.0
vn -0.9993486 0.036088653 0.0
vn -0.1370886 -0.99055886 0.0
vn -0.5417349 -0.8405494 0.0
vn -0.1370886 0.99055886 0.0
vn -0.5417349 0.8405494 0.0
vn -0.8786053 -0.4775487 0.0
vn -0.9832039 -0.18251047 0.0
vn -0.8786053 0.4775487 0.0
vn -0.9832039 0.18251047 0.0
vn 0.5902938 -0.8071885 0
vn 0.59029394 -0.8071884 0.0000001
vn 0.65662456 -0.7542176 0
vn 0.65662444 -0.75421774 0
vn -0.0000001 1.0 0.0
vn -0 1.0 0
vn 0.81556803 -0.5786612 0.0
vn 0.78490084 -0.61962146 0
vn 0.98906505 0.14748007 0.0
vn 0.9400334 -0.3410824 0.0
vn 0.98906505 -0.14748007 0.0
vn 0.9400334 0.3410824 0.0
vn 0.78490084 0.61962146 -0
vn 0.81556803 0.5786612 0.0
vn 0.8466596 -0.53213495 -0
vn 0.8466596 -0.5321349 0.0
vn 0.84665954 -0.53213495 -0
vn -0.0000002 1.0 0
vn 0.0000002 1.0 -0
vn -0.0000001 1.0 0
vn -0.0000001 1.0 0
vn 0.0000002 -1.0 0
vn -0.0000002 -1.0 -0
vn 0.0000004 -1.0 0
vn 0.0000007 -1.0 0.0000001
vn 0.0000001 1.0 -0
vn 0.0000001 1.0 -0
vn -0.0000003 -1.0 -0
vn -0.0000007 -1.0 -0.0000001
vn -0.0000003 -1.0 0.0
f 1/1/1 2/2/1 3/3/1
f 4/4/1 1/1/1 3/3/1
f 5/5/1 6/6/1 7/7/1
f 8/8/1 5/5/1 7/7/1
f 9/9/1 8/8/1 7/7/1
f 10/10/1 9/9/1 7/7/1
f 3/3/1 10/10/1 7/7/1
f 3/3/1 7/7/1 11/11/1
f 3/3/1 11/11/1 12/12/1
f 4/4/1 3/3/1 12/12/1
f 13/13/2 14/14/2 15/15/2
f 15/15/2 16/16/2 13/13/2
f 16/16/3 15/15/4 17/17/3
f 17/17/3 18/18/5 16/16/3
f 19/19/6 20/20/7 21/20/7
f 21/20/7 22/19/6 19/19/6
f 23/21/8 24/21/9 25/22/10
f 25/22/10 13/13/11 23/21/8
f 26/6/12 27/7/13 7/7/13
f 7/7/13 6/6/12 26/6/12
f 28/10/14 29/9/15 9/9/15
f 9/9/15 10/10/14 28/10/14
f 1/1/16 4/4/17 30/4/17
f 30/4/17 31/1/16 1/1/16
f 29/9/15 32/8/18 8/8/18
f 8/8/18 9/9/15 29/9/15
f 32/8/18 33/5/19 5/5/19
f 5/5/19 8/8/18 32/8/18
f 33/5/19 26/6/12 6/6/12
f 6/6/12 5/5/19 33/5/19
f 4/4/17 12/12/20 34/12/20
f 34/12/20 30/4/17 4/4/17
f 12/12/20 11/11/21 35/11/21
f 35/11/21 34/12/20 12/12/20
f 11/11/21 7/7/13 27/7/13
f 27/7/13 35/11/21 11/11/21
f 22/19/1 21/20/1 36/23/1
f 22/19/1 36/23/1 37/24/1
f 22/19/1 37/24/1 38/25/1
f 22/19/1 38/25/1 39/26/1
f 22/19/1 39/26/1 18/18/1
f 22/19/1 18/18/1 25/22/1
f 25/22/1 24/21/1 40/27/1
f 25/22/1 40/27/1 41/28/1
f 25/22/1 41/28/1 42/29/1
f 22/19/1 25/22/1 42/29/1
f 20/20/2 19/19/2 43/29/2
f 20/20/2 43/29/2 44/28/2
f 20/20/2 44/28/2 45/27/2
f 20/20/2 45/27/2 23/21/2
f 20/20/2 23/21/2 13/13/2
f 20/20/2 13/13/2 16/16/2
f 16/16/2 46/30/2 47/25/2
f 16/16/2 47/25/2 48/24/2
f 16/16/2 48/24/2 49/23/2
f 20/20/2 16/16/2 49/23/2
f 16/16/22 18/18/23 39/26/24
f 39/26/24 46/30/25 16/16/22
f 31/1/16 50/2/26 2/2/27
f 2/2/27 1/1/16 31/1/16
f 39/26/24 38/25/28 47/25/29
f 47/25/29 46/30/25 39/26/24
f 22/19/6 42/29/30 43/29/30
f 43/29/30 19/19/6 22/19/6
f 38/25/28 37/24/31 48/24/31
f 48/24/31 47/25/29 38/25/28
f 37/24/31 36/23/32 49/23/32
f 49/23/32 48/24/31 37/24/31
f 36/23/32 21/20/7 20/20/7
f 20/20/7 49/23/32 36/23/32
f 42/29/30 41/28/33 44/28/33
f 44/28/33 43/29/30 42/29/30
f 41/28/33 40/27/34 45/27/35
f 45/27/35 44/28/33 41/28/33
f 40/27/34 24/21/9 23/21/8
f 23/21/8 45/27/35 40/27/34
f 51/31/1 52/32/1 53/33/1
f 53/33/1 54/34/1 51/31/1
f 50/2/2 55/35/2 56/36/2
f 56/36/2 57/34/2 50/2/2
f 55/35/36 3/3/37 53/33/36
f 53/33/36 56/36/38 55/35/36
f 58/31/39 51/31/40 54/34/41
f 54/34/41 57/34/42 58/31/39
f 58/31/2 59/37/2 15/15/2
f 15/15/2 14/14/2 58/31/2
f 59/37/43 52/32/44 17/17/45
f 17/17/45 15/15/46 59/37/43
f 25/22/1 18/18/1 17/17/1
f 17/17/1 60/14/1 25/22/1
f 13/13/11 25/22/10 60/14/47
f 60/14/47 14/14/48 13/13/11
f 60/14/1 17/17/1 52/32/1
f 52/32/1 51/31/1 60/14/1
f 14/14/48 60/14/47 51/31/40
f 51/31/40 58/31/39 14/14/48
f 57/34/2 56/36/2 59/37/2
f 59/37/2 58/31/2 57/34/2
f 56/36/49 53/33/50 52/32/44
f 52/32/44 59/37/43 56/36/49
f 54/34/1 53/33/1 3/3/1
f 3/3/1 2/2/1 54/34/1
f 57/34/42 54/34/41 2/2/27
f 2/2/27 50/2/26 57/34/42
f 35/11/2 27/7/2 26/6/2
f 34/12/2 35/11/2 26/6/2
f 30/4/2 34/12/2 26/6/2
f 31/1/2 30/4/2 26/6/2
f 50/2/2 31/1/2 26/6/2
f 50/2/2 26/6/2 33/5/2
f 50/2/2 33/5/2 32/8/2
f 50/2/2 32/8/2 29/9/2
f 50/2/2 29/9/2 28/10/2
f 50/2/2 28/10/2 55/35/2
f 28/10/14 10/10/14 3/3/51
f 3/3/51 55/35/51 28/10/14
