mtllib RightFootPathIconRing_1meter.mtl
g 1
usemtl 1
v 0.17812327 0.49888894 1.0
v 0.2758471 0.49888894 1.0
v 0.27584714 0.49888894 0.0
v 0.17812327 0.49888894 0.0
v 0.5020361 0.16059849 0.0
v 0.5020361 0.16059849 1.0
v 0.5020361 -0.16059849 1.0
v 0.5020361 -0.16059849 0.0
v 0.27584714 -0.49888894 1.0
v 0.2758471 -0.49888894 0.0
v 0.43128023 -0.37660366 0.0
v 0.43128023 -0.37660366 1.0
v -0.4956807 -0.21766981 0.0
v -0.4956807 -0.21766981 1.0
v -0.4956807 0.21766981 1.0
v -0.4956807 0.21766981 0.0
v -0.42124486 0.48131272 0.0
v -0.42124486 0.48131272 1.0
v -0.3633504 0.49888894 1.0
v -0.3633504 0.49888894 0.0
v -0.3633504 -0.49888894 1.0
v -0.42124486 -0.48131272 1.0
v -0.42124486 -0.48131272 0.0
v -0.3633504 -0.49888894 0.0
v -0.46259815 0.4285842 0.0
v -0.46259815 0.4285842 1.0
v -0.48741004 0.34070316 0.0
v -0.48741004 0.34070316 1.0
v -0.46259815 -0.4285842 1.0
v -0.46259815 -0.4285842 0.0
v -0.48741004 -0.34070316 1.0
v -0.48741004 -0.34070316 0.0
v 0.43128023 0.37660366 1.0
v 0.43128023 0.37660366 0.0
v -0.22105616 -0.49888894 0.77738607
v -0.22105613 -0.49888894 0.0
v 0.46223593 0.34222844 1.0
v 0.46223593 0.34222844 0.0
v 0.49761376 -0.23422584 1.0
v 0.49761376 -0.23422584 0.0
v 0.48434716 0.29476914 1.0
v 0.48434716 0.29476914 0.0
v 0.49761376 0.23422584 1.0
v 0.49761376 0.23422584 0.0
v 0.48434716 -0.29476914 1.0
v 0.48434716 -0.29476914 0.0
v 0.46223593 -0.34222844 1.0
v 0.46223593 -0.34222844 0.0
v -0.44130698 0.28546554 1.0
v -0.41882676 0.35909852 0.0
v -0.44130698 0.28546554 0.0
v -0.32890582 -0.41800496 0.0
v -0.32890582 -0.41800496 1.0
v -0.22105613 -0.41800496 1.0
v -0.22105613 -0.41800496 0.0
v 0.3910493 -0.3155456 0.0
v 0.25022292 -0.41800496 0.0
v 0.25022304 -0.418005 1.0
v 0.41909578 -0.28674358 1.0
v 0.41909578 -0.28674358 0.0
v 0.43912917 -0.24697879 0.0
v 0.43912917 -0.24697879 1.0
v 0.45114917 -0.19625124 1.0
v 0.45114917 -0.19625124 0.0
v 0.45515582 -0.13456094 1.0
v 0.45515582 -0.13456094 0.0
v 0.45515582 0.13456088 1.0
v 0.45515582 0.13456088 0.0
v 0.45114917 0.19625117 1.0
v 0.43912917 0.24697873 1.0
v 0.43912917 0.24697873 0.0
v 0.41909578 0.28674352 1.0
v 0.41909578 0.28674352 0.0
v 0.3910493 0.3155455 1.0
v 0.3910493 0.31554556 0.0
v 0.25022292 0.41800493 1.0
v 0.25022304 0.41800493 0.0
v -0.32890582 0.41800493 0.0
v -0.22105613 0.41800493 0.0
v -0.22105613 0.41800493 0.1862275
v -0.38135973 0.40327832 0.0
v -0.32890582 0.41800493 1.0
v -0.38135973 0.40327832 1.0
v -0.41882676 0.35909852 1.0
v -0.44880036 0.18237936 1.0
v -0.44880036 0.18237936 0.0
v -0.44880036 -0.18237942 1.0
v -0.44880036 -0.18237942 0.0
v -0.44130698 -0.28546563 1.0
v -0.44130698 -0.28546563 0.0
v -0.41882676 -0.35909858 1.0
v -0.41882676 -0.35909858 0.0
v -0.38135973 -0.4032784 1.0
v -0.38135973 -0.4032784 0.0
v 0.17812327 -0.49888894 0.15288521
v 0.17812327 -0.49888894 1.0
v 0.3910493 -0.31554562 1.0
v -0.22105613 -0.49888894 1.0
v -0.22105613 -0.4801311 1.0
v -0.22105616 -0.41800496 1.0
v 0.17812327 0.4275094 1.0
v -0.22105616 0.41800493 1.0
v -0.22105613 0.48013103 1.0
v 0.17812327 -0.49888894 0.0
v 0.17812327 -0.42750946 0.0
v -0.22105616 -0.41800496 0.0
v -0.22105613 -0.4801311 0.0
v 0.45114917 0.19625117 0.0
v -0.22105613 0.49888894 0.0
v -0.22105613 0.4801311 0.0
v -0.22105616 0.41800493 0.0
v 0.12289795 0.15047629 1.0
v 0.12289795 0.15047629 0.8755032
v -0.22105613 0.49888894 1.0
v 0.003177695 0.49888894 1.0
v 0.0031776817 0.49888894 0.0
v 0.09332264 -0.49888894 0.2855525
v 0.0031776421 -0.49888894 0.42658085
v 0.003177695 -0.49888894 0.0
v 0.09332264 -0.49888894 0.0
v 0.09332264 -0.41800496 0.0
v 0.003177695 -0.41800496 0.0
v 0.003177695 -0.418005 1.0
v 0.09332264 -0.41800502 1.0
v -0.052047584 0.15047629 0.57341915
v -0.052047584 0.15047635 0.0
v 0.038097348 0.15047635 0.0
v 0.038097348 0.15047629 0.7290752
v 0.003177695 -0.49888894 0.4265808
v 0.0031776817 -0.49888894 1.0
v -0.22105613 -0.49888894 0.77738607
v 0.0031776687 -0.45057163 1.0
v 0.09332264 -0.49888894 1.0
v 0.09332264 -0.43868828 1.0
v 0.09332264 -0.41800496 1.0
v 0.0031777082 -0.41800496 1.0
v 0.003177695 -0.45057163 1.0
v 0.0031777082 0.4505715 1.0
v 0.0031776421 0.49888894 1.0
v -0.22105616 0.49888894 1.0
v 0.038097348 0.15047629 1.0
v 0.09332264 0.4386882 1.0
v 0.0031776687 0.4505715 1.0
v -0.052047566 0.15047629 1.0
v 0.0031777082 -0.45057157 0.0
v 0.0031776421 -0.49888894 0.0
v -0.22105616 -0.49888894 0.0
v 0.09332264 -0.43868828 0.0
v 0.0031776687 -0.45057157 0.0
v 0.0031777213 -0.41800496 0.0
v 0.0031776687 0.45057157 0.0
v 0.09332264 0.49888894 0.0
v 0.09332264 0.43868828 0.0
v 0.038097348 0.15047629 0.0
v -0.052047573 0.15047629 0.0
v 0.003177695 0.45057157 0.0
v -0.052047566 0.15047629 0.5734193
v -0.052047584 0.15047629 1.0
v -0.22105613 0.41800493 1.0
v -0.22105616 0.41800493 0.18622749
v 0.09332264 0.49888894 1.0
v 0.038097348 0.15047629 0.72907525
v 0.17812327 -0.41800496 0.0
v 0.17812327 -0.41800502 1.0
v 0.12289795 0.15047635 0.0
v 0.17812327 -0.42750958 1.0
v 0.17812327 -0.418005 1.0
v 0.17812327 0.42750943 1.0
v 0.17812327 -0.4275095 0.0
v 0.17812327 0.42750946 0.0
v 0.12289793 0.15047629 0.0
v 0.17812327 0.4275095 0.0
vt 0.6751708 0.9995002 0
vt 0.7730204 0.99950016 0
vt 0.7730205 0.99950016 0
vt 0.9995005 0.66079503 0
vt 0.99950045 0.33920443 0
vt 0.7730204 0.0004995 0
vt 0.77302027 0.0004995 0
vt 0.9286535 0.12293458 0
vt 0.9286535 0.12293455 0
vt 0.0004995 0.28206363 0
vt 0.0004995 0.71793675 0
vt 0.07503119 0.9819027 0
vt 0.13300022 0.9995005 0
vt 0.1330001 0.0004998 0
vt 0.07503107 0.01809761 0
vt 0.03362474 0.9291096 0
vt 0.008780807 0.8411209 0
vt 0.03362462 0.070890784 0
vt 0.008780748 0.15887952 0
vt 0.9286536 0.87706494 0
vt 0.27547747 0.0004998 0
vt 0.2754775 0.0004998 0
vt 0.9596491 0.84264755 0
vt 0.9950725 0.26548684 0
vt 0.98178875 0.79513013 0
vt 0.99507254 0.7345126 0
vt 0.98178875 0.20486933 0
vt 0.959649 0.15735194 0
vt 0.054943204 0.7858156 0
vt 0.07745242 0.8595388 0
vt 0.16748896 0.08148289 0
vt 0.27547753 0.08148286 0
vt 0.88837075 0.18406749 0
vt 0.7473632 0.08148262 0
vt 0.74736327 0.08148259 0
vt 0.9164535 0.21290478 0
vt 0.9365125 0.2527183 0
vt 0.94854796 0.303508 0
vt 0.95255977 0.3652739 0
vt 0.9525598 0.6347256 0
vt 0.948548 0.6964915 0
vt 0.9365126 0.7472812 0
vt 0.9164535 0.7870947 0
vt 0.8883708 0.81593204 0
vt 0.74736327 0.918517 0
vt 0.7473633 0.91851705 0
vt 0.16748908 0.9185173 0
vt 0.2754776 0.9185173 0
vt 0.2754776 0.91851723 0
vt 0.114967704 0.9037727 0
vt 0.04744017 0.68260306 0
vt 0.04744011 0.31739724 0
vt 0.054943144 0.21418473 0
vt 0.07745236 0.14046153 0
vt 0.114967585 0.09622753 0
vt 0.67517066 0.0004995 0
vt 0.88837075 0.18406746 0
vt 0.2754775 0.019280612 0
vt 0.27547747 0.08148286 0
vt 0.6751708 0.9280332 0
vt 0.27547762 0.9807195 0
vt 0.67517066 0.0719665 0
vt 0.27547762 0.9995004 0
vt 0.27547762 0.98071957 0
vt 0.61987436 0.65066063 0
vt 0.50000006 0.9995003 0
vt 0.5902609 0.0004996 0
vt 0.4999999 0.0004996 0
vt 0.49999994 0.0004996 0
vt 0.5902609 0.08148271 0
vt 0.49999994 0.08148274 0
vt 0.49999994 0.08148271 0
vt 0.5902609 0.08148265 0
vt 0.44470367 0.6506607 0
vt 0.44470367 0.65066075 0
vt 0.5349646 0.6506607 0
vt 0.5349646 0.65066063 0
vt 0.4999999 0.048876166 0
vt 0.5902609 0.06077403 0
vt 0.49999997 0.08148274 0
vt 0.49999994 0.048876166 0
vt 0.50000006 0.95112365 0
vt 0.5 0.9995003 0
vt 0.2754776 0.9995004 0
vt 0.59026104 0.93922573 0
vt 0.5 0.95112365 0
vt 0.4447037 0.6506607 0
vt 0.49999997 0.048876226 0
vt 0.4999999 0.048876226 0
vt 0.5 0.9511237 0
vt 0.59026104 0.9995003 0
vt 0.59026104 0.93922585 0
vt 0.50000006 0.9511237 0
vt 0.67517066 0.08148265 0
vt 0.6751707 0.08148259 0
vt 0.67517066 0.07196644 0
vt 0.67517066 0.08148262 0
vt 0.6751707 0.07196644 0
vt 0.6751708 0.92803323 0
vt 0.67517066 0.07196647 0
vt 0.6751708 0.9280333 0
vn 0.0 1.0 0.0
vn 0.32716432 0.94496745 0
vn 0.32716435 0.94496745 0
vn 0.9995502 0.029991155 0.0
vn 0.9995502 -0.029991155 0.0
vn 0.43334293 -0.9012291 -0
vn 0.32716432 -0.94496745 -0
vn 0.6620647 -0.7494467 -0
vn 0.6832083 -0.7302236 0.0
vn -0.99943686 -0.033554632 0.0
vn -0.99943686 0.033554632 0.0
vn -0.5648363 0.82520294 0.0
vn -0.14684094 0.9891601 0.0
vn -0.14684094 -0.9891601 0.0
vn -0.5648363 -0.82520294 0.0
vn -0.89151233 0.45299646 0.0
vn -0.98539 0.17031312 0.0
vn -0.89151233 -0.45299646 0.0
vn -0.98539 -0.17031312 0.0
vn 0.6620647 0.74944675 0
vn 0.6832083 0.7302236 0.0
vn 0.0 -1.0 0.0
vn 0.83396024 0.5518245 0.0
vn 0.99051315 -0.13741781 0.0
vn 0.94737685 0.32012042 0.0
vn 0.99051315 0.13741781 0.0
vn 0.94737685 -0.32012042 0.0
vn 0.83396024 -0.5518245 0.0
vn 0.0 0.0 1.0
vn 0.0 0.0 -1.0
vn 0.13642626 0.9906502 0.0
vn 0.0000001 1.0 0
vn -0.6547376 0.7558564 0
vn -0.2050204 0.97875774 0.0000001
vn -0.4100408 0.9120673 0.0000001
vn -0.78341556 0.6214984 0
vn -0.8142299 0.5805425 0.0
vn -0.93948555 0.34258863 0.0
vn -0.98895586 0.14821085 0.0
vn -0.9994742 0.03242271 0.0
vn -0.9994742 -0.032422718 0.0
vn -0.98895586 -0.14821082 0.0
vn -0.93948555 -0.3425886 0.0
vn -0.8142298 -0.5805427 0.0
vn -0.7834154 -0.62149847 -0
vn -0.6547376 -0.7558564 -0
vn -0.6547378 -0.75585616 -0
vn -0.5883228 -0.8086261 -0.0000001
vn -0.5883229 -0.80862606 -0.0000001
vn 0.54011095 -0.8415938 0.0
vn 0.13642679 -0.9906501 0.0
vn 0.8776596 -0.47928447 0.0
vn 0.9830395 -0.18339397 0.0
vn 0.9993419 -0.03627344 0.0
vn 0.9993419 0.036273427 0.0
vn 0.9830395 0.183394 0.0
vn 0.8776597 0.47928435 0.0
vn 0.5401106 0.84159404 0.0
vn -0.6547378 0.75585616 0
vn 0.9029517 -0.42974204 0.0000001
vn 0.9029517 -0.42974204 0.0
vn 0.90295166 -0.4297422 0
vn 0.0000001 1.0 0
vn 0 1.0 0
vn 0.0000002 1.0 0
vn 0.0000002 1.0 0.0000001
vn 0.0000001 -1.0 -0.0000001
vn 0.0 -1.0 -0.0000001
vn 0 -1.0 -0.0000001
vn 0.0000001 -1.0 -0.0000001
vn -0.8454274 -0.5340904 -0
vn -0.8454275 -0.53409034 -0
vn -0.8454274 -0.5340904 0
vn 0.0 1.0 0.0000001
vn -0.0000002 1.0 0
vn 0.9029515 -0.42974243 -0
vn 0.9029516 -0.42974222 0
vn 0.0000001 -1.0 -0.0000001
vn 0.0000001 -1.0 -0.0000001
vn -0.84542733 -0.5340904 -0
vn -0.84542733 -0.5340904 -0.0000001
vn -0.8454274 -0.53409034 0.0
f 1/1/1 2/2/2 3/3/3
f 3/3/3 4/1/1 1/1/1
f 5/4/4 6/4/4 7/5/5
f 7/5/5 8/5/5 5/4/4
f 9/6/6 10/7/7 11/8/8
f 11/8/8 12/9/9 9/6/6
f 13/10/10 14/10/10 15/11/11
f 15/11/11 16/11/11 13/10/10
f 17/12/12 18/12/12 19/13/13
f 19/13/13 20/13/13 17/12/12
f 21/14/14 22/15/15 23/15/15
f 23/15/15 24/14/14 21/14/14
f 17/12/12 25/16/16 26/16/16
f 26/16/16 18/12/12 17/12/12
f 27/17/17 28/17/17 26/16/16
f 26/16/16 25/16/16 27/17/17
f 16/11/11 15/11/11 28/17/17
f 28/17/17 27/17/17 16/11/11
f 29/18/18 30/18/18 23/15/15
f 23/15/15 22/15/15 29/18/18
f 31/19/19 32/19/19 30/18/18
f 30/18/18 29/18/18 31/19/19
f 14/10/10 13/10/10 32/19/19
f 32/19/19 31/19/19 14/10/10
f 33/20/20 34/20/21 3/3/3
f 3/3/3 2/2/2 33/20/20
f 35/21/22 21/14/14 24/14/14
f 24/14/14 36/22/22 35/21/22
f 33/20/20 37/23/23 38/23/23
f 7/5/5 39/24/24 40/24/24
f 41/25/25 42/25/25 38/23/23
f 38/23/23 37/23/23 41/25/25
f 41/25/25 43/26/26 44/26/26
f 43/26/26 6/4/4 5/4/4
f 45/27/27 46/27/27 40/24/24
f 40/24/24 39/24/24 45/27/27
f 47/28/28 48/28/28 46/27/27
f 46/27/27 45/27/27 47/28/28
f 47/28/28 12/9/9 11/8/8
f 26/16/29 28/17/29 49/29/29
f 25/16/30 50/30/30 51/29/30
f 52/31/31 53/31/31 54/32/32
f 54/32/32 55/32/1 52/31/31
f 56/33/33 57/34/34 58/35/35
f 59/36/36 60/36/37 56/33/33
f 61/37/38 60/36/37 59/36/36
f 62/37/38 63/38/39 64/38/39
f 64/38/39 61/37/38 62/37/38
f 64/38/39 63/38/39 65/39/40
f 65/39/40 66/39/40 64/38/39
f 65/39/40 67/40/41 68/40/41
f 68/40/41 67/40/41 69/41/42
f 69/41/42 70/42/43 71/42/43
f 71/42/43 70/42/43 72/43/44
f 72/43/44 73/43/45 71/42/43
f 73/43/45 72/43/44 74/44/46
f 74/44/46 75/44/47 73/43/45
f 74/44/46 76/45/48 77/46/49
f 78/47/22 79/48/22 80/49/22
f 81/50/50 78/47/51 82/47/51
f 82/47/51 83/50/50 81/50/50
f 84/30/52 50/30/52 81/50/50
f 81/50/50 83/50/50 84/30/52
f 49/29/53 51/29/53 50/30/52
f 49/29/53 85/51/54 86/51/54
f 85/51/54 87/52/55 88/52/55
f 88/52/55 87/52/55 89/53/56
f 90/53/56 89/53/56 91/54/57
f 91/54/57 92/54/57 90/53/56
f 92/54/57 91/54/57 93/55/58
f 93/55/58 94/55/58 92/54/57
f 94/55/58 93/55/58 53/31/31
f 95/56/22 10/7/7 9/6/6
f 9/6/6 96/56/22 95/56/22
f 38/23/23 34/20/21 33/20/20
f 40/24/24 8/5/5 7/5/5
f 44/26/26 42/25/25 41/25/25
f 5/4/4 44/26/26 43/26/26
f 11/8/8 48/28/28 47/28/28
f 59/36/29 12/9/29 47/28/29
f 62/37/29 59/36/29 47/28/29
f 62/37/29 47/28/29 45/27/29
f 12/9/29 59/36/29 97/57/29
f 9/6/29 12/9/29 97/57/29
f 9/6/29 97/57/29 58/35/29
f 21/14/29 98/22/29 99/58/29
f 53/31/29 21/14/29 99/58/29
f 99/58/29 100/59/29 53/31/29
f 21/14/29 53/31/29 93/55/29
f 22/15/29 21/14/29 93/55/29
f 22/15/29 93/55/29 91/54/29
f 29/18/29 22/15/29 91/54/29
f 31/19/29 29/18/29 91/54/29
f 31/19/29 91/54/29 89/53/29
f 14/10/29 31/19/29 89/53/29
f 14/10/29 89/53/29 87/52/29
f 15/11/29 14/10/29 87/52/29
f 15/11/29 87/52/29 85/51/29
f 15/11/29 85/51/29 49/29/29
f 28/17/29 15/11/29 49/29/29
f 62/37/29 45/27/29 39/24/29
f 63/38/29 62/37/29 39/24/29
f 63/38/29 39/24/29 7/5/29
f 65/39/29 63/38/29 7/5/29
f 65/39/29 7/5/29 6/4/29
f 67/40/29 65/39/29 6/4/29
f 69/41/29 67/40/29 6/4/29
f 69/41/29 6/4/29 43/26/29
f 69/41/29 43/26/29 41/25/29
f 70/42/29 69/41/29 41/25/29
f 70/42/29 41/25/29 37/23/29
f 72/43/29 70/42/29 37/23/29
f 72/43/29 37/23/29 33/20/29
f 74/44/29 72/43/29 33/20/29
f 74/44/29 33/20/29 2/2/29
f 76/45/29 74/44/29 2/2/29
f 76/45/29 2/2/29 1/1/29
f 1/1/29 101/60/29 76/45/29
f 82/47/29 102/49/29 103/61/29
f 103/61/29 19/13/29 82/47/29
f 83/50/29 82/47/29 19/13/29
f 83/50/29 19/13/29 18/12/29
f 84/30/29 83/50/29 18/12/29
f 84/30/29 18/12/29 26/16/29
f 49/29/29 84/30/29 26/16/29
f 48/28/30 11/8/30 60/36/30
f 48/28/30 60/36/30 61/37/30
f 46/27/30 48/28/30 61/37/30
f 56/33/30 60/36/30 11/8/30
f 56/33/30 11/8/30 10/7/30
f 57/34/30 56/33/30 10/7/30
f 57/34/30 10/7/30 104/56/30
f 104/56/30 105/62/30 57/34/30
f 52/31/30 106/59/30 107/58/30
f 107/58/30 24/14/30 52/31/30
f 94/55/30 52/31/30 24/14/30
f 94/55/30 24/14/30 23/15/30
f 92/54/30 94/55/30 23/15/30
f 92/54/30 23/15/30 30/18/30
f 92/54/30 30/18/30 32/19/30
f 90/53/30 92/54/30 32/19/30
f 90/53/30 32/19/30 13/10/30
f 88/52/30 90/53/30 13/10/30
f 88/52/30 13/10/30 16/11/30
f 86/51/30 88/52/30 16/11/30
f 51/29/30 86/51/30 16/11/30
f 51/29/30 16/11/30 27/17/30
f 40/24/30 46/27/30 61/37/30
f 40/24/30 61/37/30 64/38/30
f 8/5/30 40/24/30 64/38/30
f 8/5/30 64/38/30 66/39/30
f 5/4/30 8/5/30 66/39/30
f 5/4/30 66/39/30 68/40/30
f 5/4/30 68/40/30 108/41/30
f 44/26/30 5/4/30 108/41/30
f 42/25/30 44/26/30 108/41/30
f 42/25/30 108/41/30 71/42/30
f 38/23/30 42/25/30 71/42/30
f 38/23/30 71/42/30 73/43/30
f 34/20/30 38/23/30 73/43/30
f 34/20/30 73/43/30 75/44/30
f 3/3/30 34/20/30 75/44/30
f 3/3/30 75/44/30 77/46/30
f 20/13/30 109/63/30 110/64/30
f 78/47/30 20/13/30 110/64/30
f 110/64/30 111/48/30 78/47/30
f 20/13/30 78/47/30 81/50/30
f 17/12/30 20/13/30 81/50/30
f 17/12/30 81/50/30 50/30/30
f 25/16/30 17/12/30 50/30/30
f 51/29/30 27/17/30 25/16/30
f 58/35/35 97/57/59 56/33/33
f 56/33/33 97/57/59 59/36/36
f 59/36/36 62/37/38 61/37/38
f 68/40/41 66/39/40 65/39/40
f 69/41/42 108/41/42 68/40/41
f 71/42/43 108/41/42 69/41/42
f 77/46/49 75/44/47 74/44/46
f 76/45/60 112/65/61 113/65/62
f 50/30/52 84/30/52 49/29/53
f 86/51/54 51/29/53 49/29/53
f 88/52/55 86/51/54 85/51/54
f 89/53/56 90/53/56 88/52/55
f 53/31/31 52/31/31 94/55/58
f 114/63/1 115/66/1 116/66/1
f 116/66/1 109/63/1 114/63/1
f 117/67/22 118/68/22 119/69/22
f 119/69/22 120/67/22 117/67/22
f 121/70/63 122/71/64 123/72/65
f 123/72/65 124/73/66 121/70/63
f 125/74/67 126/75/68 127/76/69
f 127/76/69 128/77/70 125/74/67
f 129/69/22 130/69/22 98/22/22
f 98/22/22 131/22/22 129/69/22
f 132/78/29 130/69/29 133/67/29
f 133/67/29 134/79/29 132/78/29
f 134/79/29 135/70/29 136/80/29
f 136/80/29 137/81/29 134/79/29
f 138/82/29 139/83/29 140/84/29
f 140/84/29 103/61/29 138/82/29
f 141/77/29 142/85/29 143/86/29
f 143/86/29 144/87/29 141/77/29
f 145/88/30 146/68/30 147/21/30
f 147/21/30 107/58/30 145/88/30
f 121/70/30 148/79/30 149/89/30
f 149/89/30 150/80/30 121/70/30
f 151/90/30 116/66/30 152/91/30
f 152/91/30 153/92/30 151/90/30
f 153/92/30 154/77/30 155/74/30
f 155/74/30 156/93/30 153/92/30
f 157/87/71 158/74/72 159/49/71
f 159/49/71 160/49/73 157/87/71
f 161/91/1 1/1/1 4/1/1
f 4/1/1 152/91/1 161/91/1
f 117/67/22 95/56/22 96/56/22
f 96/56/22 133/67/22 117/67/22
f 142/85/29 101/60/29 1/1/29
f 1/1/29 161/91/29 142/85/29
f 148/79/30 105/62/30 104/56/30
f 104/56/30 120/67/30 148/79/30
f 113/65/22 112/65/22 141/77/22
f 141/77/22 162/77/22 113/65/22
f 95/56/22 104/56/22 10/7/7
f 57/34/34 163/94/74 164/95/75
f 164/95/75 58/35/35 57/34/34
f 113/65/62 165/65/76 77/46/77
f 77/46/77 76/45/60 113/65/62
f 58/35/29 166/96/29 96/56/29
f 96/56/29 9/6/29 58/35/29
f 167/97/29 166/98/29 58/35/29
f 168/99/29 112/65/29 76/45/29
f 169/100/30 163/94/30 57/34/30
f 77/46/30 170/99/30 4/1/30
f 4/1/30 3/3/30 77/46/30
f 171/65/30 172/101/30 77/46/30
f 95/56/22 117/67/22 120/67/22
f 120/67/22 104/56/22 95/56/22
f 163/94/74 121/70/63 124/73/66
f 124/73/66 164/95/75 163/94/74
f 128/77/70 127/76/69 165/65/78
f 165/65/78 113/65/79 128/77/70
f 134/79/29 133/67/29 96/56/29
f 96/56/29 166/96/29 134/79/29
f 166/98/29 167/97/29 135/70/29
f 135/70/29 134/79/29 166/98/29
f 112/65/29 168/99/29 142/85/29
f 142/85/29 141/77/29 112/65/29
f 163/94/30 169/100/30 148/79/30
f 148/79/30 121/70/30 163/94/30
f 153/92/30 152/91/30 4/1/30
f 4/1/30 170/99/30 153/92/30
f 172/101/30 171/65/30 154/77/30
f 154/77/30 153/92/30 172/101/30
f 115/66/1 161/91/1 152/91/1
f 152/91/1 116/66/1 115/66/1
f 129/69/22 117/67/22 133/67/22
f 133/67/22 130/69/22 129/69/22
f 138/82/29 142/85/29 161/91/29
f 161/91/29 139/83/29 138/82/29
f 145/88/30 148/79/30 120/67/30
f 120/67/30 146/68/30 145/88/30
f 162/77/22 141/77/22 158/74/22
f 158/74/22 157/87/22 162/77/22
f 118/68/22 35/21/22 36/22/22
f 36/22/22 119/69/22 118/68/22
f 122/71/64 55/32/1 54/32/32
f 54/32/32 123/72/65 122/71/64
f 126/75/80 125/74/81 80/49/80
f 80/49/80 79/48/82 126/75/80
f 130/69/29 132/78/29 99/58/29
f 99/58/29 98/22/29 130/69/29
f 100/59/29 99/58/29 137/81/29
f 137/81/29 136/80/29 100/59/29
f 143/86/29 103/61/29 102/49/29
f 102/49/29 144/87/29 143/86/29
f 149/89/30 107/58/30 106/59/30
f 106/59/30 150/80/30 149/89/30
f 116/66/30 151/90/30 110/64/30
f 110/64/30 109/63/30 116/66/30
f 111/48/30 110/64/30 156/93/30
f 156/93/30 155/74/30 111/48/30
f 19/13/13 114/63/1 109/63/1
f 109/63/1 20/13/13 19/13/13
f 131/22/22 98/22/22 21/14/22
f 103/61/29 140/84/29 19/13/29
f 107/58/30 147/21/30 24/14/30
f 160/49/22 159/49/22 82/47/51
f 82/47/51 78/47/51 160/49/22
