mtllib RightFootPathIcon.mtl
g 1
usemtl 1
v -0.077955835 -0.02193427 0.0
v -0.077955835 0.02193427 0.0
v -0.07604065 0.03433216 0.0
v -0.070295066 0.043187797 0.0
v -0.060719106 0.04850118 0.0
v -0.047312763 0.050272305 0.0
v -0.019748142 0.05027231 0.0
v -0.07604065 -0.03433216 0.0
v -0.070295066 -0.043187797 0.0
v -0.060719106 -0.04850118 0.0
v -0.019748142 -0.05027231 0.0
v -0.047312763 -0.050272305 0.0
v 0.100703046 -0.05027231 1.001899
v 0.10070303 0.050272305 1.001899
v 0.06816086 0.01809737 1.001899
v 0.08227554 -0.05027231 1.001899
v 0.100703046 0.05027231 0.0
v 0.06816086 0.018097376 0.0
v 0.15308051 -0.016183272 1.001899
v 0.15308051 -0.016183272 0.0
v 0.15308051 0.016183272 0.0
v 0.15308051 0.016183272 1.001899
v 0.13669592 -0.0379498 1.001899
v 0.10070303 -0.050272305 0.0
v 0.13669592 -0.037949797 0.0
v -0.077955835 0.02193427 1.001899
v -0.077955835 -0.02193427 1.001899
v -0.047312763 0.050272305 1.001899
v -0.060719106 0.04850118 1.001899
v -0.047312763 -0.050272305 1.001899
v -0.060719106 -0.04850118 1.001899
v -0.070295066 0.043187797 1.001899
v -0.07604065 0.03433216 1.001899
v -0.070295066 -0.043187797 1.001899
v -0.07604065 -0.03433216 1.001899
v 0.14386418 -0.034485858 0.0
v 0.14898436 -0.029703457 0.0
v 0.15205647 -0.023602594 0.0
v 0.13669592 0.0379498 0.0
v 0.14386418 0.034485858 0.0
v 0.14898436 0.029703457 0.0
v 0.15205647 0.023602594 0.0
v 0.14386418 0.034485858 1.001899
v 0.13669592 0.037949797 1.001899
v 0.14898436 0.029703457 1.001899
v 0.15205647 0.023602594 1.001899
v 0.14386418 -0.034485858 1.001899
v 0.14898436 -0.029703457 1.001899
v 0.15205647 -0.023602594 1.001899
v -0.019748142 -0.05027231 1.001899
v 0.060601894 -0.05027231 0.0
v 0.03756233 -0.05027231 0.0
v 0.02344766 0.01809737 0.0
v 0.046487223 0.018097376 0.0
v 0.037562333 -0.050272305 1.001899
v 0.023447657 0.018097376 1.001899
v -0.019748142 0.05027231 1.001899
v 0.060601894 -0.05027231 1.001899
v 0.046487223 0.018097376 1.001899
v 0.08227554 -0.050272305 0.0
vt 0.0004995 0.28206366 0
vt 0.0004995 0.7179368 0
vt 0.008780807 0.84112096 0
vt 0.03362474 0.9291096 0
vt 0.07503119 0.9819027 0
vt 0.1330002 0.9995005 0
vt 0.25218964 0.99950045 0
vt 0.008780748 0.15887949 0
vt 0.03362462 0.070890814 0
vt 0.07503107 0.01809761 0
vt 0.25218952 0.0004997 0
vt 0.13300008 0.0004998 0
vt 0.7730204 0.0004995 0
vt 0.7730204 0.99950016 0
vt 0.632308 0.6798135 0
vt 0.6933398 0.0004995 0
vt 0.7730205 0.99950016 0
vt 0.632308 0.67981356 0
vt 0.99950045 0.33920443 0
vt 0.9995005 0.66079503 0
vt 0.9286535 0.12293455 0
vt 0.77302027 0.0004995 0
vt 0.9286535 0.12293458 0
vt 0.9596491 0.15735188 0
vt 0.9817887 0.20486933 0
vt 0.9950725 0.26548684 0
vt 0.9286536 0.87706494 0
vt 0.95964915 0.84264755 0
vt 0.98178875 0.79513013 0
vt 0.9950726 0.7345126 0
vt 0.599623 0.0004995 0
vt 0.49999994 0.0004996 0
vt 0.43896818 0.67981356 0
vt 0.53859127 0.6798136 0
vt 0.49999994 0.0004996 0
vt 0.43896818 0.6798136 0
vt 0.6933398 0.0004995 0
vn 0.0 0.0 -1.0
vn 0.0 0.0 1.0
vn -0.70308274 0.711108 -0
vn -0.7030826 0.71110815 -0
vn -0.70308286 0.7111079 0
vn 0.9976495 -0.06852451 0.0
vn 0.9976495 0.06852451 0.0
vn 0.38018665 -0.9249098 -0
vn 0.10928488 -0.99401045 -0
vn 0.2185697 -0.9758213 -0
vn 0.38018656 -0.9249099 -0
vn -0.9970651 0.076557696 0.0
vn -0.9970651 -0.076557696 0.0
vn -0.06562806 0.99784416 0.0
vn -0.31358021 0.9495617 0.0
vn -0.06562806 -0.99784416 0.0
vn -0.31358021 -0.9495617 0.0
vn -0.6823092 0.73106366 0.0
vn -0.93433774 0.3563888 0.0
vn -0.6823092 -0.73106366 0.0
vn -0.93433774 -0.3563888 0.0
vn 0.32390305 0.9460903 0
vn 0.38018656 0.9249099 0
vn 0.38018665 0.9249098 0
vn 0.3239031 0.9460902 0
vn -0 -1.0 0
vn -0 -1.0 0.0
vn 0.5228495 0.8524251 0
vn 0.5652392 0.82492715 0.0
vn 0.9547966 -0.29725993 0.0
vn 0.8003063 0.5995915 0.0
vn 0.9547966 0.29725993 0.0
vn 0.8003063 -0.5995915 0.0
vn 0.5652392 -0.82492715 0.0
vn 0.52284944 -0.85242504 -0
vn 0.4170135 0.90890026 -0
vn 0.20850667 0.9780209 -0
vn 0.4170135 0.9089004 -0
vn 0.3146638 0.9492032 0.0
vn -0.0000001 -1.0 0
vn -0 -1.0 0
vn -0.0000001 -1.0 0
vn 0.0000001 -1.0 -0
vn 0.0000001 1.0 0
vn 0.0000003 1.0 0
vn -0.0000001 1.0 -0
vn 0.0000001 -1.0 -0
vn 0.0000001 -1.0 -0
f 1/1/1 2/2/1 3/3/1
f 1/1/1 3/3/1 4/4/1
f 1/1/1 4/4/1 5/5/1
f 1/1/1 5/5/1 6/6/1
f 1/1/1 6/6/1 7/7/1
f 8/8/1 1/1/1 7/7/1
f 9/9/1 8/8/1 7/7/1
f 10/10/1 9/9/1 7/7/1
f 7/7/1 11/11/1 12/12/1
f 10/10/1 7/7/1 12/12/1
f 13/13/2 14/14/2 15/15/2
f 15/15/2 16/16/2 13/13/2
f 14/14/3 17/17/4 18/18/3
f 18/18/3 15/15/5 14/14/3
f 19/19/6 20/19/6 21/20/7
f 21/20/7 22/20/7 19/19/6
f 23/21/8 13/13/9 24/22/10
f 24/22/10 25/23/11 23/21/8
f 26/2/12 2/2/12 1/1/13
f 1/1/13 27/1/13 26/2/12
f 28/6/14 6/6/14 5/5/15
f 5/5/15 29/5/15 28/6/14
f 12/12/16 30/12/16 31/10/17
f 31/10/17 10/10/17 12/12/16
f 29/5/15 5/5/15 4/4/18
f 4/4/18 32/4/18 29/5/15
f 32/4/18 4/4/18 3/3/19
f 3/3/19 33/3/19 32/4/18
f 33/3/19 3/3/19 2/2/12
f 2/2/12 26/2/12 33/3/19
f 10/10/17 31/10/17 34/9/20
f 34/9/20 9/9/20 10/10/17
f 9/9/20 34/9/20 35/8/21
f 35/8/21 8/8/21 9/9/20
f 8/8/21 35/8/21 27/1/13
f 27/1/13 1/1/13 8/8/21
f 36/24/1 25/23/1 24/22/1
f 37/25/1 36/24/1 24/22/1
f 38/26/1 37/25/1 24/22/1
f 20/19/1 38/26/1 24/22/1
f 20/19/1 24/22/1 17/17/1
f 20/19/1 17/17/1 39/27/1
f 20/19/1 39/27/1 40/28/1
f 20/19/1 40/28/1 41/29/1
f 20/19/1 41/29/1 42/30/1
f 20/19/1 42/30/1 21/20/1
f 43/28/2 44/27/2 14/14/2
f 45/29/2 43/28/2 14/14/2
f 46/30/2 45/29/2 14/14/2
f 22/20/2 46/30/2 14/14/2
f 22/20/2 14/14/2 13/13/2
f 22/20/2 13/13/2 23/21/2
f 22/20/2 23/21/2 47/24/2
f 22/20/2 47/24/2 48/25/2
f 22/20/2 48/25/2 49/26/2
f 22/20/2 49/26/2 19/19/2
f 14/14/22 44/27/23 39/27/24
f 39/27/24 17/17/25 14/14/22
f 30/12/16 12/12/16 11/11/26
f 11/11/26 50/11/27 30/12/16
f 39/27/24 44/27/23 43/28/28
f 43/28/28 40/28/29 39/27/24
f 20/19/6 19/19/6 49/26/30
f 49/26/30 38/26/30 20/19/6
f 40/28/29 43/28/28 45/29/31
f 45/29/31 41/29/31 40/28/29
f 41/29/31 45/29/31 46/30/32
f 46/30/32 42/30/32 41/29/31
f 42/30/32 46/30/32 22/20/7
f 22/20/7 21/20/7 42/30/32
f 38/26/30 49/26/30 48/25/33
f 48/25/33 37/25/33 38/26/30
f 37/25/33 48/25/33 47/24/34
f 47/24/34 36/24/35 37/25/33
f 36/24/35 47/24/34 23/21/8
f 23/21/8 25/23/11 36/24/35
f 51/31/1 52/32/1 53/33/1
f 53/33/1 54/34/1 51/31/1
f 50/11/2 55/35/2 56/36/2
f 56/36/2 57/7/2 50/11/2
f 57/7/36 56/36/37 53/33/38
f 53/33/38 7/7/39 57/7/36
f 58/31/40 55/35/41 52/32/42
f 52/32/42 51/31/43 58/31/40
f 58/31/2 16/16/2 15/15/2
f 15/15/2 59/34/2 58/31/2
f 59/34/44 15/15/45 18/18/44
f 18/18/44 54/34/46 59/34/44
f 24/22/1 60/37/1 18/18/1
f 18/18/1 17/17/1 24/22/1
f 13/13/9 16/16/47 60/37/48
f 60/37/48 24/22/10 13/13/9
f 60/37/1 51/31/1 54/34/1
f 54/34/1 18/18/1 60/37/1
f 16/16/47 58/31/40 51/31/43
f 51/31/43 60/37/48 16/16/47
f 55/35/2 58/31/2 59/34/2
f 59/34/2 56/36/2 55/35/2
f 56/36/37 59/34/44 54/34/46
f 54/34/46 53/33/38 56/36/37
f 52/32/1 11/11/1 7/7/1
f 7/7/1 53/33/1 52/32/1
f 55/35/41 50/11/27 11/11/26
f 11/11/26 52/32/42 55/35/41
f 50/11/2 57/7/2 28/6/2
f 50/11/2 28/6/2 29/5/2
f 50/11/2 29/5/2 32/4/2
f 50/11/2 32/4/2 33/3/2
f 50/11/2 33/3/2 26/2/2
f 26/2/2 27/1/2 35/8/2
f 26/2/2 35/8/2 34/9/2
f 26/2/2 34/9/2 31/10/2
f 26/2/2 31/10/2 30/12/2
f 50/11/2 26/2/2 30/12/2
f 28/6/14 57/7/36 7/7/39
f 7/7/39 6/6/14 28/6/14
