# 3ds Max Wavefront OBJ Exporter v0.97b - (c)2007 guruware
# File Created: 30.01.2015 10:01:49

mtllib RightFootPathIconRing_1meter.mtl

#
# object Object001
#

v  0.1781 0.4989 1.0000
v  0.2758 0.4989 1.0000
v  0.2758 0.4989 -0.0000
v  0.1781 0.4989 -0.0000
v  0.5020 0.1606 -0.0000
v  0.5020 0.1606 1.0000
v  0.5020 -0.1606 1.0000
v  0.5020 -0.1606 -0.0000
v  0.2758 -0.4989 1.0000
v  0.2758 -0.4989 -0.0000
v  0.4313 -0.3766 -0.0000
v  0.4313 -0.3766 1.0000
v  -0.4957 -0.2177 -0.0000
v  -0.4957 -0.2177 1.0000
v  -0.4957 0.2177 1.0000
v  -0.4957 0.2177 -0.0000
v  -0.4212 0.4813 -0.0000
v  -0.4212 0.4813 1.0000
v  -0.3634 0.4989 1.0000
v  -0.3634 0.4989 -0.0000
v  -0.3634 -0.4989 1.0000
v  -0.4212 -0.4813 1.0000
v  -0.4212 -0.4813 -0.0000
v  -0.3634 -0.4989 -0.0000
v  -0.4626 0.4286 -0.0000
v  -0.4626 0.4286 1.0000
v  -0.4874 0.3407 -0.0000
v  -0.4874 0.3407 1.0000
v  -0.4626 -0.4286 1.0000
v  -0.4626 -0.4286 -0.0000
v  -0.4874 -0.3407 1.0000
v  -0.4874 -0.3407 -0.0000
v  0.4313 0.3766 1.0000
v  0.4313 0.3766 -0.0000
v  -0.2211 -0.4989 0.7774
v  -0.2211 -0.4989 -0.0000
v  0.4622 0.3422 1.0000
v  0.4622 0.3422 -0.0000
v  0.4976 -0.2342 1.0000
v  0.4976 -0.2342 -0.0000
v  0.4843 0.2948 1.0000
v  0.4843 0.2948 -0.0000
v  0.4976 0.2342 1.0000
v  0.4976 0.2342 -0.0000
v  0.4843 -0.2948 1.0000
v  0.4843 -0.2948 -0.0000
v  0.4622 -0.3422 1.0000
v  0.4622 -0.3422 -0.0000
v  -0.3726 0.2373 1.0000
v  -0.3534 0.3000 -0.0000
v  -0.3726 0.2373 -0.0000
v  -0.2769 -0.3619 -0.0000
v  -0.2769 -0.3619 1.0000
v  -0.1850 -0.3619 1.0000
v  -0.1850 -0.3619 -0.0000
v  0.3363 -0.2746 -0.0000
v  0.2164 -0.3619 -0.0000
v  0.2164 -0.3619 1.0000
v  0.3602 -0.2501 1.0000
v  0.3602 -0.2501 -0.0000
v  0.3773 -0.2162 -0.0000
v  0.3773 -0.2162 1.0000
v  0.3875 -0.1730 1.0000
v  0.3875 -0.1730 -0.0000
v  0.3909 -0.1205 1.0000
v  0.3909 -0.1205 -0.0000
v  0.3909 0.1087 1.0000
v  0.3909 0.1087 -0.0000
v  0.3875 0.1613 1.0000
v  0.3773 0.2045 1.0000
v  0.3773 0.2045 -0.0000
v  0.3602 0.2383 1.0000
v  0.3602 0.2383 -0.0000
v  0.3363 0.2629 1.0000
v  0.3363 0.2629 -0.0000
v  0.2164 0.3501 1.0000
v  0.2164 0.3501 -0.0000
v  -0.2769 0.3501 -0.0000
v  -0.1850 0.3501 -0.0000
v  -0.1850 0.3501 0.1862
v  -0.3215 0.3376 -0.0000
v  -0.2769 0.3501 1.0000
v  -0.3215 0.3376 1.0000
v  -0.3534 0.3000 1.0000
v  -0.3790 0.1495 1.0000
v  -0.3790 0.1495 -0.0000
v  -0.3790 -0.1612 1.0000
v  -0.3790 -0.1612 -0.0000
v  -0.3726 -0.2490 1.0000
v  -0.3726 -0.2490 -0.0000
v  -0.3534 -0.3117 1.0000
v  -0.3534 -0.3117 -0.0000
v  -0.3215 -0.3493 1.0000
v  -0.3215 -0.3493 -0.0000
v  0.1781 -0.4989 0.1529
v  0.1781 -0.4989 1.0000
v  0.3363 -0.2746 1.0000
v  -0.2211 -0.4989 1.0000
v  -0.2211 -0.4801 1.0000
v  0.1550 0.3582 1.0000
v  -0.1850 0.3501 1.0000
v  -0.2211 0.4801 1.0000
v  0.1781 -0.4989 -0.0000
v  0.1550 -0.3700 -0.0000
v  -0.2211 -0.4801 -0.0000
v  0.3875 0.1613 -0.0000
v  -0.2211 0.4989 -0.0000
v  -0.2211 0.4801 -0.0000
v  0.1229 0.1505 1.0000
v  0.1229 0.1505 0.8755
v  -0.2211 0.4989 1.0000
v  0.0032 0.4989 1.0000
v  0.0032 0.4989 -0.0000
v  0.0933 -0.4989 0.2856
v  0.0032 -0.4989 0.4266
v  0.0032 -0.4989 -0.0000
v  0.0933 -0.4989 -0.0000
v  0.0828 -0.3619 -0.0000
v  0.0060 -0.3619 -0.0000
v  0.0060 -0.3619 1.0000
v  0.0828 -0.3619 1.0000
v  -0.0520 0.1505 0.5734
v  -0.0520 0.1505 -0.0000
v  0.0381 0.1505 -0.0000
v  0.0381 0.1505 0.7291
v  0.0032 -0.4989 1.0000
v  0.0060 -0.3896 1.0000
v  0.0933 -0.4989 1.0000
v  0.0828 -0.3795 1.0000
v  0.0060 0.3779 1.0000
v  0.0381 0.1505 1.0000
v  0.0828 0.3677 1.0000
v  -0.0520 0.1505 1.0000
v  0.0060 -0.3896 -0.0000
v  0.0828 -0.3795 -0.0000
v  0.0060 0.3779 -0.0000
v  0.0933 0.4989 -0.0000
v  0.0828 0.3677 -0.0000
v  0.0933 0.4989 1.0000
v  0.1550 -0.3619 -0.0000
v  0.1550 -0.3619 1.0000
v  0.1229 0.1505 -0.0000
v  0.1550 -0.3700 1.0000
v  0.1550 0.3582 -0.0000
# 144 vertices

vn 0.0000 0.7071 0.7071
vn 0.2513 0.7258 0.6403
vn 0.2513 0.7258 -0.6403
vn 0.0000 0.7071 -0.7071
vn 0.7134 0.0214 -0.7004
vn 0.7134 0.0214 0.7004
vn 0.7134 -0.0214 0.7004
vn 0.7134 -0.0214 -0.7004
vn 0.2513 -0.7258 0.6403
vn 0.2513 -0.7258 -0.6403
vn 0.4956 -0.5297 -0.6884
vn 0.4956 -0.5297 0.6884
vn -0.7141 -0.0240 -0.6996
vn -0.7141 -0.0240 0.6996
vn -0.7141 0.0240 0.6996
vn -0.7141 0.0240 -0.6996
vn -0.4315 0.6304 -0.6453
vn -0.4315 0.6304 0.6453
vn -0.1083 0.7294 0.6755
vn -0.1083 0.7294 -0.6755
vn -0.1083 -0.7294 0.6755
vn -0.4315 -0.6304 0.6453
vn -0.4315 -0.6304 -0.6453
vn -0.1083 -0.7294 -0.6755
vn -0.6650 0.3379 -0.6660
vn -0.6650 0.3379 0.6660
vn -0.7184 0.1242 -0.6845
vn -0.7184 0.1242 0.6845
vn -0.6650 -0.3379 0.6660
vn -0.6650 -0.3379 -0.6660
vn -0.7184 -0.1242 0.6845
vn -0.7184 -0.1242 -0.6845
vn 0.4956 0.5297 0.6884
vn 0.4956 0.5297 -0.6884
vn 0.0000 -1.0000 -0.0000
vn 0.6151 0.4070 0.6753
vn 0.6151 0.4070 -0.6753
vn 0.7169 -0.0995 0.6900
vn 0.7169 -0.0995 -0.6900
vn 0.6918 0.2338 0.6832
vn 0.6918 0.2338 -0.6832
vn 0.7169 0.0995 0.6900
vn 0.7169 0.0995 -0.6900
vn 0.6918 -0.2338 0.6832
vn 0.6918 -0.2338 -0.6832
vn 0.6151 -0.4070 0.6753
vn 0.6151 -0.4070 -0.6753
vn 0.6686 -0.1247 0.7331
vn 0.5749 -0.3140 -0.7556
vn 0.6686 -0.1247 -0.7331
vn 0.0919 0.6673 -0.7391
vn 0.0919 0.6673 0.7391
vn 0.0000 1.0000 -0.0000
vn -0.4498 0.5192 -0.7267
vn -0.1921 0.5906 -0.7838
vn -0.1921 0.5906 0.7838
vn -0.5450 0.3885 0.7430
vn -0.5450 0.3885 -0.7430
vn -0.6377 0.2325 -0.7344
vn -0.6377 0.2325 0.7344
vn -0.6796 0.1019 0.7265
vn -0.6796 0.1019 -0.7265
vn -0.6993 0.0227 0.7145
vn -0.6993 0.0227 -0.7145
vn -0.6993 -0.0227 0.7145
vn -0.6993 -0.0227 -0.7145
vn -0.6796 -0.1019 0.7265
vn -0.6377 -0.2325 0.7344
vn -0.6377 -0.2325 -0.7344
vn -0.5450 -0.3885 0.7430
vn -0.5450 -0.3885 -0.7430
vn -0.4498 -0.5192 0.7267
vn -0.4498 -0.5192 -0.7267
vn 0.0941 -0.3656 0.9260
vn 0.0941 -0.3656 -0.9260
vn 0.0919 -0.6673 -0.7391
vn -0.4721 -0.8815 -0.0000
vn -0.7512 -0.6601 -0.0000
vn 0.3385 -0.5274 -0.7792
vn 0.0919 -0.6673 0.7391
vn 0.3385 -0.5274 0.7792
vn 0.5749 -0.3140 0.7556
vn 0.6983 -0.0253 0.7154
vn 0.6983 -0.0253 -0.7154
vn 0.6983 0.0253 0.7154
vn 0.6983 0.0253 -0.7154
vn 0.6686 0.1247 0.7331
vn 0.6686 0.1247 -0.7331
vn 0.5749 0.3140 0.7556
vn 0.5749 0.3140 -0.7556
vn 0.3385 0.5274 0.7792
vn 0.3385 0.5274 -0.7792
vn 0.0000 -0.7071 0.7071
vn -0.4498 0.5192 0.7267
vn 0.0000 0.0000 1.0000
vn 0.0000 -0.7071 -0.7071
vn 0.0000 0.0000 -1.0000
vn -0.6796 -0.1019 -0.7265
vn 0.4277 -0.6725 0.6039
vn 0.5366 -0.8438 0.0000
vn 0.0000 1.0000 0.0000
vn -0.1559 -0.9878 -0.0000
vn -0.7397 -0.6729 0.0000
vn -0.1526 -0.9883 0.0000
vn -0.0000 1.0000 0.0000
vn 0.5366 -0.8438 -0.0000
# 106 vertex normals

vt 0.6752 0.9995 0.0000
vt 0.7730 0.9995 0.0000
vt 0.9995 0.6608 0.0000
vt 0.9995 0.3392 0.0000
vt 0.7730 0.0005 0.0000
vt 0.9287 0.1229 0.0000
vt 0.0005 0.2821 0.0000
vt 0.0005 0.7179 0.0000
vt 0.0750 0.9819 0.0000
vt 0.1330 0.9995 0.0000
vt 0.1330 0.0005 0.0000
vt 0.0750 0.0181 0.0000
vt 0.0336 0.9291 0.0000
vt 0.0088 0.8411 0.0000
vt 0.0336 0.0709 0.0000
vt 0.0088 0.1589 0.0000
vt 0.9287 0.8771 0.0000
vt 0.2755 0.0005 0.0000
vt 0.9596 0.8426 0.0000
vt 0.9951 0.2655 0.0000
vt 0.9818 0.7951 0.0000
vt 0.9951 0.7345 0.0000
vt 0.9818 0.2049 0.0000
vt 0.9596 0.1574 0.0000
vt 0.0549 0.7858 0.0000
vt 0.0775 0.8595 0.0000
vt 0.1675 0.0815 0.0000
vt 0.2755 0.0815 0.0000
vt 0.8884 0.1841 0.0000
vt 0.7474 0.0815 0.0000
vt 0.9165 0.2129 0.0000
vt 0.9365 0.2527 0.0000
vt 0.9485 0.3035 0.0000
vt 0.9526 0.3653 0.0000
vt 0.9526 0.6347 0.0000
vt 0.9485 0.6965 0.0000
vt 0.9365 0.7473 0.0000
vt 0.9165 0.7871 0.0000
vt 0.8884 0.8159 0.0000
vt 0.7474 0.9185 0.0000
vt 0.1675 0.9185 0.0000
vt 0.2755 0.9185 0.0000
vt 0.1150 0.9038 0.0000
vt 0.0474 0.6826 0.0000
vt 0.0474 0.3174 0.0000
vt 0.0549 0.2142 0.0000
vt 0.0775 0.1405 0.0000
vt 0.1150 0.0962 0.0000
vt 0.6752 0.0005 0.0000
vt 0.2755 0.0193 0.0000
vt 0.6752 0.9280 0.0000
vt 0.2755 0.9807 0.0000
vt 0.6752 0.0720 0.0000
vt 0.2755 0.9995 0.0000
vt 0.6199 0.6507 0.0000
vt 0.5000 0.9995 0.0000
vt 0.5903 0.0005 0.0000
vt 0.5000 0.0005 0.0000
vt 0.5903 0.0815 0.0000
vt 0.5000 0.0815 0.0000
vt 0.4447 0.6507 0.0000
vt 0.5350 0.6507 0.0000
vt 0.5000 0.0489 0.0000
vt 0.5903 0.0608 0.0000
vt 0.5000 0.9511 0.0000
vt 0.5903 0.9392 0.0000
vt 0.5903 0.9995 0.0000
vt 0.6752 0.0815 0.0000
# 68 texture coords

g Object001
usemtl 1
s 1
f 1/1/1 2/2/2 3/2/3 
f 3/2/3 4/1/4 1/1/1 
f 5/3/5 6/3/6 7/4/7 
f 7/4/7 8/4/8 5/3/5 
f 9/5/9 10/5/10 11/6/11 
f 11/6/11 12/6/12 9/5/9 
f 13/7/13 14/7/14 15/8/15 
f 15/8/15 16/8/16 13/7/13 
f 17/9/17 18/9/18 19/10/19 
f 19/10/19 20/10/20 17/9/17 
f 21/11/21 22/12/22 23/12/23 
f 23/12/23 24/11/24 21/11/21 
f 17/9/17 25/13/25 26/13/26 
f 26/13/26 18/9/18 17/9/17 
f 27/14/27 28/14/28 26/13/26 
f 26/13/26 25/13/25 27/14/27 
f 16/8/16 15/8/15 28/14/28 
f 28/14/28 27/14/27 16/8/16 
f 29/15/29 30/15/30 23/12/23 
f 23/12/23 22/12/22 29/15/29 
f 31/16/31 32/16/32 30/15/30 
f 30/15/30 29/15/29 31/16/31 
f 14/7/14 13/7/13 32/16/32 
f 32/16/32 31/16/31 14/7/14 
f 33/17/33 34/17/34 3/2/3 
f 3/2/3 2/2/2 33/17/33 
f 35/18/35 21/11/21 24/11/24 
f 24/11/24 36/18/35 35/18/35 
f 33/17/33 37/19/36 38/19/37 
f 7/4/7 39/20/38 40/20/39 
f 41/21/40 42/21/41 38/19/37 
f 38/19/37 37/19/36 41/21/40 
f 41/21/40 43/22/42 44/22/43 
f 43/22/42 6/3/6 5/3/5 
f 45/23/44 46/23/45 40/20/39 
f 40/20/39 39/20/38 45/23/44 
f 47/24/46 48/24/47 46/23/45 
f 46/23/45 45/23/44 47/24/46 
f 47/24/46 12/6/12 11/6/11 
f 26/13/26 28/14/28 49/25/48 
f 25/13/25 50/26/49 51/25/50 
f 52/27/51 53/27/52 54/28/53 
f 54/28/53 55/28/53 52/27/51 
f 56/29/54 57/30/55 58/30/56 
f 59/31/57 60/31/58 56/29/54 
f 61/32/59 60/31/58 59/31/57 
f 62/32/60 63/33/61 64/33/62 
f 64/33/62 61/32/59 62/32/60 
f 64/33/62 63/33/61 65/34/63 
f 65/34/63 66/34/64 64/33/62 
f 65/34/63 67/35/65 68/35/66 
f 68/35/66 67/35/65 69/36/67 
f 69/36/67 70/37/68 71/37/69 
f 71/37/69 70/37/68 72/38/70 
f 72/38/70 73/38/71 71/37/69 
f 73/38/71 72/38/70 74/39/72 
f 74/39/72 75/39/73 73/38/71 
f 74/39/72 76/40/74 77/40/75 
f 78/41/76 79/42/77 80/42/78 
f 81/43/79 78/41/76 82/41/80 
f 82/41/80 83/43/81 81/43/79 
f 84/26/82 50/26/49 81/43/79 
f 81/43/79 83/43/81 84/26/82 
f 49/25/48 51/25/50 50/26/49 
f 49/25/48 85/44/83 86/44/84 
f 85/44/83 87/45/85 88/45/86 
f 88/45/86 87/45/85 89/46/87 
f 90/46/88 89/46/87 91/47/89 
f 91/47/89 92/47/90 90/46/88 
f 92/47/90 91/47/89 93/48/91 
f 93/48/91 94/48/92 92/47/90 
f 94/48/92 93/48/91 53/27/52 
f 95/49/35 10/5/10 9/5/9 
f 9/5/9 96/49/93 95/49/35 
f 38/19/37 34/17/34 33/17/33 
f 40/20/39 8/4/8 7/4/7 
f 44/22/43 42/21/41 41/21/40 
f 5/3/5 44/22/43 43/22/42 
f 11/6/11 48/24/47 47/24/46 
f 59/31/57 12/6/12 47/24/46 
f 62/32/60 59/31/57 47/24/46 
f 62/32/60 47/24/46 45/23/44 
f 12/6/12 59/31/57 97/29/94 
f 9/5/9 12/6/12 97/29/94 
f 9/5/9 97/29/94 58/30/56 
f 21/11/21 98/18/93 99/50/95 
f 53/27/52 21/11/21 99/50/95 
f 99/50/95 54/28/95 53/27/52 
f 21/11/21 53/27/52 93/48/91 
f 22/12/22 21/11/21 93/48/91 
f 22/12/22 93/48/91 91/47/89 
f 29/15/29 22/12/22 91/47/89 
f 31/16/31 29/15/29 91/47/89 
f 31/16/31 91/47/89 89/46/87 
f 14/7/14 31/16/31 89/46/87 
f 14/7/14 89/46/87 87/45/85 
f 15/8/15 14/7/14 87/45/85 
f 15/8/15 87/45/85 85/44/83 
f 15/8/15 85/44/83 49/25/48 
f 28/14/28 15/8/15 49/25/48 
f 62/32/60 45/23/44 39/20/38 
f 63/33/61 62/32/60 39/20/38 
f 63/33/61 39/20/38 7/4/7 
f 65/34/63 63/33/61 7/4/7 
f 65/34/63 7/4/7 6/3/6 
f 67/35/65 65/34/63 6/3/6 
f 69/36/67 67/35/65 6/3/6 
f 69/36/67 6/3/6 43/22/42 
f 69/36/67 43/22/42 41/21/40 
f 70/37/68 69/36/67 41/21/40 
f 70/37/68 41/21/40 37/19/36 
f 72/38/70 70/37/68 37/19/36 
f 72/38/70 37/19/36 33/17/33 
f 74/39/72 72/38/70 33/17/33 
f 74/39/72 33/17/33 2/2/2 
f 76/40/74 74/39/72 2/2/2 
f 76/40/74 2/2/2 1/1/1 
f 1/1/1 100/51/95 76/40/74 
f 82/41/80 101/42/95 102/52/95 
f 102/52/95 19/10/19 82/41/80 
f 83/43/81 82/41/80 19/10/19 
f 83/43/81 19/10/19 18/9/18 
f 84/26/82 83/43/81 18/9/18 
f 84/26/82 18/9/18 26/13/26 
f 49/25/48 84/26/82 26/13/26 
f 48/24/47 11/6/11 60/31/58 
f 48/24/47 60/31/58 61/32/59 
f 46/23/45 48/24/47 61/32/59 
f 56/29/54 60/31/58 11/6/11 
f 56/29/54 11/6/11 10/5/10 
f 57/30/55 56/29/54 10/5/10 
f 57/30/55 10/5/10 103/49/96 
f 103/49/96 104/53/97 57/30/55 
f 52/27/51 55/28/97 105/50/97 
f 105/50/97 24/11/24 52/27/51 
f 94/48/92 52/27/51 24/11/24 
f 94/48/92 24/11/24 23/12/23 
f 92/47/90 94/48/92 23/12/23 
f 92/47/90 23/12/23 30/15/30 
f 92/47/90 30/15/30 32/16/32 
f 90/46/88 92/47/90 32/16/32 
f 90/46/88 32/16/32 13/7/13 
f 88/45/86 90/46/88 13/7/13 
f 88/45/86 13/7/13 16/8/16 
f 86/44/84 88/45/86 16/8/16 
f 51/25/50 86/44/84 16/8/16 
f 51/25/50 16/8/16 27/14/27 
f 40/20/39 46/23/45 61/32/59 
f 40/20/39 61/32/59 64/33/62 
f 8/4/8 40/20/39 64/33/62 
f 8/4/8 64/33/62 66/34/64 
f 5/3/5 8/4/8 66/34/64 
f 5/3/5 66/34/64 68/35/66 
f 5/3/5 68/35/66 106/36/98 
f 44/22/43 5/3/5 106/36/98 
f 42/21/41 44/22/43 106/36/98 
f 42/21/41 106/36/98 71/37/69 
f 38/19/37 42/21/41 71/37/69 
f 38/19/37 71/37/69 73/38/71 
f 34/17/34 38/19/37 73/38/71 
f 34/17/34 73/38/71 75/39/73 
f 3/2/3 34/17/34 75/39/73 
f 3/2/3 75/39/73 77/40/75 
f 20/10/20 107/54/4 108/52/97 
f 78/41/76 20/10/20 108/52/97 
f 108/52/97 79/42/97 78/41/76 
f 20/10/20 78/41/76 81/43/79 
f 17/9/17 20/10/20 81/43/79 
f 17/9/17 81/43/79 50/26/49 
f 25/13/25 17/9/17 50/26/49 
f 51/25/50 27/14/27 25/13/25 
f 58/30/56 97/29/94 56/29/54 
f 56/29/54 97/29/94 59/31/57 
f 59/31/57 62/32/60 61/32/59 
f 68/35/66 66/34/64 65/34/63 
f 69/36/67 106/36/98 68/35/66 
f 71/37/69 106/36/98 69/36/67 
f 77/40/75 75/39/73 74/39/72 
f 76/40/74 109/55/99 110/55/100 
f 50/26/49 84/26/82 49/25/48 
f 86/44/84 51/25/50 49/25/48 
f 88/45/86 86/44/84 85/44/83 
f 89/46/87 90/46/88 88/45/86 
f 53/27/52 52/27/51 94/48/92 
f 111/54/53 112/56/53 113/56/4 
f 113/56/4 107/54/4 111/54/53 
f 114/57/35 115/58/35 116/58/35 
f 116/58/35 117/57/96 114/57/35 
f 118/59/4 119/60/53 120/60/101 
f 120/60/101 121/59/101 118/59/4 
f 122/61/102 123/61/77 124/62/35 
f 124/62/35 125/62/35 122/61/102 
f 115/58/35 126/58/93 98/18/93 
f 98/18/93 35/18/35 115/58/35 
f 127/63/95 126/58/93 128/57/93 
f 128/57/93 129/64/95 127/63/95 
f 129/64/95 121/59/95 120/60/95 
f 120/60/95 127/63/95 129/64/95 
f 130/65/95 112/56/95 111/54/95 
f 111/54/95 102/52/95 130/65/95 
f 131/62/93 132/66/95 130/65/95 
f 130/65/95 133/61/95 131/62/93 
f 134/63/97 116/58/97 36/18/97 
f 36/18/97 105/50/97 134/63/97 
f 118/59/4 135/64/97 134/63/97 
f 134/63/97 119/60/97 118/59/4 
f 136/65/97 113/56/4 137/67/4 
f 137/67/4 138/66/97 136/65/97 
f 138/66/97 124/62/97 123/61/97 
f 123/61/97 136/65/97 138/66/97 
f 122/61/103 133/61/77 101/42/77 
f 101/42/77 80/42/104 122/61/103 
f 139/67/1 1/1/1 4/1/4 
f 4/1/4 137/67/4 139/67/1 
f 114/57/35 95/49/35 96/49/93 
f 96/49/93 128/57/93 114/57/35 
f 132/66/95 100/51/95 1/1/1 
f 1/1/1 139/67/1 132/66/95 
f 135/64/97 104/53/97 103/49/96 
f 103/49/96 117/57/96 135/64/97 
f 110/55/100 109/55/99 131/62/93 
f 131/62/93 125/62/35 110/55/100 
f 95/49/35 103/49/96 10/5/10 
f 57/30/55 140/68/4 141/68/105 
f 141/68/105 58/30/56 57/30/55 
f 110/55/100 142/55/106 77/40/75 
f 77/40/75 76/40/74 110/55/100 
f 58/30/56 143/53/95 96/49/93 
f 96/49/93 9/5/9 58/30/56 
f 141/68/95 143/53/95 58/30/56 
f 100/51/95 109/55/99 76/40/74 
f 104/53/97 140/68/4 57/30/55 
f 77/40/75 144/51/97 4/1/4 
f 4/1/4 3/2/3 77/40/75 
f 142/55/97 144/51/97 77/40/75 
f 95/49/35 114/57/35 117/57/96 
f 117/57/96 103/49/96 95/49/35 
f 140/68/4 118/59/4 121/59/101 
f 121/59/101 141/68/105 140/68/4 
f 125/62/35 124/62/35 142/55/106 
f 142/55/106 110/55/100 125/62/35 
f 129/64/95 128/57/93 96/49/93 
f 96/49/93 143/53/95 129/64/95 
f 143/53/95 141/68/95 121/59/95 
f 121/59/95 129/64/95 143/53/95 
f 109/55/99 100/51/95 132/66/95 
f 132/66/95 131/62/93 109/55/99 
f 140/68/4 104/53/97 135/64/97 
f 135/64/97 118/59/4 140/68/4 
f 138/66/97 137/67/4 4/1/4 
f 4/1/4 144/51/97 138/66/97 
f 144/51/97 142/55/97 124/62/97 
f 124/62/97 138/66/97 144/51/97 
f 112/56/53 139/67/1 137/67/4 
f 137/67/4 113/56/4 112/56/53 
f 115/58/35 114/57/35 128/57/93 
f 128/57/93 126/58/93 115/58/35 
f 130/65/95 132/66/95 139/67/1 
f 139/67/1 112/56/95 130/65/95 
f 134/63/97 135/64/97 117/57/96 
f 117/57/96 116/58/97 134/63/97 
f 125/62/35 131/62/93 133/61/77 
f 133/61/77 122/61/103 125/62/35 
f 115/58/35 35/18/35 36/18/35 
f 36/18/35 116/58/35 115/58/35 
f 119/60/53 55/28/53 54/28/53 
f 54/28/53 120/60/101 119/60/53 
f 123/61/77 122/61/102 80/42/78 
f 80/42/78 79/42/77 123/61/77 
f 126/58/93 127/63/95 99/50/95 
f 99/50/95 98/18/93 126/58/93 
f 54/28/95 99/50/95 127/63/95 
f 127/63/95 120/60/95 54/28/95 
f 130/65/95 102/52/95 101/42/95 
f 101/42/95 133/61/95 130/65/95 
f 134/63/97 105/50/97 55/28/97 
f 55/28/97 119/60/97 134/63/97 
f 113/56/4 136/65/97 108/52/97 
f 108/52/97 107/54/4 113/56/4 
f 79/42/97 108/52/97 136/65/97 
f 136/65/97 123/61/97 79/42/97 
f 19/10/19 111/54/53 107/54/4 
f 107/54/4 20/10/20 19/10/19 
f 35/18/35 98/18/93 21/11/21 
f 102/52/95 111/54/95 19/10/19 
f 105/50/97 36/18/97 24/11/24 
f 80/42/104 101/42/77 82/41/80 
f 82/41/80 78/41/76 80/42/104 
# 0 polygons - 288 triangles

