mtllib QAPlanGrid.mtl
g 1
usemtl 1
v 1.0277892 -0.28535283 1.2353581
v 1.0277892 0.34964716 1.2353581
v 1.0280432 0.34964716 1.2353581
v 1.0280432 -0.28535283 1.2353581
v 1.0277892 -0.28535283 1.8449581
v 1.0280432 -0.28535283 1.8449581
v 1.0280432 0.34964716 1.8449581
v 1.0277892 0.34964716 1.8449581
vt 1.0 0.0 0
vt 1.0 1.0 0
vt 0.0 1.0 0
vt 0.0 0.0 0
vn 0.0 0.0 -1.0
vn 0.0 0.0 1.0
vn 0.0 -1.0 0.0
vn 1.0 0.0 0.0
vn 0.0 1.0 0.0
vn -1.0 0.0 0.0
f 1/1/1 2/2/1 3/3/1
f 3/3/1 4/4/1 1/1/1
f 5/4/2 6/1/2 7/2/2
f 7/2/2 8/3/2 5/4/2
f 1/4/3 4/1/3 6/2/3
f 6/2/3 5/3/3 1/4/3
f 4/4/4 3/1/4 7/2/4
f 7/2/4 6/3/4 4/4/4
f 3/4/5 2/1/5 8/2/5
f 8/2/5 7/3/5 3/4/5
f 2/4/6 1/1/6 5/2/6
f 5/2/6 8/3/6 2/4/6
g 2
usemtl 2
v 1.0304412 -0.39143997 1.1909082
v 1.0304412 0.40866 1.1909082
v 1.0367912 0.40866 1.1909082
v 1.0367912 -0.39143997 1.1909082
v 1.0304412 -0.39143997 1.7751082
v 1.0367912 -0.39143997 1.7751082
v 1.0367912 0.40866 1.7751082
v 1.0304412 0.40866 1.7751082
f 9/1/1 10/2/1 11/3/1
f 11/3/1 12/4/1 9/1/1
f 13/4/2 14/1/2 15/2/2
f 15/2/2 16/3/2 13/4/2
f 9/4/3 12/1/3 14/2/3
f 14/2/3 13/3/3 9/4/3
f 12/4/4 11/1/4 15/2/4
f 15/2/4 14/3/4 12/4/4
f 11/4/5 10/1/5 16/2/5
f 16/2/5 15/3/5 11/4/5
f 10/4/6 9/1/6 13/2/6
f 13/2/6 16/3/6 10/4/6
