ply
format ascii 1.0
element vertex 686
property float32 x
property float32 y
property float32 z
element face 1368
property list uint8 int32 vertex_indices
end_header
146.722 12 31.1868 
143.758 12 -8.3479 
149.894 12 -5.65102 
144.669 12.4987 -9.75683 
149.445 12 12.8883 
149.579 36 11.2334 
149.781 12.9608 -8.10386 
143.586 12 10.9124 
119.994 0 1.00857 
132.821 6.91685 -16.432 
117.766 0 -23.0496 
140.853 12 29.9393 
135.311 36 28.7613 
117.378 0 24.9494 
146.722 36 31.1868 
-3.84554e-05 12 -144 
19 12 -148.792 
19.4813 12 -142.676 
19.9367 36 -136.89 
4.88407e-05 0 -119.999 
20.48 5.79515 -129.987 
-8.68393e-06 12 -150 
19 36 -148.792 
-19 12 -148.792 
-8.68393e-06 36 -150 
-19.4813 12 -142.676 
-19 36 -148.792 
-20.4791 5.80037 -129.998 
-19.9367 36 -136.89 
-21.4176 0 -118.073 
-149.581 12 11.207 
-149.73 12 -9 
-143.522 12 -11.7288 
-137.59 36 -14.3361 
-146.722 12 31.1868 
-143.705 12 9.20637 
-119.995 0 0.973245 
-130.007 5.60092 -17.6691 
-149.73 36 -9 
-149.581 36 11.207 
-140.853 12 29.9393 
-146.722 36 31.1868 
-117.378 0 24.9494 
-135.311 36 28.7613 
146.873 13.6026 -9.87827 
149.73 15 -9 
149.73 36 -9 
123.805 29.5697 -20.3949 
137.59 36 -14.3361 
103.775 0 22.0581 
86.2066 0 45.521 
49.561 0 -53.0281 
111.371 24 -25.86 
96.9093 0 25.8215 
99.6446 0 22.6669 
111.836 24 23.7715 
-20.9385 29.7901 -124.161 
-10.0398 0 -30.91 
-26.2934 0 -19.1012 
-24.8417 0 -74.5662 
-21.8781 24 -112.222 
21.4176 0 -118.073 
10.0398 0 -30.91 
20.9394 29.7844 -124.15 
24.8417 0 -74.5662 
21.8781 24 -112.222 
-117.766 0 -23.0496 
-49.561 0 -53.0281 
-103.775 0 22.0581 
-111.836 24 23.7715 
-123.789 29.5625 -20.4018 
-111.371 24 -25.86 
32.5 0 0 
48.0235 0 -53.8417 
49.561 24 -53.0281 
46.6197 0 -54.8689 
48.0235 24 -53.8417 
39.393 0 -60.2676 
46.6197 24 -54.8689 
31.5469 0 -64.7209 
39.393 24 -60.2676 
26.2934 0 -19.1012 
26.8872 0 -68.7533 
31.5469 24 -64.7209 
26.8872 24 -68.7533 
24.8417 24 -74.5662 
-26.8872 0 -68.7533 
-24.8417 24 -74.5662 
-32.5 0 -5.37332e-16 
-31.5469 0 -64.7209 
-26.8872 24 -68.7533 
-39.393 0 -60.2676 
-31.5469 24 -64.7209 
-86.2066 0 45.521 
-46.6197 0 -54.8689 
-39.393 24 -60.2676 
-48.0235 0 -53.8417 
-46.6197 24 -54.8689 
-48.0235 24 -53.8417 
-99.6446 0 22.6669 
-96.9093 0 25.8215 
-90.963 0 41.6888 
-89.109 0 44.2555 
-49.561 24 -53.0281 
-103.775 24 22.0581 
-99.6446 24 22.6669 
-90.963 24 41.6888 
-96.9093 24 25.8215 
-89.109 24 44.2555 
-10.0398 0 30.91 
0.000151548 0 51.7463 
-86.2066 24 45.521 
-26.2934 0 19.1012 
26.2934 0 19.1012 
0.000151548 24 51.7463 
10.0398 0 30.91 
89.109 0 44.2555 
86.2066 24 45.521 
90.963 0 41.6888 
89.109 24 44.2555 
96.9093 24 25.8215 
90.963 24 41.6888 
99.6446 24 22.6669 
103.775 24 22.0581 
32.5 -10 0 
26.2934 -10 -19.1012 
26.2934 -10 19.1012 
10.0398 -10 30.91 
-10.0398 -10 30.91 
-26.2934 -10 19.1012 
-32.5 -10 0 
-26.2934 -10 -19.1012 
-10.0398 -10 -30.91 
10.0398 -10 -30.91 
-15.2002 0 -15.2046 
-15.2002 0 15.2046 
-21.5 0 -9.56074e-16 
-21.5 -10 0 
-15.2019 -10 -15.2019 
8.88178e-16 0 -21.499 
0 0 21.499 
-15.2019 -10 15.2019 
15.2002 0 -15.2046 
15.2002 0 15.2046 
0 -10 21.5 
21.5 0 0 
15.2019 -10 15.2019 
21.5 -10 0 
15.2019 -10 -15.2019 
0 -10 -21.5 
114.33 24 -1.03561 
138.139 36 7.33414 
33 24 39 
51 24 -21 
45.7272 24 33.7272 
51 24 21 
-33 24 39 
-51 24 21 
-45.7272 24 33.7272 
-114.329 24 -1.06979 
-138.141 36 7.3034 
-51 24 -21 
-45.7272 24 -33.7272 
-33 24 -39 
33 24 -39 
1.44444e-05 24 -114.334 
-9.93985e-05 36 -138.334 
45.7272 24 -33.7272 
-33 28.8 -39 
33 28.8 -39 
-45.7279 28.8 -33.7279 
-51 28.8 -21 
-51 28.8 21 
-45.7279 28.8 33.7279 
-33 28.8 39 
33 28.8 39 
45.7279 28.8 33.7279 
51 28.8 21 
51 28.8 -21 
45.7279 28.8 -33.7279 
13.2263 28.8 -13.2263 
-18.7048 28.8 0 
-13.2263 28.8 -13.2263 
0 28.8 -18.7048 
18.7048 28.8 0 
-13.2263 28.8 13.2263 
0 28.8 18.7048 
13.2263 28.8 13.2263 
-16.4735 29.7946 0 
-13.3274 29.7946 -9.6829 
-5.0906 29.7946 15.6673 
-13.3274 29.7946 9.6829 
5.0906 29.7946 15.6673 
13.3274 29.7946 9.6829 
16.4735 29.7946 0 
5.0906 29.7946 -15.6673 
13.3274 29.7946 -9.6829 
-5.0906 29.7946 -15.6673 
-11.6885 44.448 0 
-15.7218 32.119 -6.98187e-15 
-15.0277 38.7161 6.67364e-15 
-11.117 32.119 11.117 
-8.26501 44.448 -8.26501 
-11.117 32.119 -11.117 
-8.26501 44.448 8.26501 
-9.32778 45.4243 0 
-6.59574 45.4243 -6.59574 
0 32.119 15.7218 
0 44.448 11.6885 
-2.88244 45.4243 8.87125 
-7.54633 45.4243 5.48273 
11.117 32.119 11.117 
8.26501 44.448 8.26501 
2.88244 45.4243 8.87125 
15.7218 32.119 0 
11.6885 44.448 1.03815e-14 
7.54633 45.4243 5.48273 
15.0277 38.7161 0 
11.117 32.119 -11.117 
8.26501 44.448 -8.26501 
9.32778 45.4243 0 
3.53537 44.2277 6.12345 
7.07075 44.2277 0 
0 34.8 0 
3.53537 44.2277 -6.12345 
-3.53537 44.2277 6.12345 
-7.07075 44.2277 0 
-3.53537 44.2277 -6.12345 
6.59574 45.4243 -6.59574 
0 44.448 -11.6885 
0 32.119 -15.7218 
0 45.4243 -9.32778 
28.768 -10 9.34921 
28.768 -10 -9.34921 
17.7773 -10 24.4746 
-17.7773 -10 24.4746 
-28.768 -10 9.34921 
-28.768 -10 -9.34921 
-17.7773 -10 -24.4746 
17.7773 -10 -24.4746 
0 -10 -30.25 
0 -60 -30.25 
17.7805 -60 -24.4728 
-17.7805 -60 -24.4728 
-28.7695 -60 -9.34776 
-28.7695 -60 9.34776 
0 -10 30.25 
-17.7805 -60 24.4728 
0 -60 30.25 
17.7805 -60 24.4728 
28.7695 -60 9.34776 
28.7695 -60 -9.34776 
38.2809 -10 12.4339 
23.6561 -10 -32.5633 
23.6561 -10 32.5633 
0 -10 40.25 
-23.6561 -10 32.5633 
-38.2809 -10 -12.4339 
-23.6561 -10 -32.5633 
0 -10 -40.25 
0 -60 40.25 
23.6561 -60 32.5633 
-38.2809 -10 12.4339 
-23.6561 -60 32.5633 
-38.2809 -60 12.4339 
-38.2809 -60 -12.4339 
-23.6561 -60 -32.5633 
0 -60 -40.25 
38.2809 -10 -12.4339 
23.6561 -60 -32.5633 
38.2809 -60 -12.4339 
38.2809 -60 12.4339 
-176.714 46.4031 113.567 
-188.136 38.2253 64.2275 
-196.839 44.805 61.8321 
-187.245 36.4895 54.9 
-201.552 46.4031 59.1809 
-203.933 44.8026 31.2768 
-194.649 43.4369 56.855 
-163.518 38.2253 113.059 
-186.823 36.533 64.613 
-137.56 46.4031 158.753 
-126.526 38.2253 153.335 
-154.676 25 117.922 
-192.91 36.8029 -32.5359 
-189.162 39.1036 -24.5932 
-188.906 25 -30.6327 
-183.045 25 65.7622 
-87.2623 46.4031 191.078 
-79.9598 38.2253 182.008 
-111.892 25 159.093 
-29.8947 46.4031 207.922 
-27.3429 38.2253 196.908 
-58.6801 25 185.437 
29.8947 46.4031 207.922 
27.3429 38.2253 196.908 
4.31877e-14 25 194.5 
79.9598 38.2253 182.008 
58.6801 25 185.437 
87.2623 46.4031 191.078 
126.526 38.2253 153.335 
111.892 25 159.093 
137.56 46.4031 158.753 
163.518 38.2253 113.059 
154.676 25 117.922 
176.714 46.4031 113.567 
188.136 38.2253 64.2275 
186.823 36.533 64.613 
183.045 25 65.7622 
-189.162 10.8964 -24.5932 
-181.552 25 -21.4569 
196.839 44.805 61.8321 
201.552 46.4031 59.1809 
203.933 44.8025 31.2768 
194.649 43.437 56.8558 
210.061 46.4031 0 
206.313 44.8 0 
197.437 43 26.3551 
192.214 43 52.2467 
202.903 46.4031 -54.3677 
205.346 44.8027 -20.0054 
199.785 43.4296 -34.5655 
202.863 43.457 0 
217.484 47.4948 0 
216.348 46.39 -57.9702 
214.907 46.39 63.1024 
223.98 46.39 0 
188.424 46.39 121.093 
146.676 46.39 169.273 
93.0446 46.39 203.739 
31.8756 46.39 221.7 
-31.8756 46.39 221.7 
-93.0446 46.39 203.739 
-146.676 46.39 169.273 
-188.424 46.39 121.093 
-206.313 44.8001 0 
-210.061 46.4031 0 
-214.907 46.39 63.1024 
-205.346 44.8027 -20.0054 
-217.484 47.4948 0 
-202.903 46.4031 -54.3677 
-202.443 44.8054 -39.8231 
-199.188 43 -7.10543e-14 
-202.863 43.457 0 
-197.437 43 26.3551 
-192.214 43 52.2467 
-192.91 13.1971 -32.5359 
-183.367 25 53.2108 
-163.49 11.8089 113.056 
-183.696 11.2275 46.1855 
-176.144 25 42.941 
-186.823 13.467 64.613 
-187.245 13.5105 54.9 
-126.503 11.8089 153.322 
-79.9445 11.8089 181.987 
-27.3376 11.8089 196.884 
27.3376 11.8089 196.884 
79.9445 11.8089 181.987 
126.503 11.8089 153.322 
163.49 11.8089 113.056 
187.245 36.4895 54.9 
186.95 13.288 64.5755 
183.367 25 53.2108 
225.699 38.1908 66.2713 
231.339 25 61.9872 
239.5 25 0 
236.566 13.8899 0 
236.566 36.1101 0 
231.339 25 -61.9872 
227.189 11.7748 -60.875 
207.413 25 119.75 
225.676 11.7748 66.2643 
235.203 11.7748 0 
197.886 38.1908 127.174 
169.352 25 169.352 
197.865 11.7748 127.16 
154.041 38.1908 177.773 
119.75 25 207.413 
154.025 11.7748 177.754 
97.7171 38.1908 213.971 
61.9872 25 231.339 
97.7068 11.7748 213.948 
33.4764 38.1908 232.833 
0 25 239.5 
33.4729 11.7748 232.809 
-33.4764 38.1908 232.833 
-61.9872 25 231.339 
-33.4729 11.7748 232.809 
-97.7171 38.1908 213.971 
-119.75 25 207.413 
-97.7068 11.7748 213.948 
-154.041 38.1908 177.773 
-169.352 25 169.352 
-154.025 11.7748 177.754 
-197.886 38.1908 127.174 
-207.413 25 119.75 
-197.865 11.7748 127.16 
-225.699 38.1908 66.2713 
-231.339 25 61.9872 
-225.676 11.7748 66.2643 
-236.566 36.1101 0 
-239.5 25 0 
-235.228 38.1908 0 
-227.213 38.1908 -60.8814 
-236.566 13.8899 0 
-231.339 25 -61.9872 
-228.528 44.3223 0 
-216.348 46.39 -57.9702 
-223.98 46.39 0 
235.228 38.1908 0 
228.528 44.3223 0 
227.213 38.1908 -60.8814 
-188.107 11.8089 64.2359 
-196.839 5.1949 61.8321 
-194.649 6.56308 56.855 
-176.68 3.60998 113.546 
-137.534 3.60998 158.723 
-87.2456 3.60998 191.041 
-29.889 3.60998 207.883 
29.889 3.60998 207.883 
87.2456 3.60998 191.041 
137.534 3.60998 158.723 
188.107 11.8089 64.2359 
176.68 3.60998 113.546 
-183.696 38.7725 46.1855 
187.245 13.5105 54.9 
196.839 5.19498 61.8321 
228.528 5.67766 0 
216.309 3.59686 -57.9598 
214.868 3.59686 63.091 
223.939 3.59686 0 
188.39 3.59686 121.071 
146.649 3.59686 169.242 
93.0278 3.59686 203.702 
31.8699 3.59686 221.66 
-31.8699 3.59686 221.66 
-93.0278 3.59686 203.702 
-146.649 3.59686 169.242 
-188.39 3.59686 121.071 
-235.203 11.7748 0 
-214.868 3.59686 63.091 
-228.528 5.67766 0 
-227.189 11.7748 -60.875 
-201.513 3.60998 59.1695 
-203.933 5.19742 31.2768 
-210.02 3.60998 0 
-206.313 5.2 0 
-197.437 7 26.3551 
-192.214 7 52.2467 
-201.513 3.60998 -59.1695 
-205.346 5.19733 -20.0054 
-199.785 6.57036 -34.5656 
-202.863 6.543 0 
-223.939 3.59686 0 
-217.484 2.5052 0 
-216.309 3.59686 -57.9598 
201.513 3.60998 59.1695 
206.313 5.2 0 
210.02 3.60998 -9.32677e-14 
217.484 2.5052 0 
203.933 5.19749 31.2768 
205.346 5.1973 -20.0054 
202.443 5.19463 -39.8231 
201.513 3.60998 -59.1695 
202.863 6.54304 0 
194.649 6.563 56.8558 
197.437 7 26.3551 
192.214 7 52.2467 
199.188 7 0 
207.413 25 -119.75 
203.713 38.1908 -117.614 
169.352 25 -169.352 
166.331 38.1908 -166.331 
193.972 46.39 -111.99 
119.75 25 -207.413 
117.614 38.1908 -203.713 
158.378 46.39 -158.378 
61.9872 25 -231.339 
60.8814 38.1908 -227.213 
111.99 46.39 -193.972 
0 25 -239.5 
0 38.1908 -235.228 
57.9702 46.39 -216.348 
-61.9872 25 -231.339 
-60.8814 38.1908 -227.213 
0 46.39 -223.98 
-119.75 25 -207.413 
-117.614 38.1908 -203.713 
-57.9702 46.39 -216.348 
-166.331 38.1908 -166.331 
-111.99 46.39 -193.972 
-169.352 25 -169.352 
-203.713 38.1908 -117.614 
-158.378 46.39 -158.378 
-193.972 46.39 -111.99 
-207.413 25 -119.75 
-203.692 11.7748 -117.601 
-166.314 11.7748 -166.314 
-117.601 11.7748 -203.692 
-60.875 11.7748 -227.189 
0 11.7748 -235.203 
60.875 11.7748 -227.189 
117.601 11.7748 -203.692 
166.314 11.7748 -166.314 
203.692 11.7748 -117.601 
181.918 46.4031 -105.03 
148.535 46.4031 -148.535 
105.03 46.4031 -181.918 
54.3677 46.4031 -202.903 
0 46.4031 -210.061 
-54.3677 46.4031 -202.903 
-105.03 46.4031 -181.918 
-148.535 46.4031 -148.535 
-181.918 46.4031 -105.03 
176.084 38.2273 -92.2783 
202.443 44.8053 -39.8231 
194.447 38.2273 -41.3667 
144.67 38.2273 -136.35 
102.534 38.2273 -170.317 
52.7971 38.2255 -191.658 
50.8261 44.8059 -199.966 
0 44.8059 -206.324 
-52.7971 38.2255 -191.658 
-50.8261 44.8058 -199.966 
-102.533 38.2255 -170.316 
-144.669 38.2255 -136.35 
-176.083 38.2255 -92.2777 
-194.447 38.2273 -41.3667 
192.91 36.8029 -32.5359 
193.301 36.6107 -41.6046 
171.894 25 -91.0096 
189.832 25 -42.3553 
101.506 25 -165.912 
141.737 25 -133.195 
53.0933 36.654 -190.493 
54.0587 25 -186.837 
45.7053 43.4318 -197.543 
0 43 -199.188 
41.0708 43 -194.908 
-43.7213 36.6589 -190.443 
-45.7053 43.4318 -197.543 
-53.0933 36.654 -190.493 
-101.506 25 -165.912 
-54.0587 25 -186.837 
-141.737 25 -133.195 
-193.301 36.6107 -41.6046 
-189.832 25 -42.3553 
-171.894 25 -91.0096 
-199.785 43.4296 -34.5656 
-176.06 11.8071 -92.2709 
-193.301 13.3893 -41.6046 
-41.9088 25 -186.507 
-102.527 11.8071 -170.291 
-53.0933 13.346 -190.493 
-43.7213 13.3411 -190.443 
-144.653 11.8071 -136.332 
188.906 25 -30.6327 
176.059 11.8087 -92.2704 
193.301 13.3893 -41.6046 
192.91 13.1971 -32.5359 
144.652 11.8087 -136.331 
102.527 11.8087 -170.29 
43.7213 36.6589 -190.443 
53.0933 13.346 -190.493 
41.9088 25 -186.507 
-202.443 5.19466 -39.8231 
-194.42 11.8071 -41.3722 
-176.68 3.60998 -113.546 
-137.534 3.60998 -158.723 
-87.2456 3.60998 -191.041 
-52.804 11.8087 -191.631 
-50.8261 5.19413 -199.966 
-29.889 3.60998 -207.883 
-1.83252e-13 5.19413 -206.324 
-45.7053 6.56821 -197.543 
29.889 3.60998 -207.883 
50.8261 5.19419 -199.966 
0 7 -199.188 
-41.0708 7 -194.908 
87.2456 3.60998 -191.041 
52.804 11.8087 -191.631 
43.7213 13.3411 -190.443 
45.7053 6.56821 -197.543 
137.534 3.60998 -158.723 
176.68 3.60998 -113.546 
194.42 11.8071 -41.3722 
199.785 6.57038 -34.5655 
193.937 3.59686 -111.97 
158.349 3.59686 -158.349 
111.97 3.59686 -193.937 
57.9598 3.59686 -216.309 
0 3.59686 -223.939 
-57.9598 3.59686 -216.309 
-111.97 3.59686 -193.937 
-158.349 3.59686 -158.349 
-193.937 3.59686 -111.97 
144 43 -18 
144 7 39 
144 43 39 
168.467 43 39 
198.624 43 -14.9883 
199.188 43 0 
144 7 -18 
165.246 33.9947 39 
164.223 25 39 
165.246 16.0053 39 
168.467 7 39 
174.409 7 -18 
198.624 7 -14.9883 
171.307 15.9689 -18 
170.312 25 -18 
171.307 34.0311 -18 
174.408 43 -18 
176.144 25 42.941 
177.12 43 40.4785 
177.12 7 40.4785 
183.123 7 43.3174 
183.696 11.2275 46.1855 
187.821 7 -21.6752 
196.933 7 -29.8915 
182.803 7 -19.4183 
189.162 10.8964 -24.5932 
181.552 25 -21.4569 
182.803 43 -19.4183 
187.821 43 -21.6752 
189.162 39.1036 -24.5932 
196.933 43 -29.8915 
183.123 43 43.3174 
183.696 38.7725 46.1855 
-28.5 43 -144 
28.5 7 -144 
28.5 43 -144 
28.5 43 -171.785 
-28.5 43 -171.785 
-28.5 7 -144 
28.5 34.0129 -168.631 
28.5 25 -167.625 
28.5 15.9871 -168.631 
28.5 7 -171.785 
-28.5 15.9871 -168.631 
-28.5 7 -171.785 
-28.5 25 -167.625 
-28.5 34.0129 -168.631 
29.9564 43 -180.332 
32.1932 25 -179.204 
29.9564 7 -180.332 
32.4876 7 -185.805 
35.3987 11.0513 -186.792 
41.0708 7 -194.908 
-32.4876 7 -185.805 
-29.9564 7 -180.332 
-35.3987 11.0513 -186.792 
-32.1932 25 -179.204 
-29.9564 43 -180.332 
-32.4876 43 -185.805 
-35.3987 38.9487 -186.792 
-41.0708 43 -194.908 
32.4876 43 -185.805 
35.3987 38.9487 -186.792 
-144 43 39 
-144 7 -18 
-144 43 -18 
-174.409 43 -18 
-198.624 43 -14.9883 
-144 7 39 
-174.408 7 -18 
-171.307 34.0311 -18 
-170.312 25 -18 
-171.307 15.9689 -18 
-168.467 7 39 
-198.624 7 -14.9883 
-199.188 7 -2.73559e-13 
-165.246 16.0053 39 
-164.223 25 39 
-165.246 33.9947 39 
-168.467 43 39 
-182.803 43 -19.4183 
-182.803 7 -19.4183 
-187.821 7 -21.6752 
-196.933 7 -29.8915 
-183.123 7 43.3174 
-177.12 7 40.4785 
-177.12 43 40.4785 
-183.123 43 43.3174 
-187.821 43 -21.6752 
-196.933 43 -29.8915 
3 0 1 2 
3 3 2 1 
3 4 0 2 
3 5 4 2 
3 6 2 3 
3 6 5 2 
3 0 7 1 
3 8 1 7 
3 9 3 1 
3 10 9 1 
3 8 10 1 
3 0 11 7 
3 8 7 11 
3 12 11 0 
3 13 8 11 
3 12 13 11 
3 14 0 4 
3 14 12 0 
3 14 4 5 
3 15 16 17 
3 18 17 16 
3 19 15 17 
3 20 19 17 
3 18 20 17 
3 15 21 16 
3 22 16 21 
3 22 18 16 
3 15 23 21 
3 24 21 23 
3 22 21 24 
3 15 25 23 
3 26 23 25 
3 24 23 26 
3 27 25 15 
3 28 25 27 
3 26 25 28 
3 29 27 15 
3 19 29 15 
3 30 31 32 
3 33 32 31 
3 34 30 32 
3 35 34 32 
3 36 35 32 
3 37 36 32 
3 33 37 32 
3 38 31 30 
3 38 33 31 
3 39 30 34 
3 38 30 39 
3 35 40 34 
3 41 34 40 
3 39 34 41 
3 42 40 35 
3 43 40 42 
3 41 40 43 
3 36 42 35 
3 9 44 3 
3 6 3 44 
3 9 45 44 
3 6 44 45 
3 46 45 9 
3 5 45 46 
3 6 45 5 
3 47 9 10 
3 48 9 47 
3 46 9 48 
3 13 10 8 
3 49 10 13 
3 50 51 10 
3 52 10 51 
3 53 50 10 
3 54 53 10 
3 49 54 10 
3 47 10 52 
3 55 49 13 
3 12 55 13 
3 56 27 29 
3 28 27 56 
3 57 29 19 
3 58 59 29 
3 60 29 59 
3 57 58 29 
3 56 29 60 
3 20 61 19 
3 62 19 61 
3 62 57 19 
3 63 61 20 
3 62 61 64 
3 65 64 61 
3 63 65 61 
3 63 20 18 
3 66 42 36 
3 67 42 66 
3 68 42 67 
3 69 42 68 
3 43 42 69 
3 37 66 36 
3 70 66 37 
3 71 67 66 
3 70 71 66 
3 70 37 33 
3 72 73 51 
3 74 51 73 
3 72 51 50 
3 74 52 51 
3 72 75 73 
3 76 73 75 
3 74 73 76 
3 72 77 75 
3 78 75 77 
3 76 75 78 
3 72 79 77 
3 80 77 79 
3 78 77 80 
3 81 82 79 
3 83 79 82 
3 81 79 72 
3 80 79 83 
3 81 64 82 
3 84 82 64 
3 83 82 84 
3 81 62 64 
3 85 64 65 
3 84 64 85 
3 58 86 59 
3 87 59 86 
3 60 59 87 
3 88 89 86 
3 90 86 89 
3 58 88 86 
3 87 86 90 
3 88 91 89 
3 92 89 91 
3 90 89 92 
3 93 94 91 
3 95 91 94 
3 88 93 91 
3 92 91 95 
3 93 96 94 
3 97 94 96 
3 95 94 97 
3 93 67 96 
3 98 96 67 
3 97 96 98 
3 99 68 67 
3 100 99 67 
3 101 100 67 
3 102 101 67 
3 93 102 67 
3 103 67 71 
3 98 67 103 
3 104 68 99 
3 69 68 104 
3 105 99 100 
3 104 99 105 
3 106 100 101 
3 107 100 106 
3 105 100 107 
3 106 101 102 
3 108 102 93 
3 106 102 108 
3 109 110 93 
3 111 93 110 
3 112 109 93 
3 88 112 93 
3 108 93 111 
3 113 50 110 
3 114 110 50 
3 115 113 110 
3 109 115 110 
3 111 110 114 
3 53 116 50 
3 117 50 116 
3 113 72 50 
3 114 50 117 
3 53 118 116 
3 119 116 118 
3 117 116 119 
3 120 118 53 
3 121 118 120 
3 119 118 121 
3 122 53 54 
3 120 53 122 
3 122 54 49 
3 123 49 55 
3 122 49 123 
3 124 72 113 
3 125 81 72 
3 125 72 124 
3 126 113 115 
3 126 124 113 
3 127 115 109 
3 127 126 115 
3 128 109 112 
3 128 127 109 
3 129 112 88 
3 129 128 112 
3 130 88 58 
3 130 129 88 
3 131 58 57 
3 131 130 58 
3 132 57 62 
3 132 131 57 
3 133 62 81 
3 133 132 62 
3 125 133 81 
3 134 135 136 
3 137 136 135 
3 138 134 136 
3 138 136 137 
3 139 140 135 
3 141 135 140 
3 134 139 135 
3 137 135 141 
3 142 143 140 
3 144 140 143 
3 139 142 140 
3 141 140 144 
3 142 145 143 
3 146 143 145 
3 144 143 146 
3 147 145 142 
3 146 145 147 
3 148 142 139 
3 148 147 142 
3 149 139 134 
3 148 139 149 
3 149 134 138 
3 55 150 52 
3 47 52 150 
3 123 55 52 
3 74 123 52 
3 151 150 55 
3 48 47 150 
3 151 48 150 
3 12 151 55 
3 74 122 123 
3 74 120 122 
3 74 121 120 
3 74 119 121 
3 74 117 119 
3 152 114 117 
3 153 117 74 
3 154 152 117 
3 155 154 117 
3 153 155 117 
3 156 111 114 
3 152 156 114 
3 71 108 111 
3 157 71 111 
3 158 157 111 
3 156 158 111 
3 71 106 108 
3 71 107 106 
3 71 105 107 
3 71 104 105 
3 71 69 104 
3 71 159 69 
3 43 69 159 
3 70 159 71 
3 160 43 159 
3 33 160 159 
3 70 33 159 
3 161 103 71 
3 157 161 71 
3 162 98 103 
3 161 162 103 
3 162 97 98 
3 162 95 97 
3 163 92 95 
3 162 163 95 
3 164 90 92 
3 164 92 163 
3 164 87 90 
3 164 60 87 
3 164 165 60 
3 56 60 165 
3 85 65 165 
3 63 165 65 
3 164 85 165 
3 28 56 165 
3 166 28 165 
3 18 166 165 
3 63 18 165 
3 164 84 85 
3 164 83 84 
3 164 80 83 
3 167 78 80 
3 164 167 80 
3 153 76 78 
3 167 153 78 
3 153 74 76 
3 168 163 162 
3 169 164 163 
3 169 163 168 
3 170 162 161 
3 170 168 162 
3 171 161 157 
3 170 161 171 
3 172 157 158 
3 171 157 172 
3 173 158 156 
3 172 158 173 
3 174 156 152 
3 173 156 174 
3 175 152 154 
3 174 152 175 
3 176 154 155 
3 175 154 176 
3 177 155 153 
3 176 155 177 
3 178 153 167 
3 177 153 178 
3 179 167 164 
3 178 167 179 
3 179 164 169 
3 14 48 151 
3 5 46 48 
3 14 5 48 
3 14 151 12 
3 41 43 160 
3 38 160 33 
3 38 41 160 
3 26 28 166 
3 24 166 18 
3 24 26 166 
3 22 24 18 
3 38 39 41 
3 180 169 168 
3 170 174 168 
3 181 168 174 
3 182 168 181 
3 183 180 168 
3 182 183 168 
3 176 179 169 
3 175 176 169 
3 184 175 169 
3 180 184 169 
3 177 178 179 
3 176 177 179 
3 185 174 175 
3 186 185 175 
3 187 186 175 
3 184 187 175 
3 170 173 174 
3 185 181 174 
3 171 172 173 
3 170 171 173 
3 188 181 185 
3 189 182 181 
3 189 181 188 
3 190 185 186 
3 191 188 185 
3 190 191 185 
3 192 186 187 
3 192 190 186 
3 193 187 184 
3 193 192 187 
3 194 184 180 
3 194 193 184 
3 195 180 183 
3 196 194 180 
3 195 196 180 
3 197 183 182 
3 197 195 183 
3 189 197 182 
3 198 199 200 
3 201 200 199 
3 202 199 198 
3 191 201 199 
3 202 203 199 
3 188 199 203 
3 191 199 188 
3 201 198 200 
3 201 204 198 
3 205 198 204 
3 206 202 198 
3 206 198 205 
3 207 208 204 
3 209 204 208 
3 201 207 204 
3 210 205 204 
3 209 210 204 
3 211 212 208 
3 213 208 212 
3 207 211 208 
3 213 209 208 
3 214 215 212 
3 216 212 215 
3 211 214 212 
3 216 213 212 
3 214 217 215 
3 218 215 217 
3 219 215 218 
3 220 215 219 
3 220 216 215 
3 218 217 214 
3 194 214 211 
3 196 218 214 
3 196 214 194 
3 192 211 207 
3 193 211 192 
3 194 211 193 
3 190 207 201 
3 192 207 190 
3 190 201 191 
3 221 222 223 
3 224 223 222 
3 225 221 223 
3 226 225 223 
3 227 226 223 
3 224 227 223 
3 216 222 221 
3 228 224 222 
3 220 222 216 
3 228 222 220 
3 213 221 225 
3 216 221 213 
3 210 225 226 
3 209 225 210 
3 213 225 209 
3 205 226 227 
3 210 226 205 
3 229 230 203 
3 197 203 230 
3 202 229 203 
3 189 188 203 
3 189 203 197 
3 219 218 230 
3 195 230 218 
3 229 219 230 
3 197 230 195 
3 195 218 196 
3 228 219 229 
3 228 220 219 
3 231 229 202 
3 231 228 229 
3 206 231 202 
3 231 227 224 
3 206 205 227 
3 206 227 231 
3 231 224 228 
3 232 146 147 
3 233 147 148 
3 233 232 147 
3 234 144 146 
3 232 234 146 
3 235 141 144 
3 234 235 144 
3 236 137 141 
3 235 236 141 
3 237 138 137 
3 236 237 137 
3 238 149 138 
3 237 238 138 
3 239 148 149 
3 239 149 238 
3 239 233 148 
3 239 238 240 
3 241 240 238 
3 242 239 240 
3 242 240 241 
3 243 238 237 
3 241 238 243 
3 244 237 236 
3 243 237 244 
3 245 236 235 
3 244 236 245 
3 234 246 235 
3 247 235 246 
3 245 235 247 
3 248 246 234 
3 247 246 248 
3 249 234 232 
3 249 248 234 
3 250 232 233 
3 249 232 250 
3 251 233 239 
3 250 233 251 
3 251 239 242 
3 252 124 126 
3 253 125 124 
3 252 253 124 
3 254 126 127 
3 254 252 126 
3 255 127 128 
3 254 127 255 
3 256 128 129 
3 256 255 128 
3 256 129 130 
3 257 130 131 
3 257 256 130 
3 258 131 132 
3 258 257 131 
3 259 132 133 
3 259 258 132 
3 253 133 125 
3 253 259 133 
3 260 255 256 
3 261 254 255 
3 261 255 260 
3 257 262 256 
3 263 256 262 
3 263 260 256 
3 264 262 257 
3 263 262 264 
3 265 257 258 
3 264 257 265 
3 266 258 259 
3 265 258 266 
3 267 259 253 
3 266 259 267 
3 252 268 253 
3 269 253 268 
3 267 253 269 
3 270 268 252 
3 269 268 270 
3 271 252 254 
3 270 252 271 
3 271 254 261 
3 249 261 260 
3 248 260 263 
3 249 260 248 
3 270 271 261 
3 250 270 261 
3 249 250 261 
3 251 269 270 
3 250 251 270 
3 241 267 269 
3 242 241 269 
3 251 242 269 
3 243 266 267 
3 241 243 267 
3 264 265 266 
3 244 264 266 
3 243 244 266 
3 245 263 264 
3 244 245 264 
3 247 248 263 
3 245 247 263 
3 272 273 274 
3 275 274 273 
3 276 272 274 
3 277 276 274 
3 278 277 274 
3 275 278 274 
3 272 279 273 
3 280 273 279 
3 275 273 280 
3 281 282 279 
3 283 279 282 
3 272 281 279 
3 284 285 286 
3 287 280 279 
3 283 287 279 
3 288 289 282 
3 290 282 289 
3 281 288 282 
3 290 283 282 
3 291 292 289 
3 293 289 292 
3 288 291 289 
3 293 290 289 
3 294 295 292 
3 296 292 295 
3 291 294 292 
3 296 293 292 
3 294 297 295 
3 298 295 297 
3 298 296 295 
3 299 300 297 
3 301 297 300 
3 294 299 297 
3 301 298 297 
3 302 303 300 
3 304 300 303 
3 299 302 300 
3 304 301 300 
3 305 306 303 
3 307 303 306 
3 302 305 303 
3 308 304 303 
3 307 308 303 
3 309 286 310 
3 305 311 306 
3 307 306 311 
3 312 313 311 
3 314 311 313 
3 305 312 311 
3 314 307 311 
3 315 316 313 
3 317 313 316 
3 312 315 313 
3 318 313 317 
3 314 313 318 
3 319 316 315 
3 320 316 319 
3 321 316 320 
3 322 317 316 
3 322 316 321 
3 323 315 312 
3 324 315 323 
3 319 315 324 
3 325 312 305 
3 326 312 325 
3 323 312 326 
3 327 305 302 
3 325 305 327 
3 328 302 299 
3 327 302 328 
3 329 299 294 
3 328 299 329 
3 330 294 291 
3 329 294 330 
3 331 291 288 
3 330 291 331 
3 332 288 281 
3 331 288 332 
3 333 281 272 
3 332 281 333 
3 334 272 276 
3 333 272 334 
3 335 336 276 
3 337 276 336 
3 277 335 276 
3 334 276 337 
3 338 336 335 
3 339 337 336 
3 340 339 336 
3 341 340 336 
3 338 341 336 
3 342 335 277 
3 343 338 335 
3 343 335 342 
3 344 277 345 
3 278 345 277 
3 342 277 344 
3 346 286 309 
3 347 275 280 
3 347 280 287 
3 348 287 283 
3 349 350 347 
3 348 351 287 
3 352 287 351 
3 352 347 287 
3 353 283 290 
3 353 348 283 
3 354 290 293 
3 354 353 290 
3 355 293 296 
3 355 354 293 
3 356 296 298 
3 356 355 296 
3 357 298 301 
3 357 356 298 
3 358 301 304 
3 358 357 301 
3 359 304 308 
3 359 358 304 
3 285 310 286 
3 360 308 307 
3 361 359 308 
3 362 361 308 
3 360 362 308 
3 314 360 307 
3 363 364 365 
3 366 365 364 
3 367 363 365 
3 368 367 365 
3 369 365 366 
3 369 368 365 
3 363 370 364 
3 371 364 370 
3 372 366 364 
3 371 372 364 
3 373 374 370 
3 375 370 374 
3 363 373 370 
3 375 371 370 
3 376 377 374 
3 378 374 377 
3 373 376 374 
3 378 375 374 
3 379 380 377 
3 381 377 380 
3 376 379 377 
3 381 378 377 
3 382 383 380 
3 384 380 383 
3 379 382 380 
3 384 381 380 
3 385 386 383 
3 387 383 386 
3 382 385 383 
3 387 384 383 
3 388 389 386 
3 390 386 389 
3 385 388 386 
3 390 387 386 
3 391 392 389 
3 393 389 392 
3 388 391 389 
3 393 390 389 
3 394 395 392 
3 396 392 395 
3 391 394 392 
3 396 393 392 
3 397 398 395 
3 399 395 398 
3 394 397 395 
3 399 396 395 
3 400 401 398 
3 399 398 401 
3 402 400 398 
3 397 402 398 
3 403 401 400 
3 404 399 401 
3 405 404 401 
3 405 401 403 
3 403 400 402 
3 406 402 397 
3 407 402 406 
3 407 403 402 
3 337 397 394 
3 408 406 397 
3 337 408 397 
3 334 394 391 
3 334 337 394 
3 333 391 388 
3 333 334 391 
3 332 388 385 
3 332 333 388 
3 331 385 382 
3 331 332 385 
3 330 382 379 
3 330 331 382 
3 329 379 376 
3 329 330 379 
3 328 376 373 
3 328 329 376 
3 327 373 363 
3 327 328 373 
3 367 409 363 
3 325 363 409 
3 325 327 363 
3 368 409 367 
3 325 409 410 
3 411 410 409 
3 368 411 409 
3 326 325 410 
3 411 326 410 
3 407 406 408 
3 339 408 337 
3 340 408 339 
3 340 407 408 
3 324 323 326 
3 324 326 411 
3 352 349 347 
3 348 412 351 
3 413 351 412 
3 414 351 413 
3 414 352 351 
3 415 412 348 
3 415 413 412 
3 416 348 353 
3 416 415 348 
3 417 353 354 
3 417 416 353 
3 418 354 355 
3 418 417 354 
3 418 355 356 
3 419 356 357 
3 419 418 356 
3 420 357 358 
3 420 419 357 
3 421 358 359 
3 421 420 358 
3 361 422 359 
3 423 359 422 
3 347 350 424 
3 423 421 359 
3 425 422 361 
3 426 423 422 
3 425 426 422 
3 347 424 275 
3 362 425 361 
3 369 366 372 
3 427 372 371 
3 428 372 427 
3 369 372 428 
3 429 371 375 
3 430 371 429 
3 427 371 430 
3 431 375 378 
3 429 375 431 
3 432 378 381 
3 431 378 432 
3 433 381 384 
3 432 381 433 
3 434 384 387 
3 433 384 434 
3 435 387 390 
3 434 387 435 
3 436 390 393 
3 435 390 436 
3 437 393 396 
3 436 393 437 
3 438 396 399 
3 437 396 438 
3 404 439 399 
3 440 399 439 
3 438 399 440 
3 405 439 404 
3 441 440 439 
3 442 441 439 
3 442 439 405 
3 443 444 413 
3 414 413 444 
3 415 443 413 
3 445 446 444 
3 447 444 446 
3 443 445 444 
3 448 444 447 
3 414 444 448 
3 449 446 445 
3 449 450 446 
3 451 446 450 
3 452 447 446 
3 452 446 451 
3 440 445 443 
3 453 454 445 
3 455 445 454 
3 440 453 445 
3 455 449 445 
3 438 443 415 
3 438 440 443 
3 437 415 416 
3 437 438 415 
3 436 416 417 
3 436 437 416 
3 435 417 418 
3 435 436 417 
3 434 418 419 
3 434 435 418 
3 433 419 420 
3 433 434 419 
3 432 420 421 
3 432 433 420 
3 431 421 423 
3 431 432 421 
3 426 456 423 
3 429 423 456 
3 429 431 423 
3 457 458 456 
3 459 456 458 
3 460 457 456 
3 426 460 456 
3 459 429 456 
3 461 458 457 
3 459 458 430 
3 428 430 458 
3 461 462 458 
3 463 458 462 
3 428 458 463 
3 464 457 460 
3 464 461 457 
3 465 460 426 
3 466 460 467 
3 465 467 460 
3 468 460 466 
3 464 460 468 
3 425 465 426 
3 455 454 453 
3 441 453 440 
3 442 453 441 
3 442 455 453 
3 459 430 429 
3 428 427 430 
3 469 470 411 
3 324 411 470 
3 368 469 411 
3 471 472 470 
3 473 470 472 
3 469 471 470 
3 473 324 470 
3 474 475 472 
3 476 472 475 
3 471 474 472 
3 476 473 472 
3 477 478 475 
3 479 475 478 
3 474 477 475 
3 479 476 475 
3 480 481 478 
3 482 478 481 
3 477 480 478 
3 482 479 478 
3 483 484 481 
3 485 481 484 
3 480 483 481 
3 485 482 481 
3 486 487 484 
3 488 484 487 
3 483 486 484 
3 488 485 484 
3 486 489 487 
3 490 487 489 
3 490 488 487 
3 491 492 489 
3 493 489 492 
3 486 491 489 
3 493 490 489 
3 405 403 492 
3 494 492 403 
3 495 405 492 
3 491 495 492 
3 494 493 492 
3 407 494 403 
3 442 405 495 
3 496 495 491 
3 442 495 496 
3 497 491 486 
3 496 491 497 
3 498 486 483 
3 497 486 498 
3 499 483 480 
3 498 483 499 
3 500 480 477 
3 499 480 500 
3 501 477 474 
3 500 477 501 
3 502 474 471 
3 501 474 502 
3 503 471 469 
3 502 471 503 
3 504 469 368 
3 503 469 504 
3 504 368 369 
3 319 324 473 
3 505 473 476 
3 505 319 473 
3 506 476 479 
3 506 505 476 
3 507 479 482 
3 507 506 479 
3 508 482 485 
3 508 507 482 
3 509 485 488 
3 509 508 485 
3 510 488 490 
3 510 509 488 
3 511 490 493 
3 511 510 490 
3 512 493 494 
3 512 511 493 
3 513 494 407 
3 513 512 494 
3 340 513 407 
3 514 319 505 
3 515 320 319 
3 516 515 319 
3 514 516 319 
3 517 505 506 
3 517 514 505 
3 518 506 507 
3 518 517 506 
3 519 507 508 
3 519 518 507 
3 520 508 509 
3 520 519 508 
3 521 509 510 
3 521 520 509 
3 522 510 511 
3 523 521 510 
3 522 523 510 
3 524 511 512 
3 524 522 511 
3 525 512 513 
3 525 524 512 
3 526 513 340 
3 526 525 513 
3 527 526 340 
3 341 527 340 
3 321 320 515 
3 528 515 516 
3 528 321 515 
3 529 516 514 
3 528 516 529 
3 530 514 517 
3 531 529 514 
3 530 531 514 
3 532 517 518 
3 533 530 517 
3 532 533 517 
3 534 518 519 
3 535 532 518 
3 534 535 518 
3 534 519 520 
3 536 520 521 
3 536 534 520 
3 537 521 523 
3 538 521 537 
3 536 521 538 
3 539 523 522 
3 540 537 523 
3 539 540 523 
3 541 522 524 
3 539 522 541 
3 542 524 525 
3 543 541 524 
3 542 543 524 
3 544 525 526 
3 544 542 525 
3 545 526 527 
3 545 546 526 
3 547 526 546 
3 547 544 526 
3 545 527 341 
3 343 341 338 
3 548 545 341 
3 343 548 341 
3 284 546 545 
3 549 547 546 
3 550 549 546 
3 286 550 546 
3 284 286 546 
3 548 284 545 
3 551 541 543 
3 551 539 541 
3 552 543 542 
3 553 543 552 
3 554 543 553 
3 554 551 543 
3 555 542 544 
3 552 542 555 
3 555 544 547 
3 555 547 549 
3 556 529 531 
3 556 528 529 
3 557 531 530 
3 558 531 557 
3 559 531 558 
3 559 556 531 
3 557 530 533 
3 560 533 532 
3 557 533 560 
3 561 532 535 
3 560 532 561 
3 562 535 534 
3 563 561 535 
3 564 563 535 
3 562 564 535 
3 536 562 534 
3 449 565 450 
3 451 450 565 
3 449 566 565 
3 346 565 566 
3 346 451 565 
3 449 549 566 
3 550 566 549 
3 346 566 550 
3 567 555 549 
3 449 567 549 
3 568 552 555 
3 567 568 555 
3 569 570 552 
3 553 552 570 
3 568 569 552 
3 569 571 570 
3 553 570 571 
3 572 573 571 
3 574 571 573 
3 569 572 571 
3 574 553 571 
3 575 576 573 
3 577 573 576 
3 572 575 573 
3 578 573 577 
3 574 573 578 
3 579 580 576 
3 581 576 580 
3 575 579 576 
3 582 577 576 
3 581 582 576 
3 579 561 580 
3 563 580 561 
3 581 580 563 
3 583 560 561 
3 579 583 561 
3 584 557 560 
3 583 584 560 
3 463 585 557 
3 558 557 585 
3 584 463 557 
3 463 462 585 
3 558 585 462 
3 464 462 461 
3 586 558 462 
3 464 586 462 
3 587 463 584 
3 587 428 463 
3 588 584 583 
3 588 587 584 
3 589 583 579 
3 589 588 583 
3 590 579 575 
3 590 589 579 
3 591 575 572 
3 591 590 575 
3 592 572 569 
3 592 591 572 
3 593 569 568 
3 593 592 569 
3 594 568 567 
3 594 593 568 
3 595 567 449 
3 595 594 567 
3 455 595 449 
3 369 428 587 
3 504 587 588 
3 504 369 587 
3 503 588 589 
3 503 504 588 
3 502 589 590 
3 502 503 589 
3 501 590 591 
3 501 502 590 
3 500 591 592 
3 500 501 591 
3 499 592 593 
3 499 500 592 
3 498 593 594 
3 498 499 593 
3 497 594 595 
3 497 498 594 
3 496 595 455 
3 496 497 595 
3 442 496 455 
3 586 559 558 
3 581 563 564 
3 574 554 553 
3 346 550 286 
3 596 597 598 
3 599 598 597 
3 600 596 598 
3 317 598 599 
3 601 600 598 
3 317 601 598 
3 596 602 597 
3 466 597 602 
3 603 599 597 
3 604 603 597 
3 605 604 597 
3 606 605 597 
3 466 606 597 
3 607 602 596 
3 468 466 602 
3 608 468 602 
3 607 608 602 
3 609 607 596 
3 610 609 596 
3 611 610 596 
3 612 611 596 
3 600 612 596 
3 604 599 603 
3 613 599 604 
3 614 317 599 
3 613 614 599 
3 606 604 605 
3 615 604 606 
3 613 604 615 
3 466 615 606 
3 466 616 615 
3 617 615 616 
3 613 615 617 
3 466 467 616 
3 617 616 467 
3 425 467 465 
3 425 617 467 
3 586 468 608 
3 464 468 586 
3 618 619 608 
3 586 608 619 
3 620 618 608 
3 607 620 608 
3 621 619 618 
3 559 619 621 
3 586 619 559 
3 621 618 620 
3 609 620 607 
3 622 620 609 
3 621 620 622 
3 622 609 610 
3 623 610 611 
3 622 610 623 
3 623 611 612 
3 600 623 612 
3 600 624 623 
3 625 623 624 
3 622 623 625 
3 600 626 624 
3 625 624 626 
3 322 626 600 
3 528 626 321 
3 322 321 626 
3 528 625 626 
3 322 600 601 
3 322 601 317 
3 627 318 317 
3 614 627 317 
3 628 318 627 
3 360 318 628 
3 314 318 360 
3 628 627 614 
3 628 614 613 
3 629 630 631 
3 632 631 630 
3 633 629 631 
3 537 631 632 
3 537 633 631 
3 629 634 630 
3 577 630 634 
3 635 632 630 
3 636 635 630 
3 637 636 630 
3 638 637 630 
3 577 638 630 
3 639 634 629 
3 640 577 634 
3 639 640 634 
3 641 639 629 
3 642 641 629 
3 633 642 629 
3 643 632 635 
3 643 537 632 
3 644 635 636 
3 644 643 635 
3 645 636 637 
3 644 636 645 
3 645 637 638 
3 577 645 638 
3 577 646 645 
3 647 645 646 
3 647 644 645 
3 577 648 646 
3 647 646 648 
3 582 648 577 
3 581 648 582 
3 581 647 648 
3 649 578 577 
3 650 649 577 
3 640 650 577 
3 651 578 649 
3 554 578 651 
3 574 578 554 
3 651 649 650 
3 652 650 640 
3 651 650 652 
3 641 640 639 
3 652 640 641 
3 633 641 642 
3 653 641 633 
3 652 641 653 
3 537 653 633 
3 537 654 653 
3 655 653 654 
3 652 653 655 
3 537 656 654 
3 655 654 656 
3 540 656 537 
3 539 656 540 
3 539 655 656 
3 657 538 537 
3 643 657 537 
3 658 538 657 
3 562 538 658 
3 536 538 562 
3 658 657 643 
3 658 643 644 
3 659 660 661 
3 662 661 660 
3 344 659 661 
3 663 661 662 
3 342 344 661 
3 663 342 661 
3 659 664 660 
3 665 660 664 
3 666 662 660 
3 667 666 660 
3 668 667 660 
3 665 668 660 
3 669 664 659 
3 670 665 664 
3 671 670 664 
3 447 671 664 
3 669 447 664 
3 672 669 659 
3 673 672 659 
3 674 673 659 
3 675 674 659 
3 344 675 659 
3 676 662 666 
3 676 663 662 
3 310 666 667 
3 310 676 666 
3 665 667 668 
3 677 667 665 
3 310 667 677 
3 670 677 665 
3 670 678 677 
3 309 677 678 
3 309 310 677 
3 670 679 678 
3 309 678 679 
3 452 679 670 
3 346 679 451 
3 452 451 679 
3 346 309 679 
3 452 670 671 
3 452 671 447 
3 680 448 447 
3 681 680 447 
3 669 681 447 
3 349 448 680 
3 352 448 349 
3 414 448 352 
3 349 680 681 
3 350 681 669 
3 349 681 350 
3 673 669 672 
3 350 669 673 
3 682 673 674 
3 350 673 682 
3 682 674 675 
3 344 682 675 
3 344 683 682 
3 424 682 683 
3 350 682 424 
3 344 345 683 
3 424 683 345 
3 275 345 278 
3 275 424 345 
3 548 342 663 
3 343 342 548 
3 684 685 663 
3 548 663 685 
3 676 684 663 
3 285 685 684 
3 284 685 285 
3 548 685 284 
3 285 684 676 
3 285 676 310 
3 658 644 564 
3 647 564 644 
3 562 658 564 
3 581 564 647 
3 551 655 539 
3 551 652 655 
3 651 652 551 
3 554 651 551 
3 556 625 528 
3 556 622 625 
3 621 622 556 
3 559 621 556 
3 362 617 425 
3 362 613 617 
3 628 613 362 
3 360 628 362 