<?xml version="1.0" encoding="utf-8" standalone="no"?>
<!DOCTYPE svg PUBLIC "-//W3C//DTD SVG 1.1//EN" "http://www.w3.org/Graphics/SVG/1.1/DTD/svg11.dtd">

<svg width="216mm" height="279mm" viewBox="0 0 216 279" xmlns="http://www.w3.org/2000/svg" xmlns:xlink="http://www.w3.org/1999/xlink" version="1.1" style="stroke:black; fill:none; stroke-width:0.5pt; stroke-linejoin:round; text-anchor:middle" font-family="Helvetica, Arial, FreeSans, Sans, sans, sans-serif">

<g>

<rect x="28.0" y="29.5" width="20.0" height="20.0" fill="black" stroke="none" />

<rect x="28.0" y="69.5" width="20.0" height="20.0" fill="black" stroke="none" />

<rect x="28.0" y="109.5" width="20.0" height="20.0" fill="black" stroke="none" />

<rect x="28.0" y="149.5" width="20.0" height="20.0" fill="black" stroke="none" />

<rect x="28.0" y="189.5" width="20.0" height="20.0" fill="black" stroke="none" />

<rect x="28.0" y="229.5" width="20.0" height="20.0" fill="black" stroke="none" />

<rect x="48.0" y="49.5" width="20.0" height="20.0" fill="black" stroke="none" />

<rect x="48.0" y="89.5" width="20.0" height="20.0" fill="black" stroke="none" />

<rect x="48.0" y="129.5" width="20.0" height="20.0" fill="black" stroke="none" />

<rect x="48.0" y="169.5" width="20.0" height="20.0" fill="black" stroke="none" />

<rect x="48.0" y="209.5" width="20.0" height="20.0" fill="black" stroke="none" />

<rect x="68.0" y="29.5" width="20.0" height="20.0" fill="black" stroke="none" />

<rect x="68.0" y="69.5" width="20.0" height="20.0" fill="black" stroke="none" />

<rect x="68.0" y="109.5" width="20.0" height="20.0" fill="black" stroke="none" />

<rect x="68.0" y="149.5" width="20.0" height="20.0" fill="black" stroke="none" />

<rect x="68.0" y="189.5" width="20.0" height="20.0" fill="black" stroke="none" />

<rect x="68.0" y="229.5" width="20.0" height="20.0" fill="black" stroke="none" />

<rect x="88.0" y="49.5" width="20.0" height="20.0" fill="black" stroke="none" />

<rect x="88.0" y="89.5" width="20.0" height="20.0" fill="black" stroke="none" />

<rect x="88.0" y="129.5" width="20.0" height="20.0" fill="black" stroke="none" />

<rect x="88.0" y="169.5" width="20.0" height="20.0" fill="black" stroke="none" />

<rect x="88.0" y="209.5" width="20.0" height="20.0" fill="black" stroke="none" />

<rect x="108.0" y="29.5" width="20.0" height="20.0" fill="black" stroke="none" />

<rect x="108.0" y="69.5" width="20.0" height="20.0" fill="black" stroke="none" />

<rect x="108.0" y="109.5" width="20.0" height="20.0" fill="black" stroke="none" />

<rect x="108.0" y="149.5" width="20.0" height="20.0" fill="black" stroke="none" />

<rect x="108.0" y="189.5" width="20.0" height="20.0" fill="black" stroke="none" />

<rect x="108.0" y="229.5" width="20.0" height="20.0" fill="black" stroke="none" />

<rect x="128.0" y="49.5" width="20.0" height="20.0" fill="black" stroke="none" />

<rect x="128.0" y="89.5" width="20.0" height="20.0" fill="black" stroke="none" />

<rect x="128.0" y="129.5" width="20.0" height="20.0" fill="black" stroke="none" />

<rect x="128.0" y="169.5" width="20.0" height="20.0" fill="black" stroke="none" />

<rect x="128.0" y="209.5" width="20.0" height="20.0" fill="black" stroke="none" />

<rect x="148.0" y="29.5" width="20.0" height="20.0" fill="black" stroke="none" />

<rect x="148.0" y="69.5" width="20.0" height="20.0" fill="black" stroke="none" />

<rect x="148.0" y="109.5" width="20.0" height="20.0" fill="black" stroke="none" />

<rect x="148.0" y="149.5" width="20.0" height="20.0" fill="black" stroke="none" />

<rect x="148.0" y="189.5" width="20.0" height="20.0" fill="black" stroke="none" />

<rect x="148.0" y="229.5" width="20.0" height="20.0" fill="black" stroke="none" />

<rect x="168.0" y="49.5" width="20.0" height="20.0" fill="black" stroke="none" />

<rect x="168.0" y="89.5" width="20.0" height="20.0" fill="black" stroke="none" />

<rect x="168.0" y="129.5" width="20.0" height="20.0" fill="black" stroke="none" />

<rect x="168.0" y="169.5" width="20.0" height="20.0" fill="black" stroke="none" />

<rect x="168.0" y="209.5" width="20.0" height="20.0" fill="black" stroke="none" />

</g>

</svg>

