<?xml version="1.0" encoding="utf-8" standalone="no"?>
<!DOCTYPE svg PUBLIC "-//W3C//DTD SVG 1.1//EN" "http://www.w3.org/Graphics/SVG/1.1/DTD/svg11.dtd">

<svg width="216mm" height="279mm" viewBox="0 0 216 279" xmlns="http://www.w3.org/2000/svg" xmlns:xlink="http://www.w3.org/1999/xlink" version="1.1" style="stroke:black; fill:none; stroke-width:0.5pt; stroke-linejoin:round; text-anchor:middle" font-family="Helvetica, Arial, FreeSans, Sans, sans, sans-serif">

<g>

<circle cx="38.0" cy="39.5" r="4.0" fill="black" stroke="none" />

<circle cx="38.0" cy="59.5" r="4.0" fill="black" stroke="none" />

<circle cx="38.0" cy="79.5" r="4.0" fill="black" stroke="none" />

<circle cx="38.0" cy="99.5" r="4.0" fill="black" stroke="none" />

<circle cx="38.0" cy="119.5" r="4.0" fill="black" stroke="none" />

<circle cx="38.0" cy="139.5" r="4.0" fill="black" stroke="none" />

<circle cx="38.0" cy="159.5" r="4.0" fill="black" stroke="none" />

<circle cx="38.0" cy="179.5" r="4.0" fill="black" stroke="none" />

<circle cx="38.0" cy="199.5" r="4.0" fill="black" stroke="none" />

<circle cx="38.0" cy="219.5" r="4.0" fill="black" stroke="none" />

<circle cx="38.0" cy="239.5" r="4.0" fill="black" stroke="none" />

<circle cx="58.0" cy="39.5" r="4.0" fill="black" stroke="none" />

<circle cx="58.0" cy="59.5" r="4.0" fill="black" stroke="none" />

<circle cx="58.0" cy="79.5" r="4.0" fill="black" stroke="none" />

<circle cx="58.0" cy="99.5" r="4.0" fill="black" stroke="none" />

<circle cx="58.0" cy="119.5" r="4.0" fill="black" stroke="none" />

<circle cx="58.0" cy="139.5" r="4.0" fill="black" stroke="none" />

<circle cx="58.0" cy="159.5" r="4.0" fill="black" stroke="none" />

<circle cx="58.0" cy="179.5" r="4.0" fill="black" stroke="none" />

<circle cx="58.0" cy="199.5" r="4.0" fill="black" stroke="none" />

<circle cx="58.0" cy="219.5" r="4.0" fill="black" stroke="none" />

<circle cx="58.0" cy="239.5" r="4.0" fill="black" stroke="none" />

<circle cx="78.0" cy="39.5" r="4.0" fill="black" stroke="none" />

<circle cx="78.0" cy="59.5" r="4.0" fill="black" stroke="none" />

<circle cx="78.0" cy="79.5" r="4.0" fill="black" stroke="none" />

<circle cx="78.0" cy="99.5" r="4.0" fill="black" stroke="none" />

<circle cx="78.0" cy="119.5" r="4.0" fill="black" stroke="none" />

<circle cx="78.0" cy="139.5" r="4.0" fill="black" stroke="none" />

<circle cx="78.0" cy="159.5" r="4.0" fill="black" stroke="none" />

<circle cx="78.0" cy="179.5" r="4.0" fill="black" stroke="none" />

<circle cx="78.0" cy="199.5" r="4.0" fill="black" stroke="none" />

<circle cx="78.0" cy="219.5" r="4.0" fill="black" stroke="none" />

<circle cx="78.0" cy="239.5" r="4.0" fill="black" stroke="none" />

<circle cx="98.0" cy="39.5" r="4.0" fill="black" stroke="none" />

<circle cx="98.0" cy="59.5" r="4.0" fill="black" stroke="none" />

<circle cx="98.0" cy="79.5" r="4.0" fill="black" stroke="none" />

<circle cx="98.0" cy="99.5" r="4.0" fill="black" stroke="none" />

<circle cx="98.0" cy="119.5" r="4.0" fill="black" stroke="none" />

<circle cx="98.0" cy="139.5" r="4.0" fill="black" stroke="none" />

<circle cx="98.0" cy="159.5" r="4.0" fill="black" stroke="none" />

<circle cx="98.0" cy="179.5" r="4.0" fill="black" stroke="none" />

<circle cx="98.0" cy="199.5" r="4.0" fill="black" stroke="none" />

<circle cx="98.0" cy="219.5" r="4.0" fill="black" stroke="none" />

<circle cx="98.0" cy="239.5" r="4.0" fill="black" stroke="none" />

<circle cx="118.0" cy="39.5" r="4.0" fill="black" stroke="none" />

<circle cx="118.0" cy="59.5" r="4.0" fill="black" stroke="none" />

<circle cx="118.0" cy="79.5" r="4.0" fill="black" stroke="none" />

<circle cx="118.0" cy="99.5" r="4.0" fill="black" stroke="none" />

<circle cx="118.0" cy="119.5" r="4.0" fill="black" stroke="none" />

<circle cx="118.0" cy="139.5" r="4.0" fill="black" stroke="none" />

<circle cx="118.0" cy="159.5" r="4.0" fill="black" stroke="none" />

<circle cx="118.0" cy="179.5" r="4.0" fill="black" stroke="none" />

<circle cx="118.0" cy="199.5" r="4.0" fill="black" stroke="none" />

<circle cx="118.0" cy="219.5" r="4.0" fill="black" stroke="none" />

<circle cx="118.0" cy="239.5" r="4.0" fill="black" stroke="none" />

<circle cx="138.0" cy="39.5" r="4.0" fill="black" stroke="none" />

<circle cx="138.0" cy="59.5" r="4.0" fill="black" stroke="none" />

<circle cx="138.0" cy="79.5" r="4.0" fill="black" stroke="none" />

<circle cx="138.0" cy="99.5" r="4.0" fill="black" stroke="none" />

<circle cx="138.0" cy="119.5" r="4.0" fill="black" stroke="none" />

<circle cx="138.0" cy="139.5" r="4.0" fill="black" stroke="none" />

<circle cx="138.0" cy="159.5" r="4.0" fill="black" stroke="none" />

<circle cx="138.0" cy="179.5" r="4.0" fill="black" stroke="none" />

<circle cx="138.0" cy="199.5" r="4.0" fill="black" stroke="none" />

<circle cx="138.0" cy="219.5" r="4.0" fill="black" stroke="none" />

<circle cx="138.0" cy="239.5" r="4.0" fill="black" stroke="none" />

<circle cx="158.0" cy="39.5" r="4.0" fill="black" stroke="none" />

<circle cx="158.0" cy="59.5" r="4.0" fill="black" stroke="none" />

<circle cx="158.0" cy="79.5" r="4.0" fill="black" stroke="none" />

<circle cx="158.0" cy="99.5" r="4.0" fill="black" stroke="none" />

<circle cx="158.0" cy="119.5" r="4.0" fill="black" stroke="none" />

<circle cx="158.0" cy="139.5" r="4.0" fill="black" stroke="none" />

<circle cx="158.0" cy="159.5" r="4.0" fill="black" stroke="none" />

<circle cx="158.0" cy="179.5" r="4.0" fill="black" stroke="none" />

<circle cx="158.0" cy="199.5" r="4.0" fill="black" stroke="none" />

<circle cx="158.0" cy="219.5" r="4.0" fill="black" stroke="none" />

<circle cx="158.0" cy="239.5" r="4.0" fill="black" stroke="none" />

<circle cx="178.0" cy="39.5" r="4.0" fill="black" stroke="none" />

<circle cx="178.0" cy="59.5" r="4.0" fill="black" stroke="none" />

<circle cx="178.0" cy="79.5" r="4.0" fill="black" stroke="none" />

<circle cx="178.0" cy="99.5" r="4.0" fill="black" stroke="none" />

<circle cx="178.0" cy="119.5" r="4.0" fill="black" stroke="none" />

<circle cx="178.0" cy="139.5" r="4.0" fill="black" stroke="none" />

<circle cx="178.0" cy="159.5" r="4.0" fill="black" stroke="none" />

<circle cx="178.0" cy="179.5" r="4.0" fill="black" stroke="none" />

<circle cx="178.0" cy="199.5" r="4.0" fill="black" stroke="none" />

<circle cx="178.0" cy="219.5" r="4.0" fill="black" stroke="none" />

<circle cx="178.0" cy="239.5" r="4.0" fill="black" stroke="none" />

</g>

</svg>

