{
	"asset":{
		"generator":"Khronos glTF Blender I/O v4.2.57",
		"version":"2.0"
	},
	"extensionsUsed":[
		"KHR_materials_specular"
	],
	"scene":0,
	"scenes":[
		{
			"name":"Scene",
			"nodes":[
				0
			]
		}
	],
	"nodes":[
		{
			"mesh":0,
			"name":"Mesh_0",
			"rotation":[
				0,
				0,
				0.289157897233963,
				0.9572814106941223
			],
			"translation":[
				1.1185322999954224,
				-0.3618893623352051,
				-0.4359703063964844
			]
		}
	],
	"materials":[
		{
			"extensions":{
				"KHR_materials_specular":{
					"specularFactor":0.4035087823867798
				}
			},
			"name":"Material_0",
			"normalTexture":{
				"index":0
			},
			"occlusionTexture":{
				"index":1
			},
			"pbrMetallicRoughness":{
				"baseColorTexture":{
					"index":2
				},
				"metallicFactor":0,
				"roughnessFactor":0.7909090518951416
			}
		}
	],
	"meshes":[
		{
			"name":"Mesh_0",
			"primitives":[
				{
					"attributes":{
						"POSITION":0,
						"NORMAL":1,
						"TEXCOORD_0":2
					},
					"indices":3,
					"material":0
				}
			]
		}
	],
	"textures":[
		{
			"sampler":0,
			"source":0
		},
		{
			"sampler":0,
			"source":1
		},
		{
			"sampler":0,
			"source":2
		}
	],
	"images":[
		{
			"mimeType":"image/jpeg",
			"name":"Image_0",
			"uri":"Image_0.jpg"
		},
		{
			"mimeType":"image/jpeg",
			"name":"Image_1",
			"uri":"Image_1.jpg"
		},
		{
			"mimeType":"image/jpeg",
			"name":"Image_2",
			"uri":"Image_2.jpg"
		}
	],
	"accessors":[
		{
			"bufferView":0,
			"componentType":5126,
			"count":38049,
			"max":[
				0.9790341854095459,
				0.9088926315307617,
				1.059618592262268
			],
			"min":[
				-1.2062169313430786,
				-0.9456644058227539,
				0.43866971135139465
			],
			"type":"VEC3"
		},
		{
			"bufferView":1,
			"componentType":5126,
			"count":38049,
			"type":"VEC3"
		},
		{
			"bufferView":2,
			"componentType":5126,
			"count":38049,
			"type":"VEC2"
		},
		{
			"bufferView":3,
			"componentType":5123,
			"count":38061,
			"type":"SCALAR"
		}
	],
	"bufferViews":[
		{
			"buffer":0,
			"byteLength":456588,
			"byteOffset":0,
			"target":34962
		},
		{
			"buffer":0,
			"byteLength":456588,
			"byteOffset":456588,
			"target":34962
		},
		{
			"buffer":0,
			"byteLength":304392,
			"byteOffset":913176,
			"target":34962
		},
		{
			"buffer":0,
			"byteLength":76122,
			"byteOffset":1217568,
			"target":34963
		}
	],
	"samplers":[
		{
			"magFilter":9729,
			"minFilter":9987
		}
	],
	"buffers":[
		{
			"byteLength":1293692,
			"uri":"Couch.bin"
		}
	]
}
