<?xml version="1.0" encoding="UTF-8" standalone="no"?>
<!-- Created with Inkscape (http://www.inkscape.org/) -->

<svg
   width="698.36865"
   height="698.36865"
   viewBox="0 0 698.36865 698.36865"
   version="1.1"
   id="SVGRoot"
   sodipodi:docname="rdx-icon.svg"
   xml:space="preserve"
   inkscape:version="1.2.1 (9c6d41e410, 2022-07-14, custom)"
   inkscape:export-filename="rdx-icon48.png"
   inkscape:export-xdpi="6.5982342"
   inkscape:export-ydpi="6.5982342"
   xmlns:inkscape="http://www.inkscape.org/namespaces/inkscape"
   xmlns:sodipodi="http://sodipodi.sourceforge.net/DTD/sodipodi-0.dtd"
   xmlns="http://www.w3.org/2000/svg"
   xmlns:svg="http://www.w3.org/2000/svg"><sodipodi:namedview
     id="namedview137"
     pagecolor="#ffffff"
     bordercolor="#999999"
     borderopacity="1"
     inkscape:showpageshadow="0"
     inkscape:pageopacity="0"
     inkscape:pagecheckerboard="0"
     inkscape:deskcolor="#d1d1d1"
     inkscape:document-units="px"
     showgrid="false"
     inkscape:zoom="0.914906"
     inkscape:cx="118.59142"
     inkscape:cy="450.31948"
     inkscape:window-width="3440"
     inkscape:window-height="1369"
     inkscape:window-x="2560"
     inkscape:window-y="0"
     inkscape:window-maximized="1"
     inkscape:current-layer="layer1"><inkscape:grid
       type="xygrid"
       id="grid3366"
       originx="-220"
       originy="-220" /></sodipodi:namedview><defs
     id="defs132"><rect
       x="261.44757"
       y="282.21481"
       width="313.47488"
       height="554.8111"
       id="rect11349" /></defs><g
     inkscape:label="Layer 1"
     inkscape:groupmode="layer"
     id="layer1"
     transform="translate(-220,-220)"><rect
       style="opacity:0.992;fill:#000000;fill-opacity:1;stroke:none;stroke-width:2.51339;stroke-dasharray:none"
       id="rect366"
       width="698.36865"
       height="698.36865"
       x="220"
       y="220"
       ry="89.962433" /><g
       id="g9032"
       transform="matrix(0.659195,0,0,0.659195,268.82624,184.51534)"><circle
         style="opacity:0.992;fill:#7399c6;fill-opacity:1;stroke:none;stroke-width:2.53749"
         id="path6072"
         cx="591.31757"
         cy="207.34377"
         r="103.61723" /><path
         style="opacity:1;fill:#7399c6;fill-opacity:1;stroke:none;stroke-width:4.40315;stroke-linecap:butt;stroke-linejoin:miter;stroke-miterlimit:4;stroke-dasharray:none;stroke-dashoffset:0;stroke-opacity:1"
         d="m 208.27275,461.14028 c 65.71296,-63.68501 176.77895,-91.3236 209.52973,-93.12433 30.02463,-2.90724 61.58439,-4.47122 101.97768,1.69416 l 83.77905,8.68941 c 53.24732,7.68933 98.49266,0.66835 138.70281,-10.32892 32.54915,-9.23188 55.33009,-19.68481 73.94205,-30.65888 24.09768,-15.23944 43.06689,-33.5093 57.54692,-54.43183 l 78.73847,85.21713 c -6.40137,20.61098 -21.99751,40.54084 -40.11207,60.28415 -24.47437,23.65102 -49.7949,37.14562 -75.12328,50.54594 -36.98085,15.83135 -62.4098,22.56113 -85.09338,27.12787 -30.10582,6.42455 -61.61653,9.47739 -93.90415,10.66567 -1.77119,68.55612 -4.18238,136.04547 -7.26503,202.41561 32.14095,-2.74303 64.05528,-2.99355 95.75897,-0.92746 14.14088,1.421 25.95663,1.91194 52.63278,8.34705 15.16275,3.76279 29.99592,9.8332 44.2857,19.70828 20.72584,16.05345 26.23171,41.88177 34.77931,64.45764 14.24211,51.57764 17.99964,105.77633 22.0269,159.90759 l 1.62293,54.48764 -128.45157,6.724 c -1.86058,-24.5209 -3.25405,-48.92493 -6.26036,-73.73221 -3.34795,-20.75161 -6.52325,-41.88306 -11.3612,-59.35669 -2.77045,-9.35594 -5.57045,-18.72074 -11.36121,-28.98276 -5.63627,-10.97666 -15.7905,-11.17945 -25.27293,-12.98427 -16.50622,-0.98961 -35.53583,-1.40725 -74.89148,2.78235 l -20.40388,1.85489 c -6.58736,16.43729 -18.02905,33.10576 -31.06949,49.85036 -17.43438,20.52591 -38.08299,39.90387 -59.82044,58.89296 -15.43839,13.87022 -31.08986,23.04952 -46.83613,30.14207 -28.3363,11.5442 -57.37598,20.4507 -86.94829,27.3597 -36.13167,8.2883 -73.52907,15.1301 -111.82331,20.9469 L 287.3246,912.68939 c 35.80642,-7.66959 70.97182,-16.55709 104.60092,-28.36357 23.68346,-7.66098 44.95721,-16.52192 62.08287,-27.02464 14.65027,-10.35101 26.08362,-23.67413 32.7083,-43.61103 13.83333,-35.51891 19.75816,-73.37442 24.0735,-111.70547 7.37508,-60.46513 6.36979,-126.7534 5.76822,-191.27912 -27.67524,-8.20852 -47.86346,-8.40583 -71.05509,-8.71472 -26.51344,-0.57538 -51.75142,4.94294 -76.3015,13.74778 -33.52658,12.00012 -57.7136,30.2958 -81.84734,52.86456 z"
         id="path6491"
         sodipodi:nodetypes="ccccccccccccccccccccccccccccccccccccccccc" /></g><text
       xml:space="preserve"
       id="text11347"
       style="font-style:normal;font-variant:normal;font-weight:bold;font-stretch:normal;font-size:96px;line-height:1.25;font-family:'Segoe UI';-inkscape-font-specification:'Segoe UI, Bold';font-variant-ligatures:normal;font-variant-caps:normal;font-variant-numeric:normal;font-variant-east-asian:normal;text-align:center;letter-spacing:0px;word-spacing:0px;writing-mode:lr-tb;white-space:pre;shape-inside:url(#rect11349);display:inline;fill:#ffffff;fill-opacity:1;stroke:none"
       transform="matrix(1.8469737,0,0,1.8469737,-454.3207,-270.23599)"><tspan
         x="386.84863"
         y="368.68727"
         id="tspan13682">R
</tspan><tspan
         x="382.79395"
         y="488.68727"
         id="tspan13684">D
</tspan><tspan
         x="386.73145"
         y="608.68727"
         id="tspan13686">X</tspan></text></g></svg>
