# 3ds Max Wavefront OBJ Exporter v0.97b - (c)2007 guruware
# File Created: 30.01.2015 11:00:07

mtllib mtorso.mtl

#
# object mtorso
#

v  0.0163 -0.0135 0.0612
v  0.0163 -0.0129 0.0343
v  0.0163 0.0130 0.0343
v  0.0163 0.0169 0.0463
v  0.0163 -0.0168 0.0463
v  0.0163 0.0135 0.0612
v  0.0163 0.0000 0.0678
v  0.0163 -0.0129 -0.0051
v  0.0163 0.0130 -0.0051
v  0.0074 -0.0129 -0.0156
v  0.0074 0.0130 -0.0156
v  -0.0349 -0.0129 -0.0203
v  -0.0349 0.0130 -0.0203
v  -0.0438 -0.0129 -0.0143
v  -0.0438 0.0130 -0.0143
v  -0.0648 -0.0129 0.0383
v  -0.0648 0.0130 0.0383
v  -0.0674 -0.0157 0.0500
v  -0.0674 0.0157 0.0500
v  -0.0671 -0.0087 0.0765
v  -0.0671 0.0088 0.0765
v  -0.0671 -0.0037 0.0809
v  -0.0671 0.0037 0.0809
v  -0.0244 0.0130 0.0220
v  -0.0340 0.0130 0.0299
v  -0.0340 -0.0129 0.0299
v  -0.0244 -0.0129 0.0220
v  -0.0340 0.0157 0.0500
v  -0.0340 -0.0157 0.0458
v  -0.0337 0.0088 0.0765
v  -0.0337 -0.0087 0.0765
v  -0.0337 0.0037 0.0809
v  -0.0337 -0.0037 0.0809
v  0.0060 0.0169 0.0463
v  0.0060 -0.0129 0.0343
v  0.0060 -0.0168 0.0463
v  0.0060 -0.0135 0.0612
v  0.0060 0.0130 0.0343
v  0.0060 0.0135 0.0612
v  0.0060 0.0000 0.0678
v  0.0060 0.0130 0.0315
v  0.0060 -0.0129 0.0315
v  -0.0029 0.0130 0.0218
v  -0.0029 -0.0129 0.0218
# 44 vertices

vn 0.6215 -0.6154 0.4847
vn 0.7440 -0.6600 -0.1044
vn 0.7440 0.6600 -0.1044
vn 0.6523 0.7571 -0.0355
vn 0.6523 -0.7571 -0.0355
vn 0.6215 0.6155 0.4847
vn 0.6200 -0.0000 0.7846
vn 0.7236 -0.6373 -0.2651
vn 0.7236 0.6373 -0.2651
vn 0.3643 -0.6326 -0.6835
vn 0.3643 0.6326 -0.6835
vn -0.1862 -0.6366 -0.7483
vn -0.1862 0.6366 -0.7483
vn -0.5927 -0.6448 -0.4827
vn -0.5946 0.6470 -0.4773
vn -0.7232 -0.6245 -0.2951
vn -0.7175 0.6217 -0.3140
vn -0.6782 -0.7339 -0.0362
vn -0.6863 0.7263 -0.0383
vn -0.6403 -0.6532 0.4042
vn -0.6432 0.6478 0.4082
vn -0.6355 -0.2693 0.7236
vn -0.6355 0.2693 0.7236
vn 0.2098 0.7912 0.5744
vn 0.5462 0.8124 0.2041
vn 0.7908 -0.5942 0.1470
vn 0.2098 -0.7912 0.5744
vn 0.6641 0.7464 0.0422
vn 0.6673 -0.7435 0.0432
vn 0.6490 0.6482 0.3983
vn 0.6459 -0.6568 0.3891
vn 0.6371 0.2695 0.7221
vn 0.6371 -0.2695 0.7221
vn -0.6523 0.7571 -0.0355
vn -0.7440 -0.6600 -0.1044
vn -0.6523 -0.7571 -0.0355
vn -0.6215 -0.6154 0.4847
vn -0.7440 0.6600 -0.1043
vn -0.6215 0.6155 0.4847
vn -0.6200 -0.0000 0.7846
vn -0.5608 0.7986 0.2184
vn -0.5609 -0.7986 0.2184
vn -0.2336 0.8107 0.5368
vn -0.2336 -0.8107 0.5368
# 44 vertex normals

vt 0.0814 0.9878 0.0000
vt 0.0818 0.9752 0.0000
vt 0.0940 0.9753 0.0000
vt 0.0958 0.9809 0.0000
vt 0.0800 0.9808 0.0000
vt 0.0942 0.9879 0.0000
vt 0.0878 0.9910 0.0000
vt 0.0821 0.9566 0.0000
vt 0.0943 0.9568 0.0000
vt 0.0821 0.9501 0.0000
vt 0.0943 0.9502 0.0000
vt 0.0824 0.9300 0.0000
vt 0.0946 0.9302 0.0000
vt 0.0825 0.9250 0.0000
vt 0.0947 0.9251 0.0000
vt 0.0829 0.8983 0.0000
vt 0.0951 0.8985 0.0000
vt 0.0817 0.8926 0.0000
vt 0.0965 0.8929 0.0000
vt 0.0852 0.8802 0.0000
vt 0.0934 0.8803 0.0000
vt 0.0876 0.8782 0.0000
vt 0.0911 0.8782 0.0000
vt 0.0788 0.8397 0.0000
vt 0.0786 0.8337 0.0000
vt 0.0912 0.8332 0.0000
vt 0.0914 0.8392 0.0000
vt 0.0769 0.8240 0.0000
vt 0.0922 0.8254 0.0000
vt 0.0798 0.8110 0.0000
vt 0.0883 0.8107 0.0000
vt 0.0821 0.8088 0.0000
vt 0.0857 0.8087 0.0000
vt 0.0777 0.8637 0.0000
vt 0.0920 0.8574 0.0000
vt 0.0941 0.8632 0.0000
vt 0.0927 0.8704 0.0000
vt 0.0794 0.8578 0.0000
vt 0.0796 0.8708 0.0000
vt 0.0862 0.8739 0.0000
vt 0.0794 0.8565 0.0000
vt 0.0920 0.8561 0.0000
vt 0.0792 0.8501 0.0000
vt 0.0917 0.8497 0.0000
vt 0.3837 0.1917 0.0000
vt 0.3948 0.1799 0.0000
vt 0.3974 0.1823 0.0000
vt 0.3864 0.1942 0.0000
vt 0.3778 0.2197 0.0000
vt 0.3811 0.2160 0.0000
vt 0.3866 0.2209 0.0000
vt 0.3833 0.2246 0.0000
vt 0.3912 0.2250 0.0000
vt 0.3879 0.2287 0.0000
vt 0.3922 0.2259 0.0000
vt 0.3986 0.2258 0.0000
vt 0.4020 0.2415 0.0000
vt 0.4056 0.2180 0.0000
vt 0.4242 0.2281 0.0000
vt 0.4087 0.2417 0.0000
vt 0.4059 0.2120 0.0000
vt 0.4249 0.2230 0.0000
vt 0.4002 0.2067 0.0000
vt 0.4131 0.1982 0.0000
vt 0.3888 0.1964 0.0000
vt 0.3998 0.1845 0.0000
vt 0.4096 0.1934 0.0000
vt 0.3723 0.2149 0.0000
vt 0.3757 0.2111 0.0000
vt 0.3584 0.2015 0.0000
vt 0.3619 0.1980 0.0000
vt 0.3671 0.2032 0.0000
vt 0.3635 0.2067 0.0000
vt 0.3532 0.1962 0.0000
vt 0.3567 0.1927 0.0000
vt 0.3489 0.1919 0.0000
vt 0.3524 0.1884 0.0000
vt 0.3354 0.1784 0.0000
vt 0.3512 0.1810 0.0000
vt 0.3515 0.1874 0.0000
vt 0.3477 0.1556 0.0000
vt 0.3586 0.1737 0.0000
vt 0.3348 0.1718 0.0000
vt 0.3647 0.1731 0.0000
vt 0.3528 0.1546 0.0000
vt 0.3781 0.1652 0.0000
vt 0.3813 0.1894 0.0000
vt 0.3718 0.1800 0.0000
vt 0.3831 0.1684 0.0000
vt 0.3925 0.1777 0.0000
# 90 texture coords

g mtorso
usemtl torso_diffuse
s off
f 1/1/1 2/2/2 3/3/3 
f 3/3/3 4/4/4 1/1/1 
f 1/1/1 5/5/5 2/2/2 
f 6/6/6 7/7/7 1/1/1 
f 1/1/1 4/4/4 6/6/6 
f 8/8/8 9/9/9 3/3/3 
f 3/3/3 2/2/2 8/8/8 
f 10/10/10 11/11/11 9/9/9 
f 9/9/9 8/8/8 10/10/10 
f 12/12/12 13/13/13 11/11/11 
f 11/11/11 10/10/10 12/12/12 
f 14/14/14 15/15/15 13/13/13 
f 13/13/13 12/12/12 14/14/14 
f 16/16/16 17/17/17 15/15/15 
f 15/15/15 14/14/14 16/16/16 
f 18/18/18 19/19/19 17/17/17 
f 17/17/17 16/16/16 18/18/18 
f 20/20/20 21/21/21 19/19/19 
f 19/19/19 18/18/18 20/20/20 
f 22/22/22 23/23/23 21/21/21 
f 21/21/21 20/20/20 22/22/22 
f 24/24/24 25/25/25 26/26/26 
f 26/26/26 27/27/27 24/24/24 
f 25/25/25 28/28/28 29/29/29 
f 29/29/29 26/26/26 25/25/25 
f 28/28/28 30/30/30 31/31/31 
f 31/31/31 29/29/29 28/28/28 
f 30/30/30 32/32/32 33/33/33 
f 33/33/33 31/31/31 30/30/30 
f 34/34/34 35/35/35 36/36/36 
f 36/36/36 37/37/37 34/34/34 
f 34/34/34 38/38/38 35/35/35 
f 39/39/39 34/34/34 37/37/37 
f 37/37/37 40/40/40 39/39/39 
f 38/38/38 41/41/41 42/42/42 
f 42/42/42 35/35/35 38/38/38 
f 41/41/41 43/43/43 44/44/44 
f 44/44/44 42/42/42 41/41/41 
f 32/45/32 23/46/23 22/47/22 
f 22/47/22 33/48/33 32/45/32 
f 43/43/43 24/24/24 27/27/27 
f 27/27/27 44/44/44 43/43/43 
f 1/49/1 37/50/37 36/51/36 
f 36/51/36 5/52/5 1/49/1 
f 5/52/5 36/51/36 35/53/35 
f 35/53/35 2/54/2 5/52/5 
f 42/55/42 44/56/44 8/57/8 
f 8/57/8 2/54/2 42/55/42 
f 44/56/44 27/58/27 12/59/12 
f 12/59/12 10/60/10 44/56/44 
f 12/59/12 27/58/27 26/61/26 
f 26/61/26 14/62/14 12/59/12 
f 14/62/14 26/61/26 29/63/29 
f 29/63/29 16/64/16 14/62/14 
f 29/63/29 31/65/31 20/66/20 
f 20/66/20 18/67/18 29/63/29 
f 7/68/7 40/69/40 37/50/37 
f 37/50/37 1/49/1 7/68/7 
f 6/70/6 39/71/39 40/72/40 
f 40/72/40 7/73/7 6/70/6 
f 4/74/4 34/75/34 39/71/39 
f 39/71/39 6/70/6 4/74/4 
f 3/76/3 38/77/38 34/75/34 
f 34/75/34 4/74/4 3/76/3 
f 9/78/9 43/79/43 41/80/41 
f 41/80/41 3/76/3 9/78/9 
f 13/81/13 24/82/24 43/79/43 
f 43/79/43 11/83/11 13/81/13 
f 25/84/25 24/82/24 15/85/15 
f 15/85/15 17/86/17 25/84/25 
f 30/87/30 28/88/28 19/89/19 
f 19/89/19 21/90/21 30/87/30 
f 23/46/23 32/45/32 30/87/30 
f 30/87/30 21/90/21 23/46/23 
f 11/83/11 43/79/43 9/78/9 
f 8/57/8 44/56/44 10/60/10 
f 15/85/15 24/82/24 13/81/13 
f 19/89/19 28/88/28 25/84/25 
f 25/84/25 17/86/17 19/89/19 
f 16/64/16 29/63/29 18/67/18 
f 22/47/22 20/66/20 31/65/31 
f 31/65/31 33/48/33 22/47/22 
f 42/55/42 2/54/2 35/53/35 
f 38/77/38 3/76/3 41/80/41 
# 0 polygons - 84 triangles

