# File units = meters
mtllib Total Platform.mtl
g Part 1
v 0.902895 1.01838 2.8599 
v 0.902895 1.01838 2.5551 
v 0.902895 4.32038 2.5551 
v 0.902895 4.32038 2.8599 
v 2.13479 4.32038 2.5551 
v 2.13479 4.32038 2.8599 
v 2.13479 5.55228 2.5551 
v 2.13479 5.55228 2.8599 
v -1.66251 5.55228 2.8599 
v -1.66251 1.01838 2.8599 
v -1.66251 1.01838 2.5551 
v -1.66251 5.55228 2.5551 
vn 1 1.78078e-31 -5.55112e-17 
vn 1.78078e-31 -1 0 
vn 5.55112e-17 0 1 
vn -5.55112e-17 0 -1 
vn -1.78078e-31 1 0 
vn -1 -1.78078e-31 5.55112e-17 
vn 1.78078e-31 -1 0 
usemtl 0.615686_0.811765_0.929412_0.000000_0.000000
o mesh0
f 1//1 2//1 3//1 
f 3//1 4//1 1//1 
o mesh1
f 4//2 3//2 5//2 
f 5//2 6//2 4//2 
o mesh2
f 6//1 5//1 7//1 
f 7//1 8//1 6//1 
o mesh3
f 8//3 9//3 4//3 
f 10//3 1//3 4//3 
f 4//3 9//3 10//3 
f 4//3 6//3 8//3 
o mesh4
f 11//4 12//4 3//4 
f 7//4 5//4 3//4 
f 3//4 12//4 7//4 
f 3//4 2//4 11//4 
o mesh5
f 8//5 7//5 12//5 
f 12//5 9//5 8//5 
o mesh6
f 9//6 12//6 11//6 
f 11//6 10//6 9//6 
o mesh7
f 10//7 11//7 2//7 
f 2//7 1//7 10//7 
g Part 6
v 2.09669 2.09153 0.9549 
v 1.09669 2.09153 0.9549 
v 1.09669 1.81213 0.9549 
v 2.09669 1.81213 0.9549 
v 1.09669 1.81213 0.9295 
v 2.09669 1.81213 0.9295 
v 1.09669 2.09153 0.9295 
v 2.09669 2.09153 0.9295 
vn 0 0 1 
vn 0 -1 0 
vn 0 3.9736e-16 -1 
vn 0 1 0 
vn 1 0 0 
vn -1 0 0 
usemtl 0.972549_0.529412_0.003922_0.000000_0.000000
o mesh8
f 13//8 14//8 15//8 
f 15//8 16//8 13//8 
o mesh9
f 16//9 15//9 17//9 
f 17//9 18//9 16//9 
o mesh10
f 18//10 17//10 19//10 
f 19//10 20//10 18//10 
o mesh11
f 20//11 19//11 14//11 
f 14//11 13//11 20//11 
o mesh12
f 20//12 13//12 16//12 
f 16//12 18//12 20//12 
o mesh13
f 17//13 15//13 14//13 
f 14//13 19//13 17//13 
g Part 16
v 1.05859 0.7993 0.00240026 
v 1.09669 0.7993 0.00240026 
v 1.09669 0.7993 0.2056 
v 1.05859 0.7993 0.2056 
v 1.05859 1.1041 0.00240026 
v 1.09669 1.1041 0.00240026 
v 1.05859 4.32038 2.91412 
v 1.05859 4.32038 2.47646 
v 1.09669 4.32038 2.47646 
v 1.09669 4.32038 2.91412 
vn 0 -1 0 
vn 0 -9.07e-16 -1 
vn -1 0 0 
vn 1 0 0 
vn 0 0.609711 -0.792624 
vn 0 1 0 
vn 0 -0.609711 0.792624 
usemtl 0.498039_0.498039_0.498039_0.000000_0.000000
o mesh14
f 21//14 22//14 23//14 
f 23//14 24//14 21//14 
o mesh15
f 25//15 26//15 22//15 
f 22//15 21//15 25//15 
o mesh16
f 24//16 27//16 28//16 
f 28//16 25//16 24//16 
f 25//16 21//16 24//16 
o mesh17
f 23//17 26//17 29//17 
f 23//17 22//17 26//17 
f 29//17 30//17 23//17 
o mesh18
f 28//18 29//18 26//18 
f 26//18 25//18 28//18 
o mesh19
f 27//19 30//19 29//19 
f 29//19 28//19 27//19 
o mesh20
f 24//20 23//20 30//20 
f 30//20 27//20 24//20 
g Part 13
v 2.09669 3.82508 2.2884 
v 1.09669 3.82508 2.2884 
v 1.09669 3.54568 2.2884 
v 2.09669 3.54568 2.2884 
v 1.09669 3.54568 2.263 
v 2.09669 3.54568 2.263 
v 1.09669 3.82508 2.263 
v 2.09669 3.82508 2.263 
vn 0 0 1 
vn 0 -1 0 
vn 0 1.58944e-15 -1 
vn 0 1 0 
vn 1 0 0 
vn -1 0 0 
usemtl 0.768627_0.886275_0.952941_0.000000_0.000000
o mesh21
f 31//21 32//21 33//21 
f 33//21 34//21 31//21 
o mesh22
f 34//22 33//22 35//22 
f 35//22 36//22 34//22 
o mesh23
f 36//23 35//23 37//23 
f 37//23 38//23 36//23 
o mesh24
f 38//24 37//24 32//24 
f 32//24 31//24 38//24 
o mesh25
f 38//25 31//25 34//25 
f 34//25 36//25 38//25 
o mesh26
f 35//26 33//26 32//26 
f 32//26 37//26 35//26 
g Part 12
v 2.09669 3.57743 2.0979 
v 1.09669 3.57743 2.0979 
v 1.09669 3.29803 2.0979 
v 2.09669 3.29803 2.0979 
v 1.09669 3.29803 2.0725 
v 2.09669 3.29803 2.0725 
v 1.09669 3.57743 2.0725 
v 2.09669 3.57743 2.0725 
vn 0 0 1 
vn 0 -1 0 
vn 0 1.58944e-15 -1 
vn 0 1 0 
vn 1 0 0 
vn -1 0 0 
usemtl 0.917647_0.917647_0.917647_0.000000_0.000000
o mesh27
f 39//27 40//27 41//27 
f 41//27 42//27 39//27 
o mesh28
f 42//28 41//28 43//28 
f 43//28 44//28 42//28 
o mesh29
f 44//29 43//29 45//29 
f 45//29 46//29 44//29 
o mesh30
f 46//30 45//30 40//30 
f 40//30 39//30 46//30 
o mesh31
f 46//31 39//31 42//31 
f 42//31 44//31 46//31 
o mesh32
f 43//32 41//32 40//32 
f 40//32 45//32 43//32 
g Part 2
v 1.09669 1.06918 0.3834 
v 2.09669 1.06918 0.3834 
v 2.09669 1.34858 0.3834 
v 1.09669 1.34858 0.3834 
v 2.09669 1.34858 0.358 
v 1.09669 1.34858 0.358 
v 2.09669 1.06918 0.358 
v 1.09669 1.06918 0.358 
vn 5.55112e-17 1.9868e-16 1 
vn -2.23314e-31 1 -1.36592e-16 
vn -5.55112e-17 -2.9802e-16 -1 
vn 2.15731e-31 -1 3.9443e-31 
vn -1 -2.15731e-31 5.55112e-17 
vn 1 2.15731e-31 -5.55112e-17 
usemtl 0.647059_0.647059_0.647059_0.000000_0.000000
o mesh33
f 47//33 48//33 49//33 
f 49//33 50//33 47//33 
o mesh34
f 50//34 49//34 51//34 
f 51//34 52//34 50//34 
o mesh35
f 52//35 51//35 53//35 
f 53//35 54//35 52//35 
o mesh36
f 54//36 53//36 48//36 
f 48//36 47//36 54//36 
o mesh37
f 54//37 47//37 50//37 
f 50//37 52//37 54//37 
o mesh38
f 51//38 49//38 48//38 
f 48//38 53//38 51//38 
g Part 5
v 2.09669 1.84388 0.7644 
v 1.09669 1.84388 0.7644 
v 1.09669 1.56448 0.7644 
v 2.09669 1.56448 0.7644 
v 1.09669 1.56448 0.739 
v 2.09669 1.56448 0.739 
v 1.09669 1.84388 0.739 
v 2.09669 1.84388 0.739 
vn 0 0 1 
vn 0 -1 0 
vn 0 3.9736e-16 -1 
vn 0 1 0 
vn 1 0 0 
vn -1 0 0 
usemtl 0.768627_0.886275_0.952941_0.000000_0.000000
o mesh39
f 55//39 56//39 57//39 
f 57//39 58//39 55//39 
o mesh40
f 58//40 57//40 59//40 
f 59//40 60//40 58//40 
o mesh41
f 60//41 59//41 61//41 
f 61//41 62//41 60//41 
o mesh42
f 62//42 61//42 56//42 
f 56//42 55//42 62//42 
o mesh43
f 62//43 55//43 58//43 
f 58//43 60//43 62//43 
o mesh44
f 59//44 57//44 56//44 
f 56//44 61//44 59//44 
g Part 14
v 2.09669 4.07273 2.4789 
v 1.09669 4.07273 2.4789 
v 1.09669 3.79333 2.4789 
v 2.09669 3.79333 2.4789 
v 1.09669 3.79333 2.4535 
v 2.09669 3.79333 2.4535 
v 1.09669 4.07273 2.4535 
v 2.09669 4.07273 2.4535 
vn 0 0 1 
vn 0 -1 0 
vn 0 1.58944e-15 -1 
vn 0 1 0 
vn 1 0 0 
vn -1 0 0 
usemtl 0.972549_0.529412_0.003922_0.000000_0.000000
o mesh45
f 63//45 64//45 65//45 
f 65//45 66//45 63//45 
o mesh46
f 66//46 65//46 67//46 
f 67//46 68//46 66//46 
o mesh47
f 68//47 67//47 69//47 
f 69//47 70//47 68//47 
o mesh48
f 70//48 69//48 64//48 
f 64//48 63//48 70//48 
o mesh49
f 70//49 63//49 66//49 
f 66//49 68//49 70//49 
o mesh50
f 67//50 65//50 64//50 
f 64//50 69//50 67//50 
g Part 15
v 2.13479 0.7993 0.2056 
v 2.09669 0.7993 0.2056 
v 2.09669 0.7993 0.00240026 
v 2.13479 0.7993 0.00240026 
v 2.09669 1.1041 0.00240026 
v 2.13479 1.1041 0.00240026 
v 2.13479 4.32038 2.47646 
v 2.13479 4.32038 2.91412 
v 2.09669 4.32038 2.91412 
v 2.09669 4.32038 2.47646 
vn 0 -1 0 
vn 0 -9.07e-16 -1 
vn 1 0 0 
vn -1 0 0 
vn 0 0.609711 -0.792624 
vn 0 1 0 
vn 0 -0.609711 0.792624 
usemtl 0.498039_0.498039_0.498039_0.000000_0.000000
o mesh51
f 71//51 72//51 73//51 
f 73//51 74//51 71//51 
o mesh52
f 74//52 73//52 75//52 
f 75//52 76//52 74//52 
o mesh53
f 71//53 76//53 77//53 
f 71//53 74//53 76//53 
f 77//53 78//53 71//53 
o mesh54
f 72//54 79//54 80//54 
f 80//54 75//54 72//54 
f 75//54 73//54 72//54 
o mesh55
f 76//55 75//55 80//55 
f 80//55 77//55 76//55 
o mesh56
f 77//56 80//56 79//56 
f 79//56 78//56 77//56 
o mesh57
f 78//57 79//57 72//57 
f 72//57 71//57 78//57 
g Part 3
v 2.09669 1.10093 0.1929 
v 1.09669 1.10093 0.1929 
v 1.09669 0.821525 0.1929 
v 2.09669 0.821525 0.1929 
v 1.09669 0.821525 0.1675 
v 2.09669 0.821525 0.1675 
v 1.09669 1.10093 0.1675 
v 2.09669 1.10093 0.1675 
vn 0 -1.9868e-16 1 
vn 0 -1 0 
vn 0 1.9868e-16 -1 
vn 0 1 0 
vn 1 0 0 
vn -1 0 0 
usemtl 0.231373_0.380392_0.705882_0.000000_0.000000
o mesh58
f 81//58 82//58 83//58 
f 83//58 84//58 81//58 
o mesh59
f 84//59 83//59 85//59 
f 85//59 86//59 84//59 
o mesh60
f 86//60 85//60 87//60 
f 87//60 88//60 86//60 
o mesh61
f 88//61 87//61 82//61 
f 82//61 81//61 88//61 
o mesh62
f 88//62 81//62 84//62 
f 84//62 86//62 88//62 
o mesh63
f 85//63 83//63 82//63 
f 82//63 87//63 85//63 
g Part 11
v 2.09669 3.32978 1.9074 
v 1.09669 3.32978 1.9074 
v 1.09669 3.05038 1.9074 
v 2.09669 3.05038 1.9074 
v 1.09669 3.05038 1.882 
v 2.09669 3.05038 1.882 
v 1.09669 3.32978 1.882 
v 2.09669 3.32978 1.882 
vn 0 0 1 
vn 0 -1 0 
vn 0 0 -1 
vn 0 1 0 
vn 1 0 0 
vn -1 0 0 
o mesh64
f 89//64 90//64 91//64 
f 91//64 92//64 89//64 
o mesh65
f 92//65 91//65 93//65 
f 93//65 94//65 92//65 
o mesh66
f 94//66 93//66 95//66 
f 95//66 96//66 94//66 
o mesh67
f 96//67 95//67 90//67 
f 90//67 89//67 96//67 
o mesh68
f 96//68 89//68 92//68 
f 92//68 94//68 96//68 
o mesh69
f 93//69 91//69 90//69 
f 90//69 95//69 93//69 
g Part 4
v 2.09669 1.59623 0.5739 
v 1.09669 1.59623 0.5739 
v 1.09669 1.31683 0.5739 
v 2.09669 1.31683 0.5739 
v 1.09669 1.31683 0.5485 
v 2.09669 1.31683 0.5485 
v 1.09669 1.59623 0.5485 
v 2.09669 1.59623 0.5485 
vn 0 -3.9736e-16 1 
vn 0 -1 0 
vn 0 7.94719e-16 -1 
vn 0 1 0 
vn 1 0 0 
vn -1 0 0 
usemtl 0.917647_0.917647_0.917647_0.000000_0.000000
o mesh70
f 97//70 98//70 99//70 
f 99//70 100//70 97//70 
o mesh71
f 100//71 99//71 101//71 
f 101//71 102//71 100//71 
o mesh72
f 102//72 101//72 103//72 
f 103//72 104//72 102//72 
o mesh73
f 104//73 103//73 98//73 
f 98//73 97//73 104//73 
o mesh74
f 104//74 97//74 100//74 
f 100//74 102//74 104//74 
o mesh75
f 101//75 99//75 98//75 
f 98//75 103//75 101//75 
g Part 10
v 2.09669 2.83448 1.5264 
v 1.09669 2.83448 1.5264 
v 1.09669 2.55508 1.5264 
v 2.09669 2.55508 1.5264 
v 1.09669 2.55508 1.501 
v 2.09669 2.55508 1.501 
v 1.09669 2.83448 1.501 
v 2.09669 2.83448 1.501 
vn 0 0 1 
vn 0 -1 0 
vn 0 0 -1 
vn 0 1 0 
vn 1 0 0 
vn -1 0 0 
usemtl 0.647059_0.647059_0.647059_0.000000_0.000000
o mesh76
f 105//76 106//76 107//76 
f 107//76 108//76 105//76 
o mesh77
f 108//77 107//77 109//77 
f 109//77 110//77 108//77 
o mesh78
f 110//78 109//78 111//78 
f 111//78 112//78 110//78 
o mesh79
f 112//79 111//79 106//79 
f 106//79 105//79 112//79 
o mesh80
f 112//80 105//80 108//80 
f 108//80 110//80 112//80 
o mesh81
f 109//81 107//81 106//81 
f 106//81 111//81 109//81 
g Part 1
v 2.09669 4.32038 2.644 
v 1.09669 4.32038 2.644 
v 1.09669 4.32038 2.6694 
v 2.09669 4.32038 2.6694 
v 1.09669 4.04098 2.6694 
v 2.09669 4.04098 2.6694 
v 1.09669 4.04098 2.644 
v 2.09669 4.04098 2.644 
vn 0 1 0 
vn 0 0 1 
vn 0 -1 0 
vn 0 1.58944e-15 -1 
vn 1 0 0 
vn -1 0 0 
usemtl 0.615686_0.811765_0.929412_0.000000_0.000000
o mesh82
f 113//82 114//82 115//82 
f 115//82 116//82 113//82 
o mesh83
f 116//83 115//83 117//83 
f 117//83 118//83 116//83 
o mesh84
f 118//84 117//84 119//84 
f 119//84 120//84 118//84 
o mesh85
f 120//85 119//85 114//85 
f 114//85 113//85 120//85 
o mesh86
f 120//86 113//86 116//86 
f 116//86 118//86 120//86 
o mesh87
f 117//87 115//87 114//87 
f 114//87 119//87 117//87 
g Part 8
v 2.09669 2.33918 1.1454 
v 1.09669 2.33918 1.1454 
v 1.09669 2.05978 1.1454 
v 2.09669 2.05978 1.1454 
v 1.09669 2.05978 1.12 
v 2.09669 2.05978 1.12 
v 1.09669 2.33918 1.12 
v 2.09669 2.33918 1.12 
vn 0 0 1 
vn 0 -1 0 
vn 0 7.94719e-16 -1 
vn 0 1 0 
vn 1 0 0 
vn -1 0 0 
usemtl 0.980392_0.713725_0.003922_0.000000_0.000000
o mesh88
f 121//88 122//88 123//88 
f 123//88 124//88 121//88 
o mesh89
f 124//89 123//89 125//89 
f 125//89 126//89 124//89 
o mesh90
f 126//90 125//90 127//90 
f 127//90 128//90 126//90 
o mesh91
f 128//91 127//91 122//91 
f 122//91 121//91 128//91 
o mesh92
f 128//92 121//92 124//92 
f 124//92 126//92 128//92 
o mesh93
f 125//93 123//93 122//93 
f 122//93 127//93 125//93 
g Part 7
v 2.09669 2.58683 1.3359 
v 1.09669 2.58683 1.3359 
v 1.09669 2.30743 1.3359 
v 2.09669 2.30743 1.3359 
v 1.09669 2.30743 1.3105 
v 2.09669 2.30743 1.3105 
v 1.09669 2.58683 1.3105 
v 2.09669 2.58683 1.3105 
vn 0 0 1 
vn 0 -1 0 
vn 0 0 -1 
vn 0 1 0 
vn 1 0 0 
vn -1 0 0 
usemtl 0.498039_0.498039_0.498039_0.000000_0.000000
o mesh94
f 129//94 130//94 131//94 
f 131//94 132//94 129//94 
o mesh95
f 132//95 131//95 133//95 
f 133//95 134//95 132//95 
o mesh96
f 134//96 133//96 135//96 
f 135//96 136//96 134//96 
o mesh97
f 136//97 135//97 130//97 
f 130//97 129//97 136//97 
o mesh98
f 136//98 129//98 132//98 
f 132//98 134//98 136//98 
o mesh99
f 133//99 131//99 130//99 
f 130//99 135//99 133//99 
g Part 9
v 2.09669 3.08213 1.7169 
v 1.09669 3.08213 1.7169 
v 1.09669 2.80273 1.7169 
v 2.09669 2.80273 1.7169 
v 1.09669 2.80273 1.6915 
v 2.09669 2.80273 1.6915 
v 1.09669 3.08213 1.6915 
v 2.09669 3.08213 1.6915 
vn 0 0 1 
vn 0 -1 0 
vn 0 0 -1 
vn 0 1 0 
vn 1 0 0 
vn -1 0 0 
usemtl 0.615686_0.811765_0.929412_0.000000_0.000000
o mesh100
f 137//100 138//100 139//100 
f 139//100 140//100 137//100 
o mesh101
f 140//101 139//101 141//101 
f 141//101 142//101 140//101 
o mesh102
f 142//102 141//102 143//102 
f 143//102 144//102 142//102 
o mesh103
f 144//103 143//103 138//103 
f 138//103 137//103 144//103 
o mesh104
f 144//104 137//104 140//104 
f 140//104 142//104 144//104 
o mesh105
f 141//105 139//105 138//105 
f 138//105 143//105 141//105 
