# 3ds Max Wavefront OBJ Exporter v0.97b - (c)2007 guruware
# File Created: 30.04.2018 11:17:13

mtllib lj1_left.mtl

#
# object Cylinder
#

v  0.0000 0.0603 -0.0421
v  0.0427 0.0427 -0.0421
v  0.0199 0.0199 -0.0624
v  0.0603 0.0000 -0.0421
v  0.0282 0.0000 -0.0624
v  0.0427 -0.0427 -0.0421
v  0.0199 -0.0199 -0.0624
v  0.0000 -0.0603 -0.0421
v  0.0000 -0.0282 -0.0624
v  -0.0427 -0.0427 -0.0421
v  -0.0603 0.0000 -0.0421
v  -0.0282 0.0000 -0.0624
v  0.0427 0.0427 -0.0133
v  0.0603 0.0000 -0.0133
v  -0.0199 0.0199 -0.0624
v  -0.0427 0.0427 -0.0421
v  0.0000 0.0282 -0.0624
v  -0.0427 -0.0427 -0.0133
v  -0.0307 -0.0307 -0.0099
v  -0.0434 0.0000 -0.0099
v  0.0000 -0.0603 -0.0133
v  -0.0427 0.0427 -0.0133
v  0.0000 0.0603 -0.0133
v  0.0427 -0.0427 -0.0133
v  -0.0603 0.0000 -0.0133
v  0.0000 0.0434 -0.0099
v  0.0000 0.0434 0.0232
v  0.0307 0.0307 0.0232
v  0.0307 -0.0307 -0.0099
v  0.0000 -0.0434 -0.0099
v  0.0307 0.0307 -0.0099
v  0.0434 0.0000 -0.0099
v  -0.0307 0.0307 -0.0099
v  -0.0434 0.0000 0.0232
v  -0.0210 0.0000 0.0370
v  -0.0148 0.0148 0.0370
v  -0.0307 0.0307 0.0232
v  -0.0307 -0.0307 0.0232
v  0.0307 -0.0307 0.0232
v  0.0000 -0.0434 0.0232
v  0.0434 0.0000 0.0232
v  0.0148 0.0148 0.0370
v  0.0000 -0.0210 0.0370
v  0.0210 0.0000 0.0370
v  0.0148 -0.0148 0.0370
v  0.0000 0.0210 0.0370
v  -0.0148 -0.0148 0.0370
v  -0.0199 -0.0199 -0.0624
# 48 vertices

vn 0.0000 0.5339 -0.8455
vn 0.3775 0.3775 -0.8455
vn 0.5339 0.0000 -0.8455
vn 0.3775 -0.3775 -0.8455
vn 0.0000 -0.5339 -0.8455
vn -0.3775 -0.3775 -0.8455
vn -0.5339 0.0000 -0.8455
vn 0.7071 0.7071 0.0000
vn 1.0000 0.0000 0.0000
vn -0.3775 0.3775 -0.8455
vn 0.0000 0.0000 -1.0000
vn -0.1422 -0.1422 0.9796
vn -0.2011 0.0000 0.9796
vn 0.0000 -1.0000 0.0000
vn -0.7071 -0.7071 0.0000
vn -0.7071 0.7071 0.0000
vn 0.0000 1.0000 0.0000
vn 0.7071 -0.7071 0.0000
vn -1.0000 0.0000 0.0000
vn 0.1422 -0.1422 0.9796
vn 0.0000 -0.2011 0.9796
vn 0.1422 0.1422 0.9796
vn 0.2011 0.0000 0.9796
vn -0.1422 0.1422 0.9796
vn 0.0000 0.2011 0.9796
vn -0.5228 0.0000 0.8524
vn -0.3697 0.3697 0.8524
vn 0.0000 0.0000 1.0000
vn -0.0000 0.0000 1.0000
vn -0.3697 -0.3697 0.8524
vn 0.0000 -0.5228 0.8524
vn 0.5228 0.0000 0.8524
vn 0.3697 -0.3697 0.8524
vn 0.0000 0.5228 0.8524
vn 0.3697 0.3697 0.8524
# 35 vertex normals

vt 0.0000 0.0000 0.0000
vt 1.0000 0.0000 0.0000
vt 1.0000 1.0000 0.0000
# 3 texture coords

o Cylinder
g Cylinder
usemtl Material
s off
f 1/1/1 2/2/2 3/3/2 
f 2/1/2 4/2/3 5/3/3 
f 4/1/3 6/2/4 7/3/4 
f 6/1/4 8/2/5 9/3/5 
f 9/1/5 8/2/5 10/3/6 
f 10/1/6 11/2/7 12/3/7 
f 2/1/8 13/2/8 14/3/9 
f 15/1/10 16/2/10 1/3/1 
f 11/1/7 16/2/10 15/3/10 
f 17/1/11 5/2/11 7/3/11 
f 18/1/12 19/2/12 20/3/13 
f 8/1/14 21/2/14 18/3/15 
f 16/1/16 22/2/16 23/3/17 
f 1/1/17 23/2/17 13/3/8 
f 4/1/9 14/2/9 24/3/18 
f 10/1/15 18/2/15 25/3/19 
f 6/1/18 24/2/18 21/3/14 
f 11/1/19 25/2/19 22/3/16 
f 26/1/17 27/2/17 28/3/8 
f 24/1/20 29/2/20 30/3/21 
f 13/1/22 31/2/22 32/3/23 
f 25/1/13 20/2/13 33/3/24 
f 21/1/21 30/2/21 19/3/12 
f 14/1/23 32/2/23 29/3/20 
f 23/1/25 26/2/25 31/3/22 
f 23/1/25 22/2/24 33/3/24 
f 34/1/26 35/2/26 36/3/27 
f 33/1/16 37/2/16 27/3/17 
f 19/1/15 38/2/15 34/3/19 
f 29/1/18 39/2/18 40/3/14 
f 31/1/8 28/2/8 41/3/9 
f 20/1/19 34/2/19 37/3/16 
f 30/1/14 40/2/14 38/3/15 
f 32/1/9 41/2/9 39/3/18 
f 42/1/28 36/2/28 35/3/29 
f 38/1/30 40/2/31 43/3/31 
f 41/1/32 44/2/32 45/3/33 
f 27/1/34 46/2/34 42/3/35 
f 37/1/27 36/2/27 46/3/34 
f 38/1/30 47/2/30 35/3/26 
f 39/1/33 45/2/33 43/3/31 
f 28/1/35 42/2/35 44/3/32 
f 17/1/1 1/2/1 3/3/2 
f 3/1/2 2/2/2 5/3/3 
f 5/1/3 4/2/3 7/3/4 
f 7/1/4 6/2/4 9/3/5 
f 48/1/6 9/2/5 10/3/6 
f 48/1/6 10/2/6 12/3/7 
f 4/1/9 2/2/8 14/3/9 
f 17/1/1 15/2/10 1/3/1 
f 12/1/7 11/2/7 15/3/10 
f 12/1/11 15/2/11 17/3/11 
f 9/1/11 48/2/11 12/3/11 
f 17/1/11 7/2/11 9/3/11 
f 17/1/11 3/2/11 5/3/11 
f 9/1/11 12/2/11 17/3/11 
f 25/1/13 18/2/12 20/3/13 
f 10/1/15 8/2/14 18/3/15 
f 1/1/17 16/2/16 23/3/17 
f 2/1/8 1/2/17 13/3/8 
f 6/1/18 4/2/9 24/3/18 
f 11/1/19 10/2/15 25/3/19 
f 8/1/14 6/2/18 21/3/14 
f 16/1/16 11/2/19 22/3/16 
f 31/1/8 26/2/17 28/3/8 
f 21/1/21 24/2/20 30/3/21 
f 14/1/23 13/2/22 32/3/23 
f 22/1/24 25/2/13 33/3/24 
f 18/1/12 21/2/21 19/3/12 
f 24/1/20 14/2/23 29/3/20 
f 13/1/22 23/2/25 31/3/22 
f 26/1/25 23/2/25 33/3/24 
f 37/1/27 34/2/26 36/3/27 
f 26/1/17 33/2/16 27/3/17 
f 20/1/19 19/2/15 34/3/19 
f 30/1/14 29/2/18 40/3/14 
f 32/1/9 31/2/8 41/3/9 
f 33/1/16 20/2/19 37/3/16 
f 19/1/15 30/2/14 38/3/15 
f 29/1/18 32/2/9 39/3/18 
f 45/1/28 44/2/29 42/3/28 
f 47/1/28 43/2/28 45/3/28 
f 42/1/28 35/2/29 47/3/28 
f 42/1/28 46/2/28 36/3/28 
f 47/1/28 45/2/28 42/3/28 
f 47/1/30 38/2/30 43/3/31 
f 39/1/33 41/2/32 45/3/33 
f 28/1/35 27/2/34 42/3/35 
f 27/1/34 37/2/27 46/3/34 
f 34/1/26 38/2/30 35/3/26 
f 40/1/31 39/2/33 43/3/31 
f 41/1/32 28/2/35 44/3/32 
# 0 polygons - 92 triangles

