# 3ds Max Wavefront OBJ Exporter v0.97b - (c)2007 guruware
# File Created: 30.04.2018 11:18:06

mtllib lj2_left.mtl

#
# object Cube
#

v  -0.0697 0.0658 0.0471
v  0.0000 0.0656 -0.0005
v  -0.0697 0.0656 -0.0005
v  -0.0698 0.0061 0.0580
v  -0.1027 0.0289 0.0350
v  -0.1086 0.0200 0.0308
v  -0.0976 0.0581 0.0277
v  -0.0664 0.0589 0.0521
v  -0.1156 0.0033 -0.0440
v  -0.0806 -0.0574 -0.0989
v  -0.0806 -0.0574 0.0271
v  -0.0763 -0.0587 0.0433
v  -0.0841 -0.0480 0.0408
v  0.0000 0.0576 -0.0292
v  -0.0387 -0.0084 -0.1437
v  -0.0697 0.0018 -0.1259
v  -0.0308 -0.0711 -0.1278
v  0.0000 -0.0827 -0.1146
v  -0.0290 -0.0827 -0.1092
v  -0.1135 0.0114 -0.0774
v  -0.1089 -0.0084 -0.0770
v  -0.0697 0.0576 -0.0292
v  0.0000 0.0010 0.0579
v  -0.0659 -0.0492 0.0580
v  0.0000 -0.0568 0.0579
v  -0.1186 0.0203 -0.0445
v  -0.1113 0.0175 -0.0812
v  -0.0913 0.0658 0.0190
v  -0.0938 0.0656 -0.0005
v  -0.0982 0.0569 -0.0305
v  -0.0823 -0.0250 -0.1230
v  -0.0593 -0.0490 -0.1315
v  -0.0742 -0.0565 -0.1150
v  0.0000 0.0588 0.0520
v  -0.0698 0.0434 0.0580
v  -0.1156 0.0032 0.0081
v  -0.1153 0.0083 0.0210
v  -0.1161 0.0179 0.0209
v  -0.0791 -0.0420 0.0515
v  -0.0699 -0.0432 0.0578
v  -0.0993 -0.0250 -0.0927
v  -0.1188 0.0201 0.0060
v  -0.1061 0.0569 0.0060
v  -0.0982 0.0240 -0.0875
v  -0.1026 0.0414 -0.0574
v  -0.1140 0.0386 -0.0447
v  -0.0557 -0.0712 -0.1185
v  -0.0670 -0.0651 -0.1149
v  -0.1010 -0.0102 -0.1035
v  -0.0901 -0.0040 -0.1184
v  -0.0691 -0.0143 -0.1363
v  -0.0541 -0.0803 -0.1012
v  -0.0387 -0.0225 -0.1505
v  0.0000 -0.0130 -0.1515
v  0.0000 -0.0257 -0.1561
v  -0.0727 -0.0545 0.0503
v  0.0000 -0.0539 -0.1465
v  0.0000 -0.0734 -0.1337
v  -0.0687 -0.0713 -0.0988
v  -0.0330 -0.0521 -0.1422
v  -0.0664 -0.0730 0.0187
v  -0.0669 -0.0727 -0.0036
v  -0.0290 -0.0827 -0.0930
v  0.0000 -0.0827 -0.1069
v  -0.0535 -0.0803 -0.0378
v  0.0697 0.0658 0.0471
v  0.0697 0.0656 -0.0005
v  0.0978 -0.0643 0.0073
v  0.0903 -0.0532 0.0371
v  0.0862 -0.0671 0.0308
v  0.0976 0.0581 0.0277
v  0.0664 0.0589 0.0521
v  0.0656 -0.0786 0.0158
v  0.0697 0.0018 -0.1259
v  0.0387 -0.0084 -0.1437
v  0.0308 -0.0711 -0.1278
v  0.1125 -0.0014 -0.0812
v  0.0901 -0.0040 -0.1184
v  0.1113 0.0175 -0.0812
v  0.0697 0.0576 -0.0292
v  0.0699 -0.0432 0.0578
v  0.0698 0.0061 0.0580
v  0.0913 0.0658 0.0190
v  0.0938 0.0656 -0.0005
v  0.0982 0.0569 -0.0305
v  0.0698 0.0434 0.0580
v  0.1075 -0.0345 0.0287
v  0.1080 -0.0534 0.0060
v  0.1129 -0.0420 0.0060
v  0.1120 0.0319 0.0227
v  0.1204 0.0003 0.0060
v  0.1145 0.0368 0.0060
v  0.1027 0.0289 0.0350
v  0.1202 -0.0013 -0.0447
v  0.1009 -0.0304 0.0361
v  0.0701 -0.0795 -0.0378
v  0.0656 -0.0810 -0.0051
v  0.1026 0.0414 -0.0574
v  0.0982 0.0240 -0.0875
v  0.0535 -0.0803 -0.0378
v  0.0290 -0.0827 -0.0930
v  0.0530 -0.0827 -0.0947
v  0.1061 0.0569 0.0060
v  0.1140 0.0386 -0.0447
v  0.0691 -0.0143 -0.1363
v  0.0818 -0.0379 -0.1184
v  0.0593 -0.0490 -0.1315
v  0.0557 -0.0712 -0.1185
v  0.0290 -0.0827 -0.1092
v  0.0387 -0.0225 -0.1505
v  0.0727 -0.0545 0.0503
v  0.0330 -0.0521 -0.1422
v  0.0661 -0.0726 -0.1085
v  0.0715 -0.0550 -0.1184
v  0.0955 -0.0606 -0.0801
v  0.0659 -0.0492 0.0580
v  0.0701 -0.0795 -0.0856
v  0.0976 -0.0644 -0.0445
v  0.1078 -0.0535 -0.0447
v  0.1130 -0.0411 -0.0447
v  0.1058 -0.0385 -0.0812
v  0.1164 -0.0030 0.0227
v  0.1109 0.0110 0.0291
v  0.1107 -0.0127 0.0292
v  0.0791 -0.0420 0.0515
# 125 vertices

vn -0.2766 0.7879 0.5502
vn 0.0000 0.9953 -0.0964
vn 0.0008 0.9904 -0.1381
vn -0.2995 -0.0009 0.9541
vn -0.6857 0.1661 0.7087
vn -0.7332 0.0762 0.6757
vn -0.6913 0.5457 0.4737
vn -0.2460 0.4481 0.8595
vn -0.9437 -0.3290 -0.0345
vn -0.8161 -0.5498 -0.1780
vn -0.7994 -0.5957 0.0781
vn -0.4949 -0.7365 0.4611
vn -0.8304 -0.4291 0.3555
vn 0.0000 0.9221 -0.3869
vn -0.1314 0.6621 -0.7378
vn -0.2247 0.7049 -0.6728
vn -0.2059 -0.7208 -0.6619
vn 0.0000 -0.9630 -0.2695
vn -0.1010 -0.9580 -0.2683
vn -0.9663 -0.0211 -0.2564
vn -0.9266 -0.3549 -0.1244
vn -0.0019 0.9223 -0.3864
vn 0.0000 0.0334 0.9994
vn -0.1966 -0.4479 0.8722
vn -0.0128 -0.6163 0.7874
vn -0.9950 0.0516 -0.0853
vn -0.8024 0.3816 -0.4588
vn -0.3356 0.9318 0.1385
vn -0.3033 0.9466 -0.1093
vn -0.3468 0.8821 -0.3188
vn -0.7032 -0.2467 -0.6668
vn -0.4738 -0.3965 -0.7863
vn -0.7080 -0.4721 -0.5252
vn 0.0000 0.6908 0.7230
vn -0.3134 0.2047 0.9273
vn -0.9357 -0.3467 0.0647
vn -0.9022 -0.2081 0.3778
vn -0.9152 0.1026 0.3896
vn -0.6737 -0.2196 0.7056
vn -0.3576 -0.1262 0.9253
vn -0.8840 -0.4231 -0.1989
vn -0.9922 0.0858 0.0905
vn -0.7971 0.5966 0.0936
vn -0.3245 0.7537 -0.5715
vn -0.3421 0.8123 -0.4724
vn -0.8295 0.5180 -0.2088
vn -0.3846 -0.7079 -0.5924
vn -0.5963 -0.6196 -0.5105
vn -0.8742 -0.1428 -0.4640
vn -0.6557 0.2527 -0.7115
vn -0.4864 0.1299 -0.8640
vn -0.3393 -0.9215 -0.1891
vn -0.2785 0.0490 -0.9592
vn 0.0000 0.6148 -0.7887
vn 0.0000 -0.0034 -1.0000
vn -0.3462 -0.6740 0.6525
vn 0.0000 -0.4534 -0.8913
vn 0.0000 -0.7403 -0.6722
vn -0.6457 -0.7467 -0.1597
vn -0.2580 -0.4625 -0.8482
vn -0.2720 -0.9515 0.1436
vn -0.4061 -0.9107 0.0756
vn -0.0306 -0.9993 0.0216
vn 0.0000 -0.9992 0.0409
vn -0.1821 -0.9796 0.0856
vn 0.2766 0.7879 0.5502
vn -0.0008 0.9904 -0.1381
vn 0.6297 -0.7601 0.1604
vn 0.6758 -0.4192 0.6063
vn 0.4980 -0.7383 0.4549
vn 0.6789 0.5566 0.4788
vn 0.2460 0.4481 0.8595
vn 0.0924 -0.9620 0.2571
vn 0.2247 0.7049 -0.6728
vn 0.1314 0.6621 -0.7378
vn 0.2059 -0.7208 -0.6619
vn 0.9317 -0.0511 -0.3596
vn 0.6859 0.2128 -0.6959
vn 0.8238 0.3614 -0.4367
vn 0.0019 0.9223 -0.3864
vn 0.3576 -0.1262 0.9253
vn 0.3002 -0.0012 0.9539
vn 0.3356 0.9318 0.1385
vn 0.3033 0.9466 -0.1093
vn 0.3468 0.8821 -0.3188
vn 0.3134 0.2047 0.9273
vn 0.8068 -0.2836 0.5183
vn 0.8215 -0.5387 0.1869
vn 0.9430 -0.2971 0.1497
vn 0.8755 0.2425 0.4180
vn 0.9943 -0.0027 0.1069
vn 0.9542 0.2776 0.1114
vn 0.6683 0.1472 0.7292
vn 0.9952 -0.0187 -0.0957
vn 0.6354 -0.1257 0.7618
vn 0.2799 -0.9600 -0.0060
vn 0.1016 -0.9925 0.0673
vn 0.3421 0.8123 -0.4724
vn 0.3245 0.7537 -0.5715
vn -0.0587 -0.9965 0.0598
vn -0.0100 -0.9995 0.0295
vn 0.1746 -0.9704 -0.1668
vn 0.7803 0.6197 0.0847
vn 0.8503 0.4841 -0.2065
vn 0.4992 0.1239 -0.8576
vn 0.7121 -0.2999 -0.6348
vn 0.4685 -0.3968 -0.7893
vn 0.3537 -0.7007 -0.6197
vn 0.0930 -0.9555 -0.2799
vn 0.2785 0.0490 -0.9592
vn 0.3197 -0.6398 0.6989
vn 0.2580 -0.4625 -0.8482
vn 0.5063 -0.7194 -0.4755
vn 0.6271 -0.4566 -0.6311
vn 0.7467 -0.5911 -0.3050
vn 0.2026 -0.4278 0.8809
vn 0.4143 -0.8975 -0.1512
vn 0.6242 -0.7802 -0.0412
vn 0.8413 -0.5332 -0.0890
vn 0.9531 -0.2843 -0.1033
vn 0.8856 -0.2874 -0.3649
vn 0.9084 -0.0337 0.4168
vn 0.7347 0.0593 0.6758
vn 0.7207 -0.0647 0.6902
vn 0.5916 -0.1852 0.7847
# 125 vertex normals

vt 0.0321 0.3828 0.0000
vt 0.1729 0.3140 0.0000
vt 0.0446 0.2958 0.0000
vt 0.2295 0.6285 0.0000
vt 0.1873 0.7027 0.0000
vt 0.2038 0.7160 0.0000
vt 0.9669 0.5685 0.0000
vt 0.9526 0.4995 0.0000
vt 0.9512 0.5800 0.0000
vt 0.8991 0.3318 0.0000
vt 0.8221 0.2039 0.0000
vt 0.7347 0.4097 0.0000
vt 0.7203 0.4344 0.0000
vt 0.7433 0.4394 0.0000
vt 0.1803 0.2591 0.0000
vt 0.1420 0.0071 0.0000
vt 0.0801 0.0371 0.0000
vt 0.7827 0.1064 0.0000
vt 0.7167 0.0773 0.0000
vt 0.7473 0.1302 0.0000
vt 0.9305 0.2808 0.0000
vt 0.8970 0.2709 0.0000
vt 0.0522 0.2413 0.0000
vt 0.1451 0.5200 0.0000
vt 0.0133 0.5959 0.0000
vt 0.1309 0.6254 0.0000
vt 0.9285 0.3412 0.0000
vt 0.9432 0.2761 0.0000
vt 0.0002 0.3260 0.0000
vt 0.0007 0.2896 0.0000
vt 0.0004 0.2314 0.0000
vt 0.8846 0.1776 0.0000
vt 0.8403 0.1382 0.0000
vt 0.8291 0.1761 0.0000
vt 0.1596 0.4124 0.0000
vt 0.0226 0.4267 0.0000
vt 0.8664 0.4183 0.0000
vt 0.8665 0.4436 0.0000
vt 0.8784 0.4733 0.0000
vt 0.8828 0.4494 0.0000
vt 0.9149 0.5800 0.0000
vt 0.3184 0.6495 0.0000
vt 0.3205 0.6288 0.0000
vt 0.8917 0.4922 0.0000
vt 0.8759 0.2354 0.0000
vt 0.8967 0.4251 0.0000
vt 0.7385 0.4649 0.0000
vt 0.9630 0.4550 0.0000
vt 0.0171 0.1111 0.0000
vt 0.0002 0.1736 0.0000
vt 0.9620 0.3509 0.0000
vt 0.9797 0.4957 0.0000
vt 0.9854 0.3271 0.0000
vt 0.9998 0.3900 0.0000
vt 0.9957 0.4561 0.0000
vt 0.7978 0.1515 0.0000
vt 0.8123 0.1683 0.0000
vt 0.9047 0.2252 0.0000
vt 0.9202 0.1958 0.0000
vt 0.9673 0.2583 0.0000
vt 0.9420 0.1574 0.0000
vt 0.9052 0.1448 0.0000
vt 0.7713 0.1721 0.0000
vt 0.9165 0.0824 0.0000
vt 0.8841 0.0829 0.0000
vt 0.8899 0.0002 0.0000
vt 0.8603 0.0049 0.0000
vt 0.7158 0.4494 0.0000
vt 0.7982 0.0266 0.0000
vt 0.7536 0.0499 0.0000
vt 0.7944 0.1905 0.0000
vt 0.8247 0.0891 0.0000
vt 0.7007 0.3839 0.0000
vt 0.7181 0.3468 0.0000
vt 0.0366 0.3991 0.0000
vt 0.7240 0.1544 0.0000
vt 0.7042 0.0881 0.0000
vt 0.7177 0.4763 0.0000
vt 0.4957 0.8676 0.0000
vt 0.6532 0.7329 0.0000
vt 0.6039 0.5789 0.0000
vt 0.7182 0.2755 0.0000
vt 0.2904 0.4175 0.0000
vt 0.3014 0.3304 0.0000
vt 0.6286 0.3799 0.0000
vt 0.6389 0.4385 0.0000
vt 0.6575 0.4166 0.0000
vt 0.4151 0.4962 0.0000
vt 0.3940 0.5617 0.0000
vt 0.4080 0.5746 0.0000
vt 0.7003 0.3817 0.0000
vt 0.3356 0.0715 0.0000
vt 0.2838 0.0262 0.0000
vt 0.5991 0.1009 0.0000
vt 0.6632 0.0671 0.0000
vt 0.6246 0.0424 0.0000
vt 0.4712 0.2704 0.0000
vt 0.4629 0.1956 0.0000
vt 0.4380 0.2766 0.0000
vt 0.3084 0.2758 0.0000
vt 0.2610 0.6182 0.0000
vt 0.2733 0.5291 0.0000
vt 0.3362 0.3713 0.0000
vt 0.3453 0.3361 0.0000
vt 0.3610 0.2800 0.0000
vt 0.2879 0.4624 0.0000
vt 0.2817 0.4321 0.0000
vt 0.5886 0.4362 0.0000
vt 0.6029 0.3854 0.0000
vt 0.5826 0.3926 0.0000
vt 0.4647 0.4673 0.0000
vt 0.5108 0.4174 0.0000
vt 0.4474 0.4389 0.0000
vt 0.4431 0.5786 0.0000
vt 0.4757 0.4961 0.0000
vt 0.4864 0.3325 0.0000
vt 0.5928 0.4566 0.0000
vt 0.6560 0.2806 0.0000
vt 0.6919 0.3375 0.0000
vt 0.3765 0.2243 0.0000
vt 0.3768 0.1596 0.0000
vt 0.6857 0.2646 0.0000
vt 0.6618 0.1443 0.0000
vt 0.6250 0.1746 0.0000
vt 0.4089 0.4523 0.0000
vt 0.3893 0.4900 0.0000
vt 0.3941 0.3261 0.0000
vt 0.4142 0.2581 0.0000
vt 0.3772 0.3869 0.0000
vt 0.4163 0.3507 0.0000
vt 0.4773 0.1442 0.0000
vt 0.5212 0.1803 0.0000
vt 0.5422 0.1360 0.0000
vt 0.4410 0.1574 0.0000
vt 0.5863 0.1479 0.0000
vt 0.6366 0.1222 0.0000
vt 0.4642 0.0826 0.0000
vt 0.4963 0.0819 0.0000
vt 0.4870 0.0002 0.0000
vt 0.5165 0.0035 0.0000
vt 0.6735 0.4642 0.0000
vt 0.5558 0.0856 0.0000
vt 0.5789 0.0220 0.0000
vt 0.5872 0.1728 0.0000
vt 0.5525 0.1672 0.0000
vt 0.5694 0.2402 0.0000
vt 0.6835 0.4858 0.0000
vt 0.6764 0.0769 0.0000
vt 0.6697 0.4925 0.0000
vt 0.4655 0.6625 0.0000
vt 0.6103 0.2065 0.0000
vt 0.5979 0.2941 0.0000
vt 0.5738 0.3036 0.0000
vt 0.5522 0.3115 0.0000
vt 0.5315 0.2529 0.0000
vt 0.5270 0.4449 0.0000
vt 0.5072 0.4676 0.0000
vt 0.5499 0.4523 0.0000
vt 0.0692 0.7214 0.0000
vt 0.1581 0.7008 0.0000
vt 0.1369 0.6515 0.0000
vt 0.1605 0.6285 0.0000
vt 0.2151 0.0002 0.0000
vt 0.0074 0.5840 0.0000
vt 0.0190 0.4948 0.0000
vt 0.7047 0.4688 0.0000
vt 0.6084 0.9157 0.0000
vt 0.6532 0.8436 0.0000
vt 0.6531 0.8024 0.0000
vt 0.6455 0.6215 0.0000
vt 0.2521 0.6281 0.0000
vt 0.6492 0.4801 0.0000
vt 0.3772 0.4509 0.0000
vt 0.4080 0.7463 0.0000
vt 0.3772 0.8363 0.0000
vt 0.5447 0.5837 0.0000
vt 0.4220 0.7102 0.0000
vt 0.0604 0.6285 0.0000
vt 0.0273 0.6471 0.0000
vt 0.0002 0.7212 0.0000
vt 0.1602 0.7214 0.0000
vt 0.1042 0.6292 0.0000
# 182 texture coords

o Cube
g Cube
usemtl Material
s off
f 1/1/1 2/2/2 3/3/3 
f 4/4/4 5/5/5 6/6/6 
f 1/7/1 7/8/7 8/9/8 
f 9/10/9 10/11/10 11/12/11 
f 11/12/11 12/13/12 13/14/13 
f 14/15/14 15/16/15 16/17/16 
f 17/18/17 18/19/18 19/20/19 
f 9/10/9 20/21/20 21/22/21 
f 3/3/3 14/15/14 22/23/22 
f 23/24/23 24/25/24 25/26/25 
f 26/27/26 27/28/27 20/21/20 
f 28/29/28 3/3/3 29/30/29 
f 29/30/29 22/23/22 30/31/30 
f 31/32/31 32/33/32 33/34/33 
f 34/35/34 35/36/35 23/24/23 
f 13/14/13 36/37/36 11/12/11 
f 37/38/37 6/39/6 38/40/38 
f 7/8/7 35/41/35 8/9/8 
f 4/4/4 39/42/39 40/43/40 
f 5/44/5 38/40/38 6/39/6 
f 41/45/41 33/34/33 10/11/10 
f 42/46/42 37/38/37 38/40/38 
f 39/47/39 37/38/37 13/14/13 
f 38/40/38 43/48/43 42/46/42 
f 22/23/22 44/49/44 45/50/45 
f 46/51/46 42/46/42 43/48/43 
f 42/46/42 9/10/9 36/37/36 
f 28/52/28 43/48/43 7/8/7 
f 45/53/45 27/28/27 46/51/46 
f 30/54/30 43/48/43 29/55/29 
f 32/33/32 47/56/47 48/57/48 
f 49/58/49 27/28/27 50/59/50 
f 21/22/21 49/58/49 41/45/41 
f 50/59/50 44/60/44 16/61/16 
f 50/59/50 16/61/16 51/62/51 
f 49/58/49 31/32/31 33/34/33 
f 47/56/47 19/20/19 52/63/52 
f 51/62/51 15/64/15 53/65/53 
f 53/65/53 54/66/54 55/67/55 
f 13/14/13 56/68/56 39/47/39 
f 32/33/32 17/18/17 47/56/47 
f 17/18/17 57/69/57 58/70/58 
f 33/34/33 32/33/32 48/57/48 
f 48/57/48 10/11/10 33/34/33 
f 59/71/59 47/56/47 52/63/52 
f 32/33/32 53/65/53 60/72/60 
f 60/72/60 55/67/55 57/69/57 
f 51/62/51 32/33/32 31/32/31 
f 50/59/50 31/32/31 49/58/49 
f 61/73/61 56/68/56 12/13/12 
f 10/11/10 62/74/62 11/12/11 
f 34/35/34 1/1/1 8/75/8 
f 63/76/63 52/63/52 19/20/19 
f 64/77/64 19/20/19 18/19/18 
f 56/68/56 40/78/40 39/47/39 
f 25/79/25 65/80/65 64/81/64 
f 59/71/59 65/82/65 62/74/62 
f 66/83/66 67/84/67 2/2/2 
f 68/85/68 69/86/69 70/87/70 
f 71/88/71 66/89/66 72/90/72 
f 68/85/68 70/87/70 73/91/73 
f 74/92/74 75/93/75 14/15/14 
f 76/94/76 18/95/18 58/96/58 
f 77/97/77 78/98/78 79/99/79 
f 14/15/14 67/84/67 80/100/80 
f 23/24/23 81/101/81 82/102/82 
f 67/84/67 83/103/83 84/104/84 
f 80/100/80 84/104/84 85/105/85 
f 34/35/34 86/106/86 72/107/72 
f 87/108/87 88/109/88 89/110/89 
f 90/111/90 91/112/91 92/113/92 
f 71/88/71 86/114/86 93/115/93 
f 94/116/94 92/113/92 91/112/91 
f 95/117/95 69/86/69 87/108/87 
f 96/118/96 68/85/68 97/119/97 
f 98/120/98 99/121/99 80/100/80 
f 79/99/79 94/116/94 77/97/77 
f 100/122/100 101/123/101 102/124/102 
f 103/125/103 83/126/83 71/88/71 
f 98/127/98 79/99/79 99/128/99 
f 85/129/85 104/130/104 98/127/98 
f 105/131/105 106/132/106 107/133/107 
f 99/128/99 78/98/78 74/134/74 
f 78/98/78 105/131/105 74/134/74 
f 108/135/108 109/136/109 76/94/76 
f 75/137/75 105/131/105 110/138/110 
f 54/139/54 110/138/110 55/140/55 
f 69/86/69 111/141/111 70/87/70 
f 107/133/107 76/94/76 112/142/112 
f 57/143/57 76/94/76 58/96/58 
f 113/144/113 102/124/102 108/135/108 
f 110/138/110 107/133/107 112/142/112 
f 55/140/55 112/142/112 57/143/57 
f 114/145/114 115/146/115 113/144/113 
f 73/91/73 111/141/111 116/147/116 
f 34/35/34 66/83/66 2/2/2 
f 109/136/109 64/148/64 18/95/18 
f 111/141/111 81/149/81 116/147/116 
f 25/79/25 64/81/64 100/150/100 
f 96/118/96 97/119/97 100/122/100 
f 117/151/117 118/152/118 96/118/96 
f 89/110/89 119/153/119 120/154/120 
f 115/146/115 118/152/118 117/151/117 
f 121/155/121 119/153/119 115/146/115 
f 118/152/118 88/109/88 68/85/68 
f 117/151/117 100/122/100 102/124/102 
f 97/119/97 68/85/68 73/91/73 
f 121/155/121 78/98/78 77/97/77 
f 94/116/94 89/110/89 120/154/120 
f 89/110/89 122/156/122 87/108/87 
f 107/133/107 114/145/114 108/135/108 
f 113/144/113 108/135/108 114/145/114 
f 103/125/103 90/111/90 92/113/92 
f 103/125/103 92/113/92 104/130/104 
f 71/88/71 93/115/93 90/111/90 
f 123/157/123 124/158/124 122/156/122 
f 90/111/90 123/157/123 122/156/122 
f 87/108/87 124/158/124 95/117/95 
f 113/144/113 115/146/115 117/151/117 
f 82/159/82 125/160/125 95/161/95 
f 106/132/106 115/146/115 114/145/114 
f 102/124/102 101/123/101 109/136/109 
f 77/97/77 120/154/120 121/155/121 
f 35/162/35 5/5/5 4/4/4 
f 28/52/28 7/8/7 1/7/1 
f 11/12/11 36/37/36 9/10/9 
f 10/11/10 21/22/21 41/45/41 
f 21/22/21 10/11/10 9/10/9 
f 61/73/61 12/13/12 11/12/11 
f 16/17/16 22/23/22 14/15/14 
f 14/15/14 54/163/54 15/16/15 
f 58/70/58 18/19/18 17/18/17 
f 26/27/26 20/21/20 9/10/9 
f 2/2/2 14/15/14 3/3/3 
f 40/164/40 23/24/23 4/165/4 
f 23/24/23 40/164/40 24/25/24 
f 46/51/46 27/28/27 26/27/26 
f 1/1/1 3/3/3 28/29/28 
f 3/3/3 22/23/22 29/30/29 
f 35/36/35 34/35/34 8/75/8 
f 23/24/23 35/36/35 4/165/4 
f 37/38/37 36/37/36 13/14/13 
f 5/44/5 35/41/35 7/8/7 
f 6/6/6 39/42/39 4/4/4 
f 7/8/7 38/40/38 5/44/5 
f 49/58/49 33/34/33 41/45/41 
f 36/37/36 37/38/37 42/46/42 
f 6/39/6 37/38/37 39/47/39 
f 7/8/7 43/48/43 38/40/38 
f 45/50/45 30/31/30 22/23/22 
f 22/23/22 16/17/16 44/49/44 
f 26/27/26 42/46/42 46/51/46 
f 26/27/26 9/10/9 42/46/42 
f 29/55/29 43/48/43 28/52/28 
f 44/60/44 27/28/27 45/53/45 
f 46/51/46 30/54/30 45/53/45 
f 30/54/30 46/51/46 43/48/43 
f 20/21/20 27/28/27 49/58/49 
f 20/21/20 49/58/49 21/22/21 
f 27/28/27 44/60/44 50/59/50 
f 17/18/17 19/20/19 47/56/47 
f 16/61/16 15/64/15 51/62/51 
f 15/64/15 54/66/54 53/65/53 
f 12/13/12 56/68/56 13/14/13 
f 60/72/60 17/18/17 32/33/32 
f 60/72/60 57/69/57 17/18/17 
f 59/71/59 10/11/10 48/57/48 
f 48/57/48 47/56/47 59/71/59 
f 51/62/51 53/65/53 32/33/32 
f 53/65/53 55/67/55 60/72/60 
f 51/62/51 31/32/31 50/59/50 
f 24/166/24 56/68/56 61/73/61 
f 62/74/62 10/11/10 59/71/59 
f 11/12/11 62/74/62 61/73/61 
f 2/2/2 1/1/1 34/35/34 
f 65/82/65 52/63/52 63/76/63 
f 63/76/63 19/20/19 64/77/64 
f 24/166/24 40/78/40 56/68/56 
f 25/79/25 24/167/24 61/168/61 
f 25/79/25 62/169/62 65/80/65 
f 65/80/65 63/170/63 64/81/64 
f 62/169/62 25/79/25 61/168/61 
f 52/63/52 65/82/65 59/71/59 
f 88/109/88 69/86/69 68/85/68 
f 83/126/83 66/89/66 71/88/71 
f 14/15/14 80/100/80 74/92/74 
f 14/15/14 75/93/75 54/163/54 
f 109/136/109 18/95/18 76/94/76 
f 2/2/2 67/84/67 14/15/14 
f 116/171/116 23/24/23 25/26/25 
f 23/24/23 116/171/116 81/101/81 
f 66/83/66 83/103/83 67/84/67 
f 67/84/67 84/104/84 80/100/80 
f 86/106/86 34/35/34 23/24/23 
f 23/24/23 82/102/82 86/106/86 
f 69/86/69 88/109/88 87/108/87 
f 122/156/122 91/112/91 90/111/90 
f 72/90/72 86/114/86 71/88/71 
f 104/130/104 92/113/92 94/116/94 
f 125/172/125 69/86/69 95/117/95 
f 118/152/118 68/85/68 96/118/96 
f 80/100/80 85/105/85 98/120/98 
f 80/100/80 99/121/99 74/92/74 
f 104/130/104 94/116/94 79/99/79 
f 84/173/84 83/126/83 103/125/103 
f 104/130/104 79/99/79 98/127/98 
f 103/125/103 85/129/85 84/173/84 
f 85/129/85 103/125/103 104/130/104 
f 78/98/78 106/132/106 105/131/105 
f 79/99/79 78/98/78 99/128/99 
f 102/124/102 109/136/109 108/135/108 
f 74/134/74 105/131/105 75/137/75 
f 75/137/75 110/138/110 54/139/54 
f 125/172/125 111/141/111 69/86/69 
f 108/135/108 76/94/76 107/133/107 
f 112/142/112 76/94/76 57/143/57 
f 117/151/117 102/124/102 113/144/113 
f 105/131/105 107/133/107 110/138/110 
f 110/138/110 112/142/112 55/140/55 
f 70/87/70 111/141/111 73/91/73 
f 72/107/72 66/83/66 34/35/34 
f 101/123/101 64/148/64 109/136/109 
f 125/172/125 81/149/81 111/141/111 
f 73/174/73 116/175/116 25/79/25 
f 100/150/100 64/81/64 101/176/101 
f 25/79/25 100/150/100 97/177/97 
f 97/177/97 73/174/73 25/79/25 
f 88/109/88 119/153/119 89/110/89 
f 119/153/119 118/152/118 115/146/115 
f 120/154/120 119/153/119 121/155/121 
f 119/153/119 88/109/88 118/152/118 
f 96/118/96 100/122/100 117/151/117 
f 106/132/106 78/98/78 121/155/121 
f 91/112/91 89/110/89 94/116/94 
f 91/112/91 122/156/122 89/110/89 
f 106/132/106 114/145/114 107/133/107 
f 71/88/71 90/111/90 103/125/103 
f 93/115/93 123/157/123 90/111/90 
f 122/156/122 124/158/124 87/108/87 
f 82/159/82 123/178/123 93/179/93 
f 93/179/93 86/180/86 82/159/82 
f 82/159/82 81/181/81 125/160/125 
f 82/159/82 95/161/95 124/182/124 
f 124/182/124 123/178/123 82/159/82 
f 121/155/121 115/146/115 106/132/106 
f 94/116/94 120/154/120 77/97/77 
# 0 polygons - 246 triangles

