# 3ds Max Wavefront OBJ Exporter v0.97b - (c)2007 guruware
# File Created: 30.04.2018 11:20:51

mtllib lj5.mtl

#
# object Cylinder
#

v  0.0334 0.0060 -0.0127
v  0.0334 0.0000 -0.0067
v  0.0334 -0.0060 -0.0127
v  0.0186 0.0043 -0.0084
v  0.0334 0.0043 -0.0084
v  0.0186 0.0060 -0.0127
v  0.0334 0.0043 -0.0170
v  0.0186 -0.0060 -0.0127
v  0.0186 -0.0043 -0.0170
v  0.0334 -0.0043 -0.0170
v  0.0186 0.0000 -0.0067
v  0.0186 0.0000 -0.0187
v  0.0334 0.0000 -0.0187
v  0.0186 -0.0043 -0.0084
v  0.0334 -0.0043 -0.0084
v  0.0186 0.0043 -0.0170
v  0.0186 0.0000 -0.0025
v  0.0186 -0.0072 -0.0055
v  0.0186 0.0000 -0.0229
v  0.0186 0.0072 -0.0199
v  0.0186 -0.0102 -0.0127
v  0.0186 0.0102 -0.0127
v  0.0186 0.0072 -0.0055
v  0.0186 -0.0072 -0.0199
v  -0.0422 -0.0061 -0.0127
v  -0.0422 -0.0043 -0.0170
v  -0.0273 -0.0043 -0.0170
v  -0.0273 0.0000 -0.0229
v  -0.0273 0.0072 -0.0199
v  -0.0273 0.0102 -0.0127
v  -0.0273 -0.0102 -0.0127
v  -0.0273 -0.0072 -0.0199
v  -0.0273 0.0043 -0.0084
v  -0.0273 0.0072 -0.0055
v  -0.0273 0.0000 -0.0066
v  -0.0273 0.0000 -0.0025
v  -0.0273 -0.0043 -0.0084
v  -0.0273 -0.0072 -0.0055
v  -0.0273 -0.0061 -0.0127
v  -0.0273 0.0000 -0.0188
v  -0.0273 0.0043 -0.0170
v  -0.0273 0.0061 -0.0127
v  -0.0422 0.0061 -0.0127
v  -0.0422 0.0000 -0.0188
v  -0.0422 0.0043 -0.0084
v  -0.0422 0.0000 -0.0066
v  -0.0422 -0.0043 -0.0084
v  -0.0422 0.0043 -0.0170
v  0.0000 -0.0111 0.0102
v  0.0072 -0.0111 0.0072
v  0.0072 0.0111 0.0072
v  0.0102 -0.0111 0.0000
v  0.0102 0.0111 0.0000
v  0.0000 0.0091 -0.0102
v  0.0000 -0.0091 -0.0102
v  0.0000 -0.0111 -0.0102
v  -0.0072 -0.0111 -0.0072
v  -0.0072 -0.0111 0.0072
v  0.0000 0.0111 0.0102
v  -0.0102 -0.0111 0.0000
v  -0.0072 0.0111 0.0072
v  -0.0102 0.0111 0.0000
v  0.0000 0.0111 -0.0102
v  0.0091 0.0000 -0.0025
v  0.0079 -0.0072 -0.0055
v  0.0079 0.0072 -0.0055
v  -0.0091 0.0000 -0.0025
v  -0.0079 0.0072 -0.0055
v  -0.0072 0.0111 -0.0072
v  0.0072 0.0111 -0.0072
v  0.0072 -0.0111 -0.0072
v  -0.0079 -0.0072 -0.0055
# 72 vertices

vn 1.0000 0.0000 0.0000
vn 1.0000 -0.0000 0.0000
vn 0.0000 0.7071 0.7071
vn 0.0000 1.0000 0.0000
vn 0.0000 0.7071 -0.7071
vn 0.0000 -1.0000 -0.0000
vn 0.0000 -0.7071 -0.7071
vn 0.0000 0.0000 1.0000
vn 0.0000 0.0000 -1.0000
vn 0.0000 -0.7071 0.7071
vn 1.0000 0.0000 -0.0000
vn 1.0000 -0.0000 -0.0000
vn -1.0000 0.0000 0.0000
vn -1.0000 -0.0000 0.0000
vn -0.0000 0.7071 0.7071
vn -0.0000 0.0000 1.0000
vn -0.0000 -0.7071 0.7071
vn 0.7071 0.0000 0.7071
vn 0.0000 0.9239 0.3827
vn 0.0000 0.0842 -0.9965
vn -0.6602 0.1652 -0.7327
vn 0.0000 -1.0000 0.0000
vn -0.7071 0.0000 0.7071
vn -1.0000 0.0000 -0.0000
vn 0.0000 1.0000 -0.0000
vn -0.0000 -0.7866 0.6174
vn 0.0000 0.7866 0.6174
vn 0.0000 -0.0842 -0.9965
vn -0.8469 -0.0743 -0.5265
vn -0.6602 -0.1652 -0.7327
vn 0.6602 -0.1652 -0.7327
vn 0.8469 -0.0743 -0.5265
vn -0.9239 0.0000 -0.3827
vn 0.0000 -0.9239 0.3827
vn 0.8469 0.0743 -0.5265
vn 0.6602 0.1652 -0.7327
vn 0.9239 0.0000 -0.3827
vn -0.8469 0.0743 -0.5265
vn 0.0000 -0.7866 0.6174
# 39 vertex normals

vt 0.0000 0.0000 0.0000
vt 1.0000 0.0000 0.0000
vt 1.0000 1.0000 0.0000
# 3 texture coords

o Cylinder
g Cylinder
usemtl Material
s off
f 1/1/1 2/2/1 3/3/2 
f 4/1/3 5/2/3 1/3/4 
f 6/1/4 1/2/4 7/3/5 
f 8/1/6 9/2/7 10/3/7 
f 11/1/8 2/2/8 5/3/3 
f 12/1/9 13/2/9 10/3/7 
f 14/1/10 15/2/10 2/3/8 
f 16/1/5 7/2/5 13/3/9 
f 17/1/11 18/2/11 14/3/11 
f 19/1/2 20/2/2 16/3/2 
f 18/1/11 21/2/1 8/3/1 
f 22/1/2 23/2/12 4/3/12 
f 20/1/2 22/2/2 6/3/2 
f 21/1/1 24/2/1 9/3/1 
f 23/1/12 17/2/11 11/3/11 
f 9/1/1 24/2/1 19/3/2 
f 25/1/6 26/2/7 27/3/7 
f 28/1/9 29/2/5 20/3/5 
f 29/1/5 30/2/4 22/3/4 
f 31/1/6 32/2/7 24/3/7 
f 32/1/7 28/2/9 19/3/9 
f 33/1/13 34/2/13 30/3/13 
f 35/1/13 36/2/13 34/3/13 
f 37/1/13 38/2/13 36/3/13 
f 37/1/13 39/2/13 31/3/13 
f 39/1/13 27/2/14 32/3/14 
f 27/1/14 40/2/13 28/3/13 
f 41/1/13 29/2/13 28/3/13 
f 42/1/13 30/2/13 29/3/13 
f 43/1/13 44/2/13 25/3/14 
f 45/1/15 46/2/16 35/3/16 
f 26/1/7 44/2/9 40/3/9 
f 46/1/16 47/2/17 37/3/17 
f 40/1/9 44/2/9 48/3/5 
f 47/1/17 25/2/6 39/3/6 
f 42/1/4 43/2/4 45/3/15 
f 41/1/5 48/2/5 43/3/4 
f 8/1/6 3/2/6 15/3/10 
f 49/1/16 50/2/18 51/3/18 
f 50/1/18 52/2/1 53/3/1 
f 22/1/4 30/2/4 54/3/19 
f 55/1/20 56/2/9 57/3/21 
f 50/1/22 58/2/22 57/3/22 
f 58/1/23 49/2/16 59/3/16 
f 60/1/24 58/2/23 61/3/23 
f 62/1/4 53/2/25 63/3/25 
f 64/1/16 65/2/26 18/3/10 
f 23/1/3 66/2/27 64/3/16 
f 67/1/8 68/2/27 34/3/3 
f 67/1/8 36/2/8 38/3/10 
f 54/1/28 68/2/29 69/3/30 
f 70/1/31 66/2/32 54/3/28 
f 67/1/33 60/2/24 62/3/13 
f 55/1/34 31/2/6 21/3/6 
f 55/1/20 65/2/35 71/3/36 
f 53/1/1 52/2/1 64/3/37 
f 3/1/2 7/2/1 1/3/1 
f 3/1/2 10/2/2 13/3/2 
f 2/1/1 15/2/1 3/3/2 
f 1/1/1 5/2/1 2/3/1 
f 3/1/2 13/2/2 7/3/1 
f 6/1/4 4/2/3 1/3/4 
f 16/1/5 6/2/4 7/3/5 
f 3/1/6 8/2/6 10/3/7 
f 4/1/3 11/2/8 5/3/3 
f 9/1/7 12/2/9 10/3/7 
f 11/1/8 14/2/10 2/3/8 
f 12/1/9 16/2/5 13/3/9 
f 11/1/11 17/2/11 14/3/11 
f 12/1/2 19/2/2 16/3/2 
f 14/1/11 18/2/11 8/3/1 
f 6/1/2 22/2/2 4/3/12 
f 16/1/2 20/2/2 6/3/2 
f 8/1/1 21/2/1 9/3/1 
f 4/1/12 23/2/12 11/3/11 
f 12/1/2 9/2/1 19/3/2 
f 39/1/6 25/2/6 27/3/7 
f 19/1/9 28/2/9 20/3/5 
f 20/1/5 29/2/5 22/3/4 
f 21/1/6 31/2/6 24/3/7 
f 24/1/7 32/2/7 19/3/9 
f 42/1/13 33/2/13 30/3/13 
f 33/1/13 35/2/13 34/3/13 
f 35/1/13 37/2/13 36/3/13 
f 38/1/13 37/2/13 31/3/13 
f 31/1/13 39/2/13 32/3/14 
f 32/1/14 27/2/14 28/3/13 
f 40/1/13 41/2/13 28/3/13 
f 41/1/13 42/2/13 29/3/13 
f 46/1/14 45/2/13 43/3/13 
f 25/1/14 47/2/14 46/3/14 
f 44/1/13 26/2/14 25/3/14 
f 43/1/13 48/2/14 44/3/13 
f 25/1/14 46/2/14 43/3/13 
f 33/1/3 45/2/15 35/3/16 
f 27/1/7 26/2/7 40/3/9 
f 35/1/16 46/2/16 37/3/17 
f 41/1/5 40/2/9 48/3/5 
f 37/1/17 47/2/17 39/3/6 
f 33/1/3 42/2/4 45/3/15 
f 42/1/4 41/2/5 43/3/4 
f 14/1/10 8/2/6 15/3/10 
f 59/1/16 49/2/16 51/3/18 
f 51/1/18 50/2/18 53/3/1 
f 66/1/27 23/2/3 22/3/4 
f 30/1/4 68/2/27 54/3/19 
f 54/1/19 66/2/27 22/3/4 
f 30/1/4 34/2/3 68/3/27 
f 72/1/38 55/2/20 57/3/21 
f 71/1/22 52/2/22 50/3/22 
f 57/1/22 56/2/22 71/3/22 
f 58/1/22 60/2/22 57/3/22 
f 50/1/22 49/2/22 58/3/22 
f 57/1/22 71/2/22 50/3/22 
f 61/1/23 58/2/23 59/3/16 
f 62/1/13 60/2/24 61/3/23 
f 62/1/4 61/2/4 59/3/4 
f 63/1/25 69/2/25 62/3/4 
f 53/1/25 70/2/25 63/3/25 
f 59/1/4 51/2/25 53/3/25 
f 53/1/25 62/2/4 59/3/4 
f 17/1/8 64/2/16 18/3/10 
f 17/1/8 23/2/3 64/3/16 
f 36/1/8 67/2/8 34/3/3 
f 72/1/39 67/2/8 38/3/10 
f 63/1/9 54/2/28 69/3/30 
f 63/1/9 70/2/31 54/3/28 
f 72/1/38 57/2/21 60/3/24 
f 62/1/13 69/2/30 68/3/29 
f 67/1/33 72/2/38 60/3/24 
f 62/1/13 68/2/29 67/3/33 
f 72/1/39 38/2/10 31/3/6 
f 21/1/6 18/2/10 65/3/26 
f 55/1/34 72/2/39 31/3/6 
f 21/1/6 65/2/26 55/3/34 
f 56/1/9 55/2/20 71/3/36 
f 66/1/32 70/2/31 53/3/1 
f 52/1/1 71/2/36 65/3/35 
f 64/1/37 66/2/32 53/3/1 
f 52/1/1 65/2/35 64/3/37 
# 0 polygons - 140 triangles

