mtllib cardboardBox.mtl
g 1
usemtl 1
v -0.49166602 -0.49166602 -0.0000001
v -0.49166602 0.49166602 0.0000001
v 0.49166602 0.49166602 0.0000001
v 0.49166602 -0.49166602 -0.0000001
v 0.49166602 -0.49166626 0.983332
v -0.49166602 -0.49166626 0.983332
v 0.491666 0.49166584 0.98333216
v -0.49166605 0.49166578 0.98333216
v 0.491666 -0.0094474675 1.0792513
v -0.49166605 -0.0094474675 1.0792513
v -0.491666 0.03742555 1.1714845
v 0.49166605 0.037425693 1.1714845
v 0.49144775 0.49144775 0.0002184
v -0.49144775 0.49144775 0.0002184
v -0.49144775 -0.49144775 0.0002182
v 0.49144775 -0.49144775 0.0002182
v 0.49146068 -0.49142087 0.9831306
v -0.49146068 -0.49142087 0.9831306
v 0.49147114 0.49139643 0.98315215
v -0.4914712 0.49139637 0.98315215
v 0.491666 -0.00937371 1.0788805
v -0.49166605 -0.00937371 1.0788805
v -0.491666 0.037280872 1.1711352
v 0.49166605 0.037281014 1.1711352
vt 0.510099 0.98503345 0
vt 0.510099 0.5054249 0
vt 0.98970747 0.5054249 0
vt 0.98970747 0.98503345 0
vt 0.017259514 0.27301186 0
vt 0.49686798 0.27301186 0
vt 0.49686798 0.7526204 0
vt 0.017259514 0.7526204 0
vt 0.5116884 0.014115274 0
vt 0.99129707 0.014115274 0
vt 0.99129707 0.4937238 0
vt 0.5116884 0.4937238 0
vt 0.014140323 0.76591116 0
vt 0.49374875 0.76591116 0
vt 0.49374875 0.9874615 0
vt 0.014140323 0.98746127 0
vn 0.0 0.0000002 -1.0
vn 0.0 -1.0 -0.0000002
vn 1.0 0 0
vn 1.0 -0 0
vn 1.0 0 0
vn -0 1.0 0.0000002
vn 0.0 1.0 0.0000002
vn -0.0000001 1.0 0.0000002
vn -1.0 -0 -0
vn -1.0 0.0 0.0
vn -1.0 -0 -0
vn 0.0 -0.19509034 0.98078525
vn -0 0.3826832 0.92387974
vn -0 0.38268316 0.92387974
vn -0.0000001 0.38268316 0.9238796
vn 0.0 -0.0000002 1.0
vn 0.0 1.0 -0.0000274
vn 0.0 1.0 -0.0000274
vn -1.0 0.0000053 0.0000185
vn -1.0 -0 0.0000238
vn -1.0 0.0000106 0.0000132
vn 0 -1.0 -0.0000522
vn 0.0 -1.0 -0.0000523
vn 0.0000001 -1.0 -0.0000522
vn 1.0 0.0000054 0.0000185
vn 1.0 -0 0.0000132
vn 1.0 0.0000107 0.0000239
vn 0.0 0.19482572 -0.9808379
vn 0.0 0.19482571 -0.9808379
vn 0 -0.3824789 -0.9239642
vn 0 -0.38247886 -0.9239642
vn 0.0000001 -0.38247892 -0.92396426
vn -0.6894864 -0.0000042 0.7242986
vn -0.6785787 -0.0000002 0.73452777
vn -0.70024 -0.0000082 0.71390754
vn 0.6894807 -0.0000045 0.7243041
vn 0.700235 -0.0000001 0.71391237
vn 0.6785722 -0.0000089 0.7345337
vn 0.9399313 0.06637882 -0.33484778
vn 0.7669418 0.12519276 -0.6293863
vn 0.9999999 -0.0004097 -0.0000815
vn 0.0 0.9807791 0.19512124
vn -0.93987834 0.066367656 -0.33499882
vn -1.0 -0.0000001 -0
vn -0.7667423 0.12475507 -0.62971616
vn -0.9513889 -0.117670946 -0.28462723
vn -0.8102819 -0.22426783 -0.5414307
vn -0.99999994 0.0003662 -0.0001517
vn 0.0000001 -0.9238785 0.38268614
vn 0.95135134 -0.11768878 -0.28474548
vn 1.0 0.0000001 -0
vn 0.8101387 -0.22392687 -0.54178596
f 1/1/1 2/2/1 3/3/1
f 3/3/1 4/4/1 1/1/1
f 1/5/2 4/6/2 5/7/2
f 5/7/2 6/8/2 1/5/2
f 4/9/3 3/10/4 7/11/3
f 7/11/3 5/12/5 4/9/3
f 3/5/6 2/6/7 8/7/6
f 8/7/6 7/8/8 3/5/6
f 2/9/9 1/10/10 6/11/9
f 6/11/9 8/12/11 2/9/9
f 6/13/12 5/14/12 9/15/12
f 9/15/12 10/16/12 6/13/12
f 7/13/13 8/14/14 11/15/13
f 11/15/13 12/16/15 7/13/13
f 13/3/16 14/2/16 15/1/16
f 15/1/16 16/4/16 13/3/16
f 17/7/17 16/6/18 15/5/17
f 15/5/17 18/8/17 17/7/17
f 19/11/19 13/10/20 16/9/19
f 16/9/19 17/12/21 19/11/19
f 20/7/22 14/6/23 13/5/22
f 13/5/22 19/8/24 20/7/22
f 18/11/25 15/10/26 14/9/25
f 14/9/25 20/12/27 18/11/25
f 21/15/28 17/14/29 18/13/28
f 18/13/28 22/16/28 21/15/28
f 23/15/30 20/14/31 19/13/30
f 19/13/30 24/16/32 23/15/30
f 5/12/33 7/11/34 19/11/33
f 19/11/33 17/12/35 5/12/33
f 8/12/36 6/11/37 18/11/36
f 18/11/36 20/12/38 8/12/36
f 9/15/39 5/14/40 17/14/39
f 17/14/39 21/15/41 9/15/39
f 10/16/42 9/15/42 21/15/42
f 21/15/42 22/16/42 10/16/42
f 6/13/43 10/16/44 22/16/43
f 22/16/43 18/13/45 6/13/43
f 11/15/46 8/14/47 20/14/46
f 20/14/46 23/15/48 11/15/46
f 12/16/49 11/15/49 23/15/49
f 23/15/49 24/16/49 12/16/49
f 7/13/50 12/16/51 24/16/50
f 24/16/50 19/13/52 7/13/50
