# File units = meters
mtllib Walkway.mtl
g Part 1
v 1 2.5 1 
v 1 2.5 0 
v 1 -0.5 0 
v 1 -0.5 1 
v 4 2.5 1 
v 4 2.5 0 
v 4 4.5 0 
v -1 4.5 0 
v -1 -0.5 0 
v -1 -0.5 1 
v -1 4.5 1 
v 4 4.5 1 
v 1.25 2.25 1 
v 1.25 -0.5 1 
v 4 2.25 1 
v 1.25 -0.5 -0.25 
v 1.25 2.25 -0.25 
v 4 2.25 -0.25 
v -1.25 -0.5 -0.25 
v -1.25 -0.5 1 
v 4 4.75 -0.25 
v 4 4.75 1 
v -1.25 4.75 -0.25 
v -1.25 4.75 1 
vn -1 2.22045e-16 0 
vn 0 1 0 
vn 0 0 1 
vn 1 -3.33067e-16 0 
vn 0 -1 0 
vn 0 0 1 
vn 1 3.22974e-16 0 
vn 0 -1 0 
vn 0 0 -1 
vn 0 0 1 
vn 0 1 0 
vn -1 -8.88178e-17 0 
usemtl 0.713725_0.760784_0.800000_0.000000_0.000000
o mesh0
f 1//1 2//1 3//1 
f 3//1 4//1 1//1 
o mesh1
f 1//2 5//2 6//2 
f 6//2 2//2 1//2 
o mesh2
f 7//3 8//3 2//3 
f 9//3 3//3 2//3 
f 2//3 8//3 9//3 
f 2//3 6//3 7//3 
o mesh3
f 10//4 9//4 8//4 
f 8//4 11//4 10//4 
o mesh4
f 12//5 11//5 8//5 
f 8//5 7//5 12//5 
o mesh5
f 5//6 1//6 13//6 
f 4//6 14//6 13//6 
f 13//6 1//6 4//6 
f 13//6 15//6 5//6 
o mesh6
f 14//7 16//7 17//7 
f 17//7 13//7 14//7 
o mesh7
f 13//8 17//8 18//8 
f 18//8 15//8 13//8 
o mesh8
f 19//8 16//8 3//8 
f 14//8 4//8 3//8 
f 20//8 19//8 9//8 
f 3//8 16//8 14//8 
f 3//8 9//8 19//8 
f 9//8 10//8 20//8 
o mesh9
f 18//7 21//7 7//7 
f 22//7 12//7 7//7 
f 15//7 18//7 6//7 
f 7//7 21//7 22//7 
f 7//7 6//7 18//7 
f 6//7 5//7 15//7 
o mesh10
f 19//9 23//9 17//9 
f 21//9 18//9 17//9 
f 17//9 23//9 21//9 
f 17//9 16//9 19//9 
o mesh11
f 22//10 24//10 11//10 
f 20//10 10//10 11//10 
f 11//10 24//10 20//10 
f 11//10 12//10 22//10 
o mesh12
f 22//11 21//11 23//11 
f 23//11 24//11 22//11 
o mesh13
f 24//12 23//12 19//12 
f 19//12 20//12 24//12 
