# This file uses centimeters as units for non-parametric coordinates.

mtllib L_Battery.mtl
g default
v -0.006303 0.010741 0.161231
v -0.006575 0.011798 0.152529
v -0.000953 0.012694 0.152715
v -0.001038 0.011457 0.161303
v 0.005155 0.012038 0.143514
v 0.004679 0.011531 0.152791
v -0.000754 0.013450 0.143259
v 0.004255 0.010528 0.161003
v -0.006721 0.012410 0.143193
v -0.009690 0.010534 0.152381
v -0.010078 0.010936 0.143224
v -0.009337 0.009765 0.161042
v 0.007709 0.010234 0.152798
v 0.007254 0.009437 0.160746
v 0.008392 0.010495 0.143713
v -0.003696 0.011264 0.161313
v -0.003801 0.012463 0.152633
v -0.003787 0.013188 0.143206
v 0.002261 0.012971 0.143370
v 0.001905 0.012305 0.152764
v 0.001643 0.011156 0.161181
vt 0.657591 0.000024
vt 0.656350 0.482236
vt 0.500758 0.478230
vt 0.503156 -0.000453
vt 0.499580 0.999466
vt 0.343872 0.999113
vt 0.343107 0.474123
vt 0.346268 -0.000666
vt 0.654062 1.000237
vt 1.000135 0.486940
vt 1.000000 1.000000
vt 0.809152 1.000838
vt 0.812464 0.485516
vt 0.812254 0.000439
vt 1.000000 0.000000
vt 0.184806 0.470376
vt 0.000142 0.467612
vt 0.000000 0.000000
vt 0.189159 -0.000815
vt 0.187547 0.998922
vt 0.000000 1.000000
vn -0.148058 0.979693 0.135206
vn 0.022417 0.984782 0.172341
vn 0.029964 0.992040 0.122309
vn -0.157607 0.982177 0.102417
vn 0.035387 0.996186 0.079751
vn 0.202193 0.973776 0.104298
vn 0.213663 0.973951 0.075943
vn 0.185561 0.972912 0.137873
vn -0.165342 0.983450 0.074081
vn -0.440246 0.892880 0.094598
vn -0.281007 0.953355 0.110220
vn -0.294303 0.953414 0.066237
vn -0.462881 0.884930 0.051392
vn -0.410935 0.899667 0.147414
vn -0.260245 0.951951 0.161438
vn 0.320584 0.940290 0.114370
vn 0.290453 0.941739 0.169603
vn 0.446607 0.879561 0.164059
vn 0.473807 0.874592 0.102938
vn 0.336232 0.939300 0.068287
vn 0.493737 0.867905 0.054453
s 1
g __CM__Battery
usemtl __CM__BatterySG
f 16/1/1 4/4/2 3/3/3 17/2/4
f 7/5/5 3/3/3 20/7/6 19/6/7
f 3/3/3 4/4/2 21/8/8 20/7/6
f 17/2/4 3/3/3 7/5/5 18/9/9
f 10/10/10 2/13/11 9/12/12 11/11/13
f 2/13/11 10/10/10 12/15/14 1/14/15
f 6/16/16 8/19/17 14/18/18 13/17/19
f 5/20/20 6/16/16 13/17/19 15/21/21
f 1/14/15 16/1/1 17/2/4 2/13/11
f 2/13/11 17/2/4 18/9/9 9/12/12
f 20/7/6 6/16/16 5/20/20 19/6/7
f 21/8/8 8/19/17 6/16/16 20/7/6
