# This file uses centimeters as units for non-parametric coordinates.

mtllib L_ButtonX.mtl
g default
v 0.009850 0.000629 0.057818
v 0.010157 0.000203 0.056990
v 0.010640 -0.000186 0.056231
v 0.011280 -0.000524 0.055570
v 0.012052 -0.000799 0.055033
v 0.012928 -0.001000 0.054640
v 0.013872 -0.001118 0.054406
v 0.014850 -0.001149 0.054341
v 0.015823 -0.001093 0.054446
v 0.016753 -0.000951 0.054718
v 0.017607 -0.000729 0.055147
v 0.018349 -0.000435 0.055715
v 0.018952 -0.000081 0.056401
v 0.019393 0.000321 0.057180
v 0.019655 0.000753 0.058019
v 0.019728 0.001200 0.058889
v 0.019608 0.001645 0.059754
v 0.019301 0.002070 0.060582
v 0.018819 0.002460 0.061341
v 0.018179 0.002798 0.062001
v 0.017406 0.003073 0.062539
v 0.016531 0.003273 0.062932
v 0.015587 0.003391 0.063165
v 0.014609 0.003423 0.063231
v 0.013636 0.003367 0.063125
v 0.012705 0.003225 0.062853
v 0.011852 0.003002 0.062424
v 0.011110 0.002709 0.061856
v 0.010506 0.002354 0.061170
v 0.010065 0.001953 0.060392
v 0.009803 0.001521 0.059552
v 0.009731 0.001073 0.058683
v 0.009851 0.004881 0.055632
v 0.010150 0.004438 0.054812
v 0.010635 0.004036 0.054062
v 0.011274 0.003688 0.053405
v 0.012046 0.003408 0.052870
v 0.012923 0.003211 0.052482
v 0.013866 0.003098 0.052243
v 0.014843 0.003076 0.052173
v 0.015814 0.003148 0.052273
v 0.016744 0.003308 0.052535
v 0.017599 0.003549 0.052948
v 0.018335 0.003869 0.053509
v 0.018938 0.004248 0.054181
v 0.019377 0.004674 0.054945
v 0.019646 0.005129 0.055769
v 0.019719 0.005600 0.056626
v 0.019596 0.006065 0.057480
v 0.019287 0.006507 0.058297
v 0.018807 0.006910 0.059050
v 0.018160 0.007254 0.059699
v 0.017385 0.007530 0.060227
v 0.016519 0.007736 0.060632
v 0.015574 0.007848 0.060868
v 0.014598 0.007862 0.060924
v 0.013628 0.007793 0.060830
v 0.012697 0.007636 0.060574
v 0.011845 0.007394 0.060158
v 0.011104 0.007077 0.059603
v 0.010500 0.006698 0.058931
v 0.010059 0.006273 0.058167
v 0.009797 0.005816 0.057341
v 0.009722 0.005346 0.056485
v 0.010117 0.005322 0.055463
v 0.010404 0.004901 0.054691
v 0.010864 0.004522 0.053987
v 0.011469 0.004194 0.053372
v 0.012198 0.003932 0.052872
v 0.013024 0.003747 0.052510
v 0.013912 0.003640 0.052289
v 0.014829 0.003621 0.052226
v 0.015740 0.003689 0.052322
v 0.016613 0.003840 0.052569
v 0.017414 0.004067 0.052955
v 0.018105 0.004367 0.053479
v 0.018674 0.004724 0.054108
v 0.019090 0.005125 0.054825
v 0.019347 0.005555 0.055598
v 0.019421 0.005998 0.056401
v 0.019310 0.006439 0.057204
v 0.019024 0.006860 0.057977
v 0.018576 0.007244 0.058688
v 0.017970 0.007572 0.059303
v 0.017235 0.007837 0.059807
v 0.016416 0.008035 0.060194
v 0.015526 0.008143 0.060417
v 0.014599 0.008157 0.060472
v 0.013676 0.008092 0.060383
v 0.012794 0.007943 0.060140
v 0.011987 0.007711 0.059745
v 0.011286 0.007409 0.059218
v 0.010716 0.007049 0.058581
v 0.010301 0.006643 0.057857
v 0.010058 0.006208 0.057075
v 0.009990 0.005763 0.056267
v 0.011586 0.006100 0.055438
v 0.011785 0.005811 0.054909
v 0.012094 0.005554 0.054436
v 0.012503 0.005326 0.054016
v 0.012988 0.005144 0.053673
v 0.013547 0.005009 0.053416
v 0.014157 0.004934 0.053266
v 0.014781 0.004919 0.053220
v 0.015407 0.004961 0.053278
v 0.016009 0.005069 0.053453
v 0.016546 0.005229 0.053722
v 0.017016 0.005436 0.054077
v 0.017405 0.005683 0.054512
v 0.017687 0.005962 0.055006
v 0.017854 0.006258 0.055535
v 0.017904 0.006556 0.056073
v 0.017826 0.006854 0.056615
v 0.017633 0.007142 0.057145
v 0.017332 0.007400 0.057624
v 0.016929 0.007621 0.058037
v 0.016419 0.007809 0.058397
v 0.015856 0.007939 0.058660
v 0.015275 0.008009 0.058810
v 0.014642 0.008024 0.058858
v 0.013996 0.007978 0.058793
v 0.013398 0.007873 0.058622
v 0.012856 0.007716 0.058352
v 0.012382 0.007511 0.057990
v 0.011999 0.007266 0.057554
v 0.011721 0.006992 0.057061
v 0.011557 0.006697 0.056527
v 0.011485 0.006393 0.055989
v 0.013131 0.006650 0.055538
v 0.013231 0.006504 0.055273
v 0.013386 0.006376 0.055035
v 0.013591 0.006262 0.054825
v 0.013834 0.006171 0.054653
v 0.014114 0.006104 0.054524
v 0.014420 0.006067 0.054448
v 0.014731 0.006060 0.054425
v 0.015045 0.006082 0.054454
v 0.015347 0.006136 0.054541
v 0.015616 0.006216 0.054676
v 0.015851 0.006319 0.054855
v 0.016046 0.006443 0.055073
v 0.016187 0.006582 0.055320
v 0.016271 0.006730 0.055585
v 0.016296 0.006880 0.055855
v 0.016257 0.007029 0.056126
v 0.016161 0.007174 0.056392
v 0.016009 0.007304 0.056631
v 0.015807 0.007415 0.056838
v 0.015552 0.007510 0.057018
v 0.015269 0.007577 0.057150
v 0.014979 0.007613 0.057224
v 0.014662 0.007621 0.057248
v 0.014338 0.007598 0.057216
v 0.014039 0.007545 0.057131
v 0.013767 0.007465 0.056996
v 0.013529 0.007361 0.056815
v 0.013338 0.007237 0.056596
v 0.013199 0.007099 0.056350
v 0.013116 0.006950 0.056082
v 0.013080 0.006798 0.055814
v 0.014691 0.006958 0.055771
v 0.009925 0.005143 0.055510
v 0.010227 0.004705 0.054707
v 0.010703 0.004311 0.053970
v 0.011333 0.003969 0.053327
v 0.012092 0.003696 0.052804
v 0.012952 0.003504 0.052419
v 0.013879 0.003393 0.052189
v 0.014836 0.003373 0.052121
v 0.015789 0.003444 0.052218
v 0.016701 0.003602 0.052476
v 0.017537 0.003837 0.052885
v 0.018263 0.004153 0.053429
v 0.018855 0.004523 0.054088
v 0.019288 0.004942 0.054837
v 0.019549 0.005386 0.055648
v 0.019629 0.005851 0.056487
v 0.019511 0.006308 0.057327
v 0.019211 0.006746 0.058131
v 0.018741 0.007143 0.058873
v 0.018111 0.007489 0.059517
v 0.017349 0.007767 0.060043
v 0.016490 0.007962 0.060439
v 0.015560 0.008074 0.060673
v 0.014595 0.008098 0.060736
v 0.013636 0.008027 0.060641
v 0.012718 0.007867 0.060385
v 0.011877 0.007626 0.059973
v 0.011147 0.007311 0.059424
v 0.010554 0.006936 0.058760
v 0.010122 0.006515 0.058006
v 0.009868 0.006064 0.057192
v 0.009802 0.005597 0.056350
vt 0.155571 0.118158
vt 0.161062 0.118158
vt 0.707284 0.847619
vt 0.709673 0.841822
vt 0.166555 0.118158
vt 0.703840 0.852860
vt 0.172047 0.118158
vt 0.699413 0.857295
vt 0.177540 0.118158
vt 0.694225 0.860779
vt 0.183032 0.118158
vt 0.688475 0.863201
vt 0.188523 0.118158
vt 0.682363 0.864473
vt 0.194014 0.118158
vt 0.676114 0.864537
vt 0.023815 0.118158
vt 0.669973 0.863367
vt 0.029305 0.118158
vt 0.664168 0.861041
vt 0.034797 0.118158
vt 0.658912 0.857636
vt 0.040287 0.118158
vt 0.654441 0.853245
vt 0.045775 0.118158
vt 0.650891 0.848080
vt 0.051264 0.118158
vt 0.648414 0.842316
vt 0.056754 0.118158
vt 0.647083 0.836175
vt 0.062247 0.118158
vt 0.646979 0.829881
vt 0.067740 0.118158
vt 0.648135 0.823683
vt 0.073231 0.118158
vt 0.650471 0.817823
vt 0.078723 0.118158
vt 0.653906 0.812521
vt 0.084213 0.118158
vt 0.658335 0.808004
vt 0.089699 0.118158
vt 0.663554 0.804423
vt 0.095187 0.118158
vt 0.669385 0.801951
vt 0.100679 0.118158
vt 0.675584 0.800652
vt 0.106167 0.118158
vt 0.681926 0.800624
vt 0.111651 0.118158
vt 0.688140 0.801851
vt 0.117138 0.118158
vt 0.693991 0.804246
vt 0.122627 0.118158
vt 0.699251 0.807741
vt 0.128116 0.118158
vt 0.703713 0.812198
vt 0.133606 0.118158
vt 0.707217 0.817431
vt 0.139097 0.118158
vt 0.709626 0.823239
vt 0.144588 0.118158
vt 0.710855 0.829395
vt 0.150080 0.118158
vt 0.710853 0.835664
vt 0.707963 0.841308
vt 0.705741 0.846801
vt 0.704355 0.846069
vt 0.706450 0.840851
vt 0.702457 0.851731
vt 0.701234 0.850731
vt 0.698289 0.855929
vt 0.697285 0.854718
vt 0.693391 0.859234
vt 0.692640 0.857843
vt 0.687940 0.861500
vt 0.687466 0.859981
vt 0.682163 0.862698
vt 0.681986 0.861115
vt 0.676263 0.862755
vt 0.676399 0.861165
vt 0.670466 0.861641
vt 0.670909 0.860100
vt 0.664984 0.859441
vt 0.665711 0.858013
vt 0.660022 0.856232
vt 0.661014 0.854983
vt 0.655812 0.852080
vt 0.657039 0.851043
vt 0.652458 0.847203
vt 0.653858 0.846421
vt 0.650119 0.841759
vt 0.651641 0.841260
vt 0.648852 0.835961
vt 0.650429 0.835771
vt 0.648759 0.830022
vt 0.650346 0.830151
vt 0.649849 0.824172
vt 0.651377 0.824611
vt 0.652056 0.818635
vt 0.653475 0.819366
vt 0.655295 0.813627
vt 0.656526 0.814615
vt 0.659483 0.809372
vt 0.660501 0.810603
vt 0.664426 0.806013
vt 0.665204 0.807422
vt 0.669909 0.803623
vt 0.670389 0.805127
vt 0.675765 0.802413
vt 0.675917 0.803988
vt 0.681747 0.802426
vt 0.681584 0.804025
vt 0.687618 0.803556
vt 0.687160 0.805085
vt 0.693149 0.805806
vt 0.692405 0.807199
vt 0.698120 0.809102
vt 0.697110 0.810325
vt 0.702338 0.813312
vt 0.701113 0.814309
vt 0.705653 0.818254
vt 0.704260 0.818992
vt 0.707933 0.823742
vt 0.706424 0.824194
vt 0.709099 0.829562
vt 0.707532 0.829717
vt 0.709121 0.835492
vt 0.707566 0.835336
vt 0.695698 0.841432
vt 0.697101 0.837946
vt 0.693668 0.844502
vt 0.691067 0.847170
vt 0.688046 0.849276
vt 0.684626 0.850783
vt 0.680948 0.851551
vt 0.677237 0.851582
vt 0.673551 0.850934
vt 0.670061 0.849480
vt 0.666999 0.847420
vt 0.664374 0.844801
vt 0.662261 0.841683
vt 0.660810 0.838211
vt 0.660055 0.834551
vt 0.660004 0.830883
vt 0.660708 0.827243
vt 0.662090 0.823739
vt 0.664094 0.820639
vt 0.666667 0.818022
vt 0.669851 0.815828
vt 0.673301 0.814296
vt 0.676807 0.813543
vt 0.680578 0.813499
vt 0.684372 0.814224
vt 0.687830 0.815653
vt 0.690916 0.817719
vt 0.693554 0.820376
vt 0.695620 0.823493
vt 0.697040 0.826938
vt 0.697774 0.830613
vt 0.697961 0.834300
vt 0.687223 0.836930
vt 0.687918 0.835204
vt 0.686214 0.838444
vt 0.684932 0.839761
vt 0.683442 0.840800
vt 0.681754 0.841544
vt 0.679940 0.841919
vt 0.678112 0.841941
vt 0.676294 0.841616
vt 0.674574 0.840896
vt 0.673067 0.839880
vt 0.671774 0.838587
vt 0.670733 0.837048
vt 0.670021 0.835336
vt 0.669651 0.833532
vt 0.669621 0.831725
vt 0.669973 0.829930
vt 0.670651 0.828203
vt 0.671636 0.826673
vt 0.672908 0.825384
vt 0.674476 0.824294
vt 0.676180 0.823540
vt 0.677906 0.823166
vt 0.679764 0.823148
vt 0.681635 0.823505
vt 0.683341 0.824210
vt 0.684863 0.825227
vt 0.686164 0.826537
vt 0.687183 0.828074
vt 0.687883 0.829773
vt 0.688243 0.831590
vt 0.688337 0.833406
vt 0.678951 0.832549
vt 0.150080 0.145423
vt 0.155571 0.145423
vt 0.144588 0.145423
vt 0.139097 0.145423
vt 0.133606 0.145423
vt 0.128116 0.145423
vt 0.122627 0.145423
vt 0.117138 0.145423
vt 0.111651 0.145423
vt 0.106167 0.145423
vt 0.100679 0.145423
vt 0.095187 0.145423
vt 0.089699 0.145423
vt 0.084213 0.145423
vt 0.078723 0.145423
vt 0.073231 0.145423
vt 0.067740 0.145423
vt 0.062247 0.145423
vt 0.056754 0.145423
vt 0.051264 0.145423
vt 0.045775 0.145423
vt 0.040287 0.145423
vt 0.034797 0.145423
vt 0.029305 0.145423
vt 0.023815 0.145423
vt 0.018325 0.145423
vt 0.188523 0.145423
vt 0.183032 0.145423
vt 0.177540 0.145423
vt 0.172047 0.145423
vt 0.166555 0.145423
vt 0.161062 0.145423
vt 0.018325 0.118158
vt 0.194014 0.145423
vn -0.975750 -0.100811 -0.194291
vn -0.975829 -0.087097 -0.200431
vn -0.915145 -0.171300 -0.364919
vn -0.914939 -0.185348 -0.358516
vn -0.817920 -0.249702 -0.518320
vn -0.817735 -0.264013 -0.511474
vn -0.690331 -0.317011 -0.650344
vn -0.690207 -0.331525 -0.643199
vn -0.534129 -0.372185 -0.759069
vn -0.534194 -0.386795 -0.751683
vn -0.359274 -0.411621 -0.837551
vn -0.359539 -0.426247 -0.830087
vn -0.171410 -0.434804 -0.884061
vn -0.171859 -0.449704 -0.876487
vn 0.025580 -0.440856 -0.897213
vn 0.024930 -0.456071 -0.889594
vn 0.220020 -0.429192 -0.876005
vn 0.219246 -0.444613 -0.868476
vn 0.404306 -0.400949 -0.822057
vn 0.403545 -0.416846 -0.814488
vn 0.577067 -0.355859 -0.735090
vn 0.576255 -0.372134 -0.727630
vn 0.726047 -0.296361 -0.620504
vn 0.725421 -0.312477 -0.613288
vn 0.845213 -0.226028 -0.484280
vn 0.844755 -0.241916 -0.477353
vn 0.932512 -0.146770 -0.329971
vn 0.932317 -0.162761 -0.322947
vn 0.984873 -0.061228 -0.162101
vn 0.984890 -0.077177 -0.155032
vn 0.999483 0.028739 0.014449
vn 0.999685 0.013254 0.021337
vn 0.975049 0.117748 0.188191
vn 0.975418 0.102928 0.194845
vn 0.913933 0.201680 0.352210
vn 0.914352 0.187494 0.358896
vn 0.816200 0.279786 0.505506
vn 0.816653 0.266413 0.511958
vn 0.686036 0.348029 0.638929
vn 0.686414 0.335983 0.644942
vn 0.537116 0.400548 0.742340
vn 0.537215 0.389329 0.748213
vn 0.364170 0.439672 0.821017
vn 0.364002 0.428169 0.827148
vn 0.167556 0.463964 0.869864
vn 0.167269 0.452779 0.875792
vn -0.026556 0.470141 0.882192
vn -0.027051 0.459977 0.887519
vn -0.214939 0.459168 0.861955
vn -0.215783 0.449058 0.867055
vn -0.401577 0.430664 0.808248
vn -0.402538 0.419845 0.813446
vn -0.573854 0.385924 0.722326
vn -0.574780 0.374589 0.727538
vn -0.722613 0.327328 0.608841
vn -0.723456 0.315636 0.613992
vn -0.843557 0.256670 0.471733
vn -0.844259 0.244584 0.476870
vn -0.932158 0.176629 0.316045
vn -0.932654 0.164132 0.321276
vn -0.984733 0.090818 0.148501
vn -0.985000 0.077728 0.154058
vn -0.999610 0.000815 -0.027931
vn -0.999675 -0.012732 -0.022065
vn -0.847969 0.341940 -0.405001
vn -0.455274 0.725677 -0.515867
vn -0.425768 0.687231 -0.588587
vn -0.791469 0.273856 -0.546425
vn -0.379492 0.651821 -0.656593
vn -0.703829 0.212790 -0.677750
vn -0.321610 0.622431 -0.713545
vn -0.592001 0.161635 -0.789563
vn -0.251691 0.598261 -0.760746
vn -0.457587 0.121036 -0.880888
vn -0.172189 0.581696 -0.794972
vn -0.308959 0.094069 -0.946412
vn -0.088208 0.572464 -0.815171
vn -0.151010 0.080402 -0.985257
vn -0.002347 0.570896 -0.821019
vn 0.013424 0.081324 -0.996597
vn 0.084189 0.577309 -0.812174
vn 0.175155 0.095945 -0.979855
vn 0.166800 0.590888 -0.789322
vn 0.328057 0.123390 -0.936565
vn 0.243196 0.611920 -0.752602
vn 0.472117 0.162298 -0.866467
vn 0.309027 0.640225 -0.703288
vn 0.597658 0.212476 -0.773084
vn 0.363085 0.672947 -0.644446
vn 0.700405 0.269259 -0.661009
vn 0.404402 0.709308 -0.577357
vn 0.777498 0.334346 -0.532645
vn 0.430723 0.748333 -0.504455
vn 0.826942 0.402617 -0.392513
vn 0.439321 0.791175 -0.425487
vn 0.845772 0.476444 -0.240149
vn 0.430015 0.833487 -0.346967
vn 0.831143 0.549261 -0.086675
vn 0.404895 0.872682 -0.272920
vn 0.784986 0.616728 0.058684
vn 0.361964 0.910103 -0.201729
vn 0.706089 0.679523 0.199217
vn 0.301351 0.943061 -0.140797
vn 0.595821 0.735182 0.323272
vn 0.233304 0.967883 -0.093658
vn 0.467496 0.777948 0.419815
vn 0.154818 0.986475 -0.053835
vn 0.316215 0.808884 0.495696
vn 0.063530 0.997510 -0.030617
vn 0.141072 0.827483 0.543481
vn -0.025841 0.999288 -0.027481
vn -0.031740 0.830088 0.556729
vn -0.112848 0.992953 -0.036180
vn -0.199169 0.817261 0.540756
vn -0.199390 0.978120 -0.059373
vn -0.365152 0.789768 0.492880
vn -0.278253 0.955419 -0.098746
vn -0.517512 0.748461 0.414714
vn -0.345387 0.926245 -0.150923
vn -0.647295 0.695333 0.312283
vn -0.399464 0.891576 -0.213354
vn -0.751273 0.632288 0.189212
vn -0.438298 0.852825 -0.283874
vn -0.825270 0.562563 0.049529
vn -0.461913 0.811676 -0.357517
vn -0.866488 0.489011 -0.100329
vn -0.468844 0.767286 -0.437558
vn -0.874249 0.412816 -0.255482
vn -0.354954 0.778175 -0.518123
vn -0.333560 0.747114 -0.574943
vn -0.298238 0.718706 -0.628105
vn -0.254412 0.695201 -0.672287
vn -0.200968 0.675619 -0.709332
vn -0.138777 0.660960 -0.737477
vn -0.072526 0.653232 -0.753676
vn -0.005970 0.651530 -0.758599
vn 0.062793 0.655810 -0.752310
vn 0.128672 0.667207 -0.733675
vn 0.188163 0.684378 -0.704430
vn 0.239994 0.706405 -0.665879
vn 0.282396 0.732666 -0.619235
vn 0.313347 0.762364 -0.566229
vn 0.331931 0.794021 -0.509266
vn 0.338182 0.827615 -0.447980
vn 0.329770 0.860856 -0.387528
vn 0.309506 0.891545 -0.330687
vn 0.275597 0.920707 -0.276305
vn 0.229224 0.946110 -0.228762
vn 0.176535 0.965413 -0.191867
vn 0.114725 0.979855 -0.163468
vn 0.045205 0.988261 -0.145934
vn -0.023045 0.989724 -0.141123
vn -0.090909 0.984807 -0.147957
vn -0.157505 0.973223 -0.167417
vn -0.217707 0.955745 -0.197879
vn -0.269303 0.933243 -0.237768
vn -0.310997 0.906529 -0.285459
vn -0.341246 0.876664 -0.339133
vn -0.358249 0.845558 -0.395839
vn -0.366323 0.810524 -0.457009
vn -0.221883 0.830507 -0.510907
vn -0.208657 0.810519 -0.547286
vn -0.187237 0.792850 -0.579941
vn -0.161237 0.778445 -0.606651
vn -0.129579 0.766744 -0.628739
vn -0.091102 0.757520 -0.646424
vn -0.050261 0.752304 -0.656896
vn -0.010858 0.751335 -0.659831
vn 0.031392 0.754249 -0.655838
vn 0.072794 0.761520 -0.644040
vn 0.108599 0.772023 -0.626248
vn 0.139591 0.785761 -0.602573
vn 0.165436 0.802175 -0.573712
vn 0.183934 0.820397 -0.541404
vn 0.194808 0.839641 -0.507004
vn 0.198305 0.860043 -0.470107
vn 0.193076 0.880302 -0.433348
vn 0.180827 0.899034 -0.398798
vn 0.160491 0.916587 -0.366212
vn 0.132710 0.931970 -0.337373
vn 0.100453 0.944100 -0.313980
vn 0.062813 0.953233 -0.295637
vn 0.021788 0.958464 -0.284381
vn -0.019607 0.959453 -0.281188
vn -0.062526 0.956344 -0.285476
vn -0.103998 0.949104 -0.297298
vn -0.140569 0.938369 -0.315760
vn -0.172006 0.924502 -0.340161
vn -0.197207 0.908118 -0.369365
vn -0.215188 0.889997 -0.401995
vn -0.224818 0.870479 -0.437862
vn -0.230072 0.849836 -0.474179
vn -0.015476 0.875004 -0.483869
s 1
g __CM__ButtonX
usemtl __CM__BodySG
f 1/1/1 33/195/2 34/225/3 2/2/4
f 2/2/4 34/225/3 35/224/5 3/5/6
f 3/5/6 35/224/5 36/223/7 4/7/8
f 4/7/8 36/223/7 37/222/9 5/9/10
f 5/9/10 37/222/9 38/221/11 6/11/12
f 6/11/12 38/221/11 39/220/13 7/13/14
f 7/13/14 39/220/13 40/227/15 8/15/16
f 8/226/16 40/219/15 41/218/17 9/17/18
f 9/17/18 41/218/17 42/217/19 10/19/20
f 10/19/20 42/217/19 43/216/21 11/21/22
f 11/21/22 43/216/21 44/215/23 12/23/24
f 12/23/24 44/215/23 45/214/25 13/25/26
f 13/25/26 45/214/25 46/213/27 14/27/28
f 14/27/28 46/213/27 47/212/29 15/29/30
f 15/29/30 47/212/29 48/211/31 16/31/32
f 16/31/32 48/211/31 49/210/33 17/33/34
f 17/33/34 49/210/33 50/209/35 18/35/36
f 18/35/36 50/209/35 51/208/37 19/37/38
f 19/37/38 51/208/37 52/207/39 20/39/40
f 20/39/40 52/207/39 53/206/41 21/41/42
f 21/41/42 53/206/41 54/205/43 22/43/44
f 22/43/44 54/205/43 55/204/45 23/45/46
f 23/45/46 55/204/45 56/203/47 24/47/48
f 24/47/48 56/203/47 57/202/49 25/49/50
f 25/49/50 57/202/49 58/201/51 26/51/52
f 26/51/52 58/201/51 59/200/53 27/53/54
f 27/53/54 59/200/53 60/199/55 28/55/56
f 28/55/56 60/199/55 61/198/57 29/57/58
f 29/57/58 61/198/57 62/197/59 30/59/60
f 30/59/60 62/197/59 63/196/61 31/61/62
f 31/61/62 63/196/61 64/194/63 32/63/64
f 32/63/64 64/194/63 33/195/2 1/1/1
f 162/65/65 65/68/66 66/67/67 163/66/68
f 163/66/68 66/67/67 67/70/69 164/69/70
f 164/69/70 67/70/69 68/72/71 165/71/72
f 165/71/72 68/72/71 69/74/73 166/73/74
f 166/73/74 69/74/73 70/76/75 167/75/76
f 167/75/76 70/76/75 71/78/77 168/77/78
f 168/77/78 71/78/77 72/80/79 169/79/80
f 169/79/80 72/80/79 73/82/81 170/81/82
f 170/81/82 73/82/81 74/84/83 171/83/84
f 171/83/84 74/84/83 75/86/85 172/85/86
f 172/85/86 75/86/85 76/88/87 173/87/88
f 173/87/88 76/88/87 77/90/89 174/89/90
f 174/89/90 77/90/89 78/92/91 175/91/92
f 175/91/92 78/92/91 79/94/93 176/93/94
f 176/93/94 79/94/93 80/96/95 177/95/96
f 177/95/96 80/96/95 81/98/97 178/97/98
f 178/97/98 81/98/97 82/100/99 179/99/100
f 179/99/100 82/100/99 83/102/101 180/101/102
f 180/101/102 83/102/101 84/104/103 181/103/104
f 181/103/104 84/104/103 85/106/105 182/105/106
f 182/105/106 85/106/105 86/108/107 183/107/108
f 183/107/108 86/108/107 87/110/109 184/109/110
f 184/109/110 87/110/109 88/112/111 185/111/112
f 185/111/112 88/112/111 89/114/113 186/113/114
f 186/113/114 89/114/113 90/116/115 187/115/116
f 187/115/116 90/116/115 91/118/117 188/117/118
f 188/117/118 91/118/117 92/120/119 189/119/120
f 189/119/120 92/120/119 93/122/121 190/121/122
f 190/121/122 93/122/121 94/124/123 191/123/124
f 191/123/124 94/124/123 95/126/125 192/125/126
f 192/125/126 95/126/125 96/128/127 193/127/128
f 193/127/128 96/128/127 65/68/66 162/65/65
f 65/68/66 97/130/129 98/129/130 66/67/67
f 66/67/67 98/129/130 99/131/131 67/70/69
f 67/70/69 99/131/131 100/132/132 68/72/71
f 68/72/71 100/132/132 101/133/133 69/74/73
f 69/74/73 101/133/133 102/134/134 70/76/75
f 70/76/75 102/134/134 103/135/135 71/78/77
f 71/78/77 103/135/135 104/136/136 72/80/79
f 72/80/79 104/136/136 105/137/137 73/82/81
f 73/82/81 105/137/137 106/138/138 74/84/83
f 74/84/83 106/138/138 107/139/139 75/86/85
f 75/86/85 107/139/139 108/140/140 76/88/87
f 76/88/87 108/140/140 109/141/141 77/90/89
f 77/90/89 109/141/141 110/142/142 78/92/91
f 78/92/91 110/142/142 111/143/143 79/94/93
f 79/94/93 111/143/143 112/144/144 80/96/95
f 80/96/95 112/144/144 113/145/145 81/98/97
f 81/98/97 113/145/145 114/146/146 82/100/99
f 82/100/99 114/146/146 115/147/147 83/102/101
f 83/102/101 115/147/147 116/148/148 84/104/103
f 84/104/103 116/148/148 117/149/149 85/106/105
f 85/106/105 117/149/149 118/150/150 86/108/107
f 86/108/107 118/150/150 119/151/151 87/110/109
f 87/110/109 119/151/151 120/152/152 88/112/111
f 88/112/111 120/152/152 121/153/153 89/114/113
f 89/114/113 121/153/153 122/154/154 90/116/115
f 90/116/115 122/154/154 123/155/155 91/118/117
f 91/118/117 123/155/155 124/156/156 92/120/119
f 92/120/119 124/156/156 125/157/157 93/122/121
f 93/122/121 125/157/157 126/158/158 94/124/123
f 94/124/123 126/158/158 127/159/159 95/126/125
f 95/126/125 127/159/159 128/160/160 96/128/127
f 96/128/127 128/160/160 97/130/129 65/68/66
f 97/130/129 129/162/161 130/161/162 98/129/130
f 98/129/130 130/161/162 131/163/163 99/131/131
f 99/131/131 131/163/163 132/164/164 100/132/132
f 100/132/132 132/164/164 133/165/165 101/133/133
f 101/133/133 133/165/165 134/166/166 102/134/134
f 102/134/134 134/166/166 135/167/167 103/135/135
f 103/135/135 135/167/167 136/168/168 104/136/136
f 104/136/136 136/168/168 137/169/169 105/137/137
f 105/137/137 137/169/169 138/170/170 106/138/138
f 106/138/138 138/170/170 139/171/171 107/139/139
f 107/139/139 139/171/171 140/172/172 108/140/140
f 108/140/140 140/172/172 141/173/173 109/141/141
f 109/141/141 141/173/173 142/174/174 110/142/142
f 110/142/142 142/174/174 143/175/175 111/143/143
f 111/143/143 143/175/175 144/176/176 112/144/144
f 112/144/144 144/176/176 145/177/177 113/145/145
f 113/145/145 145/177/177 146/178/178 114/146/146
f 114/146/146 146/178/178 147/179/179 115/147/147
f 115/147/147 147/179/179 148/180/180 116/148/148
f 116/148/148 148/180/180 149/181/181 117/149/149
f 117/149/149 149/181/181 150/182/182 118/150/150
f 118/150/150 150/182/182 151/183/183 119/151/151
f 119/151/151 151/183/183 152/184/184 120/152/152
f 120/152/152 152/184/184 153/185/185 121/153/153
f 121/153/153 153/185/185 154/186/186 122/154/154
f 122/154/154 154/186/186 155/187/187 123/155/155
f 123/155/155 155/187/187 156/188/188 124/156/156
f 124/156/156 156/188/188 157/189/189 125/157/157
f 125/157/157 157/189/189 158/190/190 126/158/158
f 126/158/158 158/190/190 159/191/191 127/159/159
f 127/159/159 159/191/191 160/192/192 128/160/160
f 128/160/160 160/192/192 129/162/161 97/130/129
f 129/162/161 161/193/193 130/161/162
f 130/161/162 161/193/193 131/163/163
f 131/163/163 161/193/193 132/164/164
f 132/164/164 161/193/193 133/165/165
f 133/165/165 161/193/193 134/166/166
f 134/166/166 161/193/193 135/167/167
f 135/167/167 161/193/193 136/168/168
f 136/168/168 161/193/193 137/169/169
f 137/169/169 161/193/193 138/170/170
f 138/170/170 161/193/193 139/171/171
f 139/171/171 161/193/193 140/172/172
f 140/172/172 161/193/193 141/173/173
f 141/173/173 161/193/193 142/174/174
f 142/174/174 161/193/193 143/175/175
f 143/175/175 161/193/193 144/176/176
f 144/176/176 161/193/193 145/177/177
f 145/177/177 161/193/193 146/178/178
f 146/178/178 161/193/193 147/179/179
f 147/179/179 161/193/193 148/180/180
f 148/180/180 161/193/193 149/181/181
f 149/181/181 161/193/193 150/182/182
f 150/182/182 161/193/193 151/183/183
f 151/183/183 161/193/193 152/184/184
f 152/184/184 161/193/193 153/185/185
f 153/185/185 161/193/193 154/186/186
f 154/186/186 161/193/193 155/187/187
f 155/187/187 161/193/193 156/188/188
f 156/188/188 161/193/193 157/189/189
f 157/189/189 161/193/193 158/190/190
f 158/190/190 161/193/193 159/191/191
f 159/191/191 161/193/193 160/192/192
f 160/192/192 161/193/193 129/162/161
f 33/4/2 162/65/65 163/66/68 34/3/3
f 34/3/3 163/66/68 164/69/70 35/6/5
f 35/6/5 164/69/70 165/71/72 36/8/7
f 36/8/7 165/71/72 166/73/74 37/10/9
f 37/10/9 166/73/74 167/75/76 38/12/11
f 38/12/11 167/75/76 168/77/78 39/14/13
f 39/14/13 168/77/78 169/79/80 40/16/15
f 40/16/15 169/79/80 170/81/82 41/18/17
f 41/18/17 170/81/82 171/83/84 42/20/19
f 42/20/19 171/83/84 172/85/86 43/22/21
f 43/22/21 172/85/86 173/87/88 44/24/23
f 44/24/23 173/87/88 174/89/90 45/26/25
f 45/26/25 174/89/90 175/91/92 46/28/27
f 46/28/27 175/91/92 176/93/94 47/30/29
f 47/30/29 176/93/94 177/95/96 48/32/31
f 48/32/31 177/95/96 178/97/98 49/34/33
f 49/34/33 178/97/98 179/99/100 50/36/35
f 50/36/35 179/99/100 180/101/102 51/38/37
f 51/38/37 180/101/102 181/103/104 52/40/39
f 52/40/39 181/103/104 182/105/106 53/42/41
f 53/42/41 182/105/106 183/107/108 54/44/43
f 54/44/43 183/107/108 184/109/110 55/46/45
f 55/46/45 184/109/110 185/111/112 56/48/47
f 56/48/47 185/111/112 186/113/114 57/50/49
f 57/50/49 186/113/114 187/115/116 58/52/51
f 58/52/51 187/115/116 188/117/118 59/54/53
f 59/54/53 188/117/118 189/119/120 60/56/55
f 60/56/55 189/119/120 190/121/122 61/58/57
f 61/58/57 190/121/122 191/123/124 62/60/59
f 62/60/59 191/123/124 192/125/126 63/62/61
f 63/62/61 192/125/126 193/127/128 64/64/63
f 64/64/63 193/127/128 162/65/65 33/4/2
