# This file uses centimeters as units for non-parametric coordinates.

mtllib L_Light.mtl
g default
v 0.000462 -0.012647 0.026104
v 0.000766 -0.012745 0.025911
v 0.001140 -0.012741 0.025917
v 0.001438 -0.012636 0.026121
v 0.001542 -0.012472 0.026440
v 0.001415 -0.012313 0.026750
v 0.001109 -0.012219 0.026934
v 0.000743 -0.012224 0.026924
v 0.000452 -0.012326 0.026728
v 0.000344 -0.012487 0.026415
v 0.000937 -0.011438 0.025890
v 0.000954 -0.012757 0.025888
v 0.001307 -0.012699 0.025997
v 0.001519 -0.012558 0.026272
v 0.001506 -0.012387 0.026604
v 0.001278 -0.012255 0.026863
v 0.000925 -0.012208 0.026955
v 0.000580 -0.012265 0.026846
v 0.000370 -0.012403 0.026579
v 0.000375 -0.012571 0.026251
v 0.000597 -0.012707 0.025986
v 0.000460 -0.011601 0.025566
v 0.000466 -0.011580 0.025560
v 0.000599 -0.011636 0.025444
v 0.000595 -0.011658 0.025448
v 0.000765 -0.011673 0.025370
v 0.000764 -0.011696 0.025373
v 0.000951 -0.011686 0.025347
v 0.000951 -0.011709 0.025350
v 0.001136 -0.011675 0.025377
v 0.001138 -0.011698 0.025381
v 0.001300 -0.011641 0.025461
v 0.001305 -0.011661 0.025463
v 0.001429 -0.011586 0.025585
v 0.001436 -0.011606 0.025589
v 0.001508 -0.011517 0.025740
v 0.001517 -0.011534 0.025745
v 0.001530 -0.011441 0.025907
v 0.001540 -0.011456 0.025917
v 0.001494 -0.011365 0.026073
v 0.001504 -0.011377 0.026083
v 0.001404 -0.011296 0.026220
v 0.001412 -0.011308 0.026232
v 0.001270 -0.011243 0.026333
v 0.001276 -0.011252 0.026346
v 0.001104 -0.011208 0.026401
v 0.001107 -0.011217 0.026417
v 0.000923 -0.011196 0.026421
v 0.000923 -0.011204 0.026438
v 0.000745 -0.011207 0.026390
v 0.000741 -0.011217 0.026405
v 0.000584 -0.011240 0.026310
v 0.000578 -0.011251 0.026323
v 0.000456 -0.011293 0.026190
v 0.000450 -0.011305 0.026203
v 0.000376 -0.011360 0.026041
v 0.000368 -0.011374 0.026050
v 0.000350 -0.011435 0.025875
v 0.000342 -0.011452 0.025883
v 0.000380 -0.011510 0.025709
v 0.000374 -0.011530 0.025717
vt 0.842345 0.975433
vt 0.838823 0.980022
vt 0.830570 0.972234
vt 0.831480 0.970280
vt 0.834097 0.983384
vt 0.829038 0.973802
vt 0.828586 0.985175
vt 0.827049 0.974865
vt 0.822807 0.985202
vt 0.824672 0.975290
vt 0.817327 0.983452
vt 0.822112 0.974879
vt 0.812699 0.980098
vt 0.819735 0.973556
vt 0.809395 0.975488
vt 0.817861 0.971463
vt 0.807754 0.970110
vt 0.816739 0.968823
vt 0.807942 0.964540
vt 0.816470 0.965938
vt 0.809935 0.959363
vt 0.817035 0.963085
vt 0.812947 0.954726
vt 0.818984 0.960945
vt 0.817299 0.951331
vt 0.821432 0.959455
vt 0.822518 0.949504
vt 0.824174 0.958776
vt 0.828072 0.949410
vt 0.826936 0.958985
vt 0.833414 0.951051
vt 0.829414 0.960042
vt 0.838027 0.954267
vt 0.831320 0.961796
vt 0.841475 0.958756
vt 0.832456 0.963972
vt 0.843440 0.964108
vt 0.832811 0.966200
vt 0.843737 0.969839
vt 0.832485 0.968368
vt 0.832459 0.966092
vt 0.832174 0.963825
vt 0.832128 0.968235
vt 0.831225 0.970141
vt 0.830265 0.972007
vt 0.828761 0.973550
vt 0.826781 0.974675
vt 0.824481 0.975079
vt 0.822080 0.974632
vt 0.819832 0.973342
vt 0.818036 0.971326
vt 0.816950 0.968776
vt 0.816685 0.965978
vt 0.817301 0.963223
vt 0.819144 0.961097
vt 0.821523 0.959653
vt 0.824181 0.959000
vt 0.826846 0.959199
vt 0.829225 0.960197
vt 0.831050 0.961828
vt 0.823662 0.966240
vn -0.293035 -0.436820 -0.850482
vn -0.293694 -0.436728 -0.850301
vn 0.015159 -0.456571 -0.889558
vn 0.016793 -0.456558 -0.889535
vn 0.324347 -0.431814 -0.841627
vn 0.326690 -0.431445 -0.840909
vn 0.605495 -0.363308 -0.708084
vn 0.608517 -0.362256 -0.706030
vn 0.822242 -0.259512 -0.506528
vn 0.824835 -0.257784 -0.503186
vn 0.959095 -0.128209 -0.252387
vn 0.960405 -0.126155 -0.248409
vn 0.999544 0.015484 0.025918
vn 0.999416 0.017319 0.029471
vn 0.940515 0.157606 0.300986
vn 0.939369 0.159055 0.303789
vn 0.788597 0.283520 0.545647
vn 0.787060 0.284416 0.547398
vn 0.559471 0.380853 0.736168
vn 0.558637 0.381108 0.736669
vn 0.279538 0.440330 0.853210
vn 0.279643 0.440317 0.853183
vn -0.030398 0.457654 0.888611
vn -0.028630 0.457682 0.888655
vn -0.338417 0.430326 0.836835
vn -0.335492 0.430808 0.837765
vn -0.608168 0.362484 0.706213
vn -0.605190 0.363533 0.708229
vn -0.821892 0.259287 0.507211
vn -0.819546 0.260836 0.510205
vn -0.957612 0.130231 0.256943
vn -0.956368 0.132108 0.260592
vn -0.999803 -0.010480 -0.016871
vn -0.999871 -0.008743 -0.013490
vn -0.946125 -0.149289 -0.287335
vn -0.947087 -0.148000 -0.284821
vn -0.801082 -0.274575 -0.531861
vn -0.802533 -0.273688 -0.530128
vn -0.577461 -0.373559 -0.725943
vn -0.578255 -0.373304 -0.725442
vn -0.763393 0.033222 -0.645079
vn -0.897082 0.163765 -0.410396
vn -0.894886 0.159688 -0.416748
vn -0.762478 0.032706 -0.646188
vn -0.549683 -0.059099 -0.833281
vn -0.546263 -0.060237 -0.835445
vn -0.280101 -0.130219 -0.951097
vn -0.277496 -0.130751 -0.951788
vn 0.017124 -0.160041 -0.986962
vn 0.019007 -0.160039 -0.986928
vn 0.312545 -0.105620 -0.944013
vn 0.313822 -0.105130 -0.943644
vn 0.567812 0.018674 -0.822947
vn 0.566772 0.018025 -0.823678
vn 0.755863 0.149194 -0.637505
vn 0.756437 0.149648 -0.636717
vn 0.866055 0.287477 -0.409031
vn 0.867253 0.290437 -0.404376
vn 0.876652 0.445065 -0.182754
vn 0.874214 0.454643 -0.170438
vn 0.799856 0.599075 0.036594
vn 0.800369 0.598450 0.035593
vn 0.660551 0.714504 0.230555
vn 0.662547 0.713322 0.228481
vn 0.463512 0.802348 0.376025
vn 0.465997 0.801507 0.374746
vn 0.228414 0.861438 0.453599
vn 0.229929 0.861169 0.453343
vn -0.017166 0.878334 0.477739
vn -0.012483 0.878493 0.477592
vn -0.265595 0.845606 0.463043
vn -0.266509 0.845394 0.462906
vn -0.504371 0.771504 0.387803
vn -0.508173 0.769974 0.385877
vn -0.716427 0.653695 0.243752
vn -0.705231 0.662045 0.253663
vn -0.860139 0.507162 0.054291
vn -0.860108 0.507208 0.054354
vn -0.926719 0.333712 -0.172710
vn -0.927033 0.331169 -0.175888
vn 0.016979 0.909206 -0.415999
vn 0.016433 0.909690 -0.414963
vn 0.015764 0.909506 -0.415391
vn 0.017267 0.909254 -0.415883
vn 0.015262 0.909563 -0.415285
vn 0.017237 0.909836 -0.414610
vn 0.017474 0.909552 -0.415222
vn 0.015861 0.909132 -0.416205
vn 0.016166 0.909360 -0.415696
vn 0.016204 0.909858 -0.414602
vn 0.016056 0.910424 -0.413364
vn 0.016664 0.910167 -0.413906
vn 0.017839 0.909622 -0.415053
vn 0.017530 0.909595 -0.415126
vn 0.015925 0.909705 -0.414950
vn 0.016002 0.909831 -0.414671
vn 0.016950 0.909957 -0.414357
vn 0.015886 0.909330 -0.415772
vn 0.015376 0.909464 -0.415499
vn 0.015912 0.910377 -0.413473
vn 0.016322 0.910046 -0.414186
s 1
g __CM__Light
usemtl __CM__BodySG
f 2/1/1 27/4/2 29/3/3 12/2/4
f 12/2/4 29/3/3 31/6/5 3/5/6
f 3/5/6 31/6/5 33/8/7 13/7/8
f 13/7/8 33/8/7 35/10/9 4/9/10
f 4/9/10 35/10/9 37/12/11 14/11/12
f 14/11/12 37/12/11 39/14/13 5/13/14
f 5/13/14 39/14/13 41/16/15 15/15/16
f 15/15/16 41/16/15 43/18/17 6/17/18
f 6/17/18 43/18/17 45/20/19 16/19/20
f 16/19/20 45/20/19 47/22/21 7/21/22
f 7/21/22 47/22/21 49/24/23 17/23/24
f 17/23/24 49/24/23 51/26/25 8/25/26
f 8/25/26 51/26/25 53/28/27 18/27/28
f 18/27/28 53/28/27 55/30/29 9/29/30
f 9/29/30 55/30/29 57/32/31 19/31/32
f 19/31/32 57/32/31 59/34/33 10/33/34
f 10/33/34 59/34/33 61/36/35 20/35/36
f 20/35/36 61/36/35 22/38/37 1/37/38
f 1/37/38 22/38/37 25/40/39 21/39/40
f 21/39/40 25/40/39 27/4/2 2/1/1
s 2
f 22/38/41 61/36/42 60/42/43 23/41/44
f 23/41/44 24/43/45 25/40/46 22/38/41
f 24/43/45 26/44/47 27/4/48 25/40/46
f 26/44/47 28/45/49 29/3/50 27/4/48
f 28/45/49 30/46/51 31/6/52 29/3/50
f 30/46/51 32/47/53 33/8/54 31/6/52
f 32/47/53 34/48/55 35/10/56 33/8/54
f 34/48/55 36/49/57 37/12/58 35/10/56
f 36/49/57 38/50/59 39/14/60 37/12/58
f 38/50/59 40/51/61 41/16/62 39/14/60
f 40/51/61 42/52/63 43/18/64 41/16/62
f 42/52/63 44/53/65 45/20/66 43/18/64
f 44/53/65 46/54/67 47/22/68 45/20/66
f 46/54/67 48/55/69 49/24/70 47/22/68
f 48/55/69 50/56/71 51/26/72 49/24/70
f 50/56/71 52/57/73 53/28/74 51/26/72
f 52/57/73 54/58/75 55/30/76 53/28/74
f 54/58/75 56/59/77 57/32/78 55/30/76
f 56/59/77 58/60/79 59/34/80 57/32/78
f 58/60/79 60/42/43 61/36/42 59/34/80
s 3
f 24/43/81 11/61/82 26/44/83
f 23/41/84 11/61/82 24/43/81
f 28/45/85 11/61/82 30/46/86
f 11/61/82 28/45/85 26/44/83
f 32/47/87 11/61/82 34/48/88
f 11/61/82 32/47/87 30/46/86
f 36/49/89 11/61/82 38/50/90
f 11/61/82 36/49/89 34/48/88
f 40/51/91 11/61/82 42/52/92
f 11/61/82 40/51/91 38/50/90
f 44/53/93 11/61/82 46/54/94
f 11/61/82 44/53/93 42/52/92
f 48/55/95 11/61/82 50/56/96
f 11/61/82 48/55/95 46/54/94
f 52/57/97 11/61/82 54/58/98
f 11/61/82 52/57/97 50/56/96
f 56/59/99 11/61/82 58/60/100
f 11/61/82 56/59/99 54/58/98
f 60/42/101 11/61/82 23/41/84
f 11/61/82 60/42/101 58/60/100
