# File units = meters
mtllib smallWalkway.mtl
g smallWalkway
v 1.25 1.43534 -0.275 
v 1.25 -0.5 -0.275 
v -1.25 -0.5 -0.275 
v -1.25 1.43534 -0.275 
v 1.25 -0.5 1 
v 1.25 1.43534 1 
v 1 1.43534 1 
v 1 -0.5 1 
v 1 1.43534 -0.025 
v 1 -0.5 -0.025 
v -1 1.43534 -0.025 
v -1 -0.5 -0.025 
v -1.25 -0.5 1 
v -1 -0.5 1 
v -1.25 1.43534 1 
v -1 1.43534 1 
vn 0 0 -1 
vn 1 3.44195e-16 0 
vn 0 0 1 
vn -1 0 0 
vn 0 -1 0 
vn 0 1 0 
vn 1 -3.33067e-16 0 
vn -1 -1.14732e-16 0 
vn 0 0 1 
usemtl 0.615686_0.811765_0.929412_0.000000_0.000000
o mesh0
f 1//1 2//1 3//1 
f 3//1 4//1 1//1 
o mesh1
f 5//2 2//2 1//2 
f 1//2 6//2 5//2 
o mesh2
f 6//3 7//3 8//3 
f 8//3 5//3 6//3 
o mesh3
f 7//4 9//4 10//4 
f 10//4 8//4 7//4 
o mesh4
f 9//3 11//3 12//3 
f 12//3 10//3 9//3 
o mesh5
f 3//5 2//5 10//5 
f 5//5 8//5 10//5 
f 13//5 3//5 12//5 
f 10//5 2//5 5//5 
f 10//5 12//5 3//5 
f 12//5 14//5 13//5 
o mesh6
f 1//6 4//6 11//6 
f 15//6 16//6 11//6 
f 6//6 1//6 9//6 
f 11//6 4//6 15//6 
f 11//6 9//6 1//6 
f 9//6 7//6 6//6 
o mesh7
f 16//7 14//7 12//7 
f 12//7 11//7 16//7 
o mesh8
f 15//8 4//8 3//8 
f 3//8 13//8 15//8 
o mesh9
f 13//9 14//9 16//9 
f 16//9 15//9 13//9 
