mtllib Table.mtl
g Part 1
usemtl 0.615686_0.811765_0.929412_0.000000_0.000000
o mesh0
v -1.11022e-16 0.75 0.05 
v -1.11022e-16 0.75 0 
v 0 0 0 
v 0 0 0.05 
vn -1 0 0 
vn -1 0 0 
vn -1 0 0 
vn -1 0 0 
f 1//1 2//2 3//3 
f 3//3 4//4 1//1 
o mesh1
v 0 0 0.05 
v 0 0 0 
v 2 0 0 
v 2 0 0.05 
vn 0 -1 0 
vn 0 -1 0 
vn 0 -1 0 
vn 0 -1 0 
f 5//5 6//6 7//7 
f 7//7 8//8 5//5 
o mesh2
v 2 0 0.05 
v 2 0 0 
v 2 0.75 0 
v 2 0.75 0.05 
vn 1 0 0 
vn 1 0 0 
vn 1 0 0 
vn 1 0 0 
f 9//9 10//10 11//11 
f 11//11 12//12 9//9 
o mesh3
v 2 0.75 0.05 
v 2 0.75 0 
v -1.11022e-16 0.75 0 
v -1.11022e-16 0.75 0.05 
vn 0 1 0 
vn 0 1 0 
vn 0 1 0 
vn 0 1 0 
f 13//13 14//14 15//15 
f 15//15 16//16 13//13 
o mesh4
v 2 0.75 0.05 
v -1.11022e-16 0.75 0.05 
v 0 0 0.05 
v 2 0 0.05 
vn 0 0 1 
vn 0 0 1 
vn 0 0 1 
vn 0 0 1 
f 17//17 18//18 19//19 
f 19//19 20//20 17//17 
o mesh5
v 1.9 0.1 0 
v 0.1 0.1 0 
v 0.1 0.65 0 
v 0.1 0.05 0 
v 2 0.75 0 
v 1.95 0.7 0 
v 1.9 0.7 0 
v 1.95 0.1 0 
v 1.95 0.65 0 
v 0.05 0.1 0 
v 0.05 0.65 0 
v -1.11022e-16 0.75 0 
v 0.05 0.7 0 
v 2 0 0 
v 1.9 0.05 0 
v 1.9 0.65 0 
v 0 0 0 
v 0.1 0.7 0 
v 1.95 0.05 0 
v 0.05 0.05 0 
vn 0 0 -1 
vn 0 0 -1 
vn 0 0 -1 
vn 0 0 -1 
vn 0 0 -1 
vn 0 0 -1 
vn 0 0 -1 
vn 0 0 -1 
vn 0 0 -1 
vn 0 0 -1 
vn 0 0 -1 
vn 0 0 -1 
vn 0 0 -1 
vn 0 0 -1 
vn 0 0 -1 
vn 0 0 -1 
vn 0 0 -1 
vn 0 0 -1 
vn 0 0 -1 
vn 0 0 -1 
f 21//21 22//22 23//23 
f 24//24 22//22 21//21 
f 25//25 26//26 27//27 
f 25//25 28//28 29//29 
f 22//22 30//30 31//31 
f 32//32 33//33 31//31 
f 34//34 24//24 35//35 
f 21//21 35//35 24//24 
f 29//29 26//26 25//25 
f 36//36 29//29 28//28 
f 37//37 32//32 30//30 
f 31//31 30//30 32//32 
f 32//32 21//21 38//38 
f 23//23 38//38 21//21 
f 28//28 21//21 36//36 
f 32//32 27//27 36//36 
f 31//31 23//23 22//22 
f 35//35 39//39 34//34 
f 36//36 21//21 32//32 
f 34//34 39//39 28//28 
f 38//38 33//33 32//32 
f 37//37 40//40 24//24 
f 28//28 25//25 34//34 
f 24//24 34//34 37//37 
f 30//30 40//40 37//37 
f 27//27 32//32 25//25 
o mesh6
v 0.1 0.05 -0.85 
v 0.1 0.05 0 
v 0.05 0.05 0 
v 0.05 0.05 -0.85 
vn 0 -1 0 
vn 0 -1 0 
vn 0 -1 0 
vn 0 -1 0 
f 41//41 42//42 43//43 
f 43//43 44//44 41//41 
o mesh7
v 0.05 0.05 -0.85 
v 0.05 0.05 0 
v 0.05 0.1 0 
v 0.05 0.1 -0.85 
vn -1 1.38778e-16 0 
vn -1 1.38778e-16 0 
vn -1 1.38778e-16 0 
vn -1 1.38778e-16 0 
f 45//45 46//46 47//47 
f 47//47 48//48 45//45 
o mesh8
v 0.05 0.1 -0.85 
v 0.05 0.1 0 
v 0.1 0.1 0 
v 0.1 0.1 -0.85 
vn 0 1 0 
vn 0 1 0 
vn 0 1 0 
vn 0 1 0 
f 49//49 50//50 51//51 
f 51//51 52//52 49//49 
o mesh9
v 0.1 0.1 -0.85 
v 0.1 0.1 0 
v 0.1 0.05 0 
v 0.1 0.05 -0.85 
vn 1 0 0 
vn 1 0 0 
vn 1 0 0 
vn 1 0 0 
f 53//53 54//54 55//55 
f 55//55 56//56 53//53 
o mesh10
v 0.1 0.1 -0.85 
v 0.1 0.05 -0.85 
v 0.05 0.05 -0.85 
v 0.05 0.1 -0.85 
vn 0 0 -1 
vn 0 0 -1 
vn 0 0 -1 
vn 0 0 -1 
f 57//57 58//58 59//59 
f 59//59 60//60 57//57 
o mesh11
v 0.05 0.65 -0.85 
v 0.05 0.65 0 
v 0.05 0.7 0 
v 0.05 0.7 -0.85 
vn -1 0 0 
vn -1 0 0 
vn -1 0 0 
vn -1 0 0 
f 61//61 62//62 63//63 
f 63//63 64//64 61//61 
o mesh12
v 0.05 0.7 -0.85 
v 0.05 0.7 0 
v 0.1 0.7 0 
v 0.1 0.7 -0.85 
vn 0 1 0 
vn 0 1 0 
vn 0 1 0 
vn 0 1 0 
f 65//65 66//66 67//67 
f 67//67 68//68 65//65 
o mesh13
v 0.1 0.7 -0.85 
v 0.1 0.7 0 
v 0.1 0.65 0 
v 0.1 0.65 -0.85 
vn 1 0 0 
vn 1 0 0 
vn 1 0 0 
vn 1 0 0 
f 69//69 70//70 71//71 
f 71//71 72//72 69//69 
o mesh14
v 0.1 0.65 -0.85 
v 0.1 0.65 0 
v 0.05 0.65 0 
v 0.05 0.65 -0.85 
vn 0 -1 0 
vn 0 -1 0 
vn 0 -1 0 
vn 0 -1 0 
f 73//73 74//74 75//75 
f 75//75 76//76 73//73 
o mesh15
v 0.1 0.65 -0.85 
v 0.05 0.65 -0.85 
v 0.05 0.7 -0.85 
v 0.1 0.7 -0.85 
vn 0 0 -1 
vn 0 0 -1 
vn 0 0 -1 
vn 0 0 -1 
f 77//77 78//78 79//79 
f 79//79 80//80 77//77 
o mesh16
v 1.9 0.7 -0.85 
v 1.9 0.7 0 
v 1.95 0.7 0 
v 1.95 0.7 -0.85 
vn 0 1 0 
vn 0 1 0 
vn 0 1 0 
vn 0 1 0 
f 81//81 82//82 83//83 
f 83//83 84//84 81//81 
o mesh17
v 1.95 0.7 -0.85 
v 1.95 0.7 0 
v 1.95 0.65 0 
v 1.95 0.65 -0.85 
vn 1 0 0 
vn 1 0 0 
vn 1 0 0 
vn 1 0 0 
f 85//85 86//86 87//87 
f 87//87 88//88 85//85 
o mesh18
v 1.95 0.65 -0.85 
v 1.95 0.65 0 
v 1.9 0.65 0 
v 1.9 0.65 -0.85 
vn 0 -1 0 
vn 0 -1 0 
vn 0 -1 0 
vn 0 -1 0 
f 89//89 90//90 91//91 
f 91//91 92//92 89//89 
o mesh19
v 1.9 0.65 -0.85 
v 1.9 0.65 0 
v 1.9 0.7 0 
v 1.9 0.7 -0.85 
vn -1 0 0 
vn -1 0 0 
vn -1 0 0 
vn -1 0 0 
f 93//93 94//94 95//95 
f 95//95 96//96 93//93 
o mesh20
v 1.9 0.65 -0.85 
v 1.9 0.7 -0.85 
v 1.95 0.7 -0.85 
v 1.95 0.65 -0.85 
vn 0 0 -1 
vn 0 0 -1 
vn 0 0 -1 
vn 0 0 -1 
f 97//97 98//98 99//99 
f 99//99 100//100 97//97 
o mesh21
v 1.95 0.1 -0.85 
v 1.95 0.1 0 
v 1.95 0.05 0 
v 1.95 0.05 -0.85 
vn 1 0 0 
vn 1 0 0 
vn 1 0 0 
vn 1 0 0 
f 101//101 102//102 103//103 
f 103//103 104//104 101//101 
o mesh22
v 1.95 0.05 -0.85 
v 1.95 0.05 0 
v 1.9 0.05 0 
v 1.9 0.05 -0.85 
vn 0 -1 0 
vn 0 -1 0 
vn 0 -1 0 
vn 0 -1 0 
f 105//105 106//106 107//107 
f 107//107 108//108 105//105 
o mesh23
v 1.9 0.05 -0.85 
v 1.9 0.05 0 
v 1.9 0.1 0 
v 1.9 0.1 -0.85 
vn -1 0 0 
vn -1 0 0 
vn -1 0 0 
vn -1 0 0 
f 109//109 110//110 111//111 
f 111//111 112//112 109//109 
o mesh24
v 1.9 0.1 -0.85 
v 1.9 0.1 0 
v 1.95 0.1 0 
v 1.95 0.1 -0.85 
vn 0 1 0 
vn 0 1 0 
vn 0 1 0 
vn 0 1 0 
f 113//113 114//114 115//115 
f 115//115 116//116 113//113 
o mesh25
v 1.9 0.1 -0.85 
v 1.95 0.1 -0.85 
v 1.95 0.05 -0.85 
v 1.9 0.05 -0.85 
vn 0 0 -1 
vn 0 0 -1 
vn 0 0 -1 
vn 0 0 -1 
f 117//117 118//118 119//119 
f 119//119 120//120 117//117 
